<svg width="690" height="690" viewBox="0 0 690 690" fill="none" xmlns="http://www.w3.org/2000/svg">
<path d="M46.8614 371.29C33.158 365.691 26.5878 350.044 32.1864 336.34C37.785 322.637 53.4324 316.067 67.1358 321.665C80.8392 327.264 87.4094 342.911 81.8108 356.615C76.2122 370.318 60.5648 376.888 46.8614 371.29Z" fill="#EBD6E6"/>
<path d="M625.916 208.119C617.099 204.4 612.967 194.237 616.686 185.42C620.406 176.604 630.568 172.471 639.385 176.191C648.202 179.91 652.334 190.073 648.614 198.889C644.895 207.706 634.733 211.838 625.916 208.119Z" fill="#EBD6E6"/>
<path d="M104.647 189.466C75.2097 185.809 54.3109 158.98 57.9683 129.543C61.6257 100.105 88.4545 79.2062 117.892 82.8636C147.33 86.521 168.229 113.35 164.571 142.787C160.914 172.225 134.085 193.124 104.647 189.466Z" fill="#EBD6E6"/>
<path d="M599.541 615.582H110.066C88.0191 600.866 56.6558 583.939 44.9134 549.637C17.1064 468.415 82.5847 439.508 118.242 399.252C153.899 358.996 80.1131 342.324 89.9815 255.645C95.0571 211.059 154.644 170.31 215.589 191.74C276.534 213.17 285.377 187.666 313.626 135.687C346.463 75.2624 486.741 42.4874 568.06 151.081C649.38 259.676 570.935 341.957 580.133 380.793C589.329 419.629 654.854 439.649 659.531 514.391C662.241 557.698 646.235 596.464 599.541 615.582Z" fill="#EBD6E6"/>
<path d="M184.474 614.364H86.7165L86.7165 381.852H184.474L184.474 614.364Z" stroke="#D4A5CF" stroke-miterlimit="10"/>
<path d="M464.816 614.364H367.059L367.059 295.863H464.816L464.816 614.364Z" stroke="#D4A5CF" stroke-miterlimit="10"/>
<path d="M604.987 614.364H507.229V385.636H604.987V614.364Z" stroke="#D4A5CF" stroke-miterlimit="10"/>
<path d="M324.646 614.365H226.888L226.888 450.47H324.646V614.365Z" stroke="#D4A5CF" stroke-miterlimit="10"/>
<path fill-rule="evenodd" clip-rule="evenodd" d="M100.483 273.987L100.474 269.659L93.4839 268.091L91.6278 272.001C90.0464 272.063 88.5008 272.336 87.0255 272.803L83.9564 269.747L77.9051 273.581L79.3569 277.66C78.3067 278.795 77.3973 280.075 76.6672 281.479L72.3396 281.488L70.7719 288.479L74.6814 290.335C74.7435 291.917 75.0181 293.463 75.4832 294.936L72.4279 298.005L76.2615 304.057L80.3422 302.605C81.4765 303.655 82.7558 304.565 84.1606 305.295L84.1703 309.624L91.1614 311.191L93.0175 307.282C94.599 307.221 96.1446 306.946 97.6198 306.481L100.689 309.537L106.74 305.703L105.288 301.624C106.339 300.489 107.248 299.21 107.978 297.805L112.306 297.796L113.875 290.806L109.965 288.95C109.905 287.368 109.629 285.823 109.163 284.349L112.219 281.281L108.385 275.23L104.306 276.682C103.166 275.626 101.885 274.718 100.483 273.987ZM100.137 291.394C99.2082 295.535 95.0985 298.139 90.9558 297.211C86.8144 296.282 84.2103 292.171 85.1391 288.029C86.0678 283.888 90.1788 281.284 94.3202 282.213C98.4616 283.141 101.066 287.251 100.137 291.394Z" stroke="#D4A5CF" stroke-miterlimit="10"/>
<path fill-rule="evenodd" clip-rule="evenodd" d="M334.602 346.601L334.589 341.561L326.451 339.735L324.29 344.287C322.448 344.358 320.65 344.678 318.933 345.219L315.36 341.662L308.315 346.126L310.006 350.876C308.783 352.197 307.725 353.687 306.875 355.322L301.835 355.333L300.009 363.473L304.56 365.635C304.634 367.476 304.952 369.276 305.493 370.992L301.936 374.565L306.4 381.611L311.15 379.921C312.471 381.144 313.961 382.202 315.595 383.052L315.606 388.092L323.745 389.918L325.906 385.365C327.749 385.293 329.548 384.974 331.263 384.434L334.836 387.99L341.881 383.525L340.191 378.776C341.413 377.455 342.472 375.964 343.323 374.331L348.363 374.319L350.19 366.18L345.638 364.018C345.566 362.177 345.246 360.377 344.705 358.661L348.261 355.088L343.797 348.042L339.047 349.732C337.726 348.509 336.234 347.452 334.602 346.601ZM334.199 366.867C333.117 371.689 328.332 374.721 323.509 373.641C318.687 372.559 315.656 367.773 316.736 362.951C317.818 358.128 322.604 355.097 327.426 356.178C332.247 357.26 335.279 362.044 334.199 366.867Z" stroke="#D4A5CF" stroke-miterlimit="10"/>
<path fill-rule="evenodd" clip-rule="evenodd" d="M563.816 186.67L563.806 182.669L557.345 181.22L555.629 184.833C554.167 184.89 552.738 185.144 551.376 185.574L548.54 182.749L542.947 186.293L544.29 190.063C543.318 191.112 542.478 192.295 541.803 193.592L537.803 193.6L536.354 200.061L539.966 201.778C540.024 203.24 540.277 204.668 540.707 206.031L537.883 208.867L541.426 214.46L545.198 213.118C546.247 214.088 547.429 214.928 548.727 215.603L548.735 219.604L555.196 221.053L556.911 217.438C558.374 217.382 559.802 217.128 561.165 216.699L564 219.522L569.594 215.978L568.251 212.208C569.222 211.159 570.063 209.977 570.738 208.679L574.738 208.671L576.189 202.21L572.574 200.493C572.518 199.032 572.264 197.602 571.833 196.24L574.657 193.404L571.113 187.811L567.343 189.154C566.295 188.184 565.113 187.345 563.816 186.67ZM563.495 202.758C562.637 206.586 558.838 208.993 555.01 208.134C551.183 207.276 548.775 203.477 549.633 199.649C550.492 195.821 554.292 193.414 558.119 194.272C561.947 195.131 564.354 198.93 563.495 202.758Z" fill="#D4A5CF"/>
<path fill-rule="evenodd" clip-rule="evenodd" d="M596.414 238.457L596.702 230.162L583.418 226.661L579.583 234.02C576.547 234.026 573.567 234.443 570.707 235.229L565.044 229.156L553.176 236.074L555.669 243.995C553.576 246.094 551.742 248.484 550.243 251.121L541.948 250.832L538.447 264.117L545.807 267.953C545.813 270.989 546.229 273.969 547.015 276.828L540.941 282.492L547.859 294.362L555.781 291.869C557.882 293.962 560.269 295.795 562.906 297.295L562.616 305.591L575.903 309.092L579.738 301.73C582.774 301.725 585.755 301.309 588.614 300.523L594.278 306.595L606.146 299.678L603.653 291.757C605.747 289.658 607.581 287.269 609.08 284.632L617.375 284.922L620.877 271.636L613.516 267.8C613.511 264.765 613.094 261.783 612.307 258.925L618.379 253.262L611.461 241.392L603.54 243.886C601.44 241.79 599.05 239.957 596.414 238.457ZM594.514 271.791C592.439 279.661 584.378 284.36 576.506 282.286C568.636 280.212 563.937 272.15 566.011 264.278C568.085 256.407 576.149 251.709 584.019 253.783C591.89 255.858 596.588 263.919 594.514 271.791Z" stroke="#D4A5CF" stroke-miterlimit="10"/>
<path d="M39.8792 350.076C55.9368 348.221 70.7222 353.301 80.6402 366.383C85.6606 373.007 88.4331 380.398 91.5698 387.983C93.0533 391.568 94.8253 395.061 96.4468 398.585C101.103 408.708 105.798 418.812 110.415 428.952C112.953 434.525 114.961 439.954 118.848 444.811C123.397 450.495 129.393 454.916 136.152 457.614C165.803 469.444 201.738 451.147 218.789 426.53C227.74 413.608 240.25 404.148 255.791 400.483C270.454 397.025 286.205 398.981 299.559 405.96C312.208 412.57 321.828 423.421 327.601 436.399C332.039 446.378 336.449 456.367 340.872 466.352C345.19 476.097 349.001 486.26 355.914 494.537C365.442 505.944 379.12 513.285 393.841 515.189C408.169 517.04 423.043 513.813 435.175 505.927C446.634 498.478 454.78 487.205 459.144 474.332C466.124 453.74 472.999 433.112 479.925 412.501C482.765 404.05 485.299 395.362 489.323 387.381C496.193 373.755 507.621 362.294 523.204 359.897C539.58 357.377 555.972 364.368 569.467 373.06C578.733 379.028 587.23 386.175 595.1 393.874C600.884 399.532 605.763 405.287 613.903 407.406C623.974 410.03 634.354 406.607 643.255 401.921C644.432 401.301 645.48 403.087 644.3 403.708C629.838 411.324 612.352 413.903 599.756 401.543C584.542 386.611 568.563 371.662 547.94 364.661C532.837 359.534 516.266 360.296 503.889 371.231C494.232 379.764 489.119 391.641 485.1 403.598C477.79 425.345 470.482 447.091 463.172 468.838C460.139 477.864 456.879 486.556 450.943 494.189C442.215 505.408 429.605 513.197 415.742 516.25C402.171 519.237 387.741 517.758 375.131 511.889C361.589 505.586 351.116 494.352 345.025 480.792C341.005 471.847 337.079 462.859 333.106 453.893C328.916 444.437 325.254 434.149 319.204 425.689C299.827 398.585 259.915 392.896 233.628 413.293C230.283 415.889 227.227 418.851 224.497 422.084C221.98 425.065 220.084 428.124 217.687 431.199C212.644 437.666 206.649 443.344 199.972 448.098C187.525 456.959 172.434 462.746 157.073 463.164C143.382 463.536 129.554 459.192 119.921 449.154C112.437 441.357 109.043 430.883 104.605 421.235C99.825 410.843 95.0433 400.448 90.2629 390.056C87.4395 383.917 85.4606 377.583 81.856 371.789C77.5007 364.788 71.6068 358.71 64.054 355.209C56.493 351.704 48.0639 351.2 39.8875 352.144C38.5585 352.297 38.5696 350.226 39.8792 350.076Z" fill="#D4A5CF"/>
<path d="M260.795 400.149C260.795 404.37 264.218 407.791 268.439 407.791C272.66 407.791 276.081 404.369 276.081 400.149C276.081 395.929 272.659 392.506 268.439 392.506C264.219 392.506 260.795 395.928 260.795 400.149Z" fill="#D4A5CF"/>
<path d="M177.374 454.286C177.374 458.508 180.797 461.929 185.018 461.929C189.239 461.929 192.66 458.506 192.66 454.286C192.66 450.066 189.238 446.644 185.018 446.644C180.798 446.644 177.374 450.065 177.374 454.286Z" fill="#D4A5CF"/>
<path d="M103.641 434.292C103.641 438.513 107.063 441.935 111.283 441.935C115.503 441.935 118.926 438.513 118.926 434.292C118.926 430.07 115.503 426.649 111.283 426.649C107.063 426.649 103.641 430.07 103.641 434.292Z" fill="#D4A5CF"/>
<path d="M80.08 381.852C80.08 386.073 83.5024 389.495 87.7239 389.495C91.9453 389.495 95.3663 386.073 95.3663 381.852C95.3663 377.63 91.9439 374.209 87.7239 374.209C83.5038 374.209 80.08 377.63 80.08 381.852Z" fill="#D4A5CF"/>
<path d="M360.949 506.101C360.949 510.323 364.371 513.745 368.591 513.745C372.813 513.745 376.234 510.323 376.234 506.101C376.234 501.88 372.811 498.459 368.591 498.459C364.37 498.459 360.949 501.881 360.949 506.101Z" fill="#D4A5CF"/>
<path d="M317.136 434.292C317.136 438.513 320.559 441.935 324.779 441.935C329 441.935 332.423 438.513 332.423 434.292C332.423 430.07 329 426.649 324.779 426.649C320.557 426.649 317.136 430.07 317.136 434.292Z" fill="#D4A5CF"/>
<path d="M577.191 384.863C577.191 389.084 580.613 392.506 584.833 392.506C589.053 392.506 592.475 389.084 592.475 384.863C592.475 380.641 589.053 377.22 584.833 377.22C580.613 377.22 577.191 380.641 577.191 384.863Z" fill="#D4A5CF"/>
<path d="M537.675 521.825C534.47 507.231 538.955 493.844 547.693 491.926C556.431 490.007 566.112 500.282 569.317 514.875C572.522 529.469 568.037 542.856 559.3 544.775C550.562 546.694 540.88 536.418 537.675 521.825Z" fill="#D4A5CF"/>
<path d="M627.616 575.276C629.477 582.693 619.536 591.581 605.409 595.128C591.282 598.674 578.321 595.538 576.459 588.12C574.597 580.704 584.539 571.815 598.666 568.269C612.793 564.722 625.754 567.859 627.616 575.276Z" fill="#D4A5CF"/>
<path d="M651.112 517.597C654.698 525.813 646.306 537.406 632.367 543.492C618.428 549.578 604.219 547.85 600.633 539.634C597.046 531.417 605.438 519.823 619.377 513.738C633.316 507.654 647.524 509.38 651.112 517.597Z" fill="#D4A5CF"/>
<path d="M599.945 498.801C588.01 493.154 586.437 471.45 596.433 450.326C606.429 429.201 624.207 416.654 636.143 422.302C648.078 427.949 649.651 449.652 639.655 470.777C629.659 491.902 611.881 504.448 599.945 498.801Z" fill="#D4A5CF"/>
<path d="M546.272 615.683L633.184 421.132" stroke="white" stroke-miterlimit="10"/>
<path d="M548.148 491.64L565.766 572.046" stroke="white" stroke-miterlimit="10"/>
<path d="M556.234 593.383L627.311 576.534" stroke="white" stroke-miterlimit="10"/>
<path d="M575.873 549.422L651.233 517.982" stroke="white" stroke-miterlimit="10"/>
<path d="M603.326 487.968L634.202 480.407" stroke="white" stroke-miterlimit="10"/>
<path d="M612.002 467.774L643.774 459.994" stroke="white" stroke-miterlimit="10"/>
<path d="M622.014 446.296L646.098 440.398" stroke="white" stroke-miterlimit="10"/>
<path d="M119.38 364.909H453.605C462.655 364.909 469.992 357.572 469.992 348.522V120.072C469.992 111.021 462.655 103.685 453.605 103.685H119.378C110.328 103.685 102.991 111.022 102.991 120.072V348.52C102.991 357.572 110.328 364.909 119.38 364.909Z" fill="white" stroke="#010001" stroke-miterlimit="10"/>
<path d="M115.818 103.685H457.166C464.25 103.685 469.992 110.16 469.992 118.147V125.376H102.991V118.147C102.991 110.16 108.734 103.685 115.818 103.685Z" fill="#BFBCC0" stroke="#010001" stroke-miterlimit="10"/>
<path d="M456.191 119.088C453.689 119.088 451.66 117.048 451.66 114.53C451.66 112.013 453.689 109.972 456.191 109.972C458.693 109.972 460.721 112.013 460.721 114.53C460.721 117.048 458.693 119.088 456.191 119.088Z" stroke="#010001" stroke-miterlimit="10"/>
<path d="M439.102 119.088C436.6 119.088 434.572 117.048 434.572 114.53C434.572 112.013 436.6 109.972 439.102 109.972C441.604 109.972 443.633 112.013 443.633 114.53C443.633 117.048 441.604 119.088 439.102 119.088Z" stroke="#010001" stroke-miterlimit="10"/>
<path d="M422.014 119.088C419.512 119.088 417.483 117.048 417.483 114.53C417.483 112.013 419.512 109.972 422.014 109.972C424.516 109.972 426.544 112.013 426.544 114.53C426.544 117.048 424.516 119.088 422.014 119.088Z" stroke="#010001" stroke-miterlimit="10"/>
<path d="M440.381 147.795H265.947C264.114 147.795 262.629 146.31 262.629 144.478C262.629 142.645 264.115 141.16 265.947 141.16H440.381C442.214 141.16 443.699 142.645 443.699 144.478C443.699 146.309 442.214 147.795 440.381 147.795Z" fill="#958F99"/>
<path d="M435.565 157.221H312.156C311.288 157.221 310.584 156.517 310.584 155.65C310.584 154.782 311.288 154.078 312.156 154.078H435.567C436.435 154.078 437.137 154.782 437.137 155.65C437.137 156.518 436.433 157.221 435.565 157.221Z" fill="#BFBCC0"/>
<path d="M435.565 164.973H291.223C290.355 164.973 289.652 164.27 289.652 163.403C289.652 162.535 290.356 161.831 291.223 161.831H435.565C436.433 161.831 437.136 162.535 437.136 163.403C437.137 164.27 436.433 164.973 435.565 164.973Z" fill="#BFBCC0"/>
<path d="M435.565 172.725H354.735C353.867 172.725 353.163 172.021 353.163 171.154C353.163 170.286 353.867 169.583 354.735 169.583H435.565C436.433 169.583 437.136 170.286 437.136 171.154C437.137 172.023 436.433 172.725 435.565 172.725Z" fill="#BFBCC0"/>
<path d="M163.474 169.681C181.756 169.681 196.601 184.364 196.881 202.58L181.593 204.909C181.652 204.314 181.684 203.711 181.684 203.1C181.684 193.043 173.531 184.891 163.474 184.891C158.228 184.891 153.514 187.122 150.191 190.672L141.322 178.088C147.219 172.86 154.973 169.681 163.474 169.681Z" fill="#6348ED" stroke="#010001" stroke-miterlimit="10" stroke-linecap="round"/>
<path d="M163.473 236.521C145.016 236.521 130.054 221.559 130.054 203.101C130.054 195.142 132.842 187.835 137.488 182.095L147.638 194.131C146.134 196.781 145.264 199.838 145.264 203.101C145.264 213.159 153.417 221.312 163.473 221.312C171.395 221.312 178.115 216.246 180.62 209.185C184.964 208.82 191.674 208.249 196.558 207.799C194.275 224.029 180.336 236.521 163.473 236.521Z" fill="#F19101" stroke="#010001" stroke-miterlimit="10" stroke-linecap="round"/>
<path d="M130.069 288.108C130.062 287.832 130.048 287.559 130.048 287.281C130.048 271.148 141.482 257.685 156.689 254.551L159.934 269.42C151.57 271.066 145.259 278.434 145.259 287.28C145.259 287.36 145.27 287.436 145.271 287.516L130.069 288.108Z" fill="#F19101" stroke="#010001" stroke-miterlimit="10" stroke-linecap="round"/>
<path d="M130.591 293.258H146.281C148.757 300.375 155.507 305.491 163.467 305.491C173.524 305.491 181.676 297.338 181.676 287.28C181.676 277.448 173.877 269.456 164.13 269.104L161.236 253.943C161.975 253.895 162.716 253.862 163.465 253.862C181.923 253.862 196.885 268.824 196.885 287.281C196.885 305.739 181.923 320.701 163.465 320.701C147.051 320.701 133.41 308.862 130.591 293.258Z" fill="#6348ED" stroke="#010001" stroke-miterlimit="10" stroke-linecap="round"/>
<path d="M464.363 332.321H192.66" stroke="#010001" stroke-miterlimit="10" stroke-linecap="round"/>
<path d="M215.655 169.681H245.628V332.321H215.655V169.681Z" fill="#958F99" stroke="#010001" stroke-miterlimit="10" stroke-linecap="round"/>
<path d="M297.338 249.122H327.31V332.321H297.338V249.122Z" fill="#958F99" stroke="#010001" stroke-miterlimit="10" stroke-linecap="round"/>
<path d="M256.496 220.102H286.469V332.321H256.496V220.102Z" fill="#BFBCC0" stroke="#010001" stroke-miterlimit="10" stroke-linecap="round"/>
<path d="M379.02 198.937H408.992V332.322H379.02V198.937Z" fill="#958F99" stroke="#010001" stroke-miterlimit="10" stroke-linecap="round"/>
<path d="M419.861 298.037H449.833V332.321H419.861V298.037Z" fill="#BFBCC0" stroke="#010001" stroke-miterlimit="10" stroke-linecap="round"/>
<path d="M338.179 269.464H368.151V332.321H338.179V269.464Z" fill="#BFBCC0" stroke="#010001" stroke-miterlimit="10" stroke-linecap="round"/>
<path d="M443.633 247.637L413.056 189.619H375.935L350.514 254.317L325.848 206.732L312.323 226.273L261.394 173.354" stroke="#010001" stroke-miterlimit="10"/>
<path d="M322.085 206.732C322.085 208.811 323.77 210.496 325.848 210.496C327.927 210.496 329.612 208.811 329.612 206.732C329.612 204.654 327.927 202.969 325.848 202.969C323.77 202.969 322.085 204.654 322.085 206.732Z" fill="#010001"/>
<path d="M308.56 226.739C308.56 228.818 310.245 230.503 312.323 230.503C314.401 230.503 316.086 228.818 316.086 226.739C316.086 224.661 314.401 222.976 312.323 222.976C310.245 222.976 308.56 224.661 308.56 226.739Z" fill="#010001"/>
<path d="M347 254.317C347 256.396 348.685 258.081 350.763 258.081C352.841 258.081 354.526 256.396 354.526 254.317C354.526 252.239 352.841 250.554 350.763 250.554C348.685 250.554 347 252.238 347 254.317Z" fill="#010001"/>
<path d="M372.008 189.619C372.008 191.697 373.693 193.382 375.771 193.382C377.85 193.382 379.534 191.697 379.534 189.619C379.534 187.541 377.85 185.856 375.771 185.856C373.693 185.856 372.008 187.541 372.008 189.619Z" fill="#010001"/>
<path d="M408.992 189.11C408.992 191.188 410.677 192.873 412.755 192.873C414.834 192.873 416.518 191.188 416.518 189.11C416.518 187.031 414.834 185.346 412.755 185.346C410.677 185.346 408.992 187.03 408.992 189.11Z" fill="#010001"/>
<path d="M266.19 170.46L257.872 177.006L247.307 158.242L266.19 170.46Z" fill="#010001"/>
<path d="M356.245 207.458L375.712 196.988L363.764 178.355C363.764 178.355 360.448 170.001 358.952 167.518C357.456 165.037 355.32 163.36 354.31 163.792C353.3 164.224 352.476 165.007 352.588 167.449C352.699 169.89 352.941 170.891 352.941 170.891C352.941 170.891 345.889 160.827 344.049 159.249C342.21 157.672 340.394 157.205 339.693 157.539C338.992 157.873 340.457 161.17 340.457 161.17C340.457 161.17 337.721 158.341 336.487 158.232C335.252 158.123 334.325 159.542 334.515 160.524C334.515 160.524 332.012 158.71 331.562 160.301C331.112 161.893 332.402 165.531 332.402 165.531C332.402 165.531 329.572 162.916 328.651 165.461C327.732 168.007 337.725 179.92 339.168 181.756C340.612 183.591 352.571 200.771 352.571 200.771L356.245 207.458Z" fill="white"/>
<path d="M339.432 173.048C333.815 165.608 328.873 162.233 328.65 165.462C328.426 168.69 340.479 183.392 344.384 188.338C348.29 193.284 356.614 207.519 356.614 207.519L375.771 196.618L374.273 193.797C374.273 193.797 365.758 181.976 362.046 173.957C358.334 165.938 355.409 162.452 353.299 164.224C351.189 165.996 355.636 173.448 354.828 177.389C354.021 181.332 354.305 184.262 355.055 186.205" stroke="#010001" stroke-miterlimit="10" stroke-linecap="round"/>
<path d="M332.839 165.873C332.839 165.873 329.44 159.44 333.011 159.598C334.901 159.683 340.22 167.849 342.234 170.46" stroke="#010001" stroke-miterlimit="10" stroke-linecap="round"/>
<path d="M334.987 160.985C334.987 160.985 334.654 158.667 335.848 158.314C337.177 157.922 339.347 159.122 341.139 162.242C344.539 168.167 344.945 168.779 344.945 168.779" stroke="#010001" stroke-miterlimit="10" stroke-linecap="round"/>
<path d="M339.387 159.876C339.387 159.876 338.457 156.649 341.379 157.274C344.3 157.9 354.113 171.86 354.113 171.86" stroke="#010001" stroke-miterlimit="10" stroke-linecap="round"/>
<path d="M459.438 214.667C459.438 214.667 436.352 232.428 418.366 224.697C400.379 216.966 378.085 185.828 378.085 185.828L349.742 205.16C349.742 205.16 357.844 268.898 395.958 280.561C434.072 292.223 443.568 282.669 443.568 282.669L460.293 276.956L459.438 214.667Z" fill="#6348ED"/>
<path d="M378.085 185.829L349.742 205.162C349.742 205.162 350.292 209.482 351.776 216.075L384.193 193.768C380.427 189.097 378.085 185.829 378.085 185.829Z" fill="#6348ED" stroke="#010001" stroke-miterlimit="10" stroke-linecap="round"/>
<path d="M375.734 191.454C375.681 192.518 376.501 193.425 377.567 193.477C378.632 193.53 379.537 192.71 379.59 191.645C379.642 190.579 378.822 189.674 377.757 189.622C376.693 189.569 375.788 190.389 375.734 191.454Z" fill="#010001"/>
<path d="M378.085 185.829L349.742 205.162C349.742 205.162 357.844 268.9 395.958 280.562C434.072 292.225 443.568 282.671 443.568 282.671L460.293 276.958L459.438 214.666C459.438 214.666 446.695 224.469 432.769 226.339" stroke="#010001" stroke-miterlimit="10" stroke-linecap="round"/>
<path d="M515.764 278.266L517.118 278.949L516.192 278.483L516.373 276.898L518.08 261.941L496.103 214.95C496.103 214.95 522.157 221.44 532.984 241.126C543.81 260.812 560.446 300.531 543.245 322.545C532.409 336.412 511.211 337.189 494.054 324.126L515.764 278.266Z" fill="#6348ED"/>
<path d="M526.695 232.563C514.396 219.506 496.104 214.95 496.104 214.95" stroke="#010001" stroke-miterlimit="10" stroke-linecap="round"/>
<path d="M518.081 261.94L516.193 278.481L494.055 324.126C511.413 337.994 532.208 336.673 543.247 322.545C548.125 316.301 550.28 308.636 550.62 300.407" stroke="#010001" stroke-miterlimit="10" stroke-linecap="round"/>
<path d="M414.915 540.117L403.317 587.39L434.076 590.211L444.866 543.685L414.915 540.117Z" fill="white" stroke="#010001" stroke-miterlimit="10"/>
<path d="M397.029 578.071L445.596 580.983L439.696 615.59L356.898 615.183L388.442 597.392L397.029 578.071Z" fill="white" stroke="#010001" stroke-miterlimit="10"/>
<path d="M374.504 602.705L381.725 607.378" stroke="#010001" stroke-miterlimit="10" stroke-linecap="round"/>
<path d="M380.193 598.034L387.413 602.705" stroke="#010001" stroke-miterlimit="10" stroke-linecap="round"/>
<path d="M439.696 615.59L442.832 597.195C441.498 596.966 440.128 596.831 438.721 596.831C427.11 596.831 417.555 604.982 416.255 615.476L439.696 615.59Z" fill="#6348ED" stroke="#010001" stroke-miterlimit="10"/>
<path d="M500.883 541.046L500.417 589.718L531.003 585.421L530.856 537.662L500.883 541.046Z" fill="white" stroke="#010001" stroke-miterlimit="10"/>
<path d="M490.949 579.72L538.251 580.773L541.816 615.59L459.018 615.183L490.562 597.392L490.949 579.72Z" fill="white" stroke="#010001" stroke-miterlimit="10"/>
<path d="M476.624 602.705L483.845 607.378" stroke="#010001" stroke-miterlimit="10" stroke-linecap="round"/>
<path d="M482.313 598.034L489.533 602.705" stroke="#010001" stroke-miterlimit="10" stroke-linecap="round"/>
<path d="M541.816 615.59L539.969 597.555C539.969 597.555 520.697 596.831 518.375 615.476L541.816 615.59Z" fill="#6348ED" stroke="#010001" stroke-miterlimit="10"/>
<path d="M524.658 350.702C524.658 350.702 462.867 351.821 444.625 353.793C426.384 355.765 448.34 310.063 448.34 310.063H507.205L524.658 350.702Z" fill="white"/>
<path d="M485.627 380.478L454.618 568.404L389.686 563.175L434.391 338.92H494.055L485.627 380.478Z" fill="#F19101"/>
<path d="M485.378 381.852L454.618 568.404L389.686 563.175" stroke="#010001" stroke-miterlimit="10" stroke-linecap="round"/>
<path d="M465.947 374.223L476.06 375.099L482.063 455.844" stroke="#3A4A36" stroke-width="0.25" stroke-miterlimit="10"/>
<path d="M465.947 374.223L476.06 375.099L485.378 565.277L552.72 564.352L524.574 354.935L521.552 335.133L452.3 316.213L465.947 374.223Z" fill="#F19101"/>
<path d="M465.947 374.223L476.06 375.099L485.378 565.277L552.72 564.352" stroke="#010001" stroke-miterlimit="10" stroke-linecap="round"/>
<path d="M493.698 244.886C493.698 244.886 496.064 225.045 495.078 219.287C494.091 213.53 490.936 206.826 485.908 206.529C480.879 206.234 468.257 206.627 465.891 209.881C463.524 213.135 458.89 217.572 460.567 229.207C462.243 240.842 469.441 283.406 469.441 283.406L474.594 295.862H483.733L493.698 244.886Z" fill="white"/>
<path d="M477.807 211.02L478.554 324.731" stroke="#010001" stroke-miterlimit="10" stroke-linecap="round"/>
<path d="M480.506 233.202C480.506 234.156 481.279 234.927 482.231 234.927C483.185 234.927 483.956 234.154 483.956 233.202C483.956 232.25 483.183 231.477 482.231 231.477C481.279 231.477 480.506 232.248 480.506 233.202Z" fill="#010001"/>
<path d="M481.141 249.362C481.141 250.315 481.914 251.087 482.866 251.087C483.82 251.087 484.591 250.314 484.591 249.362C484.591 248.408 483.818 247.637 482.866 247.637C481.914 247.637 481.141 248.41 481.141 249.362Z" fill="#010001"/>
<path d="M480.506 265.522C480.506 266.475 481.279 267.247 482.231 267.247C483.185 267.247 483.956 266.474 483.956 265.522C483.956 264.568 483.183 263.797 482.231 263.797C481.279 263.797 480.506 264.569 480.506 265.522Z" fill="#010001"/>
<path d="M480.506 281.683C480.506 282.636 481.279 283.408 482.231 283.408C483.185 283.408 483.956 282.635 483.956 281.683C483.956 280.729 483.183 279.958 482.231 279.958C481.279 279.956 480.506 280.729 480.506 281.683Z" fill="#010001"/>
<path d="M483.731 304.385L480.742 305.032C480.742 305.032 488.41 257.555 489.377 251.788C490.346 246.019 492.98 212.012 488.113 210.084C483.246 208.156 470.223 209.191 470.223 209.191C470.223 209.191 465.202 210.945 464.61 222.862C464.018 234.778 478.685 306.29 478.685 306.29L473.957 305.315L445.598 238.772L453.191 232.363L448.12 230.624C448.12 230.624 449.725 221.795 454.239 217.186C458.753 212.577 466.824 206.088 471.267 204.755C475.711 203.423 486.453 202.156 494.649 209.575C502.844 216.994 508.771 222.329 509.432 230.624L504.053 232.363L511.646 238.772L495.701 276.776L483.731 304.385Z" fill="#6348ED"/>
<path d="M482.823 306.291C488.612 294.237 511.643 238.773 511.643 238.773L504.05 232.364L509.43 230.626C506.329 213.308 487.288 205.348 487.288 205.348H469.951C469.951 205.348 450.908 213.308 447.809 230.626L453.188 232.364L445.595 238.773C445.595 238.773 468.626 294.237 474.415 306.291" stroke="#010001" stroke-miterlimit="10" stroke-linecap="round"/>
<path d="M545.604 372.577C516.228 376.729 503.062 372.379 496.147 366.738C489.232 361.096 474.005 308.044 474.005 308.044L525.694 317.753C525.694 317.753 533.658 335.501 537.642 347.414C539.846 354.002 545.604 372.577 545.604 372.577Z" fill="#6348ED"/>
<path d="M474.005 308.044C474.005 308.044 489.232 361.096 496.147 366.738C503.062 372.379 516.228 376.729 545.604 372.577" stroke="#010001" stroke-miterlimit="10" stroke-linecap="round"/>
<path d="M422.607 347.414C426.457 335.501 437.534 304.977 437.534 304.977L437.566 304.979L442.649 291.18L434.405 265.043L442.293 261.234L480.508 282.432L483.639 306.601L484.592 306.635C484.592 306.635 469.393 361.098 462.71 366.739C456.026 372.381 443.304 376.73 414.915 372.578C414.915 372.578 420.478 354.002 422.607 347.414Z" fill="#6348ED"/>
<path d="M484.592 306.633C484.592 306.633 469.393 361.096 462.71 366.738C456.026 372.379 443.304 376.729 414.915 372.577L421.717 350.225L438.353 302.638L442.649 291.18L434.592 266.561" stroke="#010001" stroke-miterlimit="10" stroke-linecap="round"/>
<path d="M454.884 305.51L495.005 320.296C498.884 321.726 503.188 319.74 504.618 315.861L525.866 258.212C527.295 254.332 525.309 250.028 521.43 248.599L481.309 233.812C477.43 232.382 473.126 234.368 471.696 238.247L450.449 295.897C449.019 299.776 451.005 304.08 454.884 305.51Z" fill="#010001"/>
<path d="M489.73 243.389L508.807 250.42C510.937 251.206 513.299 250.115 514.083 247.986C514.868 245.857 513.778 243.494 511.649 242.71L492.57 235.679C490.441 234.894 488.078 235.984 487.295 238.113C486.511 240.243 487.601 242.605 489.73 243.389Z" fill="#BFBCC0"/>
<path d="M504.142 233.686C507.43 234.898 509.115 238.548 507.902 241.837C506.69 245.125 503.04 246.81 499.752 245.597C496.463 244.386 494.778 240.735 495.991 237.447C497.203 234.158 500.852 232.475 504.142 233.686ZM500.747 242.894C502.542 243.556 504.535 242.637 505.197 240.84C505.86 239.044 504.941 237.052 503.144 236.39C501.347 235.727 499.356 236.647 498.693 238.443C498.032 240.24 498.951 242.233 500.747 242.894Z" fill="#BFBCC0"/>
<path d="M486.345 297.676C486.345 297.676 455.118 267.07 453.282 258.213C451.74 250.786 464.846 267.421 464.846 267.421C464.846 267.421 454.38 256.481 456.169 253.778C457.957 251.074 468.424 264.634 468.424 264.634C468.424 264.634 457.147 251.316 459.258 249.585C461.37 247.855 471.986 262.045 471.986 262.045C471.986 262.045 460.372 248.622 462.801 246.543C465.228 244.463 475.98 258.997 475.98 258.997C475.98 258.997 470.381 249.171 472.814 248.443C475.246 247.713 485.339 268.527 499.347 280.911C507.369 288.002 486.345 297.676 486.345 297.676Z" fill="white"/>
<path d="M470.817 261.46C467.69 257.933 464.181 253.92 462.472 249.458C462.116 248.53 461.64 247.092 462.488 246.268C463.154 245.621 464.151 245.812 464.91 246.148C467.75 247.402 470.021 250.458 471.942 252.776C473.416 254.556 474.839 256.39 476.174 258.277C475.876 258.451 475.578 258.624 475.28 258.8C474.563 257.512 473.888 256.197 473.256 254.865C472.52 253.314 471.458 251.422 471.43 249.66C471.404 247.91 472.719 247.456 474.031 248.399C475.685 249.587 476.863 251.666 478.037 253.304C480.868 257.255 483.56 261.293 486.308 265.299C488.659 268.727 491.578 271.832 494.324 274.94C497.019 277.99 499.69 281.123 502.6 283.974C503.076 284.44 502.345 285.173 501.869 284.705C496.865 279.8 492.234 274.337 487.804 268.918C485.71 266.357 483.966 263.584 482.091 260.863C480.697 258.838 479.284 256.828 477.857 254.825C476.68 253.172 475.551 251.268 474.099 249.839C473.464 249.214 472.578 248.577 472.48 249.812C472.45 250.191 472.672 250.711 472.787 251.066C473.147 252.192 473.644 253.276 474.149 254.342C474.781 255.674 475.455 256.989 476.173 258.277C476.503 258.867 475.66 259.335 475.279 258.8C472.684 255.137 469.844 251.35 466.419 248.426C465.807 247.903 464.599 246.761 463.685 246.865C462.296 247.025 463.545 249.406 463.866 250.067C465.768 253.982 468.68 257.493 471.547 260.729C471.989 261.226 471.26 261.961 470.817 261.46Z" fill="#0F110E"/>
<path d="M467.478 264.263C465.284 261.734 463.158 259.131 461.167 256.438C460.082 254.972 458.846 253.414 458.21 251.683C457.757 250.452 458.001 248.735 459.58 248.613C460.565 248.537 461.54 249.093 462.303 249.654C463.777 250.739 464.947 252.181 466.004 253.661C466.392 254.204 465.495 254.722 465.11 254.184C464.204 252.915 463.197 251.669 461.97 250.695C461.381 250.226 460.62 249.688 459.839 249.642C458.687 249.574 459.003 251.003 459.352 251.738C460.099 253.313 461.19 254.747 462.227 256.138C463.438 257.763 464.708 259.345 466 260.908C466.728 261.79 467.463 262.666 468.212 263.53C468.644 264.031 467.915 264.767 467.478 264.263Z" fill="#0F110E"/>
<path d="M463.164 266.359C461.956 265.006 460.814 263.587 459.704 262.153C458.237 260.256 456.636 258.253 455.752 256C455.421 255.155 455.091 253.858 455.789 253.098C456.461 252.366 457.558 252.714 458.315 253.098C460.305 254.105 461.92 255.949 463.347 257.61C463.779 258.114 463.051 258.848 462.616 258.341C461.381 256.904 460.053 255.426 458.457 254.38C458.043 254.109 457.601 253.848 457.115 253.735C456.968 253.701 456.904 253.684 456.726 253.706C456.692 253.71 456.574 253.775 456.579 253.77C456.527 253.836 456.505 253.843 456.476 253.93C456.413 254.12 456.421 254.148 456.424 254.353C456.431 254.839 456.591 255.34 456.777 255.79C457.619 257.814 459.069 259.643 460.396 261.368C461.515 262.822 462.675 264.258 463.897 265.628C464.338 266.123 463.608 266.857 463.164 266.359Z" fill="#0F110E"/>
<path d="M458.804 260.963C457.976 259.917 454.589 255.249 453.544 256.597C452.923 257.398 453.538 258.884 453.846 259.68C454.979 262.624 456.944 265.302 458.803 267.815C460.855 270.589 463.223 273.045 465.564 275.576C469.226 279.54 472.908 283.486 476.634 287.389C479.786 290.69 482.914 294.506 486.609 297.228C487.14 297.619 486.624 298.517 486.086 298.123C482.638 295.584 479.718 292.105 476.771 289.03C472.577 284.657 468.447 280.223 464.335 275.772C461.449 272.645 458.734 269.634 456.314 266.104C454.791 263.885 453.091 261.409 452.459 258.743C452.241 257.821 452.117 256.658 452.796 255.886C453.126 255.512 453.625 255.264 454.13 255.288C455.266 255.341 456.369 256.668 457.088 257.413C457.952 258.308 458.767 259.256 459.539 260.231C459.946 260.748 459.217 261.485 458.804 260.963Z" fill="#0F110E"/>
<path d="M470.499 286.302L492.548 266.561L529.994 285.439L516.193 278.481L516.272 277.79L517.225 279.001L536.479 288.395L540.782 325.325C522.416 343.657 484.501 333.263 470.499 286.302Z" fill="#6348ED"/>
<path d="M543.247 322.545C526.046 344.558 485.162 335.478 470.499 286.302L492.548 266.561L529.994 285.439" stroke="#010001" stroke-miterlimit="10" stroke-linecap="round"/>
<path d="M502.647 271.653L475.824 300.259" stroke="#010001" stroke-miterlimit="10" stroke-linecap="round"/>
<path d="M492.243 272.916C492.243 274.05 493.164 274.971 494.298 274.971C495.432 274.971 496.353 274.05 496.353 272.916C496.353 271.781 495.432 270.861 494.298 270.861C493.162 270.861 492.243 271.78 492.243 272.916Z" fill="#010001"/>
<path d="M477.37 219.199C477.37 219.199 469.346 226.12 463.331 222.306C455.099 217.084 465.081 207.138 471.93 202.839C478.779 198.539 484.434 202.839 484.434 202.839C484.434 202.839 498.223 211.143 496.423 218.166C494.622 225.186 483.135 224.781 477.37 219.199Z" fill="white" stroke="#010001" stroke-miterlimit="10" stroke-linecap="round"/>
<path d="M468.488 144.802C468.488 144.802 490.453 138.421 502.862 163.751C512.388 183.196 509.5 196.798 507.644 202.069C507.129 203.532 505.833 204.519 504.357 204.56L452.89 206.017C451.239 206.064 449.775 204.923 449.324 203.245C446.429 192.469 438.529 154.349 468.488 144.802Z" fill="#010001"/>
<path d="M467.434 156.956L477.603 157.472C484.363 157.815 489.576 164.394 489.185 172.091L488.385 187.855C488.363 188.3 488.317 188.737 488.259 189.169C488.345 189.64 488.385 190.124 488.36 190.622L487.873 200.219L487.845 200.754L487.358 210.349C487.181 213.831 484.188 216.536 480.706 216.359L476.673 216.155C473.191 215.978 470.486 212.985 470.663 209.503L471.093 201.011L465.213 200.713C458.453 200.369 453.24 193.791 453.631 186.094L454.431 170.331C454.822 162.63 460.673 156.613 467.434 156.956Z" fill="white" stroke="#010001" stroke-width="0.94" stroke-miterlimit="10"/>
<path d="M474.518 176.51C474.454 177.776 473.376 178.75 472.11 178.687C470.845 178.622 469.871 177.544 469.934 176.278C469.999 175.013 471.077 174.039 472.342 174.102C473.609 174.166 474.583 175.245 474.518 176.51Z" fill="#010001"/>
<path d="M459.529 175.413C459.474 176.494 458.553 177.326 457.473 177.271C456.392 177.215 455.56 176.295 455.615 175.214C455.67 174.134 456.591 173.302 457.671 173.357C458.752 173.412 459.584 174.333 459.529 175.413Z" fill="#010001"/>
<path d="M461.242 184.903C461.242 184.903 462.223 188.319 464.647 188.672C467.071 189.027 469.117 186.424 469.356 184.325L461.242 184.903Z" fill="white"/>
<path d="M461.94 184.71C461.965 184.796 461.994 184.88 462.024 184.964C462.054 185.051 462.089 185.138 462.122 185.224C462.132 185.248 462.143 185.275 462.152 185.299C462.191 185.396 462.104 185.188 462.147 185.29C462.177 185.359 462.207 185.428 462.239 185.495C462.525 186.112 462.864 186.685 463.318 187.151C463.811 187.658 464.399 187.989 465.137 187.978C466.001 187.966 466.767 187.473 467.347 186.866C467.99 186.19 468.513 185.259 468.631 184.324C468.873 184.565 469.114 184.807 469.356 185.048C466.992 185.217 464.628 185.385 462.264 185.553C461.923 185.578 461.584 185.602 461.243 185.627C460.313 185.693 460.317 184.244 461.243 184.179C463.607 184.011 465.971 183.842 468.335 183.674C468.676 183.649 469.015 183.626 469.356 183.601C469.712 183.576 470.127 183.955 470.08 184.325C469.804 186.511 468.217 188.832 465.962 189.329C463.828 189.8 462.125 188.404 461.179 186.613C460.925 186.133 460.696 185.62 460.545 185.097C460.282 184.198 461.68 183.816 461.94 184.71Z" fill="#010001"/>
<path d="M482.059 185.344C481.899 188.49 479.219 190.912 476.072 190.752C472.926 190.592 470.504 187.912 470.664 184.765C470.824 181.619 473.504 179.197 476.651 179.357C479.797 179.517 482.217 182.197 482.059 185.344Z" fill="#ED80A5"/>
<path d="M455.356 179.944C455.009 179.926 454.671 179.955 454.344 180.014L454.045 185.923C453.999 186.806 453.99 187.662 454.126 188.502C454.362 188.555 454.667 188.603 454.916 188.616C457.31 188.737 459.351 186.895 459.472 184.499C459.595 182.105 457.751 180.065 455.356 179.944Z" fill="#ED80A5"/>
<path d="M452.565 170.102C452.565 170.102 460.942 167.533 465.882 159.562C465.882 159.562 470.384 171.419 485.185 178.086C504.553 186.811 494.864 163.069 489.5 156.934C484.137 150.799 456.755 143.168 452.565 170.102Z" fill="#010001"/>
<path d="M501.44 183.663C501.215 188.098 497.407 191.509 492.936 191.282C488.465 191.054 485.023 187.276 485.248 182.84C485.473 178.405 489.28 174.995 493.752 175.221C498.223 175.449 501.664 179.229 501.44 183.663Z" fill="white"/>
<path d="M488.019 184.091C488.009 183.395 488.15 182.661 488.372 182.005C488.858 180.57 489.821 179.414 491.252 178.858C492.332 178.437 493.516 178.474 494.64 178.649C495.103 178.721 495.401 179.325 495.264 179.748C495.101 180.251 494.662 180.449 494.166 180.371C494.134 180.366 493.874 180.334 494.097 180.36C494.047 180.355 493.997 180.349 493.948 180.344C493.827 180.331 493.707 180.322 493.587 180.315C493.354 180.302 493.121 180.302 492.889 180.316C492.797 180.322 492.704 180.331 492.612 180.34C492.401 180.359 492.819 180.301 492.614 180.34C492.577 180.347 492.539 180.352 492.501 180.359C492.314 180.394 492.127 180.441 491.945 180.501C491.864 180.527 491.785 180.562 491.704 180.59C491.59 180.628 491.911 180.486 491.756 180.569C491.727 180.584 491.697 180.596 491.668 180.612C491.512 180.688 491.361 180.776 491.219 180.874C491.194 180.89 491.17 180.911 491.145 180.926C491.004 181.016 491.285 180.808 491.2 180.882C491.15 180.926 491.096 180.966 491.047 181.01C490.928 181.117 490.816 181.23 490.713 181.35C490.695 181.372 490.677 181.394 490.658 181.415C490.587 181.496 490.613 181.55 490.692 181.366C490.67 181.419 490.616 181.47 490.583 181.518C490.502 181.636 490.427 181.757 490.36 181.883C490.296 181.999 490.239 182.117 490.184 182.236C490.096 182.426 490.255 182.047 490.193 182.218C490.169 182.283 490.143 182.346 490.119 182.411C490.042 182.631 489.977 182.856 489.926 183.083C489.904 183.184 489.883 183.286 489.865 183.388C489.857 183.435 489.85 183.482 489.842 183.53C489.808 183.741 489.863 183.348 489.852 183.452C489.828 183.664 489.803 183.878 489.806 184.093C489.812 184.56 489.391 185.007 488.913 184.986C488.422 184.961 488.025 184.592 488.019 184.091Z" fill="#010001"/>
<path d="M455.807 170.536C457.124 170.114 458.535 169.966 459.91 170.122C460.285 170.165 460.652 170.424 460.634 170.847C460.618 171.203 460.313 171.617 459.91 171.571C459.265 171.498 458.615 171.488 457.971 171.551C457.885 171.559 457.801 171.568 457.716 171.578C457.841 171.563 457.638 171.589 457.618 171.593C457.46 171.618 457.304 171.646 457.148 171.679C456.826 171.746 456.507 171.832 456.192 171.934C455.832 172.05 455.386 171.799 455.302 171.428C455.211 171.032 455.421 170.66 455.807 170.536Z" fill="#010001"/>
<path d="M471.017 170.375C471.81 170.625 472.584 170.947 473.317 171.338C473.656 171.519 473.987 171.715 474.309 171.927C474.637 172.144 474.939 172.403 475.272 172.61C475.592 172.812 475.748 173.266 475.531 173.601C475.324 173.923 474.884 174.076 474.541 173.861C474.229 173.665 473.944 173.422 473.638 173.218C473.318 173.004 472.988 172.805 472.649 172.623C471.925 172.232 471.408 172.017 470.631 171.771C470.271 171.657 470.002 171.262 470.125 170.88C470.243 170.518 470.631 170.252 471.017 170.375Z" fill="#010001"/>
<path d="M464.99 174.153C464.117 176.045 463.06 177.846 461.834 179.531C461.747 179.201 461.66 178.87 461.574 178.54C462.359 178.947 463.222 179.216 464.102 179.307C464.491 179.348 464.827 179.611 464.827 180.032C464.827 180.392 464.494 180.797 464.102 180.756C462.954 180.636 461.871 180.323 460.844 179.792C460.521 179.625 460.362 179.106 460.585 178.801C461.811 177.116 462.869 175.317 463.741 173.423C463.905 173.069 464.417 172.979 464.732 173.164C465.094 173.375 465.154 173.796 464.99 174.153Z" fill="#010001"/>
<path d="M491.356 145.934C485.948 139.739 486.586 130.332 492.781 124.924C498.977 119.515 508.383 120.153 513.792 126.349C519.2 132.544 518.562 141.951 512.367 147.359C506.171 152.768 496.764 152.129 491.356 145.934Z" fill="#010001"/>
<path d="M94.7522 521.278L50.8751 509.693" stroke="#010001" stroke-miterlimit="10"/>
<path d="M43.0187 527.443C49.3005 529.028 56.4144 522.302 58.9094 512.42C61.4044 502.538 58.334 493.241 52.0536 491.655C45.7718 490.07 38.6579 496.796 36.1629 506.678C33.6678 516.56 36.7383 525.857 43.0187 527.443Z" fill="#F19101"/>
<path d="M46.9503 511.87C47.7645 512.075 48.6877 511.203 49.012 509.921C49.335 508.639 48.9375 507.433 48.122 507.227C47.3078 507.022 46.3845 507.894 46.0616 509.176C45.7373 510.458 46.1348 511.664 46.9503 511.87Z" fill="#010001"/>
<path d="M111.574 560.346L72.9454 470.637" stroke="#010001" stroke-miterlimit="10"/>
<path d="M38.9132 473.207C44.6816 482.213 60.9091 482.117 75.1589 472.989C89.4088 463.862 96.284 449.164 90.5156 440.157C84.7472 431.151 68.5197 431.247 54.2698 440.375C40.02 449.502 33.1448 464.202 38.9132 473.207Z" fill="#F19101"/>
<path d="M60.0355 456.073C60.5723 456.911 62.082 456.903 63.4082 456.053C64.7344 455.203 65.3734 453.835 64.8365 452.997C64.2997 452.16 62.79 452.168 61.4638 453.018C60.139 453.867 59.4987 455.234 60.0355 456.073Z" fill="#010001"/>
<path d="M93.5584 477.153L86.014 500.394" stroke="#010001" stroke-miterlimit="10"/>
<path d="M113.097 558.037L127.359 432.996" stroke="#010001" stroke-miterlimit="10"/>
<path d="M101.536 428.203C100.082 437.359 110.446 446.616 124.686 448.879C138.926 451.143 151.65 445.554 153.105 436.397C154.561 427.241 144.196 417.984 129.956 415.721C115.716 413.459 102.992 419.047 101.536 428.203Z" fill="#F19101"/>
<path d="M123.974 431.769C123.785 432.958 125.13 434.16 126.979 434.454C128.828 434.748 130.48 434.022 130.669 432.833C130.858 431.643 129.512 430.441 127.664 430.147C125.815 429.853 124.163 430.579 123.974 431.769Z" fill="#010001"/>
<path d="M130.687 565.935L178.96 489.767" stroke="#010001" stroke-miterlimit="10"/>
<path d="M188.635 516.73L161.514 517.296" stroke="#010001" stroke-miterlimit="10"/>
<path d="M153.637 529.724L146.261 512.626" stroke="#010001" stroke-miterlimit="10"/>
<path d="M157.255 473.897C152.773 479.855 158.792 491.947 170.7 500.905C182.608 509.864 195.894 512.299 200.376 506.341C204.858 500.385 198.839 488.292 186.931 479.333C175.023 470.374 161.736 467.94 157.255 473.897Z" fill="#F19101"/>
<path d="M176.16 488.121C175.608 488.854 176.349 490.343 177.816 491.447C179.281 492.55 180.918 492.85 181.47 492.116C182.022 491.383 181.281 489.894 179.814 488.79C178.348 487.688 176.712 487.388 176.16 488.121Z" fill="#010001"/>
<path d="M74.3695 536.192H156.983V615.644H74.3695V536.192Z" fill="#6348ED"/>
<path d="M74.3695 614.974H84.6588V595.535H74.3695V594.155H84.6588V574.718H74.3695V573.338H84.6588V553.899H74.3695V552.519H84.6588V536.192H86.0388V552.519H105.478V536.192H106.858V552.519H126.296V536.192H127.676V552.519H147.115V536.192H148.495V552.519H156.983V553.899H148.495V573.338H156.983V574.718H148.495V594.155H156.983V595.535H148.495V614.974H156.983V615.643H74.3695V614.974ZM127.676 614.974H147.115V595.535H127.676V614.974ZM127.676 594.155H147.115V574.718H127.676V594.155ZM127.676 573.338H147.115V553.899H127.676V573.338ZM106.858 614.974H126.296V595.535H106.858V614.974ZM106.858 594.155H126.296V574.718H106.858V594.155ZM106.858 573.338H126.296V553.899H106.858V573.338ZM86.0388 614.974H105.478V595.535H86.0388V614.974ZM86.0388 594.155H105.478V574.718H86.0388V594.155ZM86.0388 573.338H105.478V553.899H86.0388V573.338Z" fill="white"/>
<path d="M620.923 615.643H47.5341" stroke="#010001" stroke-miterlimit="10"/>
</svg>
