<svg width="704" height="704" viewBox="0 0 704 704" fill="none" xmlns="http://www.w3.org/2000/svg">
<path d="M360.079 86.4588C223.194 82.4166 104.623 181.74 86.7085 312.065C67.1221 454.557 174.924 582.766 307.569 603.301C472.558 628.843 632.587 481.082 618.218 320.783C607.392 200.012 499.226 90.5676 360.079 86.4588Z" fill="#F4F7FA"/>
<path d="M449.322 121.06L115.9 106.53C110.836 106.309 106.721 110.517 106.721 115.928V561.671C106.721 567.082 110.836 571.154 115.9 570.764L449.322 545.156C453.538 544.832 456.948 540.581 456.948 535.66V130.304C456.948 125.382 453.538 121.244 449.322 121.06Z" fill="#BFC8D6"/>
<path d="M457.593 116.938L123.256 102.623C118.179 102.406 114.053 106.622 114.053 112.041V558.376C114.053 563.794 118.179 567.868 123.256 567.476L457.593 541.633C461.821 541.306 465.24 537.047 465.24 532.119V126.189C465.24 121.261 461.821 117.119 457.593 116.938Z" fill="#D8DEE8"/>
<path d="M289.664 125.414C289.664 129.407 292.565 132.756 296.138 132.893C299.704 133.03 302.59 129.915 302.59 125.935C302.59 121.955 299.704 118.608 296.138 118.457C292.565 118.306 289.664 121.42 289.664 125.414Z" fill="white"/>
<path opacity="0.74" d="M142.806 538.277L437.712 518.053C440.655 517.851 443.037 514.919 443.037 511.504V151.467C443.037 148.052 440.655 145.196 437.712 145.089L142.806 134.335C139.348 134.209 136.54 137.115 136.54 140.825V531.988C136.54 535.698 139.348 538.514 142.806 538.277Z" fill="white"/>
<path opacity="0.51" d="M347.233 288.54C358.478 285.371 361.839 290.762 370.803 286.472C381.467 281.368 389.331 268.097 390.642 254.944C392.501 236.287 380.724 222.168 372.537 212.354C353.435 189.455 329.558 183.188 322.464 181.437C312.723 179.033 269.744 170.091 233.987 202.788C208.247 226.327 201.843 257.106 200.054 266.328C197.444 279.789 189.247 322.06 210.488 337.59C222.83 346.614 242.29 344.451 254.427 335.836C263.257 329.569 261.44 325.438 270.069 319.321C287.025 307.301 298.673 321.204 318.006 311.722C333.127 304.306 331.744 292.905 347.233 288.54Z" fill="white"/>
<path d="M185.609 535.916L204.097 412.054C207.289 390.669 200.97 369.173 187.017 354.094C179.259 345.71 174.356 334.632 173.257 322.686C171.541 304.029 171.747 273.547 183.03 236.419C197.948 187.329 242.621 158.464 288.045 167.029C310.239 171.214 335.768 179.589 362.224 195.369C377.269 204.344 387.515 221.183 389.133 240.251C389.884 249.117 391.277 258.935 393.805 267.659C396.982 278.622 398.358 286.126 398.926 290.996C399.441 295.413 397.944 299.836 394.999 302.761L394.999 302.762C391.961 305.779 391.206 310.843 393.204 314.808L415.235 358.543V359.963C415.235 364.362 412.283 368.085 408.477 368.477L395.152 369.851L395.658 385.553C395.756 388.586 394.021 391.356 391.468 392.239L388.406 393.298L391.201 395.772C393.471 397.782 394.068 401.443 392.603 404.381L388.66 412.292C386.873 415.875 387.129 420.274 389.305 423.396C392.902 428.556 393.636 435.685 391.213 441.92L390.112 444.754C385.008 457.89 372.817 465.758 360.565 463.693C346.578 461.334 328.493 457.366 315.968 451.281C312.39 449.543 308.26 452.715 308.26 457.176V527.47L185.609 535.916Z" fill="url(#paint0_linear_2234_3162)"/>
<path d="M211.165 262.617L267.781 262.811C267.898 262.811 268.01 262.762 268.095 262.673L285.249 244.687L359.057 245.304C359.297 245.306 359.492 245.086 359.492 244.813C359.492 244.539 359.297 244.316 359.057 244.314L285.068 243.675C284.952 243.674 284.841 243.723 284.757 243.811L267.599 261.795L211.36 261.587L203 252.413C202.911 252.315 202.791 252.26 202.665 252.26L193.651 252.204C193.388 252.202 193.175 252.433 193.175 252.719C193.175 253.005 193.388 253.238 193.651 253.239L202.469 253.291L210.832 262.465C210.92 262.562 211.04 262.616 211.165 262.617Z" fill="white"/>
<path d="M210.694 257.462L267.324 257.734C267.441 257.734 267.553 257.685 267.638 257.596L284.796 239.632L359.057 240.355C359.297 240.357 359.492 240.137 359.492 239.864C359.492 239.59 359.297 239.367 359.057 239.365L284.615 238.62C284.499 238.619 284.388 238.667 284.304 238.755L267.141 256.718L210.889 256.433L202.526 247.246C202.438 247.148 202.317 247.093 202.192 247.092L196.502 247.049C196.239 247.047 196.027 247.277 196.027 247.563C196.027 247.849 196.239 248.082 196.502 248.084L201.995 248.123L210.36 257.31C210.449 257.407 210.569 257.462 210.694 257.462Z" fill="white"/>
<path d="M210.222 252.306L266.866 252.655C266.983 252.656 267.096 252.607 267.181 252.518L284.343 234.575L356.12 235.372C356.36 235.375 356.555 235.156 356.555 234.882C356.555 234.608 356.36 234.384 356.12 234.382L284.162 233.563C284.046 233.562 283.935 233.61 283.851 233.698L266.684 251.639L210.417 251.277L202.052 242.077C201.964 241.98 201.844 241.924 201.718 241.923L198.4 241.893C198.138 241.891 197.926 242.12 197.926 242.406C197.926 242.692 198.138 242.925 198.4 242.927L201.522 242.954L209.889 252.153C209.978 252.25 210.097 252.305 210.222 252.306Z" fill="white"/>
<path d="M209.751 247.149L266.409 247.576C266.526 247.576 266.639 247.528 266.723 247.439L283.89 229.517L356.12 230.418C356.36 230.421 356.555 230.202 356.555 229.928C356.555 229.654 356.36 229.431 356.12 229.428L283.709 228.504C283.593 228.503 283.482 228.551 283.398 228.639L266.226 246.559L209.946 246.119L201.579 236.907C201.394 236.703 201.094 236.7 200.909 236.9C200.724 237.1 200.724 237.427 200.909 237.631L209.417 246.995C209.506 247.093 209.626 247.148 209.751 247.149Z" fill="white"/>
<path d="M212.107 340.919C212.228 340.917 212.348 340.865 212.44 340.763L227.447 324.085C227.534 323.988 227.584 323.857 227.584 323.72V266.264C227.584 265.981 227.375 265.751 227.117 265.75C226.859 265.749 226.65 265.978 226.65 266.262V323.52L211.774 340.046C211.591 340.25 211.591 340.576 211.774 340.774C211.866 340.873 211.987 340.921 212.107 340.919Z" fill="white"/>
<path d="M205.975 338.962C206.096 338.96 206.217 338.908 206.309 338.805L222.77 320.55C222.858 320.453 222.907 320.322 222.907 320.185V266.252C222.907 265.969 222.698 265.738 222.439 265.738C222.18 265.737 221.971 265.966 221.971 266.25V319.984L205.641 338.087C205.456 338.292 205.456 338.618 205.641 338.817C205.733 338.916 205.854 338.964 205.975 338.962Z" fill="white"/>
<path d="M201.245 335.426C201.366 335.424 201.487 335.372 201.579 335.269L218.082 317.007C218.17 316.909 218.219 316.778 218.219 316.641V266.241C218.219 265.957 218.009 265.726 217.75 265.726C217.49 265.725 217.28 265.955 217.28 266.239V316.439L200.91 334.549C200.724 334.754 200.724 335.081 200.91 335.28C201.002 335.379 201.123 335.428 201.245 335.426Z" fill="white"/>
<path d="M196.502 331.88C196.624 331.879 196.745 331.826 196.838 331.724L213.382 313.454C213.47 313.356 213.52 313.225 213.52 313.088V266.23C213.52 265.945 213.309 265.714 213.049 265.714C212.789 265.713 212.578 265.943 212.578 266.227V312.885L196.166 331.003C195.981 331.207 195.981 331.535 196.166 331.734C196.259 331.834 196.38 331.882 196.502 331.88Z" fill="white"/>
<path d="M193.175 326.753C193.297 326.751 193.418 326.699 193.511 326.597L208.67 309.892C208.758 309.795 208.808 309.663 208.808 309.526V266.218C208.808 265.933 208.597 265.702 208.336 265.701C208.075 265.7 207.864 265.931 207.864 266.216V309.321L192.839 325.874C192.653 326.078 192.653 326.406 192.839 326.606C192.932 326.706 193.053 326.755 193.175 326.753Z" fill="white"/>
<path d="M316.494 303.042C316.608 303.041 316.722 302.992 316.809 302.893C316.983 302.696 316.983 302.379 316.809 302.185L300.268 283.694C300.184 283.599 300.07 283.547 299.951 283.547L231.782 283.697C231.525 283.698 231.316 283.927 231.316 284.211C231.316 284.494 231.525 284.723 231.782 284.722L299.765 284.554L316.18 302.898C316.266 302.995 316.38 303.043 316.494 303.042Z" fill="white"/>
<path d="M318.718 298.521C318.832 298.52 318.946 298.47 319.033 298.372C319.206 298.176 319.206 297.859 319.033 297.664L302.512 279.164C302.428 279.07 302.314 279.017 302.195 279.017L234.111 279.083C233.854 279.083 233.646 279.312 233.646 279.595C233.646 279.879 233.854 280.107 234.111 280.107L302.009 280.023L318.404 298.376C318.491 298.473 318.605 298.521 318.718 298.521Z" fill="white"/>
<path d="M320.94 294.005C321.054 294.004 321.167 293.955 321.254 293.857C321.427 293.661 321.427 293.344 321.254 293.15L304.753 274.64C304.67 274.546 304.556 274.493 304.437 274.493L236.437 274.475C236.18 274.475 235.972 274.703 235.972 274.987C235.972 275.269 236.18 275.498 236.437 275.498L304.251 275.498L320.626 293.86C320.713 293.957 320.826 294.005 320.94 294.005Z" fill="white"/>
<path d="M323.159 289.495C323.272 289.494 323.386 289.445 323.472 289.347C323.646 289.151 323.646 288.835 323.472 288.64L306.992 270.122C306.908 270.027 306.794 269.974 306.676 269.974L238.76 269.872C238.503 269.872 238.295 270.1 238.295 270.383C238.295 270.666 238.503 270.895 238.76 270.895L306.49 270.978L322.845 289.35C322.932 289.447 323.045 289.495 323.159 289.495Z" fill="white"/>
<path d="M358.785 285.892C358.896 285.892 359.008 285.844 359.092 285.747L372.898 269.991C372.979 269.898 373.025 269.773 373.025 269.642V235.437C373.025 235.306 372.979 235.18 372.898 235.086L353.505 212.706V208.078C353.505 207.804 353.31 207.578 353.068 207.574C352.827 207.569 352.632 207.788 352.632 208.062V212.896C352.632 213.028 352.678 213.154 352.76 213.249L372.162 235.631V269.437L358.477 285.048C358.308 285.242 358.308 285.555 358.477 285.748C358.562 285.845 358.674 285.893 358.785 285.892Z" fill="white"/>
<path d="M354.431 284.914C354.543 284.914 354.654 284.865 354.739 284.768L368.578 268.997C368.66 268.904 368.705 268.779 368.705 268.648V234.401C368.705 234.27 368.66 234.144 368.578 234.051L349.138 211.637V205.018C349.138 204.744 348.942 204.518 348.701 204.513C348.459 204.509 348.263 204.727 348.263 205.001V211.827C348.263 211.959 348.309 212.086 348.392 212.181L367.84 234.596V268.442L354.123 284.068C353.953 284.263 353.953 284.576 354.123 284.769C354.208 284.866 354.32 284.914 354.431 284.914Z" fill="white"/>
<path d="M350.067 283.933C350.179 283.932 350.291 283.884 350.376 283.787L364.248 268C364.33 267.908 364.375 267.782 364.375 267.651V233.363C364.375 233.232 364.33 233.106 364.248 233.012L344.761 210.566V200.958C344.761 200.683 344.565 200.457 344.323 200.452C344.08 200.447 343.884 200.665 343.884 200.94V210.757C343.884 210.889 343.931 211.016 344.013 211.11L363.508 233.558V267.445L349.758 283.087C349.587 283.281 349.587 283.595 349.758 283.788C349.843 283.885 349.955 283.933 350.067 283.933Z" fill="white"/>
<path d="M342.569 285.939C342.811 285.939 343.007 285.716 343.007 285.441V281.172L355.557 266.93C355.638 266.837 355.684 266.711 355.684 266.58V248.744C355.684 248.47 355.49 248.247 355.249 248.245C355.008 248.244 354.813 248.464 354.813 248.738V266.372L342.258 280.616C342.176 280.709 342.13 280.836 342.13 280.968V285.443C342.13 285.718 342.326 285.94 342.569 285.939Z" fill="white"/>
<path d="M338.175 285.952C338.419 285.951 338.615 285.728 338.615 285.453V281.179L351.195 266.919C351.277 266.826 351.323 266.7 351.323 266.569V248.711C351.323 248.437 351.128 248.214 350.886 248.212C350.645 248.21 350.449 248.431 350.449 248.705V266.361L337.864 280.622C337.782 280.715 337.736 280.842 337.736 280.974V285.455C337.735 285.73 337.932 285.953 338.175 285.952Z" fill="white"/>
<path d="M333.771 285.965C334.015 285.964 334.212 285.74 334.212 285.465V281.186L346.823 266.909C346.905 266.816 346.951 266.69 346.951 266.558V248.679C346.951 248.405 346.755 248.181 346.513 248.179C346.271 248.177 346.075 248.398 346.075 248.673V266.35L333.46 280.628C333.377 280.722 333.331 280.848 333.331 280.981V285.467C333.33 285.743 333.528 285.965 333.771 285.965Z" fill="white"/>
<path d="M329.357 285.977C329.601 285.977 329.799 285.753 329.799 285.477V281.193L342.44 266.899C342.522 266.806 342.568 266.679 342.568 266.547V248.647C342.568 248.372 342.372 248.148 342.13 248.146C341.887 248.145 341.691 248.366 341.691 248.641V266.339L329.044 280.635C328.962 280.728 328.915 280.855 328.915 280.988V285.48C328.915 285.756 329.113 285.978 329.357 285.977Z" fill="white"/>
<path d="M329.799 271.007C329.912 271.007 330.025 270.958 330.111 270.861C330.284 270.666 330.284 270.351 330.111 270.155L318.143 256.622C318.06 256.528 317.947 256.474 317.829 256.474L281.442 256.284C281.191 256.283 280.988 256.508 280.988 256.788C280.988 257.067 281.191 257.294 281.442 257.296L317.645 257.474L329.486 270.86C329.573 270.958 329.686 271.006 329.799 271.007Z" fill="white"/>
<path d="M228.984 340.625C229.104 340.623 229.223 340.571 229.314 340.469L256.049 310.626L301.298 310.197C301.546 310.195 301.746 309.968 301.746 309.69V291.588C301.746 291.31 301.546 291.087 301.298 291.088C301.049 291.088 300.849 291.314 300.849 291.592V309.196L255.859 309.61C255.737 309.611 255.62 309.666 255.533 309.762L228.654 339.756C228.472 339.959 228.472 340.284 228.654 340.481C228.746 340.579 228.865 340.627 228.984 340.625Z" fill="white"/>
<path d="M220.565 340.772C220.685 340.77 220.805 340.718 220.896 340.616L252.366 305.565L297.703 305.198C297.952 305.196 298.153 304.969 298.153 304.691V286.571C298.153 286.293 297.952 286.068 297.703 286.069C297.455 286.07 297.253 286.295 297.253 286.574V304.194L252.175 304.547C252.052 304.548 251.935 304.603 251.849 304.699L220.233 339.9C220.05 340.104 220.05 340.43 220.233 340.627C220.325 340.726 220.445 340.774 220.565 340.772Z" fill="white"/>
<path d="M231.316 319.572C231.436 319.571 231.555 319.519 231.646 319.418L248.675 300.493L294.102 300.188C294.351 300.186 294.553 299.959 294.553 299.681V286.582C294.553 286.303 294.351 286.078 294.102 286.079C293.853 286.08 293.652 286.306 293.652 286.584V299.183L248.484 299.474C248.361 299.475 248.244 299.53 248.157 299.626L230.987 318.701C230.805 318.904 230.805 319.228 230.987 319.426C231.078 319.525 231.197 319.574 231.316 319.572Z" fill="white"/>
<path d="M231.782 305.731C231.902 305.731 232.021 305.679 232.112 305.579L244.051 292.353L289.591 292.146C289.84 292.145 290.042 291.919 290.042 291.64C290.042 291.361 289.84 291.136 289.591 291.137L243.859 291.332C243.736 291.333 243.619 291.387 243.532 291.483L231.453 304.859C231.271 305.061 231.271 305.385 231.453 305.584C231.544 305.683 231.663 305.732 231.782 305.731Z" fill="white"/>
<path d="M213.99 235.854L264.12 236.383C264.242 236.384 264.358 236.332 264.444 236.237L278.13 221.2C278.216 221.106 278.264 220.979 278.264 220.844V196.554C278.264 196.42 278.216 196.29 278.13 196.193L267.19 183.776C267.011 183.574 266.722 183.567 266.543 183.761C266.365 183.954 266.365 184.276 266.543 184.478L277.354 196.744V220.621L263.931 235.365L214.185 234.826L208.198 228.209C208.013 228.005 207.715 228.001 207.53 228.2C207.346 228.399 207.346 228.726 207.53 228.93L213.658 235.699C213.746 235.797 213.865 235.852 213.99 235.854Z" fill="white"/>
<path d="M215.871 228.669L259.535 229.213C259.789 229.217 259.994 228.992 259.994 228.711V185.992C259.994 185.711 259.789 185.478 259.535 185.472C259.281 185.466 259.076 185.688 259.076 185.97V228.19L215.871 227.639C215.611 227.636 215.401 227.864 215.401 228.148C215.401 228.433 215.611 228.666 215.871 228.669Z" fill="white"/>
<path d="M208.808 223.941L255.398 224.579C255.653 224.583 255.858 224.358 255.858 224.077V188.438C255.858 188.156 255.653 187.924 255.398 187.918C255.144 187.912 254.938 188.135 254.938 188.416V223.554L208.808 222.909C208.547 222.906 208.336 223.133 208.336 223.418C208.336 223.704 208.547 223.937 208.808 223.941Z" fill="white"/>
<path d="M212.578 218.327L250.33 218.901C250.585 218.905 250.792 218.68 250.792 218.398V190.358C250.792 190.077 250.585 189.844 250.33 189.838C250.075 189.832 249.869 190.055 249.869 190.337V217.874L212.578 217.296C212.318 217.292 212.107 217.519 212.107 217.804C212.107 218.089 212.318 218.323 212.578 218.327Z" fill="white"/>
<path d="M191.271 318.491C191.534 318.488 191.747 318.254 191.747 317.968V304.716L198.261 297.579C198.35 297.482 198.4 297.35 198.4 297.213V261.022C198.4 260.737 198.188 260.504 197.926 260.503C197.664 260.502 197.451 260.733 197.451 261.019V297.004L190.935 304.142C190.845 304.24 190.795 304.372 190.795 304.509V317.978C190.795 318.265 191.008 318.494 191.271 318.491Z" fill="white"/>
<path d="M286.426 222.985C286.542 222.987 286.658 222.939 286.746 222.841L297.89 210.564L335.975 211.238C336.218 211.242 336.415 211.023 336.415 210.748V197.3C336.415 197.024 336.218 196.797 335.975 196.792C335.732 196.787 335.534 197.005 335.534 197.281V210.234L297.703 209.554C297.584 209.552 297.47 209.603 297.386 209.696L286.106 222.118C285.93 222.313 285.93 222.632 286.106 222.832C286.195 222.932 286.31 222.983 286.426 222.985Z" fill="white"/>
<path d="M280.988 216.839C281.104 216.841 281.221 216.794 281.309 216.696L292.486 204.42L330.683 205.158C330.927 205.163 331.124 204.944 331.124 204.668V193.195C331.124 192.92 330.927 192.692 330.683 192.686C330.438 192.681 330.241 192.899 330.241 193.175V204.152L292.299 203.408C292.179 203.406 292.065 203.456 291.98 203.549L280.668 215.971C280.49 216.166 280.49 216.486 280.668 216.686C280.756 216.786 280.872 216.837 280.988 216.839Z" fill="white"/>
<path d="M281.972 203.626C282.088 203.629 282.204 203.581 282.292 203.484L287.066 198.257L325.375 199.06C325.62 199.066 325.818 198.846 325.818 198.57V192.076C325.818 191.8 325.62 191.572 325.375 191.567C325.13 191.561 324.932 191.78 324.932 192.056V198.052L286.878 197.243C286.758 197.241 286.643 197.291 286.559 197.384L281.651 202.757C281.473 202.951 281.473 203.271 281.651 203.472C281.739 203.572 281.856 203.624 281.972 203.626Z" fill="white"/>
<path d="M264.35 226.48C264.467 226.481 264.584 226.433 264.673 226.335L274.035 216.074C274.121 215.98 274.169 215.852 274.169 215.718V197.986C274.169 197.852 274.121 197.722 274.035 197.625L267.19 189.867C267.011 189.665 266.722 189.658 266.543 189.852C266.364 190.047 266.364 190.368 266.543 190.57L273.257 198.177V215.493L264.026 225.609C263.847 225.805 263.847 226.126 264.026 226.327C264.115 226.427 264.232 226.478 264.35 226.48Z" fill="white"/>
<path d="M346.513 225.332C346.625 225.333 346.737 225.286 346.823 225.19C346.994 224.999 346.994 224.685 346.823 224.488L338.926 215.418C338.843 215.323 338.732 215.269 338.615 215.267L303.092 214.677C302.844 214.673 302.644 214.895 302.644 215.173C302.644 215.451 302.844 215.679 303.092 215.683L338.433 216.259L346.204 225.182C346.289 225.28 346.401 225.33 346.513 225.332Z" fill="white"/>
<path d="M286.879 191.185L320.94 191.964C321.185 191.97 321.384 191.751 321.384 191.475C321.384 191.198 321.185 190.97 320.94 190.964L287.066 190.179L278.585 180.517C278.408 180.315 278.12 180.307 277.942 180.5C277.765 180.693 277.765 181.014 277.942 181.216L286.559 191.029C286.644 191.126 286.758 191.182 286.879 191.185Z" fill="white"/>
<path d="M220.565 212.28L239.224 212.595C239.347 212.597 239.465 212.545 239.552 212.451L245.112 206.418C245.199 206.324 245.248 206.195 245.248 206.059V193.805C245.248 193.523 245.041 193.29 244.785 193.284C244.529 193.279 244.322 193.503 244.322 193.785V205.831L239.032 211.569L220.565 211.253C220.306 211.248 220.096 211.475 220.096 211.759C220.096 212.043 220.305 212.276 220.565 212.28Z" fill="white"/>
<path d="M285.068 222.46C285.068 223.297 285.676 223.984 286.426 223.995C287.175 224.005 287.783 223.336 287.783 222.499C287.783 221.663 287.176 220.976 286.426 220.965C285.676 220.954 285.068 221.624 285.068 222.46Z" fill="white"/>
<path d="M280.535 215.315C280.535 216.153 281.144 216.842 281.896 216.854C282.647 216.866 283.256 216.197 283.256 215.359C283.256 214.522 282.647 213.833 281.896 213.82C281.144 213.808 280.535 214.477 280.535 215.315Z" fill="white"/>
<path d="M280.535 203.093C280.535 203.931 281.144 204.622 281.896 204.636C282.647 204.651 283.256 203.984 283.256 203.146C283.256 202.309 282.647 201.618 281.896 201.603C281.144 201.588 280.535 202.255 280.535 203.093Z" fill="white"/>
<path d="M301.971 215.162C301.971 215.995 302.573 216.68 303.316 216.692C304.059 216.704 304.661 216.038 304.661 215.206C304.661 214.374 304.059 213.689 303.316 213.676C302.573 213.663 301.971 214.329 301.971 215.162Z" fill="white"/>
<path d="M345.199 224.816C345.199 225.64 345.788 226.315 346.513 226.325C347.238 226.335 347.826 225.676 347.826 224.853C347.826 224.031 347.238 223.355 346.513 223.345C345.788 223.334 345.199 223.993 345.199 224.816Z" fill="white"/>
<path d="M334.653 197.262C334.653 198.087 335.245 198.769 335.975 198.785C336.704 198.8 337.296 198.144 337.296 197.319C337.296 196.494 336.704 195.812 335.975 195.796C335.245 195.78 334.653 196.436 334.653 197.262Z" fill="white"/>
<path d="M329.357 191.658C329.357 192.485 329.951 193.169 330.683 193.185C331.414 193.202 332.007 192.546 332.007 191.719C332.007 190.893 331.414 190.209 330.683 190.192C329.951 190.175 329.357 190.831 329.357 191.658Z" fill="white"/>
<path d="M324.046 191.536C324.046 192.364 324.641 193.049 325.375 193.065C326.109 193.082 326.703 192.424 326.703 191.597C326.703 190.77 326.109 190.085 325.375 190.068C324.641 190.051 324.046 190.708 324.046 191.536Z" fill="white"/>
<path d="M319.608 191.434C319.608 192.263 320.204 192.948 320.94 192.965C321.676 192.981 322.272 192.324 322.272 191.495C322.272 190.667 321.676 189.981 320.94 189.964C320.204 189.946 319.608 190.605 319.608 191.434Z" fill="white"/>
<path d="M276.9 180.831C276.9 181.67 277.51 182.365 278.264 182.384C279.016 182.403 279.626 181.739 279.626 180.901C279.626 180.063 279.016 179.368 278.264 179.348C277.51 179.328 276.9 179.993 276.9 180.831Z" fill="white"/>
<path d="M343.007 200.922C343.007 201.746 343.596 202.425 344.323 202.44C345.049 202.454 345.637 201.799 345.637 200.976C345.637 200.153 345.049 199.473 344.323 199.458C343.596 199.443 343.007 200.098 343.007 200.922Z" fill="white"/>
<path d="M347.388 204.984C347.388 205.807 347.976 206.485 348.701 206.499C349.425 206.513 350.012 205.858 350.012 205.035C350.012 204.213 349.425 203.535 348.701 203.521C347.976 203.506 347.388 204.162 347.388 204.984Z" fill="white"/>
<path d="M351.76 208.045C351.76 208.867 352.346 209.544 353.069 209.557C353.791 209.57 354.377 208.915 354.377 208.094C354.377 207.273 353.791 206.596 353.069 206.582C352.346 206.569 351.76 207.224 351.76 208.045Z" fill="white"/>
<path d="M354.813 229.906C354.813 230.727 355.398 231.4 356.12 231.409C356.841 231.418 357.426 230.76 357.426 229.939C357.426 229.119 356.841 228.446 356.12 228.437C355.398 228.428 354.813 229.085 354.813 229.906Z" fill="white"/>
<path d="M354.813 234.862C354.813 235.683 355.398 236.355 356.12 236.363C356.841 236.371 357.426 235.712 357.426 234.891C357.426 234.071 356.841 233.399 356.12 233.391C355.398 233.382 354.813 234.041 354.813 234.862Z" fill="white"/>
<path d="M357.208 239.841C357.208 240.662 357.793 241.332 358.514 241.339C359.234 241.346 359.818 240.687 359.818 239.867C359.818 239.047 359.234 238.376 358.514 238.369C357.793 238.361 357.208 239.021 357.208 239.841Z" fill="white"/>
<path d="M357.208 244.793C357.208 245.614 357.793 246.284 358.514 246.29C359.234 246.295 359.818 245.635 359.818 244.816C359.818 243.996 359.234 243.326 358.514 243.319C357.793 243.313 357.208 243.973 357.208 244.793Z" fill="white"/>
<path d="M280.081 256.783C280.081 257.621 280.69 258.303 281.442 258.307C282.194 258.311 282.803 257.634 282.803 256.797C282.803 255.959 282.194 255.277 281.442 255.273C280.69 255.269 280.081 255.945 280.081 256.783Z" fill="white"/>
<path d="M328.473 270.256C328.473 271.083 329.067 271.754 329.799 271.755C330.531 271.756 331.124 271.086 331.124 270.26C331.124 269.434 330.531 268.763 329.799 268.761C329.067 268.76 328.473 269.429 328.473 270.256Z" fill="white"/>
<path d="M355.249 247.254C354.527 247.249 353.941 247.91 353.941 248.731C353.941 249.552 354.527 250.222 355.249 250.227C355.97 250.232 356.555 249.571 356.555 248.75C356.555 247.93 355.97 247.26 355.249 247.254Z" fill="white"/>
<path d="M350.886 247.22C350.162 247.214 349.575 247.876 349.575 248.699C349.575 249.521 350.162 250.192 350.886 250.197C351.61 250.202 352.196 249.54 352.196 248.718C352.196 247.896 351.61 247.226 350.886 247.22Z" fill="white"/>
<path d="M346.513 247.186C345.788 247.18 345.199 247.843 345.199 248.666C345.199 249.49 345.788 250.161 346.513 250.166C347.238 250.171 347.826 249.509 347.826 248.686C347.826 247.863 347.238 247.192 346.513 247.186Z" fill="white"/>
<path d="M342.13 247.152C341.402 247.146 340.813 247.81 340.813 248.634C340.813 249.458 341.402 250.13 342.13 250.136C342.857 250.141 343.446 249.477 343.446 248.654C343.446 247.83 342.857 247.158 342.13 247.152Z" fill="white"/>
<path d="M342.568 283.95C341.841 283.952 341.252 284.622 341.252 285.446C341.252 286.27 341.841 286.936 342.568 286.934C343.295 286.931 343.884 286.262 343.884 285.438C343.884 284.615 343.295 283.949 342.568 283.95Z" fill="white"/>
<path d="M338.175 283.961C337.447 283.962 336.855 284.633 336.855 285.458C336.855 286.283 337.447 286.95 338.175 286.948C338.904 286.945 339.495 286.275 339.495 285.45C339.495 284.626 338.904 283.959 338.175 283.961Z" fill="white"/>
<path d="M333.772 283.971C333.041 283.973 332.448 284.644 332.448 285.47C332.448 286.296 333.041 286.964 333.772 286.961C334.502 286.959 335.094 286.288 335.094 285.463C335.094 284.637 334.502 283.969 333.772 283.971Z" fill="white"/>
<path d="M329.357 283.981C328.625 283.983 328.031 284.655 328.031 285.482C328.031 286.309 328.625 286.978 329.357 286.975C330.089 286.973 330.683 286.301 330.683 285.474C330.683 284.648 330.089 283.98 329.357 283.981Z" fill="white"/>
<path d="M350.449 281.947C349.725 281.949 349.138 282.616 349.138 283.439C349.138 284.261 349.725 284.926 350.449 284.924C351.173 284.922 351.759 284.255 351.759 283.433C351.76 282.611 351.173 281.946 350.449 281.947Z" fill="white"/>
<path d="M354.813 282.931C354.091 282.932 353.505 283.599 353.505 284.421C353.505 285.242 354.091 285.906 354.813 285.904C355.535 285.902 356.12 285.235 356.12 284.414C356.12 283.593 355.535 282.929 354.813 282.931Z" fill="white"/>
<path d="M359.057 283.912C358.337 283.913 357.752 284.58 357.752 285.4C357.752 286.221 358.337 286.884 359.057 286.882C359.777 286.879 360.361 286.213 360.361 285.393C360.361 284.573 359.777 283.91 359.057 283.912Z" fill="white"/>
<path d="M227.117 264.724C226.342 264.722 225.715 265.409 225.715 266.26C225.715 267.11 226.342 267.801 227.117 267.802C227.891 267.804 228.518 267.116 228.518 266.267C228.518 265.417 227.891 264.726 227.117 264.724Z" fill="white"/>
<path d="M222.439 264.71C221.663 264.708 221.034 265.397 221.034 266.248C221.034 267.1 221.663 267.791 222.439 267.793C223.215 267.794 223.843 267.106 223.843 266.255C223.843 265.404 223.215 264.713 222.439 264.71Z" fill="white"/>
<path d="M217.75 264.697C216.972 264.695 216.341 265.384 216.341 266.237C216.341 267.089 216.972 267.782 217.75 267.783C218.528 267.785 219.158 267.096 219.158 266.244C219.158 265.392 218.528 264.699 217.75 264.697Z" fill="white"/>
<path d="M213.049 264.684C212.269 264.681 211.636 265.371 211.636 266.225C211.636 267.079 212.269 267.772 213.049 267.774C213.829 267.775 214.46 267.085 214.46 266.232C214.46 265.379 213.829 264.686 213.049 264.684Z" fill="white"/>
<path d="M208.336 264.67C207.554 264.668 206.92 265.359 206.92 266.213C206.92 267.068 207.554 267.762 208.336 267.764C209.118 267.766 209.751 267.074 209.751 266.22C209.751 265.366 209.118 264.672 208.336 264.67Z" fill="white"/>
<path d="M197.926 259.469C197.14 259.466 196.502 260.158 196.502 261.015C196.502 261.872 197.14 262.569 197.926 262.572C198.712 262.574 199.349 261.882 199.349 261.026C199.349 260.17 198.712 259.473 197.926 259.469Z" fill="white"/>
<path d="M196.977 246.018C196.19 246.012 195.552 246.702 195.552 247.559C195.552 248.416 196.19 249.116 196.977 249.121C197.763 249.127 198.401 248.437 198.401 247.58C198.401 246.724 197.763 246.024 196.977 246.018Z" fill="white"/>
<path d="M198.4 240.859C197.614 240.852 196.977 241.541 196.977 242.398C196.977 243.255 197.614 243.955 198.4 243.961C199.186 243.968 199.823 243.279 199.823 242.423C199.823 241.566 199.186 240.866 198.4 240.859Z" fill="white"/>
<path d="M194.602 251.175C193.814 251.17 193.175 251.861 193.175 252.719C193.175 253.576 193.814 254.275 194.602 254.28C195.389 254.284 196.027 253.593 196.027 252.736C196.027 251.879 195.389 251.18 194.602 251.175Z" fill="white"/>
<path d="M201.245 235.719C200.46 235.711 199.823 236.398 199.823 237.255C199.823 238.111 200.46 238.811 201.245 238.819C202.029 238.826 202.665 238.139 202.665 237.283C202.665 236.428 202.029 235.727 201.245 235.719Z" fill="white"/>
<path d="M207.864 227.086C207.082 227.076 206.448 227.761 206.448 228.616C206.448 229.47 207.082 230.171 207.864 230.18C208.646 230.19 209.279 229.505 209.279 228.651C209.279 227.797 208.646 227.096 207.864 227.086Z" fill="white"/>
<path d="M215.871 226.61C215.092 226.6 214.46 227.283 214.46 228.137C214.46 228.99 215.092 229.689 215.871 229.698C216.649 229.708 217.28 229.024 217.28 228.172C217.28 227.32 216.649 226.621 215.871 226.61Z" fill="white"/>
<path d="M208.808 221.878C208.026 221.867 207.392 222.551 207.392 223.405C207.392 224.26 208.026 224.961 208.808 224.972C209.589 224.982 210.223 224.298 210.223 223.444C210.223 222.591 209.589 221.889 208.808 221.878Z" fill="white"/>
<path d="M213.108 216.275C212.328 216.262 211.695 216.945 211.695 217.798C211.695 218.652 212.328 219.353 213.108 219.365C213.887 219.376 214.519 218.694 214.519 217.842C214.519 216.988 213.887 216.287 213.108 216.275Z" fill="white"/>
<path d="M220.565 210.225C219.788 210.211 219.158 210.891 219.158 211.743C219.158 212.595 219.788 213.295 220.565 213.308C221.342 213.321 221.971 212.642 221.971 211.791C221.971 210.939 221.341 210.238 220.565 210.225Z" fill="white"/>
<path d="M244.785 192.263C244.019 192.246 243.396 192.918 243.396 193.765C243.396 194.611 244.019 195.31 244.785 195.327C245.552 195.344 246.173 194.671 246.173 193.826C246.173 192.98 245.552 192.28 244.785 192.263Z" fill="white"/>
<path d="M250.33 188.818C249.566 188.8 248.946 189.471 248.946 190.316C248.946 191.161 249.566 191.86 250.33 191.877C251.095 191.894 251.714 191.224 251.714 190.379C251.714 189.535 251.095 188.836 250.33 188.818Z" fill="white"/>
<path d="M255.399 186.899C254.636 186.881 254.018 187.551 254.018 188.395C254.018 189.238 254.636 189.937 255.399 189.954C256.161 189.972 256.779 189.303 256.779 188.459C256.779 187.616 256.161 186.918 255.399 186.899Z" fill="white"/>
<path d="M259.535 184.455C258.774 184.436 258.158 185.105 258.158 185.947C258.158 186.791 258.774 187.488 259.535 187.507C260.296 187.525 260.912 186.856 260.912 186.014C260.912 185.172 260.296 184.474 259.535 184.455Z" fill="white"/>
<path d="M267.019 188.7C266.261 188.682 265.647 189.349 265.647 190.191C265.647 191.032 266.261 191.728 267.019 191.745C267.776 191.762 268.39 191.095 268.39 190.254C268.39 189.413 267.776 188.717 267.019 188.7Z" fill="white"/>
<path d="M267.019 182.608C266.261 182.589 265.647 183.256 265.647 184.097C265.647 184.939 266.261 185.636 267.019 185.654C267.776 185.672 268.39 185.006 268.39 184.165C268.39 183.324 267.776 182.627 267.019 182.608Z" fill="white"/>
<path d="M264.35 224.194C263.591 224.184 262.975 224.858 262.975 225.7C262.975 226.541 263.591 227.232 264.35 227.242C265.108 227.252 265.723 226.578 265.723 225.736C265.723 224.895 265.108 224.204 264.35 224.194Z" fill="white"/>
<path d="M231.783 282.672C231.01 282.674 230.384 283.363 230.384 284.213C230.384 285.062 231.01 285.749 231.783 285.747C232.555 285.745 233.18 285.055 233.18 284.206C233.18 283.358 232.555 282.671 231.783 282.672Z" fill="white"/>
<path d="M234.111 278.059C233.34 278.059 232.714 278.748 232.714 279.597C232.714 280.445 233.34 281.132 234.111 281.131C234.882 281.13 235.507 280.442 235.507 279.594C235.507 278.745 234.882 278.058 234.111 278.059Z" fill="white"/>
<path d="M236.437 273.451C235.667 273.451 235.042 274.138 235.042 274.986C235.042 275.835 235.667 276.522 236.437 276.522C237.207 276.522 237.831 275.834 237.831 274.987C237.831 274.139 237.207 273.451 236.437 273.451Z" fill="white"/>
<path d="M238.76 268.849C237.99 268.848 237.366 269.534 237.366 270.382C237.366 271.229 237.99 271.917 238.76 271.918C239.528 271.919 240.152 271.232 240.152 270.385C240.152 269.538 239.529 268.85 238.76 268.849Z" fill="white"/>
<path d="M289.29 290.129C288.541 290.132 287.934 290.813 287.934 291.649C287.934 292.485 288.541 293.16 289.29 293.157C290.038 293.153 290.645 292.473 290.645 291.637C290.645 290.802 290.038 290.126 289.29 290.129Z" fill="white"/>
<path d="M231.783 303.426C231.01 303.431 230.384 304.125 230.384 304.974C230.384 305.823 231.01 306.507 231.783 306.5C232.555 306.494 233.18 305.801 233.18 304.952C233.18 304.103 232.555 303.42 231.783 303.426Z" fill="white"/>
<path d="M231.316 317.522C230.544 317.531 229.918 318.227 229.918 319.076C229.918 319.925 230.544 320.607 231.316 320.597C232.089 320.588 232.714 319.892 232.714 319.044C232.714 318.195 232.089 317.514 231.316 317.522Z" fill="white"/>
<path d="M294.102 285.071C293.356 285.073 292.75 285.752 292.75 286.587C292.75 287.422 293.356 288.097 294.102 288.095C294.849 288.092 295.453 287.414 295.453 286.579C295.454 285.745 294.849 285.07 294.102 285.071Z" fill="white"/>
<path d="M297.703 285.062C296.958 285.064 296.354 285.742 296.354 286.576C296.354 287.411 296.958 288.085 297.703 288.083C298.448 288.08 299.052 287.402 299.052 286.568C299.052 285.734 298.448 285.06 297.703 285.062Z" fill="white"/>
<path d="M301.298 290.082C300.554 290.085 299.95 290.763 299.95 291.596C299.95 292.43 300.554 293.103 301.298 293.099C302.041 293.095 302.643 292.417 302.643 291.584C302.643 290.751 302.041 290.079 301.298 290.082Z" fill="white"/>
<path d="M316.494 301.039C315.757 301.044 315.158 301.721 315.158 302.551C315.158 303.381 315.757 304.049 316.494 304.044C317.232 304.038 317.829 303.361 317.829 302.531C317.829 301.702 317.232 301.034 316.494 301.039Z" fill="white"/>
<path d="M318.719 296.519C317.982 296.523 317.384 297.199 317.384 298.028C317.384 298.858 317.982 299.527 318.719 299.522C319.455 299.517 320.052 298.841 320.052 298.012C320.052 297.183 319.455 296.514 318.719 296.519Z" fill="white"/>
<path d="M320.94 292.004C320.204 292.007 319.608 292.682 319.608 293.511C319.608 294.34 320.204 295.009 320.94 295.005C321.676 295.001 322.272 294.326 322.272 293.498C322.272 292.67 321.676 292.001 320.94 292.004Z" fill="white"/>
<path d="M323.159 287.495C322.424 287.497 321.828 288.171 321.828 289C321.828 289.828 322.424 290.497 323.159 290.494C323.894 290.491 324.489 289.818 324.489 288.99C324.489 288.162 323.894 287.493 323.159 287.495Z" fill="white"/>
<path d="M228.984 338.574C228.211 338.587 227.584 339.286 227.584 340.137C227.584 340.986 228.211 341.664 228.984 341.651C229.757 341.637 230.384 340.938 230.384 340.088C230.384 339.239 229.757 338.561 228.984 338.574Z" fill="white"/>
<path d="M220.565 338.716C219.788 338.729 219.158 339.43 219.158 340.282C219.158 341.134 219.788 341.814 220.565 341.8C221.342 341.786 221.971 341.085 221.971 340.234C221.971 339.382 221.341 338.703 220.565 338.716Z" fill="white"/>
<path d="M212.107 338.859C211.327 338.872 210.694 339.575 210.694 340.429C210.694 341.282 211.327 341.963 212.107 341.95C212.887 341.936 213.519 341.233 213.519 340.38C213.52 339.526 212.887 338.846 212.107 338.859Z" fill="white"/>
<path d="M205.975 336.898C205.192 336.911 204.557 337.615 204.557 338.47C204.557 339.325 205.192 340.008 205.975 339.994C206.758 339.981 207.392 339.277 207.392 338.422C207.392 337.568 206.758 336.886 205.975 336.898Z" fill="white"/>
<path d="M201.245 333.359C200.46 333.372 199.823 334.076 199.823 334.932C199.823 335.788 200.46 336.472 201.245 336.459C202.029 336.446 202.665 335.742 202.665 334.887C202.665 334.031 202.029 333.347 201.245 333.359Z" fill="white"/>
<path d="M196.502 329.811C195.715 329.823 195.077 330.527 195.077 331.384C195.077 332.242 195.715 332.927 196.502 332.915C197.289 332.903 197.926 332.199 197.926 331.342C197.926 330.485 197.289 329.8 196.502 329.811Z" fill="white"/>
<path d="M193.175 324.682C192.387 324.692 191.748 325.396 191.748 326.254C191.748 327.113 192.387 327.799 193.175 327.788C193.963 327.777 194.602 327.073 194.602 326.216C194.602 325.358 193.963 324.672 193.175 324.682Z" fill="white"/>
<path d="M191.271 316.419C190.482 316.428 189.842 317.131 189.842 317.989C189.842 318.848 190.482 319.536 191.271 319.527C192.06 319.518 192.699 318.815 192.699 317.957C192.699 317.099 192.06 316.411 191.271 316.419Z" fill="white"/>
<path d="M287.934 252.785L333.771 253.068C334.015 253.069 334.212 252.847 334.212 252.572C334.212 252.297 334.015 252.072 333.771 252.071L287.934 251.776C287.684 251.774 287.482 251.999 287.482 252.278C287.482 252.556 287.684 252.784 287.934 252.785Z" fill="white"/>
<path d="M332.448 252.561C332.448 253.387 333.041 254.06 333.772 254.065C334.502 254.069 335.094 253.403 335.094 252.578C335.094 251.752 334.502 251.079 333.772 251.074C333.041 251.069 332.448 251.735 332.448 252.561Z" fill="white"/>
<path d="M286.577 252.272C286.577 253.108 287.185 253.79 287.934 253.795C288.683 253.799 289.29 253.125 289.29 252.289C289.29 251.453 288.683 250.771 287.934 250.766C287.185 250.761 286.577 251.435 286.577 252.272Z" fill="white"/>
<path d="M150.886 368.366C145.612 368.113 141.24 363.345 141.139 357.728C141.038 352.101 145.26 347.722 150.552 347.976C155.844 348.23 160.217 353.022 160.3 358.648C160.383 364.265 156.16 368.62 150.886 368.366ZM150.624 352.362C147.605 352.217 145.195 354.714 145.25 357.925C145.305 361.133 147.802 363.858 150.814 364.003C153.828 364.148 156.239 361.659 156.189 358.451C156.139 355.24 153.643 352.507 150.624 352.362Z" fill="url(#paint1_linear_2234_3162)"/>
<path d="M196.913 379.267C191.646 379.014 187.314 374.261 187.256 368.663C187.198 363.053 191.449 358.689 196.734 358.943C202.018 359.197 206.349 363.973 206.39 369.582C206.43 375.179 202.179 379.52 196.913 379.267ZM196.772 363.315C193.757 363.17 191.33 365.659 191.361 368.86C191.392 372.057 193.865 374.773 196.874 374.918C199.883 375.062 202.31 372.581 202.285 369.384C202.259 366.183 199.786 363.459 196.772 363.315Z" fill="url(#paint2_linear_2234_3162)"/>
<path d="M242.239 347.869C236.943 347.615 232.622 342.812 232.605 337.153C232.589 331.483 236.898 327.071 242.212 327.326C247.526 327.581 251.848 332.408 251.846 338.077C251.844 343.735 247.535 348.124 242.239 347.869ZM242.218 331.745C239.186 331.6 236.726 334.116 236.733 337.351C236.74 340.583 239.207 343.328 242.233 343.473C245.259 343.619 247.719 341.11 247.718 337.879C247.717 334.644 245.25 331.891 242.218 331.745Z" fill="url(#paint3_linear_2234_3162)"/>
<path d="M246.74 408.842C241.498 408.591 237.223 403.881 237.211 398.336C237.199 392.779 241.469 388.457 246.729 388.709C251.99 388.962 256.264 393.694 256.259 399.25C256.253 404.795 251.984 409.094 246.74 408.842ZM246.732 393.04C243.731 392.896 241.293 395.361 241.298 398.532C241.303 401.699 243.743 404.39 246.738 404.534C249.734 404.678 252.171 402.221 252.172 399.054C252.173 395.883 249.733 393.184 246.732 393.04Z" fill="url(#paint4_linear_2234_3162)"/>
<path d="M176.562 438.794L172.505 438.6L172.055 403.924L150.882 363.618L154.439 361.67L176.123 403.005L176.562 438.794Z" fill="url(#paint5_linear_2234_3162)"/>
<path d="M200.637 439.951L196.58 439.756L196.019 377.051L200.119 377.248L200.637 439.951Z" fill="url(#paint6_linear_2234_3162)"/>
<path d="M224.713 441.107L220.655 440.912L220.453 399.785L240.212 368.115L240.175 345.573L244.297 345.771L244.32 369.598L224.543 401.253L224.713 441.107Z" fill="url(#paint7_linear_2234_3162)"/>
<path d="M248.788 442.263L244.731 442.069L244.698 405.898L248.78 406.094L248.788 442.263Z" fill="url(#paint8_linear_2234_3162)"/>
<path d="M356.873 455.235C356.873 450.215 360.984 445.953 366.029 445.734C371.065 445.517 375.155 449.411 375.155 454.416C375.155 459.421 371.065 463.683 366.029 463.916C360.984 464.151 356.873 460.257 356.873 455.235ZM371.242 454.592C371.242 451.733 368.905 449.509 366.029 449.636C363.15 449.762 360.805 452.195 360.805 455.059C360.805 457.924 363.15 460.147 366.029 460.016C368.905 459.884 371.242 457.451 371.242 454.592Z" fill="url(#paint9_linear_2234_3162)"/>
<path d="M349.002 499.393C349.002 494.365 353.124 490.066 358.183 489.808C363.233 489.552 367.334 493.42 367.334 498.432C367.334 503.444 363.233 507.743 358.183 508.015C353.124 508.288 349.002 504.421 349.002 499.393ZM363.411 498.638C363.411 495.774 361.067 493.566 358.183 493.714C355.296 493.863 352.946 496.318 352.946 499.186C352.946 502.055 355.296 504.263 358.183 504.109C361.067 503.955 363.411 501.501 363.411 498.638Z" fill="url(#paint10_linear_2234_3162)"/>
<path d="M379.17 540.899C379.17 535.897 383.249 531.59 388.254 531.298C393.252 531.007 397.31 534.825 397.31 539.811C397.31 544.797 393.252 549.103 388.254 549.41C383.249 549.718 379.17 545.901 379.17 540.899ZM393.428 540.044C393.428 537.195 391.109 535.015 388.254 535.184C385.398 535.352 383.072 537.811 383.072 540.665C383.072 543.518 385.398 545.698 388.254 545.524C391.109 545.351 393.428 542.892 393.428 540.044Z" fill="url(#paint11_linear_2234_3162)"/>
<path d="M324.094 548.46C324.094 543.411 328.252 539.057 333.354 538.756C338.448 538.455 342.584 542.305 342.584 547.338C342.584 552.372 338.448 556.724 333.354 557.041C328.252 557.359 324.094 553.51 324.094 548.46ZM338.627 547.578C338.627 544.703 336.263 542.505 333.354 542.679C330.442 542.853 328.071 545.338 328.071 548.219C328.071 551.1 330.442 553.298 333.354 553.118C336.263 552.939 338.627 550.454 338.627 547.578Z" fill="url(#paint12_linear_2234_3162)"/>
<path d="M292.95 481.998V478.047L325.325 476.485L361.155 455.113L363.061 458.44L326.354 480.363L292.95 481.998Z" fill="url(#paint13_linear_2234_3162)"/>
<path d="M292.95 505.44V501.489L350.975 498.455V502.366L292.95 505.44Z" fill="url(#paint14_linear_2234_3162)"/>
<path d="M292.95 528.882V524.932L331.282 522.773L360.969 540.038L381.122 538.836V542.727L359.811 544.012L330.112 526.764L292.95 528.882Z" fill="url(#paint15_linear_2234_3162)"/>
<path d="M292.95 552.326V548.375L326.723 546.337V550.264L292.95 552.326Z" fill="url(#paint16_linear_2234_3162)"/>
<path d="M268.888 597.882L146.184 606.393C130.235 607.499 117.243 595.98 117.243 580.66V459.989C117.243 444.668 130.235 431.73 146.184 431.093L268.888 426.194C284.106 425.586 296.384 437.144 296.384 452.006V569.065C296.384 583.927 284.106 596.826 268.888 597.882Z" fill="url(#paint17_linear_2234_3162)"/>
<path d="M272.925 602.14L150.222 610.651C134.272 611.757 121.28 600.238 121.28 584.917V464.247C121.28 448.926 134.272 435.988 150.222 435.351L272.925 430.451C288.143 429.844 300.422 441.402 300.422 456.264V573.322C300.422 588.185 288.143 601.084 272.925 602.14Z" fill="url(#paint18_linear_2234_3162)"/>
<path opacity="0.3" d="M219.303 550.812C204.311 532.181 219.408 518.18 203.446 496.941C184.244 471.39 152.936 478.905 140.569 455.535C137.841 450.379 136.652 444.836 136.472 439.235C127.433 444.292 121.28 453.71 121.28 464.247V584.917C121.28 600.238 134.273 611.757 150.222 610.651L272.925 602.14C285.118 601.294 295.405 592.839 299.019 581.88C277.591 559.948 240.122 576.684 219.303 550.812Z" fill="url(#paint19_linear_2234_3162)"/>
<path d="M249.922 571.761L168.157 577.042C158.158 577.688 150.028 570.353 150.028 560.657V480.142C150.028 470.447 158.158 462.217 168.157 461.763L249.922 458.048C259.619 457.607 267.457 464.958 267.457 474.466V553.415C267.457 562.922 259.619 571.135 249.922 571.761Z" fill="url(#paint20_linear_2234_3162)"/>
<path d="M252.238 573.101L171.635 578.272C161.779 578.905 153.765 571.722 153.765 562.228V483.386C153.765 473.892 161.779 465.833 171.635 465.389L252.238 461.751C261.797 461.319 269.523 468.518 269.523 477.827V555.136C269.523 564.445 261.797 572.488 252.238 573.101Z" fill="url(#paint21_linear_2234_3162)"/>
<path opacity="0.3" d="M219.303 550.812C204.311 532.181 219.408 518.18 203.446 496.941C190.836 480.162 173.024 477.64 158.757 471.267C155.672 474.497 153.764 478.769 153.764 483.386V562.228C153.764 571.722 161.779 578.905 171.635 578.272L252.237 573.102C256.515 572.827 260.417 571.059 263.431 568.364C247.316 566.382 230.77 565.063 219.303 550.812Z" fill="url(#paint22_linear_2234_3162)"/>
<g opacity="0.61">
<path d="M183.906 540.106L179.94 554.114C179.127 556.986 176.457 559.103 173.411 559.289L170.103 559.49C165.536 559.769 162.265 555.72 163.602 551.438L182.444 491.091C183.313 488.308 185.935 486.309 188.904 486.163L201.114 485.568C204.057 485.425 206.654 487.15 207.525 489.823L226.36 547.675C227.689 551.758 224.485 556.175 219.989 556.449L215.999 556.692C213.046 556.872 210.441 555.154 209.589 552.463L205.289 538.869L183.906 540.106ZM202.859 526.83L198.215 511.799C196.887 507.591 195.558 502.313 194.451 498.09L194.229 498.101C193.121 502.438 192.012 507.954 190.792 512.193L186.351 527.751L202.859 526.83Z" fill="white"/>
<path d="M255.522 489.351V547.846C255.522 551.4 252.567 554.462 248.918 554.685L245.498 554.893C241.84 555.117 238.871 552.407 238.871 548.843V490.182C238.871 486.616 241.84 483.582 245.498 483.403L248.918 483.236C252.567 483.058 255.522 485.796 255.522 489.351Z" fill="white"/>
</g>
<path d="M604.812 603.308C604.403 603.308 604.073 602.977 604.073 602.569V361.969C604.073 361.561 604.403 361.229 604.812 361.229C605.221 361.229 605.551 361.561 605.551 361.969V602.569C605.551 602.977 605.221 603.308 604.812 603.308Z" fill="#BFC8D6"/>
<path d="M539.991 588.194C539.583 588.194 539.252 587.863 539.252 587.455V355.902C539.252 355.494 539.583 355.163 539.991 355.163C540.4 355.163 540.731 355.494 540.731 355.902V587.455C540.73 587.863 540.4 588.194 539.991 588.194Z" fill="#BFC8D6"/>
<path d="M390.13 598.977C390.046 598.977 389.961 598.962 389.878 598.932C389.494 598.793 389.295 598.369 389.435 597.984L476.084 359.23C476.223 358.846 476.648 358.647 477.032 358.787C477.415 358.926 477.614 359.35 477.475 359.735L390.826 598.489C390.716 598.79 390.432 598.977 390.13 598.977Z" fill="#BFC8D6"/>
<path d="M454.097 617.66C454.025 617.66 453.952 617.649 453.879 617.627C453.489 617.506 453.27 617.093 453.391 616.702L531.159 364.977C531.279 364.587 531.691 364.37 532.083 364.489C532.474 364.609 532.692 365.023 532.571 365.414L454.804 617.139C454.706 617.456 454.413 617.66 454.097 617.66Z" fill="#BFC8D6"/>
<path d="M540.704 355.662L605.729 360.474V361.937L531.416 365.268L475.872 358.462V357L540.704 355.662Z" fill="#97A6B7"/>
<path d="M540.704 354.199L605.729 360.474L531.416 363.805L475.872 357L540.704 354.199Z" fill="#D8DEE8"/>
<path d="M470.922 563.202C470.86 563.202 470.797 563.194 470.733 563.178L408.82 546.935C408.425 546.831 408.189 546.427 408.293 546.032C408.396 545.637 408.797 545.4 409.196 545.505L471.109 561.747C471.504 561.851 471.74 562.255 471.637 562.65C471.55 562.983 471.25 563.202 470.922 563.202Z" fill="#BFC8D6"/>
<path d="M488.461 506.221C488.418 506.221 488.375 506.217 488.331 506.209L427.569 495.45C427.167 495.379 426.899 494.995 426.97 494.593C427.041 494.191 427.421 493.922 427.827 493.994L488.589 504.753C488.992 504.824 489.259 505.208 489.188 505.61C489.125 505.969 488.813 506.221 488.461 506.221Z" fill="#BFC8D6"/>
<path d="M506.696 447.406C506.665 447.406 506.633 447.405 506.601 447.4L447.794 439.82C447.389 439.768 447.103 439.397 447.155 438.992C447.207 438.587 447.576 438.3 447.983 438.353L506.79 445.934C507.195 445.986 507.481 446.356 507.429 446.762C507.381 447.134 507.063 447.406 506.696 447.406Z" fill="#BFC8D6"/>
<path d="M518.381 406.593C518.343 406.593 518.305 406.59 518.266 406.584L462.976 397.932C462.572 397.869 462.297 397.491 462.359 397.087C462.423 396.684 462.796 396.406 463.204 396.471L518.494 405.123C518.898 405.186 519.174 405.564 519.111 405.968C519.054 406.332 518.739 406.593 518.381 406.593Z" fill="#BFC8D6"/>
<path d="M525.877 352.936C525.877 352.936 513.898 358.38 513.702 359.249C513.507 360.118 521.406 358.957 524.631 359.083C527.855 359.208 530.508 358.255 530.216 356.889C529.924 355.523 528.795 352.088 528.795 352.088L525.877 352.936Z" fill="url(#paint23_linear_2234_3162)"/>
<path d="M525.438 348.517L526.167 353.91C526.167 353.91 528.063 354.585 529.337 353.787L529.881 347.872L525.438 348.517Z" fill="url(#paint24_linear_2234_3162)"/>
<path d="M581.851 348.647L583.244 350.883C583.633 351.509 583.75 352.262 583.563 352.975C583.075 354.835 582.102 358.46 581.678 359.405C581.1 360.692 573.348 361.457 573.348 361.457C573.348 361.457 572.657 360.484 574.267 359.309C575.876 358.135 576.911 357.95 577.479 356.216C578.046 354.482 578.426 349.578 578.426 349.578L581.851 348.647Z" fill="url(#paint25_linear_2234_3162)"/>
<path d="M576.051 342.962C576.56 343.368 579.05 350.925 579.05 350.925C579.05 350.925 579.856 351.956 581.387 350.435C582.917 348.914 582.079 349.753 582.079 349.753L581.792 342.32L576.051 342.962Z" fill="url(#paint26_linear_2234_3162)"/>
<path d="M518.848 240.163C518.216 256.251 518.19 273.73 519.116 292.403C520.158 313.43 522.252 332.864 524.892 350.481C525.873 350.512 526.904 350.517 527.981 350.487C528.708 350.467 529.413 350.432 530.094 350.385C531.464 346.732 533.083 341.928 534.533 336.19C536.057 330.156 536.977 324.744 537.632 319.569C539.938 301.347 537.235 299.757 539.107 286.253C540.765 274.293 543.123 273.826 545.891 256.846C548.894 238.421 546.658 235.657 545.571 234.659C540.943 230.408 530.072 233.302 518.848 240.163Z" fill="url(#paint27_linear_2234_3162)"/>
<path opacity="0.3" d="M545.572 234.659C541.157 230.604 531.062 233.059 520.399 239.247C532.666 252.5 534.003 261.097 532.532 266.675C530.87 272.979 525.818 274.795 525.837 281.689C525.861 290.161 533.506 292.405 533.344 301.37C533.236 307.297 529.877 307.236 529.083 314.557C528.145 323.22 532.534 326.206 531.112 332.615C530.501 335.372 528.755 338.975 523.783 342.687C524.141 345.319 524.509 347.925 524.892 350.481C525.873 350.512 526.904 350.517 527.981 350.487C528.708 350.467 529.413 350.431 530.094 350.384C531.464 346.732 533.083 341.928 534.533 336.19C536.057 330.156 536.977 324.744 537.632 319.569C539.939 301.347 537.235 299.757 539.107 286.253C540.765 274.293 543.123 273.826 545.891 256.845C548.894 238.421 546.659 235.657 545.572 234.659Z" fill="url(#paint28_linear_2234_3162)"/>
<path d="M526.446 239.893C537.007 255.347 548.399 274.58 558.587 297.601C566.286 314.998 571.87 331.333 575.969 345.89C576.524 346.147 577.833 346.66 579.505 346.439C581.786 346.137 583.153 344.681 583.51 344.275C585.179 333.839 584.995 325.001 584.428 318.622C584.066 314.538 583.424 307.737 580.821 299.34C577.905 289.935 575.901 289.407 572.096 279.457C568.148 269.129 569.105 266.552 565.323 253.627C563.77 248.318 561.17 240.417 556.879 230.966C546.735 233.941 536.59 236.917 526.446 239.893Z" fill="url(#paint29_linear_2234_3162)"/>
<path d="M477.684 259.506C479.715 262.664 486.706 262.295 491.48 260.588C502.644 256.596 509.788 242.398 510.417 231.1C510.552 228.675 510.467 226.303 510.958 226.231C512.195 226.049 515.371 240.717 517.863 253.152C519.868 253.885 522.906 254.664 526.378 254.095C532.06 253.164 532.737 249.634 539.093 247.332C542.801 245.989 546.434 245.986 553.701 245.979C561.904 245.972 562.13 246.984 563.71 246.25C563.71 246.25 564.101 246.035 564.437 245.794C570.279 241.6 553.567 209.723 558.378 180.31C558.913 177.041 559.733 173.685 557.907 170.412C553.189 161.956 534.542 160.764 522.989 166.329C519.823 167.854 514.519 171.191 509.783 174.708C507.89 176.114 505.921 177.687 503.867 179.481C498.887 183.831 495.419 186.86 492.562 191.063C481.042 208.013 494.356 222.139 483.906 243.815C480.312 251.269 475.557 256.198 477.684 259.506Z" fill="url(#paint30_linear_2234_3162)"/>
<path d="M508.658 163.275C508.658 163.275 511.657 166.68 514.881 168.445C517.794 170.04 524.216 167.354 525.702 167.038C527.188 166.723 525.405 170.724 522.601 173.481C519.798 176.239 510.532 182.545 508.033 182.651C505.534 182.756 508.436 180.568 509.97 178.019C511.505 175.471 509.342 170.202 507.405 168.579C505.468 166.955 508.658 163.275 508.658 163.275Z" fill="url(#paint31_linear_2234_3162)"/>
<path d="M482.175 259.392C482.175 259.392 477.866 261.45 474.816 261.882C471.766 262.313 471.103 264.749 471.95 265.644C472.796 266.539 477.65 265.559 479.273 264.646C480.896 263.733 482.175 259.392 482.175 259.392Z" fill="url(#paint32_linear_2234_3162)"/>
<path d="M501.766 165.939C498.363 165.68 494.925 161.489 495.619 159.66C495.818 159.137 496.26 159.054 502.922 157.956C506.23 157.412 507.884 157.187 509.027 158.101C509.725 158.659 510.27 159.654 510.442 160.594C510.53 161.078 510.535 161.744 510.452 163.071C510.378 164.248 510.4 164.197 510.37 164.545C510.296 165.38 510.068 166.85 509.254 168.887C508.914 168.515 508.465 168.07 507.898 167.632C507.68 167.464 506.817 166.812 505.835 166.416C504.146 165.735 502.871 166.023 501.766 165.939Z" fill="url(#paint33_linear_2234_3162)"/>
<path d="M510.498 166.616C510.498 166.616 510.346 169.872 507.278 171.302C504.53 172.582 500.884 166.846 501.887 164.656C502.222 163.925 503.258 163.13 504.32 162.884C504.947 162.738 505.255 162.864 506.275 162.606C507.216 162.369 507.399 162.15 507.762 162.223C508.217 162.315 508.796 162.832 509.229 164.856C509.454 164.066 509.954 163.537 510.496 163.504C510.582 163.499 510.832 163.523 511.037 163.655C511.781 164.131 511.635 165.338 510.498 166.616Z" fill="url(#paint34_linear_2234_3162)"/>
<path d="M404.165 209.232L587.807 213.957C588.881 213.985 589.75 215.111 589.75 216.474V257.796C589.75 259.159 588.881 260.287 587.807 260.316L404.165 265.305C402.589 265.348 401.308 264.04 401.308 262.384V212.157C401.308 210.501 402.589 209.192 404.165 209.232Z" fill="url(#paint35_linear_2234_3162)"/>
<path opacity="0.48" d="M409.079 214.768L584.419 218.38C585.41 218.401 586.212 219.432 586.212 220.684V253.592C586.212 254.843 585.41 255.876 584.419 255.898L409.079 259.762C407.65 259.794 406.489 258.597 406.489 257.089V217.445C406.489 215.937 407.65 214.739 409.079 214.768Z" fill="white"/>
<path d="M426.373 237.027C426.373 243.491 424.556 247.933 420.829 247.939C417.05 247.946 415.384 243.079 415.362 237.146C415.362 231.083 417.163 226.285 420.942 226.298C424.848 226.312 426.373 231.303 426.373 237.027ZM418.805 237.149C418.783 241.95 419.593 244.237 420.919 244.235C422.245 244.235 422.963 241.853 422.963 237.088C422.963 232.454 422.267 230.005 420.897 230.002C419.638 229.998 418.783 232.284 418.805 237.149Z" fill="#F4F7FA"/>
<path d="M438.776 237.038C438.776 243.483 436.97 247.912 433.265 247.918C429.509 247.925 427.853 243.072 427.83 237.157C427.83 231.113 429.621 226.328 433.377 226.342C437.26 226.355 438.776 231.331 438.776 237.038ZM431.254 237.16C431.232 241.946 432.036 244.227 433.355 244.225C434.672 244.224 435.387 241.85 435.387 237.099C435.387 232.479 434.694 230.037 433.333 230.034C432.082 230.031 431.232 232.309 431.254 237.16Z" fill="#F4F7FA"/>
<path d="M444.762 231.057H444.717L441.96 232.94L441.404 229.286L445.228 226.735L448.025 226.744V247.541L444.762 247.547L444.762 231.057Z" fill="#F4F7FA"/>
<path d="M457.056 231.085H457.011L454.271 232.963L453.719 229.32L457.519 226.776L460.3 226.786V247.521L457.056 247.526L457.056 231.085Z" fill="#F4F7FA"/>
<path d="M475.546 237.072C475.546 243.46 473.773 247.849 470.133 247.855C466.443 247.862 464.816 243.053 464.794 237.189C464.794 231.199 466.553 226.457 470.243 226.47C474.057 226.483 475.546 231.415 475.546 237.072ZM468.157 237.192C468.135 241.937 468.926 244.197 470.221 244.195C471.515 244.194 472.217 241.841 472.217 237.132C472.217 232.553 471.537 230.133 470.199 230.129C468.97 230.126 468.135 232.384 468.157 237.192Z" fill="#F4F7FA"/>
<path d="M481.427 231.143L481.383 231.143L478.675 233.01L478.129 229.388L481.885 226.859L484.633 226.869V247.482L481.427 247.487V231.143Z" fill="#F4F7FA"/>
<path d="M493.506 231.171L493.462 231.171L490.77 233.033L490.227 229.421L493.961 226.9L496.693 226.91V247.463L493.506 247.468V231.171Z" fill="#F4F7FA"/>
<path d="M511.673 237.105C511.673 243.437 509.93 247.788 506.354 247.794C502.729 247.8 501.13 243.033 501.109 237.222C501.109 231.284 502.837 226.583 506.462 226.596C510.21 226.609 511.673 231.497 511.673 237.105ZM504.413 237.225C504.391 241.927 505.168 244.167 506.441 244.166C507.712 244.165 508.402 241.832 508.402 237.165C508.402 232.625 507.734 230.227 506.419 230.224C505.212 230.22 504.392 232.459 504.413 237.225Z" fill="#F4F7FA"/>
<path d="M517.451 231.228H517.408L514.747 233.078L514.211 229.488L517.901 226.981L520.601 226.991V247.424L517.451 247.429V231.228Z" fill="#F4F7FA"/>
<path d="M535.407 237.126C535.407 243.422 533.685 247.747 530.15 247.753C526.567 247.759 524.987 243.02 524.965 237.243C524.965 231.339 526.674 226.666 530.257 226.679C533.962 226.691 535.407 231.552 535.407 237.126ZM528.231 237.246C528.21 241.921 528.978 244.148 530.236 244.146C531.493 244.146 532.174 241.826 532.174 237.186C532.174 232.673 531.514 230.289 530.215 230.285C529.021 230.282 528.21 232.507 528.231 237.246Z" fill="#F4F7FA"/>
<path d="M541.119 231.283H541.076L538.446 233.123L537.916 229.554L541.564 227.062L544.232 227.071V247.386L541.119 247.391V231.283Z" fill="#F4F7FA"/>
<path d="M552.85 231.311H552.808L550.193 233.145L549.665 229.587L553.292 227.102L555.945 227.111V247.367L552.85 247.372L552.85 231.311Z" fill="#F4F7FA"/>
<path d="M564.513 231.338H564.471L561.871 233.168L561.347 229.619L564.953 227.141L567.591 227.15V247.348L564.513 247.353L564.513 231.338Z" fill="#F4F7FA"/>
<path d="M576.11 231.366H576.068L573.483 233.189L572.962 229.651L576.547 227.181L579.17 227.19V247.329L576.11 247.334V231.366Z" fill="#F4F7FA"/>
<path d="M583.908 232.33C588.508 230.075 598.438 224.301 601.492 213.664C606.575 195.955 588.496 179.064 579.163 172.744C568.462 165.498 557.709 164.328 551.174 163.617C543.067 162.734 538.118 162.196 534.402 165.24C524.79 173.112 530.568 199.087 540.083 201.761C543.198 202.636 544.377 200.357 550.904 198.785C553.03 198.273 568.895 194.451 577.145 202.843C582.919 208.716 583.656 219.243 579.579 229.084C581.022 230.166 582.465 231.248 583.908 232.33Z" fill="url(#paint36_linear_2234_3162)"/>
<path d="M582.979 231.634L580.544 229.807C580.544 229.807 579.016 230.865 577.148 230.72C576.13 230.641 574.78 231.253 574.475 231.576C574.171 231.899 572.752 232.676 574.783 232.473C576.813 232.27 577.139 232.836 576.856 233.851C576.574 234.865 574.879 237.706 574.019 238.314C573.158 238.923 575.627 239.329 576.641 238.957C577.656 238.585 579.279 237.908 580.462 235.71C580.894 234.909 582.979 231.634 582.979 231.634Z" fill="url(#paint37_linear_2234_3162)"/>
<defs>
<linearGradient id="paint0_linear_2234_3162" x1="378.054" y1="258.562" x2="63.7651" y2="524.798" gradientUnits="userSpaceOnUse">
<stop stop-color="#AA80F9"/>
<stop offset="0.9964" stop-color="#6165D7"/>
</linearGradient>
<linearGradient id="paint1_linear_2234_3162" x1="66.379" y1="355.097" x2="184.93" y2="359.418" gradientUnits="userSpaceOnUse">
<stop stop-color="#FFC444"/>
<stop offset="0.9964" stop-color="#F36F56"/>
</linearGradient>
<linearGradient id="paint2_linear_2234_3162" x1="121.386" y1="366.355" x2="239.716" y2="370.668" gradientUnits="userSpaceOnUse">
<stop stop-color="#FFC444"/>
<stop offset="0.9964" stop-color="#F36F56"/>
</linearGradient>
<linearGradient id="paint3_linear_2234_3162" x1="135.156" y1="333.694" x2="254.107" y2="338.031" gradientUnits="userSpaceOnUse">
<stop stop-color="#FFC444"/>
<stop offset="0.9964" stop-color="#F36F56"/>
</linearGradient>
<linearGradient id="paint4_linear_2234_3162" x1="197.96" y1="396.998" x2="315.71" y2="401.29" gradientUnits="userSpaceOnUse">
<stop stop-color="#FFC444"/>
<stop offset="0.9964" stop-color="#F36F56"/>
</linearGradient>
<linearGradient id="paint5_linear_2234_3162" x1="162.055" y1="446.926" x2="166.573" y2="322.998" gradientUnits="userSpaceOnUse">
<stop stop-color="#FFC444"/>
<stop offset="0.9964" stop-color="#F36F56"/>
</linearGradient>
<linearGradient id="paint6_linear_2234_3162" x1="196.882" y1="448.16" x2="201.39" y2="324.497" gradientUnits="userSpaceOnUse">
<stop stop-color="#FFC444"/>
<stop offset="0.9964" stop-color="#F36F56"/>
</linearGradient>
<linearGradient id="paint7_linear_2234_3162" x1="230.028" y1="449.396" x2="234.561" y2="325.035" gradientUnits="userSpaceOnUse">
<stop stop-color="#FFC444"/>
<stop offset="0.9964" stop-color="#F36F56"/>
</linearGradient>
<linearGradient id="paint8_linear_2234_3162" x1="245.803" y1="449.874" x2="250.291" y2="326.768" gradientUnits="userSpaceOnUse">
<stop stop-color="#FFC444"/>
<stop offset="0.9964" stop-color="#F36F56"/>
</linearGradient>
<linearGradient id="paint9_linear_2234_3162" x1="285.67" y1="455.757" x2="398.604" y2="454.449" gradientUnits="userSpaceOnUse">
<stop stop-color="#FFC444"/>
<stop offset="0.9964" stop-color="#F36F56"/>
</linearGradient>
<linearGradient id="paint10_linear_2234_3162" x1="285.969" y1="499.749" x2="399.22" y2="498.437" gradientUnits="userSpaceOnUse">
<stop stop-color="#FFC444"/>
<stop offset="0.9964" stop-color="#F36F56"/>
</linearGradient>
<linearGradient id="paint11_linear_2234_3162" x1="287.357" y1="541.523" x2="399.436" y2="540.225" gradientUnits="userSpaceOnUse">
<stop stop-color="#FFC444"/>
<stop offset="0.9964" stop-color="#F36F56"/>
</linearGradient>
<linearGradient id="paint12_linear_2234_3162" x1="286.017" y1="548.448" x2="400.26" y2="547.124" gradientUnits="userSpaceOnUse">
<stop stop-color="#FFC444"/>
<stop offset="0.9964" stop-color="#F36F56"/>
</linearGradient>
<linearGradient id="paint13_linear_2234_3162" x1="284.814" y1="469.045" x2="399.242" y2="467.719" gradientUnits="userSpaceOnUse">
<stop stop-color="#FFC444"/>
<stop offset="0.9964" stop-color="#F36F56"/>
</linearGradient>
<linearGradient id="paint14_linear_2234_3162" x1="285.185" y1="502.373" x2="399.864" y2="501.045" gradientUnits="userSpaceOnUse">
<stop stop-color="#FFC444"/>
<stop offset="0.9964" stop-color="#F36F56"/>
</linearGradient>
<linearGradient id="paint15_linear_2234_3162" x1="285.593" y1="534.087" x2="399.683" y2="532.766" gradientUnits="userSpaceOnUse">
<stop stop-color="#FFC444"/>
<stop offset="0.9964" stop-color="#F36F56"/>
</linearGradient>
<linearGradient id="paint16_linear_2234_3162" x1="285.706" y1="549.611" x2="400.878" y2="548.277" gradientUnits="userSpaceOnUse">
<stop stop-color="#FFC444"/>
<stop offset="0.9964" stop-color="#F36F56"/>
</linearGradient>
<linearGradient id="paint17_linear_2234_3162" x1="221.307" y1="534.529" x2="176.691" y2="478.414" gradientUnits="userSpaceOnUse">
<stop stop-color="#311944"/>
<stop offset="1" stop-color="#893976"/>
</linearGradient>
<linearGradient id="paint18_linear_2234_3162" x1="320.292" y1="335.494" x2="100.728" y2="703.265" gradientUnits="userSpaceOnUse">
<stop stop-color="#FF9085"/>
<stop offset="1" stop-color="#FB6FBB"/>
</linearGradient>
<linearGradient id="paint19_linear_2234_3162" x1="315.361" y1="343.74" x2="102.217" y2="700.757" gradientUnits="userSpaceOnUse">
<stop stop-color="#FF9085"/>
<stop offset="1" stop-color="#FB6FBB"/>
</linearGradient>
<linearGradient id="paint20_linear_2234_3162" x1="271.529" y1="610.042" x2="227.961" y2="545.862" gradientUnits="userSpaceOnUse">
<stop stop-color="#311944"/>
<stop offset="1" stop-color="#893976"/>
</linearGradient>
<linearGradient id="paint21_linear_2234_3162" x1="234.635" y1="469.92" x2="120.337" y2="715.242" gradientUnits="userSpaceOnUse">
<stop stop-color="#FFC444"/>
<stop offset="0.9964" stop-color="#F36F56"/>
</linearGradient>
<linearGradient id="paint22_linear_2234_3162" x1="215.868" y1="508.404" x2="140.088" y2="671.054" gradientUnits="userSpaceOnUse">
<stop stop-color="#FFC444"/>
<stop offset="0.9964" stop-color="#F36F56"/>
</linearGradient>
<linearGradient id="paint23_linear_2234_3162" x1="520.073" y1="334.047" x2="523.049" y2="371.921" gradientUnits="userSpaceOnUse">
<stop stop-color="#311944"/>
<stop offset="1" stop-color="#A03976"/>
</linearGradient>
<linearGradient id="paint24_linear_2234_3162" x1="527.755" y1="355.133" x2="527.214" y2="315.907" gradientUnits="userSpaceOnUse">
<stop stop-color="#FFC444"/>
<stop offset="0.9964" stop-color="#F36F56"/>
</linearGradient>
<linearGradient id="paint25_linear_2234_3162" x1="576.308" y1="329.629" x2="579.284" y2="367.502" gradientUnits="userSpaceOnUse">
<stop stop-color="#311944"/>
<stop offset="1" stop-color="#A03976"/>
</linearGradient>
<linearGradient id="paint26_linear_2234_3162" x1="579.293" y1="354.422" x2="578.752" y2="315.195" gradientUnits="userSpaceOnUse">
<stop stop-color="#FFC444"/>
<stop offset="0.9964" stop-color="#F36F56"/>
</linearGradient>
<linearGradient id="paint27_linear_2234_3162" x1="518.394" y1="291.588" x2="547.396" y2="291.588" gradientUnits="userSpaceOnUse">
<stop stop-color="#444B8C"/>
<stop offset="0.9964" stop-color="#3E4177"/>
</linearGradient>
<linearGradient id="paint28_linear_2234_3162" x1="518.394" y1="291.589" x2="547.396" y2="291.589" gradientUnits="userSpaceOnUse">
<stop stop-color="#444B8C"/>
<stop offset="0.9964" stop-color="#3E4177"/>
</linearGradient>
<linearGradient id="paint29_linear_2234_3162" x1="526.446" y1="288.729" x2="584.831" y2="288.729" gradientUnits="userSpaceOnUse">
<stop stop-color="#444B8C"/>
<stop offset="0.9964" stop-color="#3E4177"/>
</linearGradient>
<linearGradient id="paint30_linear_2234_3162" x1="530.524" y1="286.364" x2="509.018" y2="164.628" gradientUnits="userSpaceOnUse">
<stop stop-color="#311944"/>
<stop offset="1" stop-color="#893976"/>
</linearGradient>
<linearGradient id="paint31_linear_2234_3162" x1="516.51" y1="185.01" x2="516.51" y2="161.576" gradientUnits="userSpaceOnUse">
<stop stop-color="#FFC444"/>
<stop offset="0.9964" stop-color="#F36F56"/>
</linearGradient>
<linearGradient id="paint32_linear_2234_3162" x1="471.611" y1="262.695" x2="482.175" y2="262.695" gradientUnits="userSpaceOnUse">
<stop stop-color="#FFC444"/>
<stop offset="0.9964" stop-color="#F36F56"/>
</linearGradient>
<linearGradient id="paint33_linear_2234_3162" x1="520.236" y1="175.193" x2="499.434" y2="157.725" gradientUnits="userSpaceOnUse">
<stop stop-color="#444B8C"/>
<stop offset="0.9964" stop-color="#3E4177"/>
</linearGradient>
<linearGradient id="paint34_linear_2234_3162" x1="499.945" y1="178.257" x2="510.901" y2="156.953" gradientUnits="userSpaceOnUse">
<stop stop-color="#FFC444"/>
<stop offset="0.9964" stop-color="#F36F56"/>
</linearGradient>
<linearGradient id="paint35_linear_2234_3162" x1="438.408" y1="193.846" x2="578.763" y2="305.935" gradientUnits="userSpaceOnUse">
<stop stop-color="#FF9085"/>
<stop offset="1" stop-color="#FB6FBB"/>
</linearGradient>
<linearGradient id="paint36_linear_2234_3162" x1="580.735" y1="277.494" x2="559.229" y2="155.758" gradientUnits="userSpaceOnUse">
<stop stop-color="#311944"/>
<stop offset="1" stop-color="#893976"/>
</linearGradient>
<linearGradient id="paint37_linear_2234_3162" x1="579.812" y1="243.044" x2="577.473" y2="229.807" gradientUnits="userSpaceOnUse">
<stop stop-color="#FFC444"/>
<stop offset="0.9964" stop-color="#F36F56"/>
</linearGradient>
</defs>
</svg>
