<svg width="35" height="35" viewBox="0 0 35 35" fill="none" xmlns="http://www.w3.org/2000/svg">
<path fill-rule="evenodd" clip-rule="evenodd" d="M14.4779 3.26307C14.7513 2.98959 15.1223 2.83594 15.5091 2.83594H27.1757C29.592 2.83594 31.5507 4.7947 31.5507 7.21094V30.5443C31.5507 32.9606 29.592 34.9193 27.1757 34.9193H9.67572C7.25948 34.9193 5.30072 32.9606 5.30072 30.5443V13.0443C5.30072 12.6575 5.45437 12.2866 5.72785 12.0131L14.4779 3.26307ZM27.1757 5.7526H16.9674V13.0443C16.9674 13.8497 16.3145 14.5026 15.5091 14.5026H8.21739V30.5443C8.21739 31.3497 8.87031 32.0026 9.67572 32.0026H27.1757C27.9812 32.0026 28.6341 31.3497 28.6341 30.5443V7.21094C28.6341 6.40553 27.9812 5.7526 27.1757 5.7526ZM10.2798 11.5859H14.0507V7.81499L10.2798 11.5859ZM11.1341 20.3359C11.1341 19.5305 11.787 18.8776 12.5924 18.8776H24.2591C25.0645 18.8776 25.7174 19.5305 25.7174 20.3359C25.7174 21.1414 25.0645 21.7943 24.2591 21.7943H12.5924C11.787 21.7943 11.1341 21.1414 11.1341 20.3359ZM11.1341 26.1693C11.1341 25.3638 11.787 24.7109 12.5924 24.7109H24.2591C25.0645 24.7109 25.7174 25.3638 25.7174 26.1693C25.7174 26.9747 25.0645 27.6276 24.2591 27.6276H12.5924C11.787 27.6276 11.1341 26.9747 11.1341 26.1693Z" fill="white" stroke="white" stroke-width="0.008"/>
</svg>
