<svg width="36" height="36" viewBox="0 0 36 36" fill="none" xmlns="http://www.w3.org/2000/svg">
<path fill-rule="evenodd" clip-rule="evenodd" d="M14.2252 2.87269C14.4987 2.59921 14.8697 2.44556 15.2564 2.44556H26.9231C29.3394 2.44556 31.2981 4.40432 31.2981 6.82056V30.1539C31.2981 32.5702 29.3394 34.5289 26.9231 34.5289H9.4231C7.00686 34.5289 5.0481 32.5702 5.0481 30.1539V12.6539C5.0481 12.2671 5.20175 11.8962 5.47523 11.6227L14.2252 2.87269ZM26.9231 5.36222H16.7148V12.6539C16.7148 13.4593 16.0619 14.1122 15.2564 14.1122H7.96476V30.1539C7.96476 30.9593 8.61769 31.6122 9.4231 31.6122H26.9231C27.7285 31.6122 28.3814 30.9593 28.3814 30.1539V6.82056C28.3814 6.01515 27.7285 5.36222 26.9231 5.36222ZM10.0272 11.1956H13.7981V7.42461L10.0272 11.1956ZM10.8814 19.9456C10.8814 19.1401 11.5344 18.4872 12.3398 18.4872H24.0064C24.8119 18.4872 25.4648 19.1401 25.4648 19.9456C25.4648 20.751 24.8119 21.4039 24.0064 21.4039H12.3398C11.5344 21.4039 10.8814 20.751 10.8814 19.9456ZM10.8814 25.7789C10.8814 24.9735 11.5344 24.3206 12.3398 24.3206H24.0064C24.8119 24.3206 25.4648 24.9735 25.4648 25.7789C25.4648 26.5843 24.8119 27.2372 24.0064 27.2372H12.3398C11.5344 27.2372 10.8814 26.5843 10.8814 25.7789Z" fill="black" stroke="black" stroke-width="0.008"/>
</svg>
