<svg width="255" height="54" viewBox="0 0 255 54" fill="none" xmlns="http://www.w3.org/2000/svg">
<g clip-path="url(#clip0_2234_4632)">
<path d="M22.6618 0V12.0339L32.4888 0H22.6618ZM1.50227 5.72543C2.18774 4.62748 2.92405 3.76126 3.94358 2.94729L4.71766 2.42349C5.44935 2.02691 6.11155 1.7631 6.92978 1.56028C7.42528 1.47198 7.88205 1.42369 8.39253 1.40702C9.07497 1.42973 9.65924 1.51502 10.3224 1.67813C10.7876 1.82615 11.2087 1.99228 11.6503 2.20098C12.6536 2.75257 13.4165 3.37325 14.1845 4.21343L14.7616 4.93957C15.6081 6.17442 16.1555 7.398 16.5595 8.82709L16.7779 9.79878C16.8066 9.95379 16.8306 10.1078 16.8499 10.256V0H0V10.2837C0.2091 9.14951 0.544108 7.66006 1.05761 6.55655L1.50227 5.72543ZM39.513 1.66336L22.6618 22.3012V26.9836C22.6816 26.8326 22.7073 26.6806 22.7331 26.5273L22.9506 25.5574C23.3559 24.1274 23.9042 22.9027 24.7493 21.6672L25.3264 20.938C25.9839 20.226 26.6231 19.6746 27.449 19.1576C27.8739 18.9211 28.2868 18.7282 28.7315 18.5484C29.7241 18.2372 30.5726 18.1168 31.62 18.148L32.5898 18.2888C33.4012 18.4912 34.0639 18.755 34.792 19.1571C35.1964 19.4055 35.561 19.669 35.9311 19.9635C37.0268 20.9436 37.7897 21.9861 38.4577 23.2846L38.8392 24.1598C39.1473 24.9858 39.3679 26.2003 39.5135 27.0178L39.513 1.66336Z" fill="#50B848"/>
<path d="M31.1205 35.8204C28.7431 35.8204 26.8061 32.7959 26.8061 29.0833C26.8061 25.3727 28.7431 22.3482 31.1205 22.3482C33.5011 22.3482 35.4402 25.3727 35.4402 29.0833C35.4402 32.7959 33.5011 35.8204 31.1205 35.8204ZM31.1205 20.5911C27.7528 20.5911 25.0082 24.4045 25.0082 29.0833C25.0082 33.7619 27.7533 37.5783 31.1205 37.5783C34.4867 37.5783 37.2356 33.7619 37.2356 29.0833C37.2381 24.4067 34.4867 20.5911 31.1205 20.5911Z" fill="#50B848"/>
<path d="M22.9506 32.6154L22.7331 31.6411C22.7073 31.4871 22.6816 31.3359 22.6618 31.1874V41.4455H39.513V31.2382C39.3006 32.3754 38.9678 33.7819 38.4572 34.8881L38.007 35.7205C37.3215 36.8147 36.5874 37.6774 35.5692 38.4953L34.7916 39.0161C34.0629 39.4178 33.4007 39.6786 32.5893 39.8814C32.0865 39.9697 31.6286 40.0188 31.1205 40.0355C30.4403 40.0129 29.8525 39.9305 29.1899 39.7643C28.7251 39.6154 28.3031 39.4489 27.8619 39.2436C26.8587 38.6886 26.0948 38.0697 25.326 37.2308L24.7489 36.4996C23.9042 35.2688 23.3588 34.0419 22.9506 32.6154ZM16.8507 14.4601C16.8319 14.6111 16.8075 14.7623 16.7788 14.9172L16.5603 15.8879C16.1563 17.3181 15.6089 18.5436 14.7624 19.7756L14.185 20.5052C13.5313 21.2165 12.8863 21.7676 12.0594 22.2879C11.6388 22.5193 11.2275 22.7135 10.7777 22.8941C9.7818 23.2083 8.94173 23.3286 7.89528 23.2907L6.92931 23.157C6.11155 22.9538 5.44887 22.6905 4.71718 22.2879C4.31492 22.0365 3.95123 21.7731 3.58116 21.4793C2.48242 20.4962 1.72253 19.4607 1.05681 18.1581C0.52482 16.9398 0.237309 15.791 0 14.4763V39.7791L16.8507 19.1473V14.4601Z" fill="#50B848"/>
<path d="M8.39278 19.093C6.01459 19.093 4.07229 16.0698 4.07229 12.3598C4.07229 8.64921 6.01459 5.61918 8.39278 5.61918C10.7678 5.61918 12.7031 8.64969 12.7031 12.3598C12.7031 16.0698 10.7678 19.093 8.39278 19.093ZM8.39278 3.86735C5.02503 3.86735 2.27741 7.67975 2.27741 12.3593C2.27741 17.0354 5.02503 20.8484 8.39278 20.8484C11.7569 20.8484 14.5018 17.0351 14.5018 12.3593C14.5018 7.68023 11.7569 3.86735 8.39278 3.86735ZM16.851 29.4156L7.02375 41.4464H16.851V29.4156ZM39.0257 0H34.29L0.507385 41.4464H5.17325L39.0257 0ZM21.2103 38.5935H18.3195V41.4464H21.2103V38.5935Z" fill="#50B848"/>
<path d="M40.9707 38.5938V41.4467C42.946 41.4467 44.551 43.0245 44.551 44.9702C44.551 46.9172 42.946 48.495 40.9707 48.495C39.5164 48.495 38.1877 48.1702 35.4268 47.4944C30.0772 46.1886 23.4911 44.5767 18.2162 43.2875C8.73638 40.972 0.0396096 43.5986 0.00311279 49.736H2.8929C2.8929 47.4542 7.32782 45.9402 16.8252 48.2585C25.0397 50.267 28.1291 51.0222 34.3157 52.5342C38.4001 53.5319 41.7483 53.2915 44.1544 52.1487L44.1634 52.1578C46.5695 50.9936 48.2238 48.5557 48.2238 45.7412C48.2243 41.792 44.9747 38.5938 40.9707 38.5938ZM149.032 31.1604H140.56V35.1082H149.032V31.1604ZM185.739 28.5395H177.733V20.7419H173.242V41.4467H177.733V32.471H185.739V41.4467H190.228V20.7419H185.739V28.5395ZM155.82 33.774V20.7415H151.33V41.4464H154.779L165.221 28.3541V41.4464H169.71V20.7415H166.214L155.82 33.774ZM234.873 20.2881C231.945 20.2868 229.344 21.063 227.256 23.0227C225.476 24.6675 223.923 27.3753 223.923 31.1102C223.919 34.1253 224.864 36.7335 227.254 39.0131C228.984 40.652 231.232 41.9053 234.842 41.9002C237.072 41.9002 238.731 41.3422 239.974 40.6907L240.119 40.6135V35.1122L239.639 35.6783C238.503 37.0119 236.914 37.7874 235.116 37.7892C233.481 37.7892 231.832 37.2057 230.598 36.092C229.365 34.9761 228.536 33.3364 228.534 31.1707C228.534 29.3761 229.172 27.6797 230.294 26.4379C231.413 25.1961 233.008 24.4024 234.963 24.4008C235.658 24.4021 237.866 24.5425 239.641 26.5745L240.121 27.1239V21.6387L239.979 21.5615C238.082 20.5379 236.328 20.2881 234.873 20.2881ZM133.883 29.4725C133.121 30.0429 132.234 30.0519 131.473 30.051H130.138V24.6718H131.23C132.159 24.6705 133.126 24.7398 133.858 25.2545C134.377 25.6387 134.867 26.3064 134.867 27.331C134.87 28.1338 134.533 28.9599 133.883 29.4725ZM137.324 22.3509C136.553 21.6751 135.74 21.2657 134.84 21.0347C133.937 20.8017 132.952 20.7419 131.805 20.7419H125.648V41.4467H130.138V33.9814H132.412C134.797 33.9827 136.55 33.297 137.731 32.1181C139.363 30.4827 139.477 28.2337 139.479 27.4223C139.479 25.9227 139.041 23.8727 137.326 22.3522L137.324 22.3509ZM241.412 20.7419V24.6723H245.962V41.4472H250.453V24.6723H255V20.7419H241.412ZM76.8782 41.4467H88.6476V37.5165H81.3675V32.5607H88.3443V28.6303H81.3675V24.6718H88.6476V20.7415H76.8782V41.4467ZM203.111 36.2281C202.94 36.5961 202.669 36.9328 202.234 37.1928C201.44 37.6602 200.395 37.6996 199.675 37.6974H198.25V32.6819H199.432C200.28 32.6798 201.244 32.6892 202.016 33.0496L202.027 33.0547L202.019 33.0508C202.601 33.3146 202.918 33.6766 203.107 34.0502C203.294 34.4228 203.343 34.8125 203.343 35.0998C203.343 35.4615 203.281 35.8606 203.111 36.2281ZM198.25 24.4909H199.128C199.895 24.4909 200.597 24.6591 201.087 25.0175C201.574 25.3771 201.883 25.9051 201.888 26.7581C201.888 27.357 201.748 27.7843 201.539 28.1027C201.228 28.5795 200.744 28.8339 200.259 28.9707C199.78 29.105 199.318 29.1144 199.098 29.1144H198.25V24.4909ZM204.284 30.2892C204.551 30.0912 204.856 29.8269 205.144 29.4654C205.678 28.7985 206.137 27.8154 206.136 26.4546C206.134 24.6885 205.412 23.0386 204.148 22.0679C202.413 20.7292 200.164 20.7458 199.037 20.7415H193.759V41.4464H200.827C202.613 41.4477 204.545 41.1389 206.132 39.7468C207.608 38.4351 207.954 36.6857 207.954 35.4618C207.952 34.3664 207.707 32.714 206.411 31.4858C205.965 31.0644 205.296 30.5705 204.284 30.2892ZM210.389 41.4467H222.159V37.5165H214.879V32.5607H221.855V28.6303H214.879V24.6718H222.159V20.7415H210.389V41.4467ZM72.5735 20.7419H68.0829V37.5168H60.6232V20.7419H56.1335V41.4467H70.8133V45.9804H74.9988V37.5165H72.5735V20.7419ZM104.068 28.5395H96.0619V20.7419H91.5721V41.4467H96.0619V32.471H104.068V41.4467H108.558V20.7419H104.068V28.5395ZM110.308 24.6718H114.859V41.4467H119.348V24.6718H123.897V20.7415H110.309L110.308 24.6718ZM95.5432 6.22699H89.3063V0.0387573H85.6284V16.585H89.3063V9.46064H95.5432V16.584H99.2226V0.0387573H95.5432V6.22699ZM74.1895 10.1364L76.0923 5.39746L77.954 10.1364H74.1895ZM74.6141 0.0387573L67.5678 16.585H71.5602L72.9799 13.2267H79.0897L80.5092 16.585H84.4721L77.6217 0.0387573H74.6141ZM108.798 7.70866L115.846 0.0387573H111.148L105.652 6.34357V0.0387573H101.975V16.585H105.652V9.61168L105.714 9.55117L111.31 16.5853H116.167L108.798 7.70866ZM63.2704 12.7237C62.9085 13.0661 62.2406 13.3504 61.0284 13.3504L59.8109 13.3513V9.62931H61.0768C62.2253 9.6301 62.8789 9.91106 63.2477 10.2652C63.6156 10.6208 63.7365 11.0811 63.7382 11.5382C63.7361 11.9485 63.6324 12.3819 63.2704 12.7237ZM65.9054 7.75996C64.5735 6.58895 62.9324 6.3955 61.7025 6.3955H59.8118V3.27335H65.9726V0.0392328H56.133V16.5853H61.7258C62.438 16.5845 63.3146 16.5311 64.1846 16.2473C65.0537 15.9656 65.9194 15.4448 66.5709 14.5257L66.5752 14.5196L66.5722 14.5239C67.1566 13.6877 67.5117 12.65 67.5117 11.5126C67.5135 9.9298 66.8782 8.6257 65.9054 7.75996Z" fill="#50B848"/>
</g>
<defs>
<clipPath id="clip0_2234_4632">
<rect width="255" height="54" fill="white"/>
</clipPath>
</defs>
</svg>
