<svg width="550" height="226" viewBox="0 0 550 226" fill="none" xmlns="http://www.w3.org/2000/svg">
<g opacity="0.25">
<path d="M360.762 0.0498047H223.534C218.768 0.0498047 214.904 4.04288 214.904 8.9689V156.134C214.904 161.06 218.768 165.053 223.534 165.053H360.762C365.529 165.053 369.393 161.06 369.393 156.134V8.9689C369.393 4.04288 365.529 0.0498047 360.762 0.0498047Z" fill="#D5D9F2"/>
<path d="M360.762 0.0498047H223.534C218.768 0.0498047 214.904 4.04288 214.904 8.9689V156.134C214.904 161.06 218.768 165.053 223.534 165.053H360.762C365.529 165.053 369.393 161.06 369.393 156.134V8.9689C369.393 4.04288 365.529 0.0498047 360.762 0.0498047Z" fill="#D5D9F2"/>
<path d="M360.762 4.50935C363.142 4.50935 365.078 6.5099 365.078 8.9689V156.134C365.078 158.593 363.142 160.593 360.762 160.593H223.534C221.155 160.593 219.219 158.593 219.219 156.134V8.9689C219.219 6.5099 221.155 4.50935 223.534 4.50935H360.762ZM360.762 0.0498047H223.534C218.768 0.0498047 214.904 4.04288 214.904 8.9689V156.134C214.904 161.06 218.768 165.053 223.534 165.053H360.762C365.529 165.053 369.393 161.06 369.393 156.134V8.9689C369.393 4.04288 365.529 0.0498047 360.762 0.0498047Z" fill="#A4ACE3"/>
<path d="M232.597 134.476C231.405 134.476 230.439 135.474 230.439 136.705V148.107H234.754V136.705C234.754 135.474 233.789 134.476 232.597 134.476Z" fill="#A4ACE3"/>
<path d="M256.763 126.868C255.571 126.868 254.605 127.866 254.605 129.097V148.107H258.92V129.097C258.92 127.867 257.954 126.868 256.763 126.868Z" fill="#A4ACE3"/>
<path d="M280.928 134.476C279.737 134.476 278.771 135.474 278.771 136.705V148.107H283.086V136.705C283.086 135.474 282.12 134.476 280.928 134.476Z" fill="#A4ACE3"/>
<path d="M304.231 119.219C303.039 119.219 302.074 120.217 302.074 121.449V148.106H306.389V121.449C306.389 120.218 305.423 119.219 304.231 119.219Z" fill="#A4ACE3"/>
<path d="M328.399 77.6458H328.395C327.204 77.6458 326.239 78.6429 326.239 79.8737V148.107H330.555V79.8737C330.555 78.6429 329.59 77.6458 328.399 77.6458Z" fill="#A4ACE3"/>
<path d="M352.563 47.2788C351.371 47.2788 350.405 48.2769 350.405 49.5086V148.106H354.721V49.5086C354.721 48.2769 353.755 47.2788 352.563 47.2788Z" fill="#A4ACE3"/>
<path d="M251.21 20.2256C254.412 20.2256 257.347 21.4243 259.599 23.4231L263.315 18.9314C260.061 16.047 255.833 14.3096 251.209 14.3096C247.712 14.3096 244.441 15.3005 241.642 17.0379L244.576 22.112C246.519 20.9115 248.78 20.2256 251.21 20.2256Z" fill="#A4ACE3"/>
<path d="M260.121 43.2574C257.809 45.5425 254.664 46.941 251.21 46.941C246.3 46.941 242.029 44.1172 239.835 39.9475L234.799 42.7624C237.961 48.7747 244.123 52.8579 251.21 52.8579C256.203 52.8579 260.727 50.8333 264.064 47.5323L260.121 43.2574Z" fill="#A4ACE3"/>
<path d="M269.856 33.5786C269.856 39.0692 267.636 44.03 264.063 47.5316L260.121 43.2576C262.593 40.8244 264.131 37.3933 264.131 33.5795C264.131 29.5133 262.373 25.8734 259.599 23.4233L263.316 18.9316C267.318 22.4582 269.856 27.7143 269.856 33.5786Z" fill="#BFC5EB"/>
<path d="M238.279 33.5784C238.279 35.8893 238.843 38.0531 239.834 39.9466L234.798 42.7615C233.369 40.0331 232.554 36.9061 232.554 33.5784C232.554 26.5501 236.194 20.3986 241.642 17.0361L244.576 22.1102C240.802 24.4479 238.279 28.705 238.279 33.5784Z" fill="#BFC5EB"/>
<path d="M302.32 19.8735C305.523 19.8735 308.458 21.0723 310.711 23.071L314.427 18.5794C311.173 15.695 306.945 13.9575 302.32 13.9575C298.823 13.9575 295.553 14.9484 292.753 16.6859L295.688 21.7599C297.629 20.5603 299.891 19.8735 302.32 19.8735Z" fill="#A4ACE3"/>
<path d="M311.232 42.9051C308.919 45.1902 305.775 46.5887 302.32 46.5887C297.41 46.5887 293.14 43.7649 290.946 39.5952L285.91 42.4101C289.072 48.4224 295.234 52.5056 302.32 52.5056C307.314 52.5056 311.838 50.481 315.175 47.18L311.232 42.9051Z" fill="#A4ACE3"/>
<path d="M320.967 33.227C320.967 38.7176 318.747 43.6784 315.175 47.18L311.232 42.906C313.704 40.4729 315.241 37.0417 315.241 33.2279C315.241 29.1617 313.484 25.5218 310.71 23.0717L314.426 18.5801C318.428 22.1058 320.967 27.3627 320.967 33.227Z" fill="#BFC5EB"/>
<path d="M289.39 33.2271C289.39 35.538 289.954 37.7018 290.945 39.5953L285.909 42.4102C284.48 39.6818 283.664 36.5548 283.664 33.2271C283.664 26.1988 287.305 20.0473 292.752 16.6848L295.687 21.7589C291.913 24.0957 289.39 28.3528 289.39 33.2271Z" fill="#BFC5EB"/>
<path d="M355.082 148.107H230.066C229.828 148.107 229.635 147.907 229.635 147.661C229.635 147.415 229.828 147.215 230.066 147.215H355.082C355.321 147.215 355.514 147.415 355.514 147.661C355.514 147.907 355.321 148.107 355.082 148.107Z" fill="#A4ACE3"/>
<path d="M236.967 127.662C236.736 127.662 236.506 127.566 236.336 127.378C236.011 127.018 236.031 126.453 236.379 126.117L262.726 100.716C263.009 100.444 263.431 100.4 263.761 100.605L289.399 116.589L339.126 35.5934C339.381 35.1769 339.913 35.0547 340.318 35.3178C340.72 35.5818 340.84 36.1321 340.585 36.5486L290.405 118.281C290.153 118.691 289.632 118.817 289.23 118.567L263.427 102.479L237.556 127.42C237.39 127.582 237.179 127.662 236.967 127.662Z" fill="#A4ACE3"/>
<path d="M340.484 40.6928L339.583 36.5178L335.543 37.4525L336.873 35.2843L340.913 34.3513L341.815 38.5246L340.484 40.6928Z" fill="#92A9D1"/>
<path d="M180.381 225.257H8.63068C3.86396 225.257 0 221.264 0 216.338V9.4147C0 4.48868 3.86396 0.495605 8.63068 0.495605H180.381C185.148 0.495605 189.012 4.48868 189.012 9.4147V216.338C189.012 221.264 185.148 225.257 180.381 225.257Z" fill="#D5D9F2"/>
<path d="M180.381 4.95515C182.761 4.95515 184.696 6.9557 184.696 9.4147V216.338C184.696 218.797 182.761 220.797 180.381 220.797H8.63068C6.2512 220.797 4.31534 218.797 4.31534 216.338V9.4147C4.31534 6.9557 6.2512 4.95515 8.63068 4.95515H180.381ZM180.381 0.495605H8.63068C3.86396 0.495605 0 4.48868 0 9.4147V216.338C0 221.264 3.86396 225.257 8.63068 225.257H180.381C185.148 225.257 189.012 221.264 189.012 216.338V9.4147C189.012 4.48868 185.148 0.495605 180.381 0.495605Z" fill="#A4ACE3"/>
<path d="M56.9227 22.7935H38.8785C37.426 22.7935 36.2488 21.5769 36.2488 20.0758V13.9154C36.2488 12.4143 37.426 11.1978 38.8785 11.1978H56.9227C58.3752 11.1978 59.5525 12.4143 59.5525 13.9154V20.0758C59.5516 21.5769 58.3744 22.7935 56.9227 22.7935Z" fill="#BFC5EB"/>
<path d="M103.528 22.7935H85.4843C84.0317 22.7935 82.8545 21.5769 82.8545 20.0758V13.9154C82.8545 12.4143 84.0317 11.1978 85.4843 11.1978H103.528C104.981 11.1978 106.158 12.4143 106.158 13.9154V20.0758C106.157 21.5769 104.98 22.7935 103.528 22.7935Z" fill="#BFC5EB"/>
<path d="M150.134 22.7935H132.09C130.637 22.7935 129.46 21.5769 129.46 20.0758V13.9154C129.46 12.4143 130.637 11.1978 132.09 11.1978H150.134C151.587 11.1978 152.764 12.4143 152.764 13.9154V20.0758C152.763 21.5769 151.586 22.7935 150.134 22.7935Z" fill="#BFC5EB"/>
<path d="M13.8091 121.487V157.472H168.14C168.14 157.472 164.917 41.4858 145.055 41.4858C125.15 41.4858 127.539 97.2873 108.64 97.2873C89.7417 97.2873 95.4475 64.0333 76.4617 64.0333C57.476 64.0333 69.4605 116.431 53.0968 116.431C36.733 116.431 41.3427 99.2744 30.5103 99.2744C19.6779 99.2744 24.9944 121.487 13.8091 121.487Z" fill="#BFC5EB"/>
<path d="M177.128 156.58H13.7789C13.6002 157.774 13.4553 157.624 12.946 157.44V20.5627C13.4553 20.3781 13.6002 20.2283 13.7789 20.2283C13.9576 20.2283 14.1026 20.3781 13.8091 20.5627V157.472H177.128C177.307 157.105 177.452 157.255 177.452 157.44C177.452 157.624 177.307 157.774 177.128 156.58Z" fill="#A4ACE3"/>
<path d="M11.1318 22.7793L11.6057 23.2351L13.778 20.8198L15.9512 23.2351L16.4259 22.7793L13.778 19.8369L11.1318 22.7793Z" fill="#A4ACE3"/>
<path d="M174.983 160.175L174.542 159.685L176.88 157.44L174.542 155.195L174.983 154.704L177.831 157.44L174.983 160.175Z" fill="#A4ACE3"/>
<path d="M36.2489 139.633H33.6597V157.471H36.2489V139.633Z" fill="#A4ACE3"/>
<path d="M53.5102 125.363H50.921V157.472H53.5102V125.363Z" fill="#A4ACE3"/>
<path d="M81.9914 91.4705H79.4022V157.472H81.9914V91.4705Z" fill="#A4ACE3"/>
<path d="M105.294 134.282H102.705V157.472H105.294V134.282Z" fill="#A4ACE3"/>
<path d="M135.502 101.281H132.912V157.472H135.502V101.281Z" fill="#A4ACE3"/>
<path d="M155.352 132.498H152.763V157.472H155.352V132.498Z" fill="#A4ACE3"/>
<path d="M157.343 172.076L123.723 193.979L124.184 194.734L157.803 172.83L157.343 172.076Z" fill="#A4ACE3"/>
<path d="M83.325 177.089L54.109 201.109L54.6464 201.807L83.8624 177.787L83.325 177.089Z" fill="#A4ACE3"/>
<path d="M30.9121 173.08L30.2156 173.607L49.6778 201.094L50.3743 200.567L30.9121 173.08Z" fill="#A4ACE3"/>
<path d="M89.379 176.537L88.9448 177.307L118.074 194.832L118.508 194.061L89.379 176.537Z" fill="#A4ACE3"/>
<path d="M55.056 203.482C55.056 205.286 53.6414 206.748 51.8963 206.748C50.1511 206.748 48.7366 205.286 48.7366 203.482C48.7366 201.679 50.1511 200.217 51.8963 200.217C53.6414 200.217 55.056 201.679 55.056 203.482Z" fill="#A4ACE3"/>
<path d="M124.315 195.859C124.315 197.662 122.901 199.124 121.156 199.124C119.411 199.124 117.996 197.662 117.996 195.859C117.996 194.055 119.411 192.594 121.156 192.594C122.901 192.594 124.315 194.055 124.315 195.859Z" fill="#A4ACE3"/>
<path d="M163.416 170.714C163.416 172.517 162.001 173.979 160.256 173.979C158.511 173.979 157.096 172.517 157.096 170.714C157.096 168.911 158.511 167.449 160.256 167.449C162.001 167.449 163.416 168.911 163.416 170.714Z" fill="#A4ACE3"/>
<path d="M31.8653 170.714C31.8653 172.517 30.4507 173.979 28.7056 173.979C26.9605 173.979 25.5459 172.517 25.5459 170.714C25.5459 168.911 26.9605 167.449 28.7056 167.449C30.4507 167.449 31.8653 168.911 31.8653 170.714Z" fill="#A4ACE3"/>
<path d="M89.4103 175.688C89.4103 177.491 87.9958 178.953 86.2506 178.953C84.5055 178.953 83.0909 177.491 83.0909 175.688C83.0909 173.884 84.5055 172.423 86.2506 172.423C87.9958 172.423 89.4103 173.884 89.4103 175.688Z" fill="#A4ACE3"/>
<path d="M541.369 0.0498047H404.142C399.375 0.0498047 395.511 4.04288 395.511 8.9689V156.134C395.511 161.06 399.375 165.053 404.142 165.053H541.369C546.136 165.053 550 161.06 550 156.134V8.9689C550 4.04288 546.136 0.0498047 541.369 0.0498047Z" fill="#D5D9F2"/>
<path d="M541.369 0.0498047H404.142C399.375 0.0498047 395.511 4.04288 395.511 8.9689V156.134C395.511 161.06 399.375 165.053 404.142 165.053H541.369C546.136 165.053 550 161.06 550 156.134V8.9689C550 4.04288 546.136 0.0498047 541.369 0.0498047Z" fill="#D5D9F2"/>
<path d="M541.369 4.50935C543.749 4.50935 545.685 6.5099 545.685 8.9689V156.134C545.685 158.593 543.749 160.593 541.369 160.593H404.142C401.762 160.593 399.826 158.593 399.826 156.134V8.9689C399.826 6.5099 401.762 4.50935 404.142 4.50935H541.369ZM541.369 0.0498047H404.142C399.375 0.0498047 395.511 4.04288 395.511 8.9689V156.134C395.511 161.06 399.375 165.053 404.142 165.053H541.369C546.136 165.053 550 161.06 550 156.134V8.9689C550 4.04288 546.136 0.0498047 541.369 0.0498047Z" fill="#A4ACE3"/>
<path d="M426.922 23.0706H408.098V42.524H426.922V23.0706Z" fill="#A4ACE3"/>
<path d="M426.922 56.24H408.098V75.6934H426.922V56.24Z" fill="#BFC5EB"/>
<path d="M426.922 89.4094H408.098V108.863H426.922V89.4094Z" fill="#A4ACE3"/>
<path d="M426.922 122.578H408.098V142.032H426.922V122.578Z" fill="#BFC5EB"/>
<path d="M533.673 36.6626H442.609C440.543 36.6626 438.868 34.9322 438.868 32.7979C438.868 30.6636 440.542 28.9324 442.609 28.9324H533.673C535.738 28.9324 537.412 30.6627 537.412 32.7979C537.413 34.9314 535.739 36.6626 533.673 36.6626Z" fill="#BFC5EB"/>
<path d="M533.673 69.8319H442.609C440.543 69.8319 438.868 68.1016 438.868 65.9664C438.868 63.832 440.542 62.1008 442.609 62.1008H533.673C535.738 62.1008 537.412 63.8311 537.412 65.9664C537.413 68.1016 535.739 69.8319 533.673 69.8319Z" fill="#BFC5EB"/>
<path d="M533.673 103.001H442.609C440.543 103.001 438.868 101.271 438.868 99.1365C438.868 97.0022 440.542 95.271 442.609 95.271H533.673C535.738 95.271 537.412 97.0013 537.412 99.1365C537.413 101.271 535.739 103.001 533.673 103.001Z" fill="#BFC5EB"/>
<path d="M533.673 136.17H442.609C440.543 136.17 438.868 134.44 438.868 132.306C438.868 130.171 440.542 128.441 442.609 128.441H533.673C535.738 128.441 537.412 130.171 537.412 132.306C537.413 134.44 535.739 136.17 533.673 136.17Z" fill="#BFC5EB"/>
</g>
</svg>
