<svg width="1920" height="692" viewBox="0 0 1920 692" fill="none" xmlns="http://www.w3.org/2000/svg">
<g clip-path="url(#clip0_2307_590)">
<rect width="1920" height="692" fill="white"/>
<rect width="1920" height="692" fill="white"/>
<g opacity="0.25">
<path d="M432.762 39.0498H295.534C290.768 39.0498 286.904 43.0429 286.904 47.9689V195.134C286.904 200.06 290.768 204.053 295.534 204.053H432.762C437.529 204.053 441.393 200.06 441.393 195.134V47.9689C441.393 43.0429 437.529 39.0498 432.762 39.0498Z" fill="#D5D9F2"/>
<path d="M432.762 39.0498H295.534C290.768 39.0498 286.904 43.0429 286.904 47.9689V195.134C286.904 200.06 290.768 204.053 295.534 204.053H432.762C437.529 204.053 441.393 200.06 441.393 195.134V47.9689C441.393 43.0429 437.529 39.0498 432.762 39.0498Z" fill="#D5D9F2"/>
<path d="M432.762 43.5094C435.142 43.5094 437.078 45.5099 437.078 47.9689V195.134C437.078 197.593 435.142 199.593 432.762 199.593H295.534C293.155 199.593 291.219 197.593 291.219 195.134V47.9689C291.219 45.5099 293.155 43.5094 295.534 43.5094H432.762ZM432.762 39.0498H295.534C290.768 39.0498 286.904 43.0429 286.904 47.9689V195.134C286.904 200.06 290.768 204.053 295.534 204.053H432.762C437.529 204.053 441.393 200.06 441.393 195.134V47.9689C441.393 43.0429 437.529 39.0498 432.762 39.0498Z" fill="#A4ACE3"/>
<path d="M304.597 173.476C303.405 173.476 302.439 174.474 302.439 175.705V187.107H306.754V175.705C306.754 174.474 305.789 173.476 304.597 173.476Z" fill="#A4ACE3"/>
<path d="M328.762 165.868C327.571 165.868 326.605 166.866 326.605 168.097V187.107H330.92V168.097C330.92 166.867 329.954 165.868 328.762 165.868Z" fill="#A4ACE3"/>
<path d="M352.928 173.476C351.737 173.476 350.771 174.474 350.771 175.705V187.107H355.086V175.705C355.086 174.474 354.12 173.476 352.928 173.476Z" fill="#A4ACE3"/>
<path d="M376.231 158.219C375.039 158.219 374.073 159.217 374.073 160.449V187.106H378.389V160.449C378.389 159.218 377.423 158.219 376.231 158.219Z" fill="#A4ACE3"/>
<path d="M400.399 116.646H400.395C399.204 116.646 398.24 117.643 398.24 118.874V187.107H402.555V118.874C402.555 117.643 401.59 116.646 400.399 116.646Z" fill="#A4ACE3"/>
<path d="M424.563 86.2788C423.371 86.2788 422.405 87.2769 422.405 88.5086V187.106H426.721V88.5086C426.721 87.2769 425.755 86.2788 424.563 86.2788Z" fill="#A4ACE3"/>
<path d="M323.209 59.2256C326.412 59.2256 329.347 60.4243 331.599 62.4231L335.315 57.9314C332.061 55.047 327.833 53.3096 323.208 53.3096C319.711 53.3096 316.441 54.3005 313.641 56.0379L316.576 61.112C318.519 59.9115 320.78 59.2256 323.209 59.2256Z" fill="#A4ACE3"/>
<path d="M332.121 82.2574C329.808 84.5425 326.664 85.941 323.209 85.941C318.299 85.941 314.029 83.1172 311.835 78.9475L306.799 81.7624C309.96 87.7747 316.123 91.8579 323.209 91.8579C328.203 91.8579 332.726 89.8333 336.064 86.5323L332.121 82.2574Z" fill="#A4ACE3"/>
<path d="M341.856 72.5786C341.856 78.0692 339.636 83.03 336.063 86.5316L332.121 82.2576C334.592 79.8244 336.13 76.3933 336.13 72.5795C336.13 68.5133 334.373 64.8734 331.599 62.4233L335.316 57.9316C339.318 61.4582 341.856 66.7143 341.856 72.5786Z" fill="#BFC5EB"/>
<path d="M310.279 72.5784C310.279 74.8893 310.843 77.0531 311.834 78.9466L306.798 81.7615C305.369 79.0331 304.553 75.9061 304.553 72.5784C304.553 65.5501 308.194 59.3986 313.642 56.0361L316.576 61.1102C312.802 63.4479 310.279 67.705 310.279 72.5784Z" fill="#BFC5EB"/>
<path d="M374.32 58.8736C377.523 58.8736 380.458 60.0723 382.711 62.071L386.427 57.5794C383.173 54.695 378.945 52.9575 374.32 52.9575C370.823 52.9575 367.553 53.9484 364.753 55.6859L367.688 60.7599C369.629 59.5603 371.891 58.8736 374.32 58.8736Z" fill="#A4ACE3"/>
<path d="M383.231 81.9051C380.919 84.1902 377.775 85.5887 374.32 85.5887C369.41 85.5887 365.14 82.7649 362.946 78.5952L357.91 81.4101C361.071 87.4224 367.234 91.5056 374.32 91.5056C379.314 91.5056 383.837 89.481 387.175 86.18L383.231 81.9051Z" fill="#A4ACE3"/>
<path d="M392.967 72.227C392.967 77.7176 390.747 82.6784 387.175 86.18L383.232 81.906C385.704 79.4729 387.242 76.0417 387.242 72.2279C387.242 68.1617 385.484 64.5218 382.71 62.0717L386.426 57.5801C390.428 61.1058 392.967 66.3627 392.967 72.227Z" fill="#BFC5EB"/>
<path d="M361.39 72.2271C361.39 74.538 361.953 76.7018 362.945 78.5953L357.909 81.4102C356.48 78.6818 355.664 75.5548 355.664 72.2271C355.664 65.1988 359.305 59.0473 364.752 55.6848L367.687 60.7589C363.913 63.0957 361.39 67.3528 361.39 72.2271Z" fill="#BFC5EB"/>
<path d="M427.082 187.107H302.066C301.828 187.107 301.635 186.907 301.635 186.661C301.635 186.415 301.828 186.215 302.066 186.215H427.082C427.32 186.215 427.514 186.415 427.514 186.661C427.514 186.907 427.32 187.107 427.082 187.107Z" fill="#A4ACE3"/>
<path d="M308.967 166.662C308.736 166.662 308.506 166.566 308.336 166.378C308.011 166.018 308.031 165.453 308.379 165.117L334.726 139.716C335.009 139.444 335.431 139.4 335.761 139.605L361.399 155.589L411.126 74.5934C411.381 74.1769 411.913 74.0547 412.318 74.3178C412.72 74.5818 412.84 75.1321 412.585 75.5486L362.405 157.281C362.153 157.691 361.632 157.817 361.23 157.567L335.427 141.479L309.556 166.42C309.39 166.582 309.179 166.662 308.967 166.662Z" fill="#A4ACE3"/>
<path d="M412.484 79.6928L411.582 75.5178L407.542 76.4525L408.873 74.2843L412.912 73.3513L413.815 77.5246L412.484 79.6928Z" fill="#92A9D1"/>
<path d="M252.381 264.257H80.6307C75.864 264.257 72 260.264 72 255.338V48.4147C72 43.4887 75.864 39.4956 80.6307 39.4956H252.381C257.148 39.4956 261.012 43.4887 261.012 48.4147V255.338C261.012 260.264 257.148 264.257 252.381 264.257Z" fill="#D5D9F2"/>
<path d="M252.381 43.9552C254.761 43.9552 256.696 45.9557 256.696 48.4147V255.338C256.696 257.797 254.761 259.797 252.381 259.797H80.6307C78.2512 259.797 76.3153 257.797 76.3153 255.338V48.4147C76.3153 45.9557 78.2512 43.9552 80.6307 43.9552H252.381ZM252.381 39.4956H80.6307C75.864 39.4956 72 43.4887 72 48.4147V255.338C72 260.264 75.864 264.257 80.6307 264.257H252.381C257.148 264.257 261.012 260.264 261.012 255.338V48.4147C261.012 43.4887 257.148 39.4956 252.381 39.4956Z" fill="#A4ACE3"/>
<path d="M128.923 61.7935H110.879C109.426 61.7935 108.249 60.5769 108.249 59.0758V52.9154C108.249 51.4143 109.426 50.1978 110.879 50.1978H128.923C130.375 50.1978 131.552 51.4143 131.552 52.9154V59.0758C131.552 60.5769 130.374 61.7935 128.923 61.7935Z" fill="#BFC5EB"/>
<path d="M175.528 61.7935H157.484C156.032 61.7935 154.854 60.5769 154.854 59.0758V52.9154C154.854 51.4143 156.032 50.1978 157.484 50.1978H175.528C176.981 50.1978 178.158 51.4143 178.158 52.9154V59.0758C178.157 60.5769 176.98 61.7935 175.528 61.7935Z" fill="#BFC5EB"/>
<path d="M222.134 61.7935H204.09C202.637 61.7935 201.46 60.5769 201.46 59.0758V52.9154C201.46 51.4143 202.637 50.1978 204.09 50.1978H222.134C223.587 50.1978 224.764 51.4143 224.764 52.9154V59.0758C224.763 60.5769 223.586 61.7935 222.134 61.7935Z" fill="#BFC5EB"/>
<path d="M85.8091 160.487V196.472H240.14C240.14 196.472 236.917 80.4858 217.055 80.4858C197.15 80.4858 199.539 136.287 180.64 136.287C161.742 136.287 167.447 103.033 148.462 103.033C129.476 103.033 141.461 155.431 125.097 155.431C108.733 155.431 113.343 138.274 102.51 138.274C91.6779 138.274 96.9944 160.487 85.8091 160.487Z" fill="#BFC5EB"/>
<path d="M249.128 195.58H85.7789C85.6002 196.774 85.4553 196.624 84.946 196.44V59.5627C85.4553 59.3781 85.6002 59.2283 85.7789 59.2283C85.9576 59.2283 86.1026 59.3781 85.8091 59.5627V196.472H249.128C249.307 196.105 249.452 196.255 249.452 196.44C249.452 196.624 249.307 196.774 249.128 195.58Z" fill="#A4ACE3"/>
<path d="M83.1318 61.7793L83.6057 62.2351L85.778 59.8198L87.9512 62.2351L88.4259 61.7793L85.778 58.8369L83.1318 61.7793Z" fill="#A4ACE3"/>
<path d="M246.983 199.175L246.542 198.685L248.88 196.44L246.542 194.195L246.983 193.704L249.831 196.44L246.983 199.175Z" fill="#A4ACE3"/>
<path d="M108.249 178.633H105.66V196.471H108.249V178.633Z" fill="#A4ACE3"/>
<path d="M125.51 164.363H122.921V196.472H125.51V164.363Z" fill="#A4ACE3"/>
<path d="M153.992 130.47H151.402V196.472H153.992V130.47Z" fill="#A4ACE3"/>
<path d="M177.294 173.282H174.705V196.472H177.294V173.282Z" fill="#A4ACE3"/>
<path d="M207.502 140.281H204.912V196.472H207.502V140.281Z" fill="#A4ACE3"/>
<path d="M227.352 171.498H224.763V196.472H227.352V171.498Z" fill="#A4ACE3"/>
<path d="M229.343 211.076L195.723 232.979L196.184 233.734L229.803 211.83L229.343 211.076Z" fill="#A4ACE3"/>
<path d="M155.325 216.089L126.109 240.109L126.646 240.807L155.862 216.787L155.325 216.089Z" fill="#A4ACE3"/>
<path d="M102.912 212.08L102.216 212.607L121.678 240.094L122.374 239.567L102.912 212.08Z" fill="#A4ACE3"/>
<path d="M161.379 215.537L160.945 216.307L190.074 233.832L190.508 233.061L161.379 215.537Z" fill="#A4ACE3"/>
<path d="M127.056 242.482C127.056 244.286 125.641 245.748 123.896 245.748C122.151 245.748 120.737 244.286 120.737 242.482C120.737 240.679 122.151 239.217 123.896 239.217C125.641 239.217 127.056 240.679 127.056 242.482Z" fill="#A4ACE3"/>
<path d="M196.315 234.859C196.315 236.662 194.901 238.124 193.156 238.124C191.411 238.124 189.996 236.662 189.996 234.859C189.996 233.055 191.411 231.594 193.156 231.594C194.901 231.594 196.315 233.055 196.315 234.859Z" fill="#A4ACE3"/>
<path d="M235.416 209.714C235.416 211.517 234.001 212.979 232.256 212.979C230.511 212.979 229.096 211.517 229.096 209.714C229.096 207.911 230.511 206.449 232.256 206.449C234.001 206.449 235.416 207.911 235.416 209.714Z" fill="#A4ACE3"/>
<path d="M103.865 209.714C103.865 211.517 102.451 212.979 100.706 212.979C98.9605 212.979 97.5459 211.517 97.5459 209.714C97.5459 207.911 98.9605 206.449 100.706 206.449C102.451 206.449 103.865 207.911 103.865 209.714Z" fill="#A4ACE3"/>
<path d="M161.41 214.688C161.41 216.491 159.996 217.953 158.251 217.953C156.505 217.953 155.091 216.491 155.091 214.688C155.091 212.884 156.505 211.423 158.251 211.423C159.996 211.423 161.41 212.884 161.41 214.688Z" fill="#A4ACE3"/>
<path d="M613.369 39.0498H476.142C471.375 39.0498 467.511 43.0429 467.511 47.9689V195.134C467.511 200.06 471.375 204.053 476.142 204.053H613.369C618.136 204.053 622 200.06 622 195.134V47.9689C622 43.0429 618.136 39.0498 613.369 39.0498Z" fill="#D5D9F2"/>
<path d="M613.369 39.0498H476.142C471.375 39.0498 467.511 43.0429 467.511 47.9689V195.134C467.511 200.06 471.375 204.053 476.142 204.053H613.369C618.136 204.053 622 200.06 622 195.134V47.9689C622 43.0429 618.136 39.0498 613.369 39.0498Z" fill="#D5D9F2"/>
<path d="M613.369 43.5094C615.749 43.5094 617.685 45.5099 617.685 47.9689V195.134C617.685 197.593 615.749 199.593 613.369 199.593H476.142C473.762 199.593 471.826 197.593 471.826 195.134V47.9689C471.826 45.5099 473.762 43.5094 476.142 43.5094H613.369ZM613.369 39.0498H476.142C471.375 39.0498 467.511 43.0429 467.511 47.9689V195.134C467.511 200.06 471.375 204.053 476.142 204.053H613.369C618.136 204.053 622 200.06 622 195.134V47.9689C622 43.0429 618.136 39.0498 613.369 39.0498Z" fill="#A4ACE3"/>
<path d="M498.922 62.0706H480.098V81.524H498.922V62.0706Z" fill="#A4ACE3"/>
<path d="M498.922 95.24H480.098V114.693H498.922V95.24Z" fill="#BFC5EB"/>
<path d="M498.922 128.409H480.098V147.863H498.922V128.409Z" fill="#A4ACE3"/>
<path d="M498.922 161.578H480.098V181.032H498.922V161.578Z" fill="#BFC5EB"/>
<path d="M605.672 75.6626H514.608C512.543 75.6626 510.868 73.9322 510.868 71.7979C510.868 69.6636 512.542 67.9324 514.608 67.9324H605.672C607.738 67.9324 609.412 69.6627 609.412 71.7979C609.413 73.9314 607.739 75.6626 605.672 75.6626Z" fill="#BFC5EB"/>
<path d="M605.672 108.832H514.608C512.543 108.832 510.868 107.102 510.868 104.966C510.868 102.832 512.542 101.101 514.608 101.101H605.672C607.738 101.101 609.412 102.831 609.412 104.966C609.413 107.102 607.739 108.832 605.672 108.832Z" fill="#BFC5EB"/>
<path d="M605.672 142.001H514.608C512.543 142.001 510.868 140.271 510.868 138.137C510.868 136.002 512.542 134.271 514.608 134.271H605.672C607.738 134.271 609.412 136.001 609.412 138.137C609.413 140.271 607.739 142.001 605.672 142.001Z" fill="#BFC5EB"/>
<path d="M605.672 175.17H514.608C512.543 175.17 510.868 173.44 510.868 171.306C510.868 169.171 512.542 167.441 514.608 167.441H605.672C607.738 167.441 609.412 169.171 609.412 171.306C609.413 173.44 607.739 175.17 605.672 175.17Z" fill="#BFC5EB"/>
</g>
<g opacity="0.25">
<path d="M1651.14 533.224H1419.66V543.301H1651.14V533.224Z" fill="#A4ACE3"/>
<path d="M1450.77 543.301L1424.32 688.692H1430.84L1467.17 543.301H1450.77Z" fill="#A4ACE3"/>
<path d="M1620.51 543.301L1646.95 688.692H1640.43L1604.11 543.301H1620.51Z" fill="#A4ACE3"/>
<path d="M1619.98 584.984H1450.62L1448.11 591.406H1622.16L1619.98 584.984Z" fill="#A4ACE3"/>
<path d="M1189.56 615.111C1180.8 601.21 1175.88 584.542 1177.73 568.213C1179.58 551.884 1188.72 536.115 1203.01 528C1208.38 542.416 1210.34 558.452 1208.04 573.661C1205.74 588.87 1198.95 602.927 1189.56 615.111Z" fill="#BFC5EB"/>
<path d="M1191.42 632.569C1190.92 632.569 1190.49 632.196 1190.43 631.688C1186.67 600.249 1189.57 567.624 1198.82 537.342C1198.98 536.814 1199.54 536.511 1200.07 536.678C1200.59 536.839 1200.89 537.398 1200.73 537.926C1191.56 567.944 1188.69 600.284 1192.42 631.449C1192.48 631.998 1192.09 632.496 1191.54 632.561C1191.5 632.567 1191.46 632.569 1191.42 632.569Z" fill="#A4ACE3"/>
<path d="M1207.76 616.152C1206.42 599.997 1211.01 583.417 1220.47 570.252C1229.93 557.087 1244.17 547.445 1259.91 543.559C1262.12 559.125 1255.61 575.3 1245.4 587.255C1235.19 599.211 1221.12 607.877 1207.76 616.152Z" fill="#BFC5EB"/>
<path d="M1205.04 631.674C1205.01 631.674 1204.97 631.672 1204.94 631.668C1204.39 631.61 1203.99 631.118 1204.05 630.569C1206.81 604.294 1224.4 582.68 1247.11 557.155C1247.47 556.744 1248.11 556.705 1248.52 557.073C1248.93 557.44 1248.97 558.072 1248.6 558.485C1226.14 583.737 1208.74 605.095 1206.04 630.778C1205.98 631.292 1205.55 631.674 1205.04 631.674Z" fill="#A4ACE3"/>
<path d="M1171.88 615.943C1171.56 600.152 1168.38 584.171 1160.62 570.413C1152.86 556.655 1140.21 545.29 1125 541.026C1124.94 556.466 1128.9 572.226 1137.2 585.243C1145.51 598.26 1157.86 609.487 1171.88 615.943Z" fill="#BFC5EB"/>
<path d="M1176.91 631.927C1176.48 631.927 1176.08 631.644 1175.95 631.207C1167.49 602.158 1152.6 574.658 1132.91 551.68C1132.56 551.261 1132.6 550.629 1133.02 550.27C1133.44 549.912 1134.07 549.958 1134.43 550.379C1154.3 573.571 1169.33 601.327 1177.87 630.647C1178.03 631.177 1177.72 631.733 1177.19 631.887C1177.1 631.914 1177.01 631.927 1176.91 631.927Z" fill="#A4ACE3"/>
<path d="M1220.97 626.751H1157.01L1170.27 688.692H1207.72L1220.97 626.751Z" fill="#BFC5EB"/>
<path d="M1219.11 635.456H1167.48L1217.13 644.707L1219.11 635.456Z" fill="#A4ACE3"/>
</g>
<path d="M1159.52 508.142C1158.92 508.142 1158.32 508.139 1157.72 508.131L1157.73 507.199C1159.44 507.22 1161.14 507.21 1162.84 507.171L1162.87 508.101C1161.75 508.13 1160.64 508.142 1159.52 508.142ZM1152.57 507.969C1150.85 507.882 1149.12 507.762 1147.43 507.612L1147.53 506.685C1149.21 506.834 1150.92 506.953 1152.62 507.038L1152.57 507.969ZM1168.02 507.885L1167.95 506.956C1169.64 506.854 1171.36 506.72 1173.04 506.559L1173.15 507.487C1171.45 507.647 1169.72 507.783 1168.02 507.885ZM1142.31 507.062C1140.67 506.853 1139 506.608 1137.35 506.335L1137.22 506.312L1137.41 505.395L1137.55 505.419C1139.17 505.688 1140.82 505.93 1142.45 506.136L1142.31 507.062ZM1178.26 506.905L1178.11 505.982C1179.78 505.763 1181.47 505.509 1183.16 505.228L1183.34 506.145C1181.65 506.429 1179.94 506.684 1178.26 506.905ZM1132.18 505.377C1130.54 505.043 1128.86 504.671 1127.18 504.271L1127.45 503.37C1129.11 503.766 1130.77 504.136 1132.4 504.467L1132.18 505.377ZM1188.39 505.21L1188.17 504.3C1189.82 503.964 1191.49 503.595 1193.13 503.203L1193.4 504.104C1191.74 504.5 1190.06 504.871 1188.39 505.21ZM1122.24 503.007C1120.61 502.565 1118.96 502.089 1117.33 501.593L1117.66 500.709C1119.28 501.201 1120.92 501.675 1122.53 502.114L1122.24 503.007ZM1198.35 502.83L1198.06 501.938C1199.67 501.494 1201.31 501.013 1202.92 500.51L1203.26 501.392C1201.63 501.897 1199.98 502.382 1198.35 502.83ZM769.829 502.658L769.817 501.725C771.523 501.708 773.229 501.67 774.934 501.613L774.972 502.544C773.259 502.602 771.544 502.64 769.829 502.658ZM764.684 502.65C762.988 502.628 761.257 502.585 759.54 502.52L759.582 501.589C761.29 501.653 763.012 501.696 764.699 501.718L764.684 502.65ZM780.112 502.312L780.049 501.381C781.751 501.287 783.453 501.171 785.154 501.036L785.243 501.965C783.532 502.101 781.823 502.216 780.112 502.312ZM754.402 502.262C752.697 502.158 750.972 502.028 749.273 501.878L749.372 500.95C751.061 501.099 752.778 501.228 754.472 501.332L754.402 502.262ZM790.362 501.508L790.249 500.581C791.945 500.41 793.639 500.222 795.332 500.015L795.469 500.939C793.767 501.146 792.065 501.336 790.362 501.508ZM744.157 501.362C742.451 501.168 740.736 500.95 739.06 500.713L739.217 499.792C740.884 500.027 742.589 500.244 744.285 500.437L744.157 501.362ZM800.557 500.264L800.397 499.343C802.082 499.101 803.766 498.842 805.446 498.567L805.629 499.484C803.941 499.761 802.25 500.022 800.557 500.264ZM1112.48 500.045C1110.87 499.508 1109.27 498.951 1107.67 498.376L1108.05 497.509C1109.64 498.082 1111.23 498.635 1112.83 499.17L1112.48 500.045ZM733.985 499.927C732.306 499.644 730.609 499.335 728.939 499.007L729.156 498.095C730.816 498.421 732.504 498.73 734.172 499.01L733.985 499.927ZM1208.09 499.79L1207.72 498.92C1209.31 498.368 1210.9 497.78 1212.46 497.174L1212.86 498.03C1211.29 498.641 1209.69 499.234 1208.09 499.79ZM810.68 498.601L810.476 497.688C812.148 497.379 813.817 497.054 815.482 496.711L815.709 497.621C814.036 497.964 812.36 498.292 810.68 498.601ZM723.925 497.948C722.335 497.589 720.719 497.2 719.124 496.793L718.947 496.748L719.229 495.853L719.395 495.894C720.987 496.301 722.593 496.687 724.173 497.044L723.925 497.948ZM1102.91 496.601C1101.33 495.991 1099.76 495.368 1098.19 494.727L1098.61 493.878C1100.17 494.514 1101.74 495.137 1103.31 495.743L1102.91 496.601ZM820.713 496.543L820.466 495.638C822.122 495.265 823.775 494.875 825.423 494.469L825.692 495.369C824.037 495.776 822.377 496.168 820.713 496.543ZM1217.57 496.115L1217.13 495.27C1218.65 494.617 1220.2 493.926 1221.71 493.217L1222.18 494.045C1220.66 494.761 1219.1 495.457 1217.57 496.115ZM714.016 495.4C712.403 494.932 710.761 494.427 709.136 493.899L709.482 493.021C711.096 493.546 712.727 494.047 714.329 494.512L714.016 495.4ZM830.642 494.103L830.354 493.209C831.993 492.774 833.626 492.323 835.255 491.857L835.564 492.746C833.928 493.213 832.287 493.666 830.642 494.103ZM1093.51 492.775C1091.96 492.112 1090.42 491.436 1088.87 490.751L1089.33 489.913C1090.86 490.597 1092.4 491.27 1093.95 491.93L1093.51 492.775ZM704.315 492.247C702.731 491.677 701.131 491.073 699.558 490.451L699.968 489.596C701.53 490.215 703.12 490.814 704.693 491.38L704.315 492.247ZM1226.72 491.825L1226.21 491.012C1227.69 490.258 1229.17 489.467 1230.62 488.662L1231.16 489.457C1229.7 490.268 1228.2 491.065 1226.72 491.825ZM840.453 491.299L840.126 490.416C841.745 489.921 843.358 489.412 844.964 488.888L845.311 489.766C843.698 490.292 842.079 490.803 840.453 491.299ZM1084.27 488.67C1082.74 487.969 1081.21 487.26 1079.69 486.543L1080.16 485.715C1081.68 486.43 1083.2 487.138 1084.73 487.838L1084.27 488.67ZM694.871 488.511C693.332 487.846 691.78 487.145 690.259 486.43L690.731 485.601C692.242 486.313 693.784 487.008 695.313 487.668L694.871 488.511ZM850.135 488.147L849.77 487.276C851.367 486.724 852.958 486.157 854.54 485.58L854.924 486.444C853.335 487.025 851.738 487.592 850.135 488.147ZM1235.5 486.942L1234.94 486.165C1236.34 485.317 1237.76 484.431 1239.15 483.529L1239.74 484.287C1238.35 485.194 1236.92 486.087 1235.5 486.942ZM859.671 484.664L859.272 483.806C860.842 483.204 862.41 482.59 863.976 481.966L864.389 482.819C862.818 483.445 861.246 484.06 859.671 484.664ZM1075.13 484.381C1073.62 483.656 1072.1 482.926 1070.59 482.195L1071.08 481.372C1072.59 482.104 1074.1 482.832 1075.61 483.556L1075.13 484.381ZM685.726 484.21C684.246 483.456 682.749 482.665 681.278 481.854L681.81 481.057C683.271 481.862 684.758 482.648 686.228 483.396L685.726 484.21ZM1243.87 481.489L1243.24 480.753C1244.59 479.802 1245.93 478.822 1247.23 477.84L1247.88 478.554C1246.58 479.543 1245.23 480.53 1243.87 481.489ZM869.08 480.922L868.657 480.072C870.213 479.434 871.767 478.789 873.321 478.138L873.751 478.985C872.196 479.637 870.638 480.283 869.08 480.922ZM1066.06 479.994L1061.54 477.791L1062.02 476.97L1066.55 479.173L1066.06 479.994ZM676.919 479.363C675.483 478.511 674.049 477.63 672.656 476.741L673.246 475.978C674.629 476.861 676.054 477.736 677.48 478.582L676.919 479.363ZM878.407 477.022L877.972 476.178C879.52 475.519 881.068 474.859 882.617 474.197L883.055 475.04C881.506 475.704 879.957 476.364 878.407 477.022ZM1057.02 475.596C1055.51 474.865 1054 474.138 1052.48 473.417L1052.96 472.592C1054.48 473.314 1055.99 474.043 1057.5 474.773L1057.02 475.596ZM1251.77 475.483L1251.08 474.791C1252.02 474.025 1252.94 473.248 1253.85 472.458C1254.17 472.177 1254.5 471.894 1254.82 471.61L1255.53 472.278C1255.21 472.563 1254.88 472.849 1254.56 473.131C1253.64 473.928 1252.71 474.712 1251.77 475.483ZM668.496 473.988C667.129 473.052 665.765 472.082 664.441 471.108L665.087 470.384C666.401 471.351 667.756 472.314 669.114 473.244L668.496 473.988ZM887.698 473.053L887.26 472.21C888.809 471.547 890.359 470.885 891.909 470.227L892.343 471.071C890.795 471.73 889.246 472.391 887.698 473.053ZM1047.94 471.267C1046.42 470.556 1044.9 469.852 1043.37 469.157L1043.83 468.323C1045.36 469.021 1046.89 469.726 1048.41 470.439L1047.94 471.267ZM896.998 469.108L896.568 468.262C898.125 467.609 899.683 466.962 901.242 466.321L901.665 467.171C900.109 467.81 898.552 468.457 896.998 469.108ZM1259.16 468.95L1258.42 468.306C1259.58 467.204 1260.74 466.054 1261.89 464.886L1262.66 465.505C1261.5 466.681 1260.33 467.839 1259.16 468.95ZM660.499 468.101C659.203 467.076 657.917 466.022 656.677 464.97L657.378 464.288C658.609 465.334 659.886 466.381 661.173 467.399L660.499 468.101ZM1038.78 467.095C1037.25 466.417 1035.71 465.75 1034.17 465.095L1034.6 464.25C1036.15 464.907 1037.69 465.576 1039.23 466.256L1038.78 467.095ZM906.353 465.273L905.94 464.42C907.512 463.794 909.087 463.176 910.663 462.57L911.063 463.428C909.491 464.032 907.92 464.648 906.353 465.273ZM1029.51 463.167C1027.95 462.538 1026.39 461.923 1024.82 461.325L1025.21 460.465C1026.79 461.066 1028.36 461.684 1029.93 462.316L1029.51 463.167ZM1266.01 461.949L1265.22 461.355C1266.29 460.172 1267.36 458.95 1268.4 457.72L1269.22 458.287C1268.17 459.525 1267.09 460.758 1266.01 461.949ZM652.981 461.713C651.769 460.605 650.57 459.469 649.419 458.337L650.173 457.704C651.316 458.829 652.506 459.956 653.71 461.055L652.981 461.713ZM915.802 461.648L915.417 460.785C917.01 460.199 918.607 459.63 920.207 459.074L920.573 459.945C918.979 460.498 917.389 461.066 915.802 461.648ZM1020.08 459.581C1018.44 459.001 1016.84 458.452 1015.29 457.946L1015.64 457.07C1017.19 457.577 1018.81 458.129 1020.45 458.712L1020.08 459.581ZM925.382 458.333L925.037 457.455C926.657 456.93 928.281 456.424 929.909 455.939L930.229 456.824C928.609 457.308 926.993 457.811 925.382 458.333ZM1010.46 456.438C1008.83 455.954 1007.19 455.492 1005.58 455.065L1005.86 454.17C1007.49 454.6 1009.14 455.065 1010.78 455.552L1010.46 456.438ZM935.116 455.438L934.824 454.544C936.494 454.095 938.163 453.671 939.784 453.285L940.045 454.185C938.434 454.57 936.776 454.991 935.116 455.438ZM645.998 454.844C644.886 453.665 643.785 452.451 642.725 451.234L643.53 450.656C644.582 451.862 645.675 453.068 646.778 454.236L645.998 454.844ZM1272.29 454.525L1271.45 453.984C1272.44 452.723 1273.41 451.436 1274.35 450.154L1275.2 450.668C1274.27 451.96 1273.28 453.257 1272.29 454.525ZM1000.65 453.842C998.971 453.456 997.294 453.101 995.663 452.784L995.878 451.872C997.523 452.192 999.211 452.55 1000.9 452.939L1000.65 453.842ZM945.014 453.084L944.788 452.174C946.479 451.828 948.177 451.511 949.832 451.231L950.02 452.148C948.377 452.426 946.693 452.741 945.014 453.084ZM990.637 451.904C988.957 451.641 987.258 451.407 985.587 451.211L985.718 450.288C987.403 450.486 989.117 450.721 990.811 450.985L990.637 451.904ZM955.06 451.394L954.913 450.471C956.617 450.249 958.336 450.058 960.024 449.906L960.126 450.834C958.453 450.985 956.748 451.173 955.06 451.394ZM980.51 450.718C978.81 450.586 977.095 450.488 975.416 450.427L975.457 449.496C977.151 449.558 978.881 449.657 980.598 449.789L980.51 450.718ZM965.21 450.48L965.155 449.549C966.863 449.467 968.596 449.42 970.306 449.411L970.312 450.344C968.618 450.352 966.903 450.398 965.21 450.48ZM639.608 447.512C638.597 446.253 637.603 444.963 636.655 443.679L637.507 443.16C638.448 444.435 639.433 445.714 640.437 446.962L639.608 447.512ZM1277.97 446.724L1277.1 446.237C1277.98 444.93 1278.86 443.584 1279.7 442.237L1280.59 442.698C1279.74 444.054 1278.86 445.408 1277.97 446.724ZM633.874 439.742C632.978 438.415 632.103 437.056 631.274 435.703L632.17 435.249C632.993 436.591 633.861 437.94 634.749 439.255L633.874 439.742ZM1283.06 438.593L1282.15 438.16C1282.93 436.809 1283.71 435.413 1284.45 434.011L1285.38 434.417C1284.62 435.828 1283.85 437.233 1283.06 438.593ZM628.864 431.565C628.096 430.178 627.351 428.755 626.65 427.337L627.587 426.956C628.282 428.361 629.021 429.771 629.782 431.146L628.864 431.565ZM1287.54 430.176L1286.6 429.798C1287.29 428.388 1287.97 426.95 1288.61 425.525L1289.56 425.876C1288.91 427.311 1288.24 428.758 1287.54 430.176ZM624.64 423.025C624.004 421.57 623.4 420.093 622.844 418.634L623.814 418.329C624.365 419.775 624.964 421.239 625.594 422.68L624.64 423.025ZM1291.42 421.52L1290.46 421.196C1291.05 419.754 1291.62 418.281 1292.17 416.817L1293.14 417.115C1292.59 418.587 1292.02 420.069 1291.42 421.52ZM621.268 414.173L621.039 413.462C620.642 412.21 620.268 410.926 619.927 409.648L620.925 409.428C621.262 410.695 621.633 411.964 622.026 413.204L622.253 413.907L621.268 414.173ZM1294.71 412.664L1293.73 412.392C1294.22 410.909 1294.7 409.407 1295.14 407.928L1296.13 408.173C1295.68 409.66 1295.21 411.171 1294.71 412.664ZM618.841 405.066C618.524 403.54 618.244 401.986 618.009 400.445L619.026 400.317C619.258 401.843 619.535 403.382 619.85 404.893L618.841 405.066ZM1297.41 403.646L1296.41 403.428C1296.8 401.931 1297.18 400.406 1297.53 398.897L1298.54 399.089C1298.19 400.606 1297.81 402.14 1297.41 403.646ZM617.427 395.792C617.275 394.246 617.162 392.674 617.092 391.119L618.117 391.08C618.187 392.62 618.299 394.178 618.45 395.709L617.427 395.792ZM1299.53 394.503L1298.52 394.336C1298.82 392.808 1299.11 391.266 1299.36 389.753L1300.38 389.893C1300.12 391.416 1299.83 392.967 1299.53 394.503ZM618.026 386.442L617 386.437C617.009 384.893 617.058 383.318 617.147 381.757L618.172 381.805C618.084 383.353 618.035 384.912 618.026 386.442ZM1301.08 385.268L1300.07 385.152C1300.28 383.634 1300.47 382.08 1300.63 380.534L1301.65 380.625C1301.49 382.179 1301.3 383.741 1301.08 385.268ZM618.553 377.178L617.532 377.087C617.698 375.545 617.906 373.982 618.151 372.439L619.167 372.571C618.924 374.101 618.718 375.651 618.553 377.178ZM1302.09 375.969L1301.07 375.903C1301.19 374.355 1301.29 372.795 1301.36 371.263L1302.39 371.305C1302.31 372.844 1302.21 374.414 1302.09 375.969ZM620.009 367.996L619.001 367.822C619.323 366.292 619.686 364.752 620.081 363.244L621.08 363.459C620.688 364.955 620.328 366.481 620.009 367.996ZM1302.55 366.636L1301.53 366.618C1301.55 365.477 1301.56 364.335 1301.56 363.193L1301.56 361.969L1302.58 361.962L1302.59 363.193C1302.59 364.342 1302.58 365.489 1302.55 366.636ZM622.375 358.973L621.389 358.716C621.862 357.219 622.378 355.715 622.924 354.247L623.897 354.545C623.356 356 622.844 357.49 622.375 358.973ZM1301.46 357.321C1301.4 355.773 1301.32 354.224 1301.22 352.676L1302.25 352.622C1302.35 354.178 1302.43 355.734 1302.48 357.291L1301.46 357.321ZM625.639 350.187L624.683 349.848C625.306 348.398 625.974 346.944 626.668 345.528L627.606 345.907C626.918 347.31 626.256 348.75 625.639 350.187ZM1300.87 348.039C1300.72 346.494 1300.56 344.951 1300.38 343.41L1301.4 343.31C1301.58 344.859 1301.75 346.41 1301.89 347.962L1300.87 348.039ZM629.793 341.717L628.876 341.298C629.647 339.908 630.464 338.519 631.307 337.169L632.2 337.629C631.366 338.966 630.555 340.341 629.793 341.717ZM1299.76 338.795C1299.54 337.258 1299.29 335.724 1299.02 334.194L1300.03 334.047C1300.3 335.586 1300.55 337.127 1300.78 338.67L1299.76 338.795ZM634.825 333.654L633.959 333.154C634.883 331.832 635.85 330.524 636.831 329.266L637.669 329.805C636.698 331.05 635.741 332.345 634.825 333.654ZM1298.15 329.612C1297.84 328.087 1297.51 326.567 1297.15 325.051L1298.16 324.858C1298.51 326.382 1298.85 327.91 1299.16 329.442L1298.15 329.612ZM640.728 326.096L639.922 325.517C640.985 324.296 642.098 323.086 643.229 321.923L643.999 322.539C642.881 323.691 641.78 324.888 640.728 326.096ZM1296.03 320.514C1295.64 319.005 1295.22 317.502 1294.78 316.005L1295.77 315.765C1296.21 317.27 1296.63 318.781 1297.03 320.299L1296.03 320.514ZM647.48 319.151L646.748 318.496C647.953 317.386 649.206 316.295 650.473 315.253L651.162 315.944C649.91 316.974 648.671 318.053 647.48 319.151ZM655.042 312.936L654.398 312.209C655.737 311.23 657.122 310.278 658.514 309.379L659.109 310.138C657.734 311.027 656.365 311.969 655.042 312.936ZM1293.41 311.525C1292.93 310.052 1292.43 308.556 1291.91 307.079L1292.88 306.795C1293.41 308.279 1293.92 309.783 1294.39 311.264L1293.41 311.525ZM663.355 307.567L662.811 306.776C664.269 305.949 665.771 305.155 667.275 304.414L667.764 305.233C666.278 305.965 664.795 306.75 663.355 307.567ZM844.443 304.85L844.428 303.918C846.157 303.896 847.877 303.851 849.54 303.784L849.586 304.714C847.912 304.782 846.181 304.828 844.443 304.85ZM839.303 304.848C837.597 304.826 835.884 304.784 834.167 304.723L834.207 303.793C835.915 303.853 837.619 303.894 839.318 303.916L839.303 304.848ZM829.037 304.491C827.333 304.396 825.626 304.287 823.914 304.162L823.996 303.233C825.701 303.358 827.403 303.467 829.1 303.561L829.037 304.491ZM854.724 304.426L854.643 303.497C856.356 303.375 858.067 303.222 859.73 303.046L859.849 303.972C858.174 304.149 856.45 304.302 854.724 304.426ZM818.799 303.748C817.1 303.598 815.397 303.436 813.692 303.263L813.806 302.337C815.506 302.509 817.204 302.671 818.898 302.821L818.799 303.748ZM864.953 303.337L864.793 302.416C866.484 302.173 868.175 301.896 869.82 301.593L870.024 302.507C868.365 302.813 866.659 303.092 864.953 303.337ZM672.323 303.141L671.885 302.297C673.43 301.635 675.018 301.002 676.605 300.415L676.993 301.278C675.423 301.86 673.852 302.486 672.323 303.141ZM808.593 302.718C806.898 302.528 805.2 302.329 803.501 302.123L803.637 301.199C805.333 301.405 807.027 301.603 808.719 301.793L808.593 302.718ZM1290.28 302.671C1289.72 301.212 1289.13 299.741 1288.53 298.302L1289.49 297.971C1290.09 299.418 1290.69 300.896 1291.25 302.363L1290.28 302.671ZM798.415 301.489C796.723 301.272 795.029 301.05 793.334 300.825L793.482 299.902C795.176 300.127 796.868 300.349 798.558 300.565L798.415 301.489ZM875.051 301.469L874.8 300.565C876.46 300.185 878.115 299.766 879.719 299.321L880.019 300.212C878.399 300.662 876.727 301.085 875.051 301.469ZM788.256 300.14L783.18 299.445L783.333 298.524L788.408 299.217L788.256 300.14ZM681.766 299.643L681.428 298.762C683.032 298.256 684.684 297.776 686.339 297.337L686.627 298.231C684.989 298.666 683.353 299.141 681.766 299.643ZM778.103 298.751C776.41 298.52 774.718 298.291 773.026 298.064L773.175 297.141C774.868 297.368 776.561 297.597 778.255 297.828L778.103 298.751ZM884.913 298.73L884.562 297.853C886.17 297.323 887.768 296.753 889.314 296.156L889.715 297.014C888.154 297.617 886.537 298.194 884.913 298.73ZM767.946 297.396C766.25 297.177 764.555 296.962 762.862 296.755L762.999 295.831C764.695 296.039 766.393 296.253 768.091 296.472L767.946 297.396ZM691.562 297.04L691.322 296.133C692.968 295.774 694.663 295.44 696.36 295.143L696.554 296.059C694.872 296.354 693.193 296.684 691.562 297.04ZM757.772 296.153C756.071 295.959 754.373 295.774 752.676 295.598L752.792 294.672C754.492 294.847 756.195 295.033 757.899 295.228L757.772 296.153ZM701.592 295.28L701.441 294.357C703.109 294.131 704.829 293.93 706.553 293.76L706.664 294.688C704.952 294.856 703.246 295.055 701.592 295.28ZM747.573 295.102C745.867 294.946 744.164 294.804 742.465 294.675L742.55 293.746C744.255 293.875 745.964 294.018 747.676 294.174L747.573 295.102ZM894.411 295.067L893.959 294.23C895.26 293.651 896.562 293.037 897.83 292.403L898.481 292.075L898.982 292.889L898.325 293.22C897.042 293.86 895.726 294.482 894.411 295.067ZM737.349 294.331C735.638 294.23 733.931 294.145 732.228 294.079L732.272 293.148C733.982 293.215 735.696 293.3 737.415 293.401L737.349 294.331ZM711.756 294.271L711.683 293.342C713.368 293.232 715.099 293.146 716.827 293.086L716.866 294.016C715.149 294.076 713.43 294.163 711.756 294.271ZM1286.65 293.977C1286 292.541 1285.32 291.102 1284.64 289.699L1285.58 289.322C1286.27 290.733 1286.95 292.179 1287.6 293.622L1286.65 293.977ZM727.104 293.935C725.392 293.906 723.687 293.896 721.983 293.909L721.974 292.978C723.685 292.963 725.4 292.974 727.122 293.003L727.104 293.935ZM903.406 290.487L902.856 289.701C904.27 288.886 905.694 288.017 907.091 287.118L907.685 287.879C906.274 288.787 904.835 289.665 903.406 290.487ZM1282.51 285.473C1281.77 284.063 1281.01 282.66 1280.24 281.303L1281.16 280.878C1281.93 282.243 1282.69 283.656 1283.43 285.073L1282.51 285.473ZM911.817 285.083L911.185 284.348C912.493 283.42 913.824 282.433 915.142 281.413L915.808 282.123C914.479 283.152 913.136 284.148 911.817 285.083ZM919.666 279.021L918.972 278.335C920.191 277.317 921.44 276.241 922.682 275.135L923.401 275.8C922.15 276.914 920.894 277.998 919.666 279.021ZM1277.86 277.191L1277.3 276.274C1276.66 275.22 1276 274.174 1275.33 273.136L1276.22 272.665C1276.89 273.709 1277.55 274.761 1278.2 275.822L1278.76 276.744L1277.86 277.191ZM927.025 272.482L926.287 271.834C927.471 270.721 928.641 269.591 929.801 268.449L930.556 269.081C929.39 270.228 928.214 271.363 927.025 272.482ZM1272.68 269.148C1271.78 267.833 1270.85 266.515 1269.91 265.231L1270.77 264.716C1271.71 266.007 1272.65 267.333 1273.56 268.655L1272.68 269.148ZM934.006 265.616L933.239 264.997C934.373 263.838 935.499 262.669 936.618 261.494L937.394 262.105C936.272 263.282 935.144 264.454 934.006 265.616ZM1267.02 261.388C1266.04 260.122 1265.03 258.854 1264.01 257.621L1264.83 257.064C1265.85 258.304 1266.87 259.578 1267.86 260.851L1267.02 261.388ZM940.737 258.559L939.955 257.956C941.06 256.773 942.163 255.584 943.265 254.395L944.051 254.994C942.948 256.185 941.845 257.375 940.737 258.559ZM1260.89 253.932C1259.83 252.721 1258.75 251.508 1257.66 250.324L1258.44 249.726C1259.54 250.915 1260.63 252.136 1261.7 253.355L1260.89 253.932ZM947.351 251.422L946.565 250.823C947.666 249.632 948.767 248.443 949.872 247.256L950.656 247.858C949.551 249.044 948.45 250.233 947.351 251.422ZM1254.32 246.798C1253.2 245.651 1252.04 244.492 1250.87 243.356L1251.62 242.72C1252.8 243.863 1253.96 245.027 1255.09 246.181L1254.32 246.798ZM953.981 244.311L953.203 243.704C954.319 242.523 955.442 241.348 956.574 240.182L957.345 240.799C956.215 241.961 955.095 243.134 953.981 244.311ZM1247.33 240.001C1246.15 238.915 1244.92 237.816 1243.68 236.732L1244.4 236.061C1245.64 237.15 1246.87 238.255 1248.06 239.347L1247.33 240.001ZM960.76 237.332L960.001 236.704C961.156 235.552 962.322 234.411 963.501 233.284L964.245 233.926C963.072 235.048 961.91 236.185 960.76 237.332ZM1239.95 233.554C1238.7 232.521 1237.42 231.482 1236.12 230.466L1236.79 229.761C1238.09 230.783 1239.39 231.827 1240.64 232.866L1239.95 233.554ZM967.817 230.596L967.09 229.937C967.959 229.147 968.837 228.366 969.723 227.594C970.076 227.288 970.428 226.984 970.783 226.681L971.486 227.36C971.133 227.662 970.783 227.963 970.434 228.267C969.552 229.035 968.68 229.811 967.817 230.596ZM1232.21 227.469C1230.89 226.486 1229.56 225.518 1228.21 224.565L1228.84 223.829C1230.19 224.787 1231.53 225.76 1232.86 226.748L1232.21 227.469ZM975.269 224.232L974.589 223.532C975.859 222.516 977.176 221.495 978.505 220.497L979.159 221.216C977.838 222.207 976.53 223.223 975.269 224.232ZM1224.13 221.755C1222.76 220.834 1221.38 219.929 1219.98 219.04L1220.57 218.276C1221.97 219.17 1223.36 220.08 1224.74 221.005L1224.13 221.755ZM983.154 218.314L982.525 217.577C983.871 216.631 985.256 215.686 986.644 214.772L987.248 215.526C985.867 216.435 984.491 217.373 983.154 218.314ZM1215.75 216.42C1214.33 215.563 1212.9 214.722 1211.45 213.896L1212 213.107C1213.45 213.937 1214.89 214.782 1216.32 215.643L1215.75 216.42ZM991.435 212.855L990.857 212.084C992.247 211.224 993.693 210.36 995.157 209.514L995.708 210.3C994.253 211.141 992.816 212.001 991.435 212.855ZM1207.09 211.471C1205.62 210.68 1204.14 209.904 1202.65 209.144L1203.16 208.331C1204.65 209.094 1206.14 209.874 1207.61 210.67L1207.09 211.471ZM1000.07 207.863L999.54 207.062C1001.01 206.267 1002.51 205.482 1004 204.728L1004.5 205.542C1003.01 206.293 1001.52 207.073 1000.07 207.863ZM1198.16 206.916C1196.66 206.19 1195.14 205.48 1193.61 204.787L1194.07 203.953C1195.61 204.65 1197.13 205.362 1198.64 206.093L1198.16 206.916ZM1009.01 203.343L1008.53 202.515C1010.05 201.801 1011.6 201.096 1013.13 200.421L1013.58 201.26C1012.05 201.931 1010.51 202.632 1009.01 203.343ZM1189.01 202.757C1187.46 202.098 1185.91 201.455 1184.35 200.829L1184.76 199.976C1186.33 200.606 1187.89 201.251 1189.45 201.914L1189.01 202.757ZM1018.22 199.297L1017.8 198.447C1019.36 197.812 1020.95 197.188 1022.52 196.593L1022.92 197.453C1021.35 198.045 1019.77 198.666 1018.22 199.297ZM1179.64 199.003C1178.06 198.412 1176.48 197.837 1174.89 197.279L1175.26 196.409C1176.86 196.969 1178.45 197.547 1180.03 198.142L1179.64 199.003ZM1027.67 195.73L1027.3 194.86C1028.89 194.307 1030.52 193.764 1032.13 193.247L1032.47 194.126C1030.87 194.64 1029.25 195.179 1027.67 195.73ZM1170.09 195.658C1168.48 195.135 1166.87 194.629 1165.25 194.141L1165.57 193.255C1167.2 193.746 1168.82 194.255 1170.43 194.78L1170.09 195.658ZM1160.37 192.728C1158.74 192.274 1157.1 191.838 1155.46 191.42L1155.74 190.523C1157.39 190.943 1159.03 191.381 1160.67 191.837L1160.37 192.728ZM1037.33 192.643L1037.01 191.755C1038.64 191.28 1040.29 190.82 1041.93 190.385L1042.22 191.28C1040.59 191.712 1038.94 192.171 1037.33 192.643ZM1150.51 190.217C1148.86 189.833 1147.2 189.468 1145.54 189.119L1145.77 188.211C1147.44 188.561 1149.1 188.928 1150.77 189.313L1150.51 190.217ZM1047.15 190.039L1046.89 189.137C1048.55 188.742 1050.23 188.361 1051.88 188.009L1052.12 188.916C1050.47 189.267 1048.8 189.644 1047.15 190.039ZM1140.53 188.132C1138.86 187.821 1137.19 187.527 1135.51 187.251L1135.69 186.334C1137.38 186.611 1139.06 186.906 1140.74 187.219L1140.53 188.132ZM1057.12 187.913L1056.91 187.001C1058.58 186.687 1060.28 186.388 1061.96 186.114L1062.14 187.032C1060.47 187.304 1058.78 187.601 1057.12 187.913ZM1130.46 186.48C1128.77 186.24 1127.08 186.019 1125.39 185.817L1125.52 184.893C1127.22 185.096 1128.92 185.318 1130.62 185.559L1130.46 186.48ZM1067.19 186.269L1067.04 185.347C1068.72 185.113 1070.44 184.896 1072.13 184.7L1072.26 185.626C1070.57 185.819 1068.87 186.035 1067.19 186.269ZM1120.31 185.265C1118.61 185.1 1116.91 184.953 1115.21 184.824L1115.29 183.895C1117 184.024 1118.71 184.172 1120.41 184.338L1120.31 185.265ZM1077.35 185.099L1077.24 184.172C1078.95 184.016 1080.66 183.88 1082.37 183.762L1082.45 184.692C1080.75 184.809 1079.04 184.944 1077.35 185.099ZM1110.1 184.495C1108.4 184.404 1106.69 184.333 1104.99 184.279L1105.02 183.348C1106.73 183.402 1108.45 183.474 1110.16 183.565L1110.1 184.495ZM1087.56 184.401L1087.51 183.47C1089.22 183.392 1090.93 183.334 1092.65 183.295L1092.67 184.226C1090.97 184.266 1089.26 184.324 1087.56 184.401ZM1102.91 184.225C1101.22 184.187 1099.54 184.168 1097.85 184.168L1097.79 183.237C1099.54 183.237 1101.24 183.256 1102.94 183.293L1102.91 184.225Z" fill="#BFC5EB" fill-opacity="0.85"/>
</g>
<defs>
<clipPath id="clip0_2307_590">
<rect width="1920" height="692" fill="white"/>
</clipPath>
</defs>
</svg>
