<svg width="686" height="326" viewBox="0 0 686 326" fill="none" xmlns="http://www.w3.org/2000/svg">
<path d="M542.52 325.142C541.919 325.142 541.319 325.139 540.717 325.131L540.733 324.199C542.437 324.22 544.141 324.21 545.843 324.171L545.87 325.101C544.753 325.13 543.637 325.142 542.52 325.142ZM535.568 324.969C533.853 324.882 532.124 324.762 530.428 324.612L530.528 323.685C532.21 323.834 533.924 323.953 535.625 324.038L535.568 324.969ZM551.017 324.885L550.949 323.956C552.643 323.854 554.357 323.72 556.043 323.559L556.15 324.487C554.451 324.647 552.724 324.783 551.017 324.885ZM525.311 324.062C523.667 323.853 521.999 323.608 520.353 323.335L520.223 323.312L520.407 322.395L520.546 322.419C522.17 322.688 523.824 322.93 525.454 323.136L525.311 324.062ZM561.261 323.905L561.114 322.982C562.778 322.763 564.475 322.509 566.158 322.228L566.344 323.145C564.649 323.429 562.939 323.684 561.261 323.905ZM515.177 322.377C513.535 322.043 511.856 321.671 510.184 321.271L510.446 320.37C512.105 320.766 513.773 321.136 515.402 321.467L515.177 322.377ZM571.391 322.21L571.166 321.3C572.821 320.964 574.492 320.595 576.134 320.203L576.396 321.104C574.741 321.5 573.058 321.871 571.391 322.21ZM505.236 320.007C503.614 319.565 501.964 319.089 500.333 318.593L500.659 317.709C502.28 318.201 503.919 318.675 505.531 319.114L505.236 320.007ZM581.353 319.83L581.056 318.938C582.67 318.494 584.308 318.013 585.921 317.51L586.255 318.392C584.629 318.897 582.98 319.382 581.353 319.83ZM152.829 319.658L152.817 318.725C154.523 318.708 156.229 318.67 157.934 318.613L157.972 319.544C156.259 319.602 154.544 319.64 152.829 319.658ZM147.684 319.65C145.988 319.628 144.257 319.585 142.54 319.52L142.582 318.589C144.29 318.653 146.012 318.696 147.699 318.718L147.684 319.65ZM163.112 319.312L163.049 318.381C164.751 318.287 166.453 318.171 168.154 318.036L168.243 318.965C166.532 319.101 164.823 319.216 163.112 319.312ZM137.402 319.262C135.697 319.158 133.972 319.028 132.273 318.878L132.372 317.95C134.061 318.099 135.778 318.228 137.472 318.332L137.402 319.262ZM173.362 318.508L173.249 317.581C174.945 317.41 176.639 317.222 178.332 317.015L178.469 317.939C176.767 318.146 175.065 318.336 173.362 318.508ZM127.157 318.362C125.451 318.168 123.736 317.95 122.06 317.713L122.217 316.792C123.884 317.027 125.589 317.244 127.285 317.437L127.157 318.362ZM183.557 317.264L183.397 316.343C185.082 316.101 186.766 315.842 188.446 315.567L188.629 316.484C186.941 316.761 185.25 317.022 183.557 317.264ZM495.478 317.045C493.869 316.508 492.265 315.951 490.669 315.376L491.048 314.509C492.636 315.082 494.231 315.635 495.831 316.17L495.478 317.045ZM116.985 316.927C115.306 316.644 113.609 316.335 111.939 316.007L112.156 315.095C113.816 315.421 115.504 315.73 117.172 316.01L116.985 316.927ZM591.093 316.79L590.724 315.92C592.307 315.368 593.901 314.78 595.461 314.174L595.865 315.03C594.292 315.641 592.687 316.234 591.093 316.79ZM193.68 315.601L193.476 314.688C195.148 314.379 196.817 314.054 198.482 313.711L198.709 314.621C197.036 314.964 195.36 315.292 193.68 315.601ZM106.925 314.948C105.335 314.589 103.719 314.2 102.124 313.793L101.947 313.748L102.229 312.853L102.395 312.894C103.987 313.301 105.593 313.687 107.173 314.044L106.925 314.948ZM485.907 313.601C484.328 312.991 482.756 312.368 481.189 311.727L481.609 310.878C483.169 311.514 484.736 312.137 486.307 312.743L485.907 313.601ZM203.713 313.543L203.466 312.638C205.122 312.265 206.775 311.875 208.423 311.469L208.692 312.368C207.037 312.776 205.377 313.168 203.713 313.543ZM600.565 313.115L600.127 312.27C601.655 311.617 603.198 310.926 604.713 310.217L605.184 311.045C603.657 311.761 602.104 312.457 600.565 313.115ZM97.016 312.4C95.403 311.932 93.761 311.427 92.136 310.899L92.482 310.021C94.096 310.546 95.727 311.047 97.329 311.512L97.016 312.4ZM213.642 311.103L213.354 310.209C214.993 309.774 216.626 309.323 218.255 308.857L218.564 309.746C216.928 310.214 215.287 310.666 213.642 311.103ZM476.514 309.775C474.963 309.112 473.416 308.436 471.874 307.751L472.325 306.913C473.863 307.597 475.404 308.27 476.951 308.93L476.514 309.775ZM87.315 309.247C85.731 308.677 84.131 308.073 82.558 307.451L82.968 306.596C84.53 307.215 86.12 307.814 87.693 308.38L87.315 309.247ZM609.717 308.825L609.213 308.012C610.69 307.258 612.173 306.467 613.623 305.662L614.158 306.457C612.699 307.268 611.204 308.065 609.717 308.825ZM223.453 308.299L223.126 307.416C224.745 306.921 226.358 306.412 227.964 305.888L228.311 306.766C226.698 307.292 225.079 307.803 223.453 308.299ZM467.268 305.67C465.739 304.969 464.212 304.26 462.688 303.543L463.161 302.715C464.682 303.43 466.204 304.138 467.731 304.838L467.268 305.67ZM77.871 305.511C76.332 304.846 74.78 304.145 73.259 303.43L73.731 302.602C75.242 303.313 76.784 304.008 78.313 304.668L77.871 305.511ZM233.135 305.147L232.77 304.276C234.367 303.724 235.958 303.157 237.54 302.58L237.924 303.444C236.335 304.025 234.738 304.592 233.135 305.147ZM618.504 303.942L617.938 303.165C619.345 302.317 620.761 301.431 622.147 300.529L622.745 301.286C621.35 302.194 619.923 303.087 618.504 303.942ZM242.671 301.664L242.272 300.806C243.842 300.204 245.41 299.59 246.976 298.966L247.389 299.819C245.818 300.445 244.246 301.06 242.671 301.664ZM458.132 301.381C456.617 300.656 455.104 299.926 453.593 299.195L454.075 298.372C455.586 299.104 457.097 299.832 458.61 300.556L458.132 301.381ZM68.726 301.21C67.246 300.456 65.749 299.665 64.278 298.854L64.81 298.057C66.271 298.862 67.758 299.648 69.228 300.396L68.726 301.21ZM626.873 298.489L626.244 297.753C627.594 296.802 628.933 295.822 630.226 294.84L630.884 295.554C629.583 296.543 628.234 297.53 626.873 298.489ZM252.08 297.922L251.657 297.072C253.213 296.434 254.767 295.789 256.321 295.138L256.751 295.985C255.196 296.637 253.638 297.283 252.08 297.922ZM449.064 296.994L444.54 294.791L445.024 293.97L449.547 296.173L449.064 296.994ZM59.919 296.363C58.483 295.511 57.049 294.63 55.656 293.741L56.246 292.978C57.629 293.861 59.054 294.736 60.48 295.582L59.919 296.363ZM261.407 294.022L260.972 293.178C262.52 292.519 264.068 291.859 265.617 291.197L266.055 292.04C264.506 292.704 262.957 293.364 261.407 294.022ZM440.015 292.596C438.506 291.865 436.995 291.138 435.484 290.417L435.962 289.592C437.475 290.314 438.987 291.043 440.498 291.773L440.015 292.596ZM634.773 292.483L634.085 291.791C635.019 291.025 635.941 290.248 636.85 289.458C637.174 289.177 637.496 288.894 637.818 288.61L638.533 289.278C638.21 289.563 637.885 289.849 637.559 290.131C636.644 290.928 635.714 291.712 634.773 292.483ZM51.496 290.988C50.129 290.052 48.765 289.082 47.441 288.108L48.087 287.384C49.401 288.351 50.756 289.314 52.114 290.244L51.496 290.988ZM270.698 290.053L270.26 289.21C271.809 288.547 273.359 287.885 274.909 287.227L275.343 288.071C273.795 288.73 272.246 289.391 270.698 290.053ZM430.938 288.267C429.418 287.556 427.897 286.852 426.373 286.157L426.834 285.323C428.361 286.021 429.885 286.726 431.408 287.439L430.938 288.267ZM279.998 286.108L279.568 285.262C281.125 284.609 282.683 283.962 284.242 283.321L284.665 284.171C283.109 284.81 281.552 285.457 279.998 286.108ZM642.161 285.95L641.419 285.306C642.577 284.204 643.744 283.054 644.888 281.886L645.656 282.505C644.503 283.681 643.328 284.839 642.161 285.95ZM43.499 285.101C42.203 284.076 40.917 283.022 39.677 281.97L40.378 281.288C41.609 282.334 42.886 283.381 44.173 284.399L43.499 285.101ZM421.784 284.095C420.248 283.417 418.708 282.75 417.165 282.095L417.599 281.25C419.148 281.907 420.692 282.576 422.234 283.256L421.784 284.095ZM289.353 282.273L288.94 281.42C290.512 280.793 292.087 280.176 293.663 279.57L294.063 280.428C292.491 281.032 290.92 281.648 289.353 282.273ZM412.512 280.167C410.952 279.538 409.386 278.923 407.817 278.325L408.213 277.465C409.79 278.066 411.361 278.684 412.928 279.316L412.512 280.167ZM649.008 278.949L648.217 278.355C649.292 277.172 650.365 275.95 651.405 274.72L652.219 275.287C651.172 276.525 650.092 277.758 649.008 278.949ZM35.981 278.713C34.769 277.605 33.57 276.469 32.419 275.337L33.173 274.704C34.316 275.829 35.506 276.956 36.71 278.055L35.981 278.713ZM298.802 278.648L298.417 277.785C300.01 277.199 301.607 276.63 303.207 276.074L303.573 276.945C301.979 277.498 300.389 278.066 298.802 278.648ZM403.077 276.581C401.445 276.001 399.835 275.452 398.292 274.946L398.64 274.07C400.192 274.577 401.81 275.129 403.451 275.712L403.077 276.581ZM308.382 275.333L308.037 274.455C309.657 273.93 311.281 273.424 312.909 272.939L313.229 273.824C311.609 274.308 309.993 274.811 308.382 275.333ZM393.461 273.438C391.833 272.954 390.189 272.492 388.576 272.065L388.863 271.17C390.487 271.6 392.141 272.065 393.78 272.552L393.461 273.438ZM318.116 272.438L317.824 271.544C319.494 271.095 321.163 270.671 322.784 270.285L323.045 271.185C321.434 271.57 319.776 271.991 318.116 272.438ZM28.998 271.844C27.886 270.665 26.785 269.451 25.725 268.234L26.53 267.656C27.582 268.862 28.675 270.068 29.778 271.236L28.998 271.844ZM655.286 271.525L654.45 270.984C655.44 269.723 656.415 268.436 657.347 267.154L658.203 267.668C657.265 268.96 656.283 270.257 655.286 271.525ZM383.645 270.842C381.971 270.456 380.294 270.101 378.663 269.784L378.878 268.872C380.523 269.192 382.211 269.55 383.898 269.939L383.645 270.842ZM328.014 270.084L327.788 269.174C329.479 268.828 331.177 268.511 332.832 268.231L333.02 269.148C331.377 269.426 329.693 269.741 328.014 270.084ZM373.637 268.904C371.957 268.641 370.258 268.407 368.587 268.211L368.718 267.288C370.403 267.486 372.117 267.721 373.811 267.985L373.637 268.904ZM338.06 268.394L337.913 267.471C339.617 267.249 341.336 267.058 343.024 266.906L343.126 267.834C341.453 267.985 339.748 268.173 338.06 268.394ZM363.51 267.718C361.81 267.586 360.095 267.488 358.416 267.427L358.457 266.496C360.151 266.558 361.881 266.657 363.598 266.789L363.51 267.718ZM348.21 267.48L348.155 266.549C349.863 266.467 351.596 266.42 353.306 266.411L353.312 267.344C351.618 267.352 349.903 267.398 348.21 267.48ZM22.608 264.512C21.597 263.253 20.603 261.963 19.655 260.679L20.507 260.16C21.448 261.435 22.433 262.714 23.437 263.962L22.608 264.512ZM660.974 263.724L660.099 263.237C660.983 261.93 661.858 260.584 662.701 259.237L663.594 259.698C662.744 261.054 661.864 262.408 660.974 263.724ZM16.874 256.742C15.978 255.415 15.103 254.056 14.274 252.703L15.17 252.249C15.993 253.591 16.861 254.94 17.749 256.255L16.874 256.742ZM666.06 255.593L665.152 255.16C665.932 253.809 666.707 252.413 667.454 251.011L668.378 251.417C667.625 252.828 666.846 254.233 666.06 255.593ZM11.864 248.565C11.096 247.178 10.351 245.755 9.65 244.337L10.587 243.956C11.282 245.361 12.021 246.771 12.782 248.146L11.864 248.565ZM670.543 247.176L669.605 246.798C670.294 245.388 670.968 243.95 671.607 242.525L672.558 242.876C671.915 244.311 671.238 245.758 670.543 247.176ZM7.64 240.025C7.004 238.57 6.4 237.093 5.844 235.634L6.814 235.329C7.365 236.775 7.964 238.239 8.594 239.68L7.64 240.025ZM674.424 238.52L673.461 238.196C674.05 236.754 674.624 235.281 675.167 233.817L676.14 234.115C675.594 235.587 675.017 237.069 674.424 238.52ZM4.268 231.173L4.039 230.462C3.642 229.21 3.268 227.926 2.927 226.648L3.925 226.428C4.262 227.695 4.633 228.964 5.026 230.204L5.253 230.907L4.268 231.173ZM677.708 229.664L676.726 229.392C677.221 227.909 677.697 226.407 678.139 224.928L679.129 225.173C678.685 226.66 678.206 228.171 677.708 229.664ZM1.841 222.066C1.524 220.54 1.244 218.986 1.009 217.445L2.026 217.317C2.258 218.843 2.535 220.382 2.85 221.893L1.841 222.066ZM680.406 220.646L679.408 220.428C679.805 218.931 680.182 217.406 680.533 215.897L681.537 216.089C681.186 217.606 680.805 219.14 680.406 220.646ZM0.427 212.792C0.275 211.246 0.162001 209.674 0.092001 208.119L1.117 208.08C1.187 209.62 1.299 211.178 1.45 212.709L0.427 212.792ZM682.528 211.503L681.518 211.336C681.823 209.808 682.107 208.266 682.361 206.753L683.377 206.893C683.119 208.416 682.834 209.967 682.528 211.503ZM1.026 203.442L0 203.437C0.009 201.893 0.0580013 200.318 0.147001 198.757L1.172 198.805C1.084 200.353 1.035 201.912 1.026 203.442ZM684.084 202.268L683.065 202.152C683.275 200.634 683.466 199.08 683.633 197.534L684.655 197.625C684.488 199.179 684.296 200.741 684.084 202.268ZM1.553 194.178L0.532 194.087C0.698 192.545 0.906001 190.982 1.151 189.439L2.167 189.571C1.924 191.101 1.718 192.651 1.553 194.178ZM685.089 192.969L684.066 192.903C684.188 191.355 684.288 189.795 684.363 188.263L685.388 188.305C685.313 189.844 685.212 191.414 685.089 192.969ZM3.009 184.996L2.001 184.822C2.323 183.292 2.686 181.752 3.081 180.244L4.08 180.459C3.688 181.955 3.328 183.481 3.009 184.996ZM685.552 183.636L684.527 183.618C684.55 182.477 684.561 181.335 684.561 180.193L684.556 178.969L685.583 178.962L685.588 180.193C685.588 181.342 685.576 182.489 685.552 183.636ZM5.375 175.973L4.389 175.716C4.862 174.219 5.378 172.715 5.924 171.247L6.897 171.545C6.356 173 5.844 174.49 5.375 175.973ZM684.456 174.321C684.4 172.773 684.323 171.224 684.225 169.676L685.25 169.622C685.349 171.178 685.426 172.734 685.481 174.291L684.456 174.321ZM8.639 167.187L7.683 166.848C8.306 165.398 8.974 163.944 9.668 162.528L10.606 162.907C9.918 164.31 9.256 165.75 8.639 167.187ZM683.866 165.039C683.725 163.494 683.562 161.951 683.379 160.41L684.399 160.31C684.585 161.859 684.748 163.41 684.89 164.962L683.866 165.039ZM12.793 158.717L11.876 158.298C12.647 156.908 13.464 155.519 14.307 154.169L15.2 154.629C14.366 155.966 13.555 157.341 12.793 158.717ZM682.763 155.795C682.536 154.258 682.288 152.724 682.02 151.194L683.034 151.047C683.305 152.586 683.553 154.127 683.781 155.67L682.763 155.795ZM17.825 150.654L16.959 150.154C17.883 148.832 18.85 147.524 19.831 146.266L20.669 146.805C19.698 148.05 18.741 149.345 17.825 150.654ZM681.15 146.612C680.839 145.087 680.507 143.567 680.154 142.051L681.158 141.858C681.514 143.382 681.848 144.91 682.16 146.442L681.15 146.612ZM23.728 143.096L22.922 142.517C23.985 141.296 25.098 140.086 26.229 138.923L26.999 139.539C25.881 140.691 24.78 141.888 23.728 143.096ZM679.031 137.514C678.636 136.005 678.22 134.502 677.782 133.005L678.774 132.765C679.213 134.27 679.631 135.781 680.029 137.299L679.031 137.514ZM30.48 136.151L29.748 135.496C30.953 134.386 32.206 133.295 33.473 132.253L34.162 132.944C32.91 133.974 31.671 135.053 30.48 136.151ZM38.042 129.936L37.398 129.209C38.737 128.23 40.122 127.278 41.514 126.379L42.109 127.138C40.734 128.027 39.365 128.969 38.042 129.936ZM676.408 128.525C675.933 127.052 675.429 125.556 674.907 124.079L675.884 123.795C676.409 125.279 676.916 126.783 677.393 128.264L676.408 128.525ZM46.355 124.567L45.811 123.776C47.269 122.949 48.771 122.155 50.275 121.414L50.764 122.233C49.278 122.965 47.795 123.75 46.355 124.567ZM227.443 121.85L227.428 120.918C229.157 120.896 230.877 120.851 232.54 120.784L232.586 121.714C230.912 121.782 229.181 121.828 227.443 121.85ZM222.303 121.848C220.597 121.826 218.884 121.784 217.167 121.723L217.207 120.793C218.915 120.853 220.619 120.894 222.318 120.916L222.303 121.848ZM212.037 121.491C210.333 121.396 208.626 121.287 206.914 121.162L206.996 120.233C208.701 120.358 210.403 120.467 212.1 120.561L212.037 121.491ZM237.724 121.426L237.643 120.497C239.356 120.375 241.067 120.222 242.73 120.046L242.849 120.972C241.174 121.149 239.45 121.302 237.724 121.426ZM201.799 120.748C200.1 120.598 198.397 120.436 196.692 120.263L196.806 119.337C198.506 119.509 200.204 119.671 201.898 119.821L201.799 120.748ZM247.953 120.337L247.793 119.416C249.484 119.173 251.175 118.896 252.82 118.593L253.024 119.507C251.365 119.813 249.659 120.092 247.953 120.337ZM55.323 120.141L54.885 119.297C56.43 118.635 58.018 118.002 59.605 117.415L59.993 118.278C58.423 118.86 56.852 119.486 55.323 120.141ZM191.593 119.718C189.898 119.528 188.2 119.329 186.501 119.123L186.637 118.199C188.333 118.405 190.027 118.603 191.719 118.793L191.593 119.718ZM673.281 119.671C672.718 118.212 672.129 116.741 671.528 115.302L672.487 114.971C673.091 116.418 673.685 117.896 674.25 119.363L673.281 119.671ZM181.415 118.489C179.723 118.272 178.029 118.05 176.334 117.825L176.482 116.902C178.176 117.127 179.868 117.349 181.558 117.565L181.415 118.489ZM258.051 118.469L257.8 117.565C259.46 117.185 261.115 116.766 262.719 116.321L263.019 117.212C261.399 117.662 259.727 118.085 258.051 118.469ZM171.256 117.14L166.18 116.445L166.333 115.524L171.408 116.217L171.256 117.14ZM64.766 116.643L64.428 115.762C66.032 115.256 67.684 114.776 69.339 114.337L69.627 115.231C67.989 115.666 66.353 116.141 64.766 116.643ZM161.103 115.751C159.41 115.52 157.718 115.291 156.026 115.064L156.175 114.141C157.868 114.368 159.561 114.597 161.255 114.828L161.103 115.751ZM267.913 115.73L267.562 114.853C269.17 114.323 270.768 113.753 272.314 113.156L272.715 114.014C271.154 114.617 269.537 115.194 267.913 115.73ZM150.946 114.396C149.25 114.177 147.555 113.962 145.862 113.755L145.999 112.831C147.695 113.039 149.393 113.253 151.091 113.472L150.946 114.396ZM74.562 114.04L74.322 113.133C75.968 112.774 77.663 112.44 79.36 112.143L79.554 113.059C77.872 113.354 76.193 113.684 74.562 114.04ZM140.772 113.153C139.071 112.959 137.373 112.774 135.676 112.598L135.792 111.672C137.492 111.847 139.195 112.033 140.899 112.228L140.772 113.153ZM84.592 112.28L84.441 111.357C86.109 111.131 87.829 110.93 89.553 110.76L89.664 111.688C87.952 111.856 86.246 112.055 84.592 112.28ZM130.573 112.102C128.867 111.946 127.164 111.804 125.465 111.675L125.55 110.746C127.255 110.875 128.964 111.018 130.676 111.174L130.573 112.102ZM277.411 112.067L276.959 111.23C278.26 110.651 279.562 110.037 280.83 109.403L281.481 109.075L281.982 109.889L281.325 110.22C280.042 110.86 278.726 111.482 277.411 112.067ZM120.349 111.331C118.638 111.23 116.931 111.145 115.228 111.079L115.272 110.148C116.982 110.215 118.696 110.3 120.415 110.401L120.349 111.331ZM94.756 111.271L94.683 110.342C96.368 110.232 98.099 110.146 99.827 110.086L99.866 111.016C98.149 111.076 96.43 111.163 94.756 111.271ZM669.648 110.977C669 109.541 668.324 108.102 667.64 106.699L668.58 106.322C669.267 107.733 669.946 109.179 670.598 110.622L669.648 110.977ZM110.104 110.935C108.392 110.906 106.687 110.896 104.983 110.909L104.974 109.978C106.685 109.963 108.4 109.974 110.122 110.003L110.104 110.935ZM286.406 107.487L285.856 106.701C287.27 105.886 288.694 105.017 290.091 104.118L290.685 104.879C289.274 105.787 287.835 106.665 286.406 107.487ZM665.506 102.473C664.769 101.063 664.008 99.6602 663.244 98.3026L664.158 97.8785C664.927 99.2434 665.691 100.656 666.433 102.073L665.506 102.473ZM294.817 102.083L294.185 101.348C295.493 100.42 296.824 99.4332 298.142 98.4134L298.808 99.1226C297.479 100.152 296.136 101.148 294.817 102.083ZM302.666 96.0214L301.972 95.3348C303.191 94.3168 304.44 93.2406 305.682 92.1345L306.401 92.8002C305.15 93.9136 303.894 94.9979 302.666 96.0214ZM660.856 94.1905L660.3 93.2742C659.656 92.2199 659.001 91.1737 658.333 90.1357L659.22 89.6653C659.892 90.7088 660.551 91.7613 661.199 92.822L661.757 93.7438L660.856 94.1905ZM310.025 89.4819L309.287 88.8344C310.471 87.721 311.641 86.5913 312.801 85.4488L313.556 86.0809C312.39 87.2279 311.214 88.363 310.025 89.4819ZM655.685 86.1481C654.783 84.8331 653.85 83.5154 652.912 82.2313L653.768 81.7164C654.711 83.0069 655.649 84.3327 656.556 85.655L655.685 86.1481ZM317.006 82.6163L316.239 81.997C317.373 80.8382 318.499 79.6694 319.618 78.4943L320.394 79.1046C319.272 80.2824 318.144 81.4539 317.006 82.6163ZM650.021 78.3881C649.039 77.1221 648.027 75.8544 647.012 74.6211L647.834 74.0635C648.854 75.304 649.873 76.5782 650.86 77.8514L650.021 78.3881ZM323.737 75.5592L322.955 74.9562C324.06 73.7729 325.163 72.5842 326.265 71.3945L327.051 71.9939C325.948 73.1854 324.845 74.375 323.737 75.5592ZM643.891 70.9323C642.835 69.7208 641.748 68.5075 640.657 67.3242L641.444 66.7258C642.541 67.9154 643.634 69.136 644.696 70.3547L643.891 70.9323ZM330.351 68.4222L329.565 67.8228C330.666 66.6322 331.767 65.4426 332.872 64.2556L333.656 64.8577C332.551 66.0438 331.45 67.2334 330.351 68.4222ZM637.316 63.7979C636.199 62.651 635.04 61.4922 633.873 60.3561L634.623 59.7204C635.797 60.8629 636.962 62.0271 638.086 63.1813L637.316 63.7979ZM336.981 61.3115L336.203 60.7039C337.319 59.5233 338.442 58.3482 339.574 57.1822L340.345 57.7988C339.215 58.9612 338.095 60.1336 336.981 61.3115ZM630.327 57.0005C629.149 55.9153 627.924 54.8156 626.684 53.7322L627.397 53.0611C628.642 54.1499 629.874 55.2551 631.057 56.3467L630.327 57.0005ZM343.76 54.3315L343.001 53.704C344.156 52.5525 345.322 51.411 346.501 50.284L347.245 50.926C346.072 52.0485 344.91 53.1846 343.76 54.3315ZM622.949 50.5537C621.703 49.5211 620.416 48.4822 619.123 47.466L619.795 46.7613C621.095 47.783 622.389 48.8273 623.641 49.8662L622.949 50.5537ZM350.817 47.5959L350.09 46.9366C350.959 46.1474 351.837 45.3664 352.723 44.5945C353.076 44.2885 353.428 43.9842 353.783 43.6809L354.486 44.3602C354.133 44.6617 353.783 44.9632 353.434 45.2674C352.552 46.0348 351.68 46.8113 350.817 47.5959ZM615.208 44.4692C613.89 43.4857 612.557 42.5176 611.212 41.565L611.843 40.8294C613.195 41.7865 614.534 42.7601 615.86 43.7481L615.208 44.4692ZM358.269 41.2317L357.589 40.5324C358.859 39.5162 360.176 38.4945 361.505 37.4974L362.159 38.2157C360.838 39.2074 359.53 40.2227 358.269 41.2317ZM607.134 38.7552C605.761 37.8343 604.376 36.9289 602.979 36.0398L603.569 35.2761C604.972 36.1697 606.365 37.0797 607.744 38.0051L607.134 38.7552ZM366.154 35.3143L365.525 34.5768C366.871 33.6306 368.256 32.6861 369.644 31.7716L370.248 32.5263C368.867 33.4353 367.491 34.3734 366.154 35.3143ZM598.751 33.4199C597.33 32.5626 595.897 31.7217 594.452 30.8962L594.999 30.107C596.451 30.937 597.891 31.7816 599.319 32.6425L598.751 33.4199ZM374.435 29.8554L373.857 29.0844C375.247 28.2244 376.693 27.3599 378.157 26.5135L378.708 27.2999C377.253 28.1409 375.816 29.0009 374.435 29.8554ZM590.086 28.4714C588.62 27.6795 587.144 26.904 585.655 26.1439L586.159 25.3311C587.653 26.0939 589.138 26.874 590.611 27.6705L590.086 28.4714ZM383.065 24.8625L382.54 24.0615C384.007 23.2669 385.508 22.4823 387 21.7276L387.5 22.5422C386.015 23.2932 384.524 24.0733 383.065 24.8625ZM581.164 23.9162C579.656 23.1897 578.14 22.4796 576.613 21.7866L577.072 20.953C578.606 21.6495 580.131 22.3624 581.644 23.0925L581.164 23.9162ZM392.006 20.3427L391.533 19.5154C393.049 18.8007 394.597 18.096 396.134 17.4212L396.581 18.2604C395.053 18.9315 393.514 19.6316 392.006 20.3427ZM572.007 19.757C570.463 19.0977 568.91 18.4547 567.35 17.829L567.764 16.9762C569.332 17.6056 570.893 18.2513 572.445 18.9142L572.007 19.757ZM401.219 16.297L400.799 15.4469C402.357 14.8122 403.945 14.1883 405.523 13.5925L405.918 14.4534C404.349 15.0446 402.768 15.6658 401.219 16.297ZM562.642 16.0027C561.065 15.4115 559.48 14.8367 557.888 14.2791L558.257 13.4091C559.857 13.9694 561.449 14.547 563.034 15.1418L562.642 16.0027ZM410.67 12.7298L410.303 11.8598C411.89 11.3068 413.516 10.7637 415.133 10.247L415.474 11.126C413.866 11.64 412.249 12.1795 410.67 12.7298ZM553.09 12.6581C551.484 12.135 549.869 11.6291 548.25 11.1406L548.574 10.2551C550.201 10.7464 551.821 11.255 553.435 11.7799L553.09 12.6581ZM543.372 9.72751C541.74 9.27435 540.102 8.83844 538.459 8.41979L538.736 7.52255C540.387 7.94302 542.033 8.38074 543.672 8.83663L543.372 9.72751ZM420.325 9.64305L420.011 8.75489C421.639 8.27994 423.294 7.81951 424.932 7.38542L425.219 8.27993C423.591 8.71221 421.944 9.17082 420.325 9.64305ZM533.513 7.21651C531.859 6.83328 530.199 6.4682 528.536 6.11948L528.766 5.21134C530.437 5.56098 532.104 5.92786 533.766 6.31291L533.513 7.21651ZM430.151 7.03852L429.889 6.13674C431.547 5.7417 433.227 5.36119 434.883 5.00883L435.117 5.91606C433.47 6.2666 431.799 6.64438 430.151 7.03852ZM523.535 5.13233C521.863 4.82084 520.187 4.52661 518.508 4.25144L518.69 3.33422C520.379 3.61121 522.063 3.90635 523.743 4.21875L523.535 5.13233ZM440.116 4.91348L439.908 4.0008C441.58 3.68658 443.28 3.3878 444.96 3.11355L445.142 4.03168C443.471 4.30412 441.78 4.60108 440.116 4.91348ZM513.457 3.47953C511.77 3.23978 510.081 3.0191 508.389 2.81659L508.524 1.89301C510.224 2.09644 511.921 2.31802 513.616 2.55868L513.457 3.47953ZM450.193 3.26884L450.037 2.34708C451.723 2.11278 453.437 1.89574 455.133 1.70049L455.262 2.62588C453.574 2.81931 451.868 3.03545 450.193 3.26884ZM503.305 2.26535C501.608 2.10007 499.908 1.95295 498.207 1.82399L498.293 0.894972C500.002 1.02393 501.709 1.17195 503.414 1.33814L503.305 2.26535ZM460.349 2.09916L460.245 1.17195C461.951 1.01575 463.659 0.879533 465.37 0.762384L465.446 1.69232C463.745 1.80856 462.045 1.94387 460.349 2.09916ZM493.099 1.49525C491.395 1.40444 489.691 1.33269 487.985 1.27911L488.02 0.348272C489.734 0.401852 491.448 0.473595 493.16 0.565317L493.099 1.49525ZM470.557 1.4008L470.506 0.469963C472.218 0.391864 473.932 0.333742 475.647 0.294692L475.672 1.22644C473.967 1.2664 472.261 1.32361 470.557 1.4008ZM485.91 1.22462C484.224 1.18739 482.536 1.16832 480.848 1.16832L480.791 0.236572C482.544 0.236572 484.239 0.255643 485.936 0.292877L485.91 1.22462Z" fill="#BFC5EB" fill-opacity="0.85"/>
</svg>
