<svg width="527" height="161" viewBox="0 0 527 161" fill="none" xmlns="http://www.w3.org/2000/svg">
<g opacity="0.25">
<path d="M526.137 5.22412H294.657V15.3011H526.137V5.22412Z" fill="#A4ACE3"/>
<path d="M325.766 15.301L299.321 160.692H305.842L342.166 15.301H325.766Z" fill="#A4ACE3"/>
<path d="M495.511 15.301L521.955 160.692H515.435L479.111 15.301H495.511Z" fill="#A4ACE3"/>
<path d="M494.983 56.9841H325.619L323.111 63.4061H497.157L494.983 56.9841Z" fill="#A4ACE3"/>
<path d="M64.5596 87.111C55.7956 73.21 50.8776 56.542 52.7306 40.213C54.5836 23.884 63.7186 8.115 78.0096 0C83.3766 14.416 85.3416 30.452 83.0416 45.661C80.7426 60.87 73.9486 74.927 64.5596 87.111Z" fill="#BFC5EB"/>
<path d="M66.4206 104.569C65.9216 104.569 65.4896 104.196 65.4296 103.688C61.6676 72.2491 64.5686 39.6241 73.8176 9.34206C73.9796 8.81406 74.5376 8.51106 75.0666 8.67806C75.5946 8.83906 75.8926 9.39808 75.7316 9.92608C66.5626 39.9441 63.6876 72.2841 67.4166 103.449C67.4816 103.998 67.0906 104.496 66.5426 104.561C66.5016 104.567 66.4616 104.569 66.4206 104.569Z" fill="#A4ACE3"/>
<path d="M82.7556 88.1521C81.4166 71.9971 86.0086 55.4171 95.4676 42.2521C104.927 29.0871 119.175 19.4451 134.913 15.5591C137.117 31.1251 130.61 47.3001 120.4 59.2551C110.191 71.2111 96.1236 79.8771 82.7556 88.1521Z" fill="#BFC5EB"/>
<path d="M80.0436 103.674C80.0086 103.674 79.9736 103.672 79.9376 103.668C79.3886 103.61 78.9896 103.118 79.0476 102.569C81.8136 76.2942 99.4016 54.6802 122.108 29.1552C122.475 28.7442 123.107 28.7052 123.52 29.0732C123.933 29.4402 123.97 30.0722 123.603 30.4852C101.14 55.7372 83.7416 77.0952 81.0376 102.778C80.9826 103.292 80.5486 103.674 80.0436 103.674Z" fill="#A4ACE3"/>
<path d="M46.8846 87.9429C46.5646 72.1519 43.3786 56.1709 35.6196 42.4129C27.8606 28.6549 15.2086 17.2899 0.000628425 13.0259C-0.0573716 28.4659 3.89862 44.2259 12.2026 57.2429C20.5066 70.2599 32.8586 81.4869 46.8846 87.9429Z" fill="#BFC5EB"/>
<path d="M51.9126 103.927C51.4796 103.927 51.0806 103.644 50.9536 103.207C42.4856 74.1578 27.6026 46.6578 7.91461 23.6798C7.55561 23.2608 7.60361 22.6288 8.02261 22.2698C8.44261 21.9118 9.07262 21.9578 9.43262 22.3788C29.3046 45.5708 44.3256 73.3268 52.8726 102.647C53.0276 103.177 52.7226 103.733 52.1926 103.887C52.0996 103.914 52.0056 103.927 51.9126 103.927Z" fill="#A4ACE3"/>
<path d="M95.9706 98.751H32.0146L45.2656 160.692H82.7196L95.9706 98.751Z" fill="#BFC5EB"/>
<path d="M94.1086 107.456H42.4766L92.1296 116.707L94.1086 107.456Z" fill="#A4ACE3"/>
</g>
</svg>
