<svg width="931" height="446" viewBox="0 0 931 446" fill="none" xmlns="http://www.w3.org/2000/svg">
<path opacity="0.63" d="M228.387 419.258C210.724 422.74 193.004 426.218 173.645 426.434C130.823 426.911 84.0275 424.536 46.5999 410.828C19.0567 400.741 -4.24525 382.475 0.655305 363.15C5.48679 344.092 37.1034 332.444 42.726 314.192C48.4176 295.722 26.023 278.942 24.0279 261.028C21.113 234.86 65.1238 213.509 63.9669 187.29C63.2857 171.856 46.9751 158.404 40.5347 143.47C32.5481 124.95 40.7215 104.464 59.8104 89.2382C78.8993 74.0128 108.099 63.9774 138.992 60.288C190.84 54.0967 246.367 64.7945 296.501 54.6475C336.098 46.6339 365.902 26.8733 402.216 14.3694C473.618 -10.2136 571.028 -2.59514 629.875 32.176C643.458 40.202 655.301 49.5615 671.428 55.6001C724.281 75.3912 796.318 51.8821 854.08 65.6975C908.541 78.7236 939.287 124.78 923.16 157.892C912.71 179.348 885.624 197.598 882.372 219.887C878.984 243.096 902.062 264.2 916.087 285.884C934.549 314.429 937.279 347.549 916.267 375.434C895.255 403.319 848.349 424.545 797.912 424.425C753.127 424.319 711.449 408.47 666.663 408.477C610.157 408.487 562.296 433.246 507.77 442.262C469.562 448.581 427.885 446.841 391.456 437.405C362.739 429.966 337.064 417.9 306.665 413.589C277.789 409.493 253.147 414.378 228.387 419.258Z" fill="#E0CCCC" fill-opacity="0.5"/>
<g opacity="0.5">
<path opacity="0.3" d="M82.4883 297.63C95.4605 297.63 105.977 287.334 105.977 274.632C105.977 261.931 95.4605 251.634 82.4883 251.634C69.5161 251.634 59 261.931 59 274.632C59 287.334 69.5161 297.63 82.4883 297.63Z" stroke="#CC6868" stroke-width="3" stroke-miterlimit="10"/>
<path opacity="0.3" d="M533.644 277.243C546.616 277.243 557.132 266.947 557.132 254.245C557.132 241.544 546.616 231.247 533.644 231.247C520.672 231.247 510.156 241.544 510.156 254.245C510.156 266.947 520.672 277.243 533.644 277.243Z" stroke="#CC6868" stroke-width="3" stroke-miterlimit="10"/>
<path opacity="0.3" d="M846.933 413.163C862.986 413.163 876 400.42 876 384.702C876 368.984 862.986 356.242 846.933 356.242C830.88 356.242 817.866 368.984 817.866 384.702C817.866 400.42 830.88 413.163 846.933 413.163Z" stroke="#CC6868" stroke-width="3" stroke-miterlimit="10"/>
<path opacity="0.3" d="M78.8629 414C87.7953 414 95.0364 406.91 95.0364 398.164C95.0364 389.418 87.7953 382.328 78.8629 382.328C69.9305 382.328 62.6894 389.418 62.6894 398.164C62.6894 406.91 69.9305 414 78.8629 414Z" stroke="#CC6868" stroke-width="3" stroke-miterlimit="10"/>
<path opacity="0.3" d="M749.789 103.672C758.722 103.672 765.963 96.5819 765.963 87.8359C765.963 79.09 758.722 72 749.789 72C740.857 72 733.616 79.09 733.616 87.8359C733.616 96.5819 740.857 103.672 749.789 103.672Z" stroke="#CC6868" stroke-width="3" stroke-miterlimit="10"/>
<path opacity="0.3" d="M170.645 354.344C173.87 334.735 160.25 316.278 140.223 313.12C120.196 309.963 101.346 323.299 98.1207 342.908C94.8954 362.517 108.516 380.973 128.543 384.131C148.57 387.289 167.42 373.953 170.645 354.344Z" stroke="#CC6868" stroke-width="3" stroke-miterlimit="10"/>
<path opacity="0.3" d="M619.396 171.631C635.389 171.631 648.353 158.937 648.353 143.278C648.353 127.62 635.389 114.926 619.396 114.926C603.404 114.926 590.44 127.62 590.44 143.278C590.44 158.937 603.404 171.631 619.396 171.631Z" stroke="#CC6868" stroke-width="3" stroke-miterlimit="10"/>
</g>
</svg>
