<svg width="734" height="555" viewBox="0 0 734 555" fill="none" xmlns="http://www.w3.org/2000/svg">
<path opacity="0.63" d="M206.35 505.715C194.384 509.763 182.378 513.808 169.262 514.059C140.248 514.614 108.544 511.852 83.1855 495.913C64.5244 484.182 48.7368 462.942 52.057 440.47C55.3305 418.309 76.7514 404.765 80.5608 383.541C84.4171 362.063 69.2442 342.552 67.8925 321.72C65.9176 291.292 95.7358 266.463 94.952 235.976C94.4905 218.028 83.4397 202.386 79.0762 185.02C73.6651 163.485 79.2027 139.664 92.1359 121.958C105.069 104.253 124.852 92.584 145.783 88.2939C180.911 81.0944 218.532 93.5342 252.499 81.7349C279.327 72.4164 299.52 49.4383 324.124 34.8984C372.5 6.31259 438.497 15.1715 478.368 55.6044C487.57 64.9372 495.594 75.8208 506.52 82.8427C542.329 105.856 591.136 78.5192 630.271 94.5842C667.17 109.731 688.001 163.287 677.074 201.79C669.995 226.74 651.643 247.962 649.439 273.88C647.144 300.869 662.78 325.409 672.282 350.624C684.791 383.816 686.64 422.329 672.404 454.755C658.168 487.18 626.388 511.862 592.216 511.723C561.873 511.6 533.635 493.17 503.292 493.179C465.008 493.19 432.581 521.98 395.638 532.465C369.752 539.812 341.515 537.788 316.833 526.816C297.377 518.166 279.981 504.135 259.385 499.123C239.821 494.36 223.126 500.039 206.35 505.715Z" fill="#E0CCCC"/>
<path opacity="0.3" d="M114.354 345.719C123.62 345.719 131.132 337.879 131.132 328.208C131.132 318.537 123.62 310.697 114.354 310.697C105.088 310.697 97.5767 318.537 97.5767 328.208C97.5767 337.879 105.088 345.719 114.354 345.719Z" stroke="#CC6868" stroke-width="3" stroke-miterlimit="10"/>
<path opacity="0.3" d="M436.616 330.196C445.882 330.196 453.394 322.356 453.394 312.685C453.394 303.013 445.882 295.173 436.616 295.173C427.35 295.173 419.838 303.013 419.838 312.685C419.838 322.356 427.35 330.196 436.616 330.196Z" stroke="#CC6868" stroke-width="3" stroke-miterlimit="10"/>
<path opacity="0.3" d="M660.399 433.689C671.865 433.689 681.161 423.987 681.161 412.019C681.161 400.05 671.865 390.348 660.399 390.348C648.932 390.348 639.636 400.05 639.636 412.019C639.636 423.987 648.932 433.689 660.399 433.689Z" stroke="#CC6868" stroke-width="3" stroke-miterlimit="10"/>
<path opacity="0.3" d="M111.765 434.326C118.145 434.326 123.318 428.928 123.318 422.268C123.318 415.609 118.145 410.21 111.765 410.21C105.384 410.21 100.212 415.609 100.212 422.268C100.212 428.928 105.384 434.326 111.765 434.326Z" stroke="#CC6868" stroke-width="3" stroke-miterlimit="10"/>
<path opacity="0.3" d="M591.009 198.034C597.389 198.034 602.561 192.635 602.561 185.976C602.561 179.317 597.389 173.918 591.009 173.918C584.628 173.918 579.456 179.317 579.456 185.976C579.456 192.635 584.628 198.034 591.009 198.034Z" stroke="#CC6868" stroke-width="3" stroke-miterlimit="10"/>
<path opacity="0.3" d="M177.325 388.903C179.629 373.972 169.9 359.919 155.594 357.514C141.289 355.109 127.825 365.264 125.521 380.195C123.217 395.126 132.946 409.179 147.251 411.584C161.557 413.988 175.021 403.834 177.325 388.903Z" stroke="#CC6868" stroke-width="3" stroke-miterlimit="10"/>
<path opacity="0.3" d="M497.869 249.78C509.292 249.78 518.553 240.114 518.553 228.192C518.553 216.269 509.292 206.603 497.869 206.603C486.445 206.603 477.185 216.269 477.185 228.192C477.185 240.114 486.445 249.78 497.869 249.78Z" stroke="#CC6868" stroke-width="3" stroke-miterlimit="10"/>
<path opacity="0.42" d="M391.844 116.944H131.578V281.657H391.844V116.944Z" fill="white"/>
<path opacity="0.63" d="M391.844 109.521H131.578V119.917H391.844V109.521Z" fill="#D4B6B6"/>
<path d="M143.704 114.885C143.704 117.065 142.011 118.832 139.922 118.832C137.833 118.832 136.14 117.065 136.14 114.885C136.14 112.705 137.833 110.938 139.922 110.938C142.011 110.938 143.704 112.705 143.704 114.885Z" fill="white"/>
<path d="M153.143 118.832C155.232 118.832 156.925 117.065 156.925 114.885C156.925 112.705 155.232 110.938 153.143 110.938C151.055 110.938 149.362 112.705 149.362 114.885C149.362 117.065 151.055 118.832 153.143 118.832Z" fill="white"/>
<path d="M166.364 118.832C168.452 118.832 170.145 117.065 170.145 114.885C170.145 112.705 168.452 110.938 166.364 110.938C164.275 110.938 162.582 112.705 162.582 114.885C162.582 117.065 164.275 118.832 166.364 118.832Z" fill="white"/>
<g opacity="0.63">
<path d="M170.065 153.679L157.398 136.512L144.733 153.679H170.065Z" fill="#D4B6B6"/>
<path d="M160.579 145.932H153.59V279.387H160.579V145.932Z" fill="#D4B6B6"/>
<path d="M198.466 153.679L185.801 136.512L173.135 153.679H198.466Z" fill="#D4B6B6"/>
<path d="M188.982 145.932H181.993V279.387H188.982V145.932Z" fill="#D4B6B6"/>
<path d="M226.869 228.018L214.203 210.851L201.538 228.018H226.869Z" fill="#D4B6B6"/>
<path d="M217.384 220.271H210.394V279.387H217.384V220.271Z" fill="#D4B6B6"/>
<path d="M255.271 228.018L242.606 210.851L229.939 228.018H255.271Z" fill="#D4B6B6"/>
<path d="M245.786 220.271H238.797V279.387H245.786V220.271Z" fill="#D4B6B6"/>
<path d="M283.674 209.434L271.007 192.266L258.342 209.434H283.674Z" fill="#D4B6B6"/>
<path d="M274.188 201.686H267.199V279.387H274.188V201.686Z" fill="#D4B6B6"/>
<path d="M312.075 190.849L299.41 173.682L286.744 190.849H312.075Z" fill="#D4B6B6"/>
<path d="M302.591 183.101H295.602V279.387H302.591V183.101Z" fill="#D4B6B6"/>
<path d="M326.59 272.203H144.801V280.828H326.59V272.203Z" fill="#D4B6B6"/>
</g>
<path d="M545.385 52.1334H285.119V216.846H545.385V52.1334Z" fill="white"/>
<path d="M545.385 44.7119H285.119V55.1071H545.385V44.7119Z" fill="#D4B6B6"/>
<path d="M297.245 50.0755C297.245 52.2555 295.552 54.0226 293.463 54.0226C291.374 54.0226 289.681 52.2555 289.681 50.0755C289.681 47.8954 291.374 46.1283 293.463 46.1283C295.552 46.1283 297.245 47.8954 297.245 50.0755Z" fill="white"/>
<path d="M310.466 50.0755C310.466 52.2555 308.773 54.0226 306.684 54.0226C304.596 54.0226 302.903 52.2555 302.903 50.0755C302.903 47.8954 304.596 46.1283 306.684 46.1283C308.773 46.1283 310.466 47.8954 310.466 50.0755Z" fill="white"/>
<path d="M323.687 50.0755C323.687 52.2555 321.993 54.0226 319.905 54.0226C317.816 54.0226 316.123 52.2555 316.123 50.0755C316.123 47.8954 317.816 46.1283 319.905 46.1283C321.993 46.1283 323.687 47.8954 323.687 50.0755Z" fill="white"/>
<path d="M337.406 72.2357C321.585 72.2357 308.76 85.6211 308.76 102.134C308.76 118.646 321.585 132.031 337.406 132.031C353.226 132.031 366.051 118.646 366.051 102.134C366.051 85.6211 353.226 72.2357 337.406 72.2357ZM337.406 113.342C331.474 113.342 326.666 108.324 326.666 102.134C326.666 95.943 331.474 90.9247 337.406 90.9247C343.337 90.9247 348.145 95.943 348.145 102.134C348.145 108.324 343.337 113.342 337.406 113.342Z" fill="#86B4E3"/>
<path d="M318.708 124.773C320.85 122.144 322.986 119.51 325.089 116.847C326.786 114.7 328.465 112.533 330.111 110.342C327.998 108.295 326.668 105.379 326.668 102.132C326.668 95.9418 331.476 90.9235 337.407 90.9235C339.92 90.9235 342.229 91.8259 344.056 93.3366C345.738 91.5806 347.42 89.8257 349.102 88.0696C351.65 85.4101 354.198 82.7505 356.746 80.091C351.651 75.2147 344.865 72.2344 337.407 72.2344C321.586 72.2344 308.762 85.6199 308.762 102.132C308.761 111.185 312.62 119.291 318.708 124.773Z" fill="#43609C"/>
<path d="M345.117 94.3589C346.855 96.2415 347.976 98.7501 348.116 101.536C349.12 101.536 350.123 101.536 351.127 101.534C356.095 101.526 361.065 101.515 366.035 101.461C365.867 93.5431 362.747 86.3891 357.784 81.1377C353.562 85.5455 349.339 89.9522 345.117 94.3589Z" fill="#CF7765"/>
<path d="M408.944 72.2356C393.123 72.2356 380.298 85.6211 380.298 102.133C380.298 118.646 393.123 132.031 408.944 132.031C424.764 132.031 437.589 118.646 437.589 102.133C437.589 85.6211 424.764 72.2356 408.944 72.2356ZM408.944 113.342C403.013 113.342 398.204 108.324 398.204 102.133C398.204 95.943 403.013 90.9247 408.944 90.9247C414.875 90.9247 419.683 95.943 419.683 102.133C419.683 108.324 414.875 113.342 408.944 113.342Z" fill="#86B4E3"/>
<path d="M403.042 92.7727C399.587 87.69 396.149 82.5951 392.601 77.5834C385.167 82.9847 380.297 91.9635 380.297 102.133C380.297 111.184 384.157 119.291 390.244 124.773C392.386 122.144 394.522 119.51 396.625 116.847C398.322 114.7 400.001 112.533 401.647 110.342C399.534 108.295 398.203 105.38 398.203 102.133C398.205 98.2194 400.129 94.7773 403.042 92.7727Z" fill="#43609C"/>
<path d="M408.944 72.2356C403.387 72.2356 398.203 73.8917 393.812 76.75C397.38 81.7927 400.839 86.9187 404.315 92.0313C405.718 91.3298 407.284 90.9247 408.944 90.9247C411.457 90.9247 413.767 91.8271 415.593 93.3378C417.275 91.5818 418.957 89.8269 420.639 88.0709C423.187 85.4113 425.735 82.7517 428.283 80.0922C423.188 75.2159 416.402 72.2356 408.944 72.2356Z" fill="#43609C"/>
<path d="M408.944 72.2356C403.388 72.2356 398.213 73.905 393.822 76.7622C397.388 81.8016 400.844 86.9253 404.319 92.0336C405.72 91.3287 407.285 90.9236 408.945 90.9236C411.458 90.9236 413.768 91.826 415.594 93.3367C417.276 91.5807 418.958 89.8258 420.64 88.0697C423.188 85.4102 425.736 82.7506 428.284 80.0911C423.188 75.2159 416.402 72.2356 408.944 72.2356Z" fill="#CF7765"/>
<path d="M480.482 72.2356C464.661 72.2356 451.837 85.6211 451.837 102.133C451.837 118.646 464.661 132.031 480.482 132.031C496.302 132.031 509.127 118.646 509.127 102.133C509.127 85.6211 496.302 72.2356 480.482 72.2356ZM480.482 113.342C474.551 113.342 469.743 108.324 469.743 102.133C469.743 95.943 474.551 90.9247 480.482 90.9247C486.413 90.9247 491.221 95.943 491.221 102.133C491.221 108.324 486.413 113.342 480.482 113.342Z" fill="#86B4E3"/>
<path d="M474.581 92.7727C471.125 87.6911 467.687 82.5951 464.139 77.5834C456.705 82.9847 451.836 91.9635 451.836 102.133C451.836 111.185 455.695 119.291 461.784 124.773C463.925 122.144 466.061 119.51 468.164 116.847C469.861 114.7 471.539 112.533 473.186 110.342C471.073 108.295 469.743 105.38 469.743 102.132C469.743 98.2194 471.668 94.7773 474.581 92.7727Z" fill="#43609C"/>
<path d="M490.946 99.6403H509.023C508.496 93.0002 505.893 86.9763 501.89 82.2776L489.165 95.5588C490.003 96.762 490.616 98.144 490.946 99.6403Z" fill="#CF7765"/>
<path d="M491.221 102.133C491.221 106.296 489.042 109.921 485.814 111.854C490.092 116.319 494.37 120.783 498.649 125.249C505.045 119.766 509.127 111.447 509.127 102.133C509.127 101.802 509.115 101.475 509.105 101.146H491.176C491.204 101.472 491.221 101.8 491.221 102.133Z" fill="#A9D6BE"/>
<g opacity="0.39">
<path d="M312.818 154.094H405.229" stroke="#86B4E3" stroke-width="4" stroke-miterlimit="10"/>
<path d="M312.818 162.603H372.475" stroke="#86B4E3" stroke-width="4" stroke-miterlimit="10"/>
<path d="M312.818 171.112H372.475" stroke="#86B4E3" stroke-width="4" stroke-miterlimit="10"/>
<path d="M312.818 179.621H407.569" stroke="#86B4E3" stroke-width="4" stroke-miterlimit="10"/>
<path d="M312.818 188.131H372.475" stroke="#86B4E3" stroke-width="4" stroke-miterlimit="10"/>
<path d="M312.818 196.64H349.081" stroke="#86B4E3" stroke-width="4" stroke-miterlimit="10"/>
</g>
<path d="M416.382 153.726H497.331" stroke="black" stroke-width="0.75" stroke-miterlimit="10"/>
<path d="M416.382 162.235H468.64" stroke="black" stroke-width="0.75" stroke-miterlimit="10"/>
<path d="M416.382 170.745H468.64" stroke="black" stroke-width="0.75" stroke-miterlimit="10"/>
<path d="M416.382 179.254H499.38" stroke="black" stroke-width="0.75" stroke-miterlimit="10"/>
<path d="M416.382 187.763H468.64" stroke="black" stroke-width="0.75" stroke-miterlimit="10"/>
<path d="M416.382 196.272H448.147" stroke="black" stroke-width="0.75" stroke-miterlimit="10"/>
<path d="M638.369 173.347V473.121H653.175V173.347H638.369Z" fill="#D4B6B6"/>
<path d="M508.076 310.398H493.231V473.12H508.076V310.398Z" fill="#D4B6B6"/>
<path d="M473.017 380.009H458.172V473.12H473.017V380.009Z" fill="#D4B6B6"/>
<path d="M645.916 155.044L632.126 178.487H660.305L645.916 155.044Z" fill="#D4B6B6"/>
<path d="M623.076 236.163H608.27V473.12H623.076V236.163Z" fill="#D4B6B6"/>
<path d="M615.244 217.323L601.453 240.765H629.632L615.244 217.323Z" fill="#D4B6B6"/>
<path d="M465.875 362.681L452.085 386.125H480.264L465.875 362.681Z" fill="#D4B6B6"/>
<path d="M150.837 437.126C154.089 436.807 157.396 437.109 160.546 438.011C161.99 432.372 163.313 426.7 164.514 420.999C165.305 417.242 164.802 413.795 160.676 413.066C158.173 412.623 155.922 413.509 154.548 415.688C151.22 420.968 151.03 431.114 150.837 437.126Z" fill="#D6906F"/>
<path d="M155.395 445.329H174.349C175.208 444.932 175.92 444.246 176.349 443.152C176.421 442.968 176.485 442.772 176.54 442.564C177.101 440.452 175.644 438.563 173.683 438.264C170.998 437.853 168.487 437.188 165.904 436.31C165.014 436.007 164.075 435.677 163.334 435.058C162.692 434.523 162.447 433.526 161.62 433.269C161.278 433.162 160.913 433.295 160.578 433.424C159.203 433.952 157.717 434.603 156.303 434.952C154.801 435.323 153.142 434.644 151.668 434.401C151.53 434.377 151.387 434.357 151.251 434.392C150.864 434.493 150.714 434.972 150.629 435.379C150.273 437.07 149.918 438.761 149.562 440.452C148.794 444.101 152.586 445.056 155.395 445.329Z" fill="black"/>
<path d="M214.283 377.387C217.535 377.068 220.841 377.37 223.991 378.271C224.929 378.532 228.554 355.808 228.814 354.139C229.536 349.512 230.784 344.533 230.864 339.835C230.964 333.932 225.326 329.207 220.198 333.8C217.784 335.963 216.753 339.341 216.089 342.589C215.483 345.554 214.3 377.386 214.283 377.387Z" fill="#D6906F"/>
<path d="M217.053 385.672H237.968C238.868 385.082 239.385 384.091 239.458 383.091C239.543 381.92 239.038 380.708 237.888 380.019C237.406 379.73 236.849 379.629 236.307 379.52C234.606 379.179 232.925 378.722 231.278 378.152C229.923 377.682 228.533 377.106 227.391 376.17C226.56 375.489 225.915 373.829 224.819 373.908C223.878 373.976 223.087 374.644 222.246 375.099C219.784 376.431 217.642 375.113 215.115 374.684C214.977 374.661 214.835 374.638 214.698 374.675C214.311 374.778 214.161 375.273 214.076 375.693C213.72 377.436 213.365 379.179 213.01 380.922C212.396 383.917 214.678 385.151 217.053 385.672Z" fill="black"/>
<path d="M231.863 297.888C230.081 294.212 223.969 293.091 220.591 291.967C209.367 288.23 198.249 286.381 188.38 279.094C181.681 274.148 167.478 262.323 159.467 271.667C158.229 273.11 157.576 274.984 156.95 276.807C150.649 293.979 153.797 316.696 153.434 334.857C153.021 355.469 152.612 376.094 151.234 396.665C150.84 402.563 146.323 420.021 150.099 424.578C152.58 427.573 158.586 426.927 161.916 426.88C167.966 426.794 168.962 426.357 170.161 420.04C173.399 403.002 176.636 385.964 179.872 368.926C183.188 351.473 182.664 333.467 184.151 315.735C184.16 315.621 184.196 315.532 184.234 315.445C184.236 315.382 184.239 315.318 184.241 315.254C184.273 315.263 184.305 315.27 184.336 315.278C184.722 314.804 185.6 314.998 185.826 315.651C193.027 317.44 200.428 318.215 207.801 318.97C215.87 319.797 224.441 316.757 229.14 309.411C231.066 306.406 233.627 301.525 231.863 297.888Z" fill="black"/>
<path d="M236.654 328.815C237.016 324.178 237.209 319.527 237.233 314.875C237.284 304.718 230.749 286.716 217.543 295.283C214.225 297.437 210.906 301.88 210.21 305.986C209.417 310.665 209.865 315.554 209.947 320.285C210.169 333.108 212.247 345.835 211.805 358.924C218.369 357.93 225.15 358.539 231.454 360.69C234.072 350.253 235.816 339.572 236.654 328.815Z" fill="black"/>
<path d="M167.574 281.987C175.472 282.705 183.454 282.748 191.303 281.462C191.711 281.395 192.116 281.306 192.523 281.232C192.531 281.179 192.539 281.127 192.546 281.075C194.107 269.525 195.668 257.974 197.229 246.424C198.006 240.681 199.284 233.22 195.977 228.069C189.734 218.351 177.746 220.434 171.009 228.253C167.625 232.18 165.429 237.056 163.608 241.984C162.827 244.096 162.106 246.234 161.527 248.415C161.478 248.6 161.429 248.787 161.381 248.973C160.797 251.276 160.379 253.622 159.962 255.964C158.561 261.851 157.817 268.005 156.755 273.971C156.355 276.214 155.862 278.374 155.567 280.49C159.558 281.09 163.558 281.623 167.574 281.987Z" fill="#43609C"/>
<path d="M189.132 289.97C189.862 290.408 190.595 290.831 191.325 291.244C196.228 294.022 201.278 296.504 206.408 298.786C210.467 300.591 214.321 303.274 218.733 304.062C222.651 304.762 227.603 304.315 230.463 301.061C231.224 300.194 231.819 299.033 231.605 297.879C231.391 296.724 230.061 295.807 229.089 296.4C228.818 296.564 228.61 296.816 228.375 297.029C227.382 297.93 225.964 298.11 224.65 298.037C223.336 297.964 222.025 297.679 220.715 297.81C220.24 297.857 219.756 297.958 219.292 297.845C218.805 297.726 218.399 297.386 218.012 297.055C214.992 294.471 211.572 291.989 209.123 288.783C208.076 287.413 207.319 285.832 206.382 284.378C204.873 282.035 202.89 280.027 200.602 278.525C196.118 275.58 194.522 271.432 192.326 266.557C191.648 265.052 190.967 263.537 190.58 261.924C190.085 259.852 190.092 257.687 189.776 255.575C189.324 252.557 188.217 249.689 186.956 246.933C185.812 244.433 184.5 241.951 182.551 240.071C180.602 238.19 177.906 236.975 175.29 237.44C172.042 238.016 169.598 241.066 168.661 244.362C167.724 247.659 168.017 251.185 168.404 254.6C168.778 257.885 169.252 261.239 170.739 264.161C172.165 266.965 174.244 269.358 175.754 272.119C177.192 274.745 177.965 277.59 179.221 280.318C181.214 284.643 185.094 287.541 189.132 289.97Z" fill="#D6906F"/>
<path d="M218.461 174.896C219.877 172.21 221.612 170.2 223.793 169.675C231.893 167.735 225.631 194.748 224.765 198.834C224.053 202.198 223.202 205.552 221.804 208.672C218.415 216.231 212.199 221.338 207.184 227.58C203.821 231.765 201.771 236.299 195.906 236.861C194.156 237.028 192.22 236.926 190.901 235.714C188.603 233.605 188.473 229.349 189.063 226.497C190.532 219.403 197.73 211.123 202.794 206.386C205.454 203.896 208.54 201.763 210.42 198.59C211.348 197.023 211.94 195.268 212.524 193.527C213.849 189.58 215.416 180.675 218.461 174.896Z" fill="#D6906F"/>
<path d="M199.484 221.645C199.362 221.504 199.239 221.363 199.117 221.223C197.228 219.052 195.33 216.295 193.235 214.476C191.287 217.871 189.531 221.406 187.688 224.867C187.042 226.08 186.391 227.305 185.989 228.628C184.316 234.127 186.85 241.164 189.717 245.805C196.234 256.386 203.207 238.057 206.505 232.744C206.698 232.434 206.896 232.105 206.914 231.738C206.937 231.259 206.652 230.829 206.38 230.442C204.156 227.274 202.01 224.547 199.484 221.645Z" fill="#43609C"/>
<path d="M179.029 217.137C179.691 215.003 180.125 212.792 180.312 210.557C180.53 207.957 180.434 205.269 181.328 202.831C182.252 200.314 184.246 198.247 186.665 197.301C196.052 193.627 197.475 204.925 196.511 211.828C196.322 213.176 195.939 214.575 194.989 215.509C194.238 216.247 193.224 216.605 192.337 217.154C190.957 218.009 190.535 219.836 190.284 221.366C190.146 222.211 190.043 223.071 190.159 223.919C190.217 224.337 190.9 225.808 190.851 226.025C190.198 228.88 187.508 231.075 184.696 231.049C180.877 231.013 178.018 227.53 175.719 224.347C177.126 222.113 178.24 219.68 179.029 217.137Z" fill="#D6906F"/>
<path d="M193.248 190.839C193.192 190.836 193.137 190.834 193.083 190.834C191.187 190.812 189.429 192.061 188.359 193.695C188.183 193.964 188.011 194.255 187.739 194.412C187.484 194.56 187.178 194.57 186.887 194.59C184.663 194.747 182.512 195.833 181.011 197.553C179.543 199.237 178.882 201.311 178.735 203.545C178.649 204.849 178.666 205.875 178.978 207.112C179.201 208.001 179.131 208.572 179.247 209.374C179.572 211.626 181.431 211.466 182.548 209.568C183.175 208.5 183.559 207.3 183.995 206.134C184.549 204.652 185.241 203.147 186.456 202.187C187.622 201.266 189.118 200.966 190.561 200.721C192.003 200.477 193.499 200.246 194.732 199.428C197.949 197.295 197.614 191.094 193.248 190.839Z" fill="black"/>
<path d="M185.693 205.543C185.119 204.362 183.776 203.924 182.647 204.538C181.364 205.235 180.651 207.14 180.925 208.589C181.169 209.87 182.424 210.792 183.546 210.059C184.06 209.914 184.549 209.608 184.905 209.215C185.775 208.256 186.301 206.797 185.693 205.543Z" fill="#D6906F"/>
<path d="M165.34 245.054C165.042 250.903 166.341 256.699 167.632 262.4C170.095 259.93 173.485 258.799 176.748 257.744C180.186 256.632 183.624 255.521 187.062 254.41C188.042 254.093 189.165 253.627 189.43 252.594C189.521 252.238 189.491 251.861 189.453 251.495C188.645 243.655 184.232 236.378 177.977 232.011C174.219 229.387 172.117 228.724 169.257 232.753C166.758 236.276 165.562 240.716 165.34 245.054Z" fill="#43609C"/>
<path d="M219.536 171.761L219.74 299.418H228.35L228.146 171.761H219.536Z" fill="#A9D6BE"/>
<path d="M226.793 278.66L220.156 278.671" stroke="#161111" stroke-width="0.75" stroke-miterlimit="10"/>
<path d="M224.74 272.396L220.147 272.404" stroke="#161111" stroke-width="0.75" stroke-miterlimit="10"/>
<path d="M224.731 266.13L220.138 266.138" stroke="#161111" stroke-width="0.75" stroke-miterlimit="10"/>
<path d="M224.723 259.863L220.13 259.872" stroke="#161111" stroke-width="0.75" stroke-miterlimit="10"/>
<path d="M224.714 253.597L220.121 253.606" stroke="#161111" stroke-width="0.75" stroke-miterlimit="10"/>
<path d="M226.75 247.36L220.113 247.371" stroke="#161111" stroke-width="0.75" stroke-miterlimit="10"/>
<path d="M224.696 241.098L220.103 241.105" stroke="#161111" stroke-width="0.75" stroke-miterlimit="10"/>
<path d="M224.688 234.831L220.095 234.839" stroke="#161111" stroke-width="0.75" stroke-miterlimit="10"/>
<path d="M224.679 228.565L220.086 228.573" stroke="#161111" stroke-width="0.75" stroke-miterlimit="10"/>
<path d="M224.671 222.299L220.078 222.306" stroke="#161111" stroke-width="0.75" stroke-miterlimit="10"/>
<path d="M226.706 216.062L220.069 216.073" stroke="#161111" stroke-width="0.75" stroke-miterlimit="10"/>
<path d="M224.653 209.798L220.059 209.806" stroke="#161111" stroke-width="0.75" stroke-miterlimit="10"/>
<path d="M224.644 203.532L220.051 203.539" stroke="#161111" stroke-width="0.75" stroke-miterlimit="10"/>
<path d="M224.636 197.266L220.042 197.273" stroke="#161111" stroke-width="0.75" stroke-miterlimit="10"/>
<path d="M224.626 191L220.034 191.007" stroke="#161111" stroke-width="0.75" stroke-miterlimit="10"/>
<path d="M226.663 184.762L220.025 184.773" stroke="#161111" stroke-width="0.75" stroke-miterlimit="10"/>
<path d="M224.609 178.499L220.016 178.507" stroke="#161111" stroke-width="0.75" stroke-miterlimit="10"/>
<path d="M228.18 175.182C228.427 175.219 228.675 175.217 228.922 175.155C229.355 175.046 229.706 174.706 229.963 174.324C230.926 172.89 230.706 170.82 229.703 169.416C228.7 168.012 227.059 167.22 225.401 166.954C225.087 166.903 224.759 166.87 224.452 166.957C221.934 167.668 220.14 172.586 222.993 173.99C223.818 174.397 224.592 174.082 225.445 174.219C226.33 174.362 227.254 175.046 228.18 175.182Z" fill="#D6906F"/>
<path d="M189.81 253.032C188.498 247.412 186.773 241.898 184.655 236.552" stroke="black" stroke-width="0.5" stroke-miterlimit="10"/>
<mask id="mask0_2234_4064" style="mask-type:luminance" maskUnits="userSpaceOnUse" x="175" y="196" width="22" height="36">
<path d="M179.029 217.137C179.691 215.003 180.125 212.792 180.312 210.557C180.53 207.957 180.434 205.269 181.328 202.831C182.252 200.314 184.246 198.247 186.665 197.301C196.052 193.627 197.475 204.925 196.511 211.828C196.322 213.176 195.939 214.575 194.989 215.509C194.238 216.247 193.224 216.605 192.337 217.154C190.957 218.009 190.535 219.836 190.284 221.366C190.146 222.211 190.043 223.071 190.159 223.919C190.217 224.337 190.9 225.808 190.851 226.025C190.198 228.88 187.508 231.075 184.696 231.049C180.877 231.013 178.018 227.53 175.719 224.347C177.126 222.113 178.24 219.68 179.029 217.137Z" fill="white"/>
</mask>
<g mask="url(#mask0_2234_4064)">
<path d="M196.752 214.501C195.52 215.786 193.85 216.537 192.144 216.898C190.438 217.26 188.682 217.26 186.941 217.224C188.461 220.12 192.13 221.554 195.099 220.413" fill="black"/>
</g>
<path d="M190.24 211.338C190.904 212.222 192.14 212.579 193.143 212.179C194.147 211.778 194.84 210.651 194.768 209.531" fill="white"/>
<path d="M184.283 205.781C183.443 205.751 182.608 206.287 182.255 207.084C181.902 207.881 182.051 208.891 182.618 209.54" stroke="black" stroke-width="0.5" stroke-miterlimit="10"/>
<path d="M184.242 315.255C184.635 308.044 184.442 302.422 184.245 295.202" stroke="#43609C" stroke-width="0.5" stroke-miterlimit="10"/>
<path d="M181.484 279.873C181.622 281.513 182.778 283.009 184.285 283.496" stroke="black" stroke-width="0.5" stroke-miterlimit="10"/>
<path d="M219.695 171.93C219.833 174.937 222.868 172.361 223.082 170.684C223.251 169.354 221.497 168.202 220.418 169.148C219.71 169.77 219.667 170.872 219.692 171.838C219.692 171.87 219.693 171.9 219.695 171.93Z" fill="#D6906F"/>
<path d="M221.757 172.441C221.879 171.846 222.077 171.267 222.344 170.727" stroke="black" stroke-width="0.5" stroke-miterlimit="10"/>
<path d="M224.941 298.147C225.563 298.084 226.192 297.986 226.761 297.714C227.494 297.362 228.189 296.713 228.986 296.847C230.082 297.032 230.424 298.676 229.811 299.64C229.198 300.606 228.054 301.018 226.983 301.317C225.061 301.855 217.106 304.037 217.3 300.187C217.461 296.973 223.07 298.338 224.941 298.147Z" fill="#D6906F"/>
<path d="M209.945 319.415C211.334 316.12 212.722 312.825 214.111 309.53" stroke="#43609C" stroke-width="0.5" stroke-miterlimit="10"/>
<path d="M167.632 445.329H149.759V471.484H167.632V445.329Z" fill="#A9D6BE"/>
<path d="M299.62 285.083H281.052V470.374H299.62V285.083Z" fill="#86B4E3"/>
<path d="M234.355 385.672H215.864V470.374H234.355V385.672Z" fill="#86B4E3"/>
<path d="M203.63 416.231H184.464V470.374H203.63V416.231Z" fill="#A9D6BE"/>
<path d="M268.021 149.759H249.108V470.374H268.021V149.759Z" fill="#CF7765"/>
<path d="M259.63 136.895L242.29 154.432H275.949L259.63 136.895Z" fill="#CF7765"/>
<path d="M436.978 226.206L433.987 397.178H324.883L323.736 469.128H135.022" stroke="#CF7765" stroke-width="8" stroke-miterlimit="10"/>
<path d="M420.894 456.036C420.965 453.949 422.644 452.316 424.644 452.389C426.645 452.464 428.208 454.215 428.138 456.303C428.133 456.434 428.105 456.557 428.088 456.685C429.51 456.49 430.891 456.153 432.217 455.686C432.142 455.571 432.058 455.463 431.994 455.338C431.055 453.493 431.727 451.203 433.495 450.223C435.262 449.243 437.456 449.944 438.394 451.789C438.457 451.912 438.495 452.042 438.543 452.17C439.672 451.267 440.716 450.252 441.658 449.139C441.528 449.076 441.395 449.022 441.271 448.941C439.574 447.833 439.059 445.498 440.12 443.728C441.181 441.958 443.417 441.419 445.114 442.527C445.241 442.61 445.348 442.712 445.461 442.808C446.008 441.444 446.431 440.012 446.718 438.527C446.56 438.542 446.403 438.565 446.24 438.559C444.241 438.486 442.677 436.733 442.747 434.645C442.818 432.557 444.496 430.925 446.497 430.999C446.664 431.004 446.822 431.039 446.982 431.067C446.798 429.55 446.472 428.076 446.017 426.663C445.875 426.773 445.733 426.884 445.572 426.974C443.804 427.954 441.61 427.252 440.671 425.407C439.732 423.563 440.404 421.273 442.172 420.293C442.333 420.203 442.502 420.143 442.67 420.081C441.788 418.872 440.791 417.756 439.698 416.752C439.623 416.935 439.547 417.117 439.443 417.291C438.381 419.063 436.146 419.6 434.448 418.492C432.752 417.384 432.236 415.051 433.298 413.28C433.401 413.106 433.524 412.957 433.649 412.807C432.314 412.226 430.912 411.778 429.456 411.479C429.482 411.683 429.502 411.89 429.496 412.103C429.424 414.191 427.746 415.823 425.746 415.749C423.746 415.675 422.182 413.923 422.252 411.836C422.26 411.631 422.294 411.436 422.33 411.243C420.859 411.444 419.433 411.796 418.066 412.286C418.185 412.448 418.301 412.615 418.396 412.801C419.335 414.646 418.663 416.936 416.895 417.915C415.128 418.895 412.934 418.194 411.995 416.349C411.907 416.176 411.846 415.995 411.786 415.815C410.634 416.744 409.573 417.792 408.617 418.94C408.787 419.016 408.956 419.093 409.118 419.198C410.814 420.306 411.33 422.639 410.269 424.411C409.207 426.182 406.972 426.72 405.275 425.612C405.126 425.514 404.998 425.397 404.867 425.282C404.326 426.662 403.91 428.111 403.634 429.614C403.803 429.596 403.973 429.573 404.147 429.58C406.148 429.653 407.711 431.406 407.641 433.494C407.57 435.581 405.891 437.213 403.891 437.14C403.737 437.135 403.591 437.101 403.442 437.076C403.638 438.578 403.972 440.034 404.433 441.431C404.558 441.339 404.678 441.242 404.816 441.165C406.584 440.185 408.778 440.886 409.716 442.731C410.655 444.576 409.983 446.866 408.215 447.846C408.093 447.914 407.965 447.955 407.84 448.006C408.711 449.178 409.69 450.26 410.761 451.236C410.821 451.106 410.87 450.973 410.944 450.849C412.006 449.078 414.241 448.54 415.938 449.648C417.635 450.755 418.15 453.089 417.089 454.86C417.02 454.976 416.934 455.07 416.855 455.174C418.149 455.729 419.508 456.157 420.917 456.448C420.91 456.31 420.889 456.176 420.894 456.036ZM410.428 433.417C410.718 424.91 417.558 418.258 425.709 418.559C433.859 418.86 440.233 426 439.945 434.507C439.656 443.014 432.815 449.667 424.664 449.366C416.513 449.065 410.139 441.924 410.428 433.417Z" fill="#86B4E3"/>
<path d="M408.751 437.433C410.584 446.899 419.453 453.045 428.523 451.133C437.592 449.22 443.481 439.964 441.648 430.497C439.816 421.03 430.946 414.884 421.877 416.795C412.807 418.709 406.919 427.967 408.751 437.433ZM422.968 422.43C429.061 421.146 435.02 425.275 436.251 431.636C437.482 437.996 433.526 444.214 427.433 445.5C421.339 446.784 415.38 442.656 414.15 436.295C412.918 429.935 416.874 423.715 422.968 422.43Z" stroke="#161111" stroke-width="0.75" stroke-miterlimit="10"/>
<path d="M346.015 446.378C348.726 460.391 361.856 469.488 375.283 466.657C388.71 463.827 397.425 450.124 394.713 436.111C392.001 422.099 378.872 412.999 365.446 415.829C352.019 418.659 343.302 432.364 346.015 446.378ZM367.059 424.169C376.078 422.267 384.899 428.38 386.721 437.794C388.543 447.209 382.687 456.414 373.668 458.316C364.648 460.217 355.827 454.105 354.005 444.691C352.183 435.278 358.039 426.07 367.059 424.169Z" stroke="#161111" stroke-width="0.75" stroke-miterlimit="10"/>
<path d="M363.989 473.913C364.094 470.823 366.578 468.407 369.539 468.517C372.5 468.626 374.815 471.219 374.71 474.31C374.703 474.504 374.661 474.687 374.635 474.875C376.741 474.586 378.785 474.088 380.748 473.397C380.637 473.226 380.513 473.068 380.418 472.88C379.028 470.149 380.022 466.759 382.639 465.31C385.255 463.859 388.503 464.897 389.892 467.629C389.986 467.812 390.041 468.004 390.112 468.192C391.784 466.856 393.328 465.353 394.724 463.707C394.531 463.613 394.336 463.533 394.151 463.412C391.639 461.772 390.876 458.317 392.448 455.696C394.02 453.074 397.329 452.278 399.84 453.919C400.028 454.041 400.186 454.193 400.354 454.334C401.163 452.315 401.79 450.196 402.215 447.996C401.981 448.019 401.749 448.054 401.508 448.044C398.547 447.934 396.232 445.341 396.337 442.251C396.442 439.16 398.927 436.744 401.887 436.854C402.134 436.863 402.369 436.914 402.606 436.956C402.334 434.709 401.852 432.528 401.178 430.436C400.968 430.599 400.757 430.763 400.519 430.895C397.903 432.346 394.655 431.308 393.266 428.577C391.876 425.846 392.871 422.456 395.487 421.006C395.727 420.873 395.977 420.783 396.225 420.692C394.918 418.902 393.443 417.251 391.825 415.764C391.715 416.035 391.601 416.304 391.447 416.562C389.876 419.184 386.567 419.98 384.055 418.339C381.543 416.7 380.78 413.245 382.352 410.623C382.505 410.368 382.687 410.145 382.871 409.924C380.895 409.064 378.82 408.401 376.666 407.958C376.704 408.261 376.734 408.567 376.723 408.882C376.618 411.972 374.133 414.389 371.173 414.279C368.212 414.169 365.897 411.576 366.002 408.486C366.013 408.184 366.063 407.895 366.117 407.608C363.94 407.904 361.829 408.427 359.805 409.153C359.98 409.394 360.153 409.64 360.293 409.916C361.682 412.647 360.688 416.037 358.071 417.487C355.455 418.936 352.207 417.898 350.818 415.168C350.688 414.911 350.598 414.644 350.509 414.377C348.802 415.753 347.232 417.305 345.818 419.003C346.069 419.116 346.321 419.229 346.559 419.385C349.071 421.024 349.834 424.478 348.262 427.1C346.691 429.722 343.381 430.518 340.869 428.877C340.649 428.733 340.46 428.56 340.267 428.39C339.467 430.434 338.85 432.578 338.44 434.804C338.691 434.776 338.941 434.743 339.202 434.751C342.163 434.861 344.478 437.454 344.373 440.545C344.267 443.635 341.783 446.051 338.822 445.941C338.594 445.933 338.378 445.884 338.157 445.847C338.447 448.07 338.942 450.226 339.625 452.295C339.81 452.159 339.987 452.013 340.192 451.9C342.808 450.449 346.056 451.488 347.445 454.219C348.835 456.949 347.84 460.339 345.223 461.789C345.043 461.889 344.853 461.949 344.668 462.026C345.958 463.761 347.408 465.363 348.992 466.808C349.08 466.616 349.153 466.42 349.264 466.234C350.834 463.613 354.144 462.817 356.656 464.457C359.168 466.098 359.929 469.552 358.359 472.173C358.256 472.343 358.129 472.484 358.013 472.638C359.929 473.459 361.94 474.093 364.025 474.523C364.012 474.32 363.982 474.121 363.989 473.913ZM348.497 440.432C348.924 427.84 359.051 417.993 371.116 418.439C383.182 418.885 392.616 429.455 392.188 442.048C391.761 454.64 381.634 464.487 369.569 464.041C357.504 463.595 348.069 453.025 348.497 440.432Z" fill="#86B4E3"/>
<path d="M602.728 333.258H514.886V474.259H602.728V333.258Z" fill="#A9D6BE"/>
<path d="M602.728 265.411H514.886V406.412H602.728V265.411Z" fill="#86B4E3"/>
<path d="M558.764 421.039C582.997 421.039 602.641 415.44 602.641 408.533C602.641 401.627 582.997 396.028 558.764 396.028C534.531 396.028 514.886 401.627 514.886 408.533C514.886 415.44 534.531 421.039 558.764 421.039Z" fill="#43609C"/>
<path d="M602.728 341.198H514.886V405.882H602.728V341.198Z" fill="#43609C"/>
<path d="M558.764 383.841C582.997 383.841 602.641 378.243 602.641 371.336C602.641 364.43 582.997 358.831 558.764 358.831C534.531 358.831 514.886 364.43 514.886 371.336C514.886 378.243 534.531 383.841 558.764 383.841Z" fill="#CF7765"/>
<path d="M602.728 304.001H514.886V368.684H602.728V304.001Z" fill="#CF7765"/>
<path d="M558.764 316.571C582.997 316.571 602.641 310.972 602.641 304.066C602.641 297.159 582.997 291.56 558.764 291.56C534.531 291.56 514.886 297.159 514.886 304.066C514.886 310.972 534.531 316.571 558.764 316.571Z" fill="#86B4E3"/>
<path d="M364.629 303.633C364.842 305.796 365.808 307.892 367.57 308.973C370.583 310.819 374.196 311.594 377.659 311.094C382.127 310.449 393.675 303.829 388.509 297.968C387.568 296.902 386.314 296.207 385.196 295.347C383.766 294.248 382.614 293 381.966 291.26C381.53 290.087 381.311 288.841 381.123 287.599C380.85 285.807 380.508 283.929 380.474 282.112C380.452 280.905 381.274 279.537 381.999 278.573C382.534 277.864 382.96 277.048 383.126 276.161C383.186 275.841 383.21 275.502 383.113 275.192C383.017 274.881 382.776 274.604 382.468 274.547C382.317 274.52 382.16 274.544 382.008 274.52C381.475 274.431 381.614 273.082 381.549 272.629C381.445 271.902 381.28 271.185 381.048 270.491C380.591 269.126 379.861 267.831 378.805 266.878C378.35 266.469 377.839 266.128 377.289 265.875C375.12 264.881 372.558 265.08 370.389 265.958C369.347 266.38 368.495 267.093 367.532 267.612C366.385 268.231 365.52 268.784 364.909 270.051C364.313 271.283 364.124 272.681 364.023 274.057C363.837 276.595 363.922 279.155 364.278 281.672C364.729 284.868 366.218 288.246 369.821 288.119C370.265 288.104 370.178 293.357 370.055 293.884C369.763 295.131 369.159 297.025 367.92 297.555C367.505 297.733 367.042 297.764 366.626 297.941C365.733 298.319 365.211 299.297 364.927 300.258C364.616 301.306 364.515 302.479 364.629 303.633Z" fill="#D6906F"/>
<path d="M379.238 280.692C379.498 282.417 380.101 284.143 381.529 284.957C383.154 285.883 385.174 285.233 386.841 284.394C389.187 283.213 391.55 281.422 392.123 278.77C392.874 275.292 390.277 274.948 388.608 272.933C387.678 271.812 388.229 269.981 387.519 268.698C387.034 267.822 386.052 267.378 385.098 267.198C384.58 267.1 384.042 267.06 383.569 266.821C381.909 265.978 381.613 263.736 380.246 262.599C378.508 261.153 375.874 260.163 373.685 260.895C372.759 261.205 371.948 261.798 371.075 262.245C369.785 262.906 368.324 263.249 366.897 263.072C365.783 262.935 364.709 262.486 363.587 262.472C362.465 262.456 361.197 263.068 360.976 264.215C360.804 265.107 361.311 266.005 361.237 266.911C361.065 269.03 359.438 269.762 360.772 271.961C361.563 273.265 362.881 274.122 364.427 274.025C365.371 273.965 366.276 273.625 367.21 273.464C367.765 273.367 368.349 273.341 368.902 273.473C369.426 273.598 369.755 273.941 370.219 274.16C370.512 274.299 370.815 274.423 371.132 274.484C371.517 274.558 371.914 274.538 372.301 274.484C373.754 274.282 376.265 272.936 377.645 273.961C379.068 275.019 378.986 278.129 379.123 279.712C379.152 280.033 379.189 280.363 379.238 280.692Z" fill="black"/>
<path d="M365.717 283.433C366.957 285.857 368.908 285.831 370.003 283.373L365.717 283.433Z" fill="white"/>
<path d="M375.301 277.33C375.356 278.953 374.141 280.316 372.585 280.374C371.029 280.431 369.724 279.163 369.668 277.539C369.612 275.915 370.828 274.553 372.384 274.495C373.94 274.437 375.246 275.707 375.301 277.33Z" stroke="black" stroke-width="0.5" stroke-miterlimit="10"/>
<path d="M366.759 277.648C366.814 279.272 365.599 280.634 364.043 280.691C362.488 280.749 361.182 279.48 361.127 277.856C361.072 276.233 362.287 274.87 363.843 274.813C365.398 274.755 366.704 276.025 366.759 277.648Z" stroke="black" stroke-width="0.5" stroke-miterlimit="10"/>
<path d="M366.764 277.826L369.674 277.716" stroke="black" stroke-width="0.5" stroke-miterlimit="10"/>
<path d="M375.133 277.506L380.385 275.437" stroke="black" stroke-width="0.5" stroke-miterlimit="10"/>
<path d="M372.688 277.701C372.684 278.045 372.414 278.32 372.084 278.317C371.754 278.313 371.491 278.031 371.494 277.687C371.498 277.342 371.768 277.067 372.098 277.07C372.427 277.075 372.691 277.357 372.688 277.701Z" fill="#1E2652"/>
<path d="M364.683 277.339C364.679 277.683 364.409 277.958 364.079 277.955C363.749 277.952 363.486 277.669 363.489 277.325C363.493 276.98 363.763 276.705 364.093 276.709C364.423 276.713 364.687 276.995 364.683 277.339Z" fill="#1E2652"/>
<path d="M285.243 422.964C288.041 422.98 290.628 424.109 293.385 424.553C293.617 424.591 293.867 424.625 294.076 424.514C294.249 424.422 294.364 424.245 294.47 424.075C297.569 419.129 300.34 413.959 302.755 408.613C303.285 407.439 303.808 406.218 303.854 404.921C303.977 401.546 300.679 398.723 297.586 399.117C295.891 399.333 294.334 400.25 293.047 401.423C290.156 404.056 288.533 407.886 287.384 411.708C286.252 415.475 285.883 418.018 284.722 421.749C285.143 421.712 284.843 422.961 285.243 422.964Z" fill="#D6906F"/>
<path d="M399.287 355.804C397.338 349.058 392.069 346.125 385.565 347.081C375.725 348.529 369.459 355.678 361.626 361.21C355.053 357.23 348.235 353.694 341.229 350.628C334.974 347.891 327.727 344.048 320.773 344.681C311.538 345.52 306.381 360.542 302.664 367.901C297.562 378.002 293.134 388.474 289.427 399.218C288.577 401.681 286.197 406.844 284.893 411.574C288.577 412.216 292.216 413.173 295.923 413.68C298.324 414.009 300.773 414.153 303.2 414.417C306.905 407.742 313.013 403.568 317.45 397.513C319.94 394.115 322.128 390.477 323.98 386.661C324.623 385.336 329.007 377.075 328.156 375.914C330.516 379.136 333.668 381.722 337.227 383.353C341.645 385.378 346.537 385.909 351.337 386.415C363.461 387.694 375.895 388.951 387.682 385.725C390.659 384.91 393.621 383.782 396.038 381.796C402.813 376.227 401.236 363.478 399.287 355.804Z" fill="#43609C"/>
<path d="M310.318 446.341C310.392 447.201 310.677 447.963 311.441 448.655C311.889 449.062 316.779 451.539 316.927 451.219C320.029 444.506 323.399 437.546 325.463 430.415C326.178 427.94 326.706 425.191 325.682 422.839C324.861 420.952 323.039 419.581 321.064 419.363C317.662 418.988 314.667 422.07 313.782 425.295C312.103 431.417 310.972 437.702 310.412 444.042C310.337 444.885 310.259 445.645 310.318 446.341Z" fill="#D6906F"/>
<path d="M336.263 325.875C339.965 319.168 344.684 313.063 350.145 307.83C353.414 304.696 361.424 294.897 365.807 301.278C368.316 304.93 366.657 311.273 364.862 314.865C360.304 323.989 353.826 333.356 343.929 336.337C336.175 338.671 332.578 332.554 336.263 325.875Z" fill="#A9D6BE"/>
<path d="M342.198 392.906H342.394C342.448 392.545 342.435 392.323 342.333 392.295C343.147 392.514 343.969 392.699 344.786 392.906H404.145C408.581 387.85 408.672 379.835 407.663 373.392C407.05 369.477 405.65 366.141 404.177 362.863C402.438 358.994 400.596 355.206 399.826 350.638C399.507 348.745 399.106 346.791 397.991 345.262C396.686 343.473 394.595 342.527 392.562 341.785C387.834 340.061 382.333 339.106 378.019 341.761C371.997 345.468 374.637 353.593 371.431 359.535C370.614 361.049 369.606 362.488 368.26 363.511C366.938 364.514 365.351 365.071 363.754 365.435C357.795 366.797 351.62 365.585 345.581 364.701C340.082 363.895 334.422 363.321 327.467 365.016C315.733 367.875 315.817 382.36 314.594 392.862C312.967 406.837 311.543 420.838 310.317 434.856C312.96 435.521 315.612 436.138 318.28 436.669C320.825 437.003 323.365 437.372 325.904 437.761C326.137 437.767 326.369 437.777 326.6 437.785C327.362 436.642 327.849 435.269 328.3 433.94C330.942 426.136 333.583 418.33 336.226 410.526C336.513 409.679 341.116 398.061 342.199 393.827V392.906H342.198Z" fill="#43609C"/>
<path d="M361.372 331.813C362.353 336.619 362.69 341.04 362.587 345.989C362.557 347.429 361.098 360.969 361.514 361.177C367.933 364.399 375.264 364.865 382.382 365.138C390.015 365.431 397.653 365.569 405.291 365.547C402.182 354.062 401.113 341.922 399.564 330.126C398.251 320.138 397.73 309.636 393.863 300.285C393.189 298.656 392.413 296.906 390.91 296.077C389.006 295.027 386.561 295.807 384.606 294.866C384.461 297.269 384.232 299.884 382.647 301.635C381.578 302.815 380.043 303.407 378.527 303.77C377.547 304.006 376.542 304.161 375.538 304.118C373.849 304.046 372.169 303.384 370.858 302.27C369.36 300.997 368.962 298.709 368.536 296.855C364.784 298.338 362.418 299.282 360.825 303.643C358.797 309.197 358.177 315.304 359.044 321.18C359.575 324.776 360.646 328.257 361.372 331.813Z" fill="#A9D6BE"/>
<path d="M405.569 330.981C405.072 328.142 405.069 325.642 404.721 322.802C404.31 319.456 402.995 316.308 402.216 313.051C401.663 310.737 401.377 308.353 400.69 306.078C399.93 303.56 398.651 301.276 397.077 299.247C397.041 299.203 397.001 299.161 396.962 299.115C396.83 298.95 396.714 298.772 396.577 298.61C396.274 298.247 395.919 297.945 395.544 297.669C394.351 296.635 392.959 295.853 391.422 295.6C388.55 295.128 386.004 295.948 384.335 298.6C383.114 300.543 382.664 302.9 382.43 305.211C382.141 308.072 382.153 311.018 382.989 313.758C383.672 315.996 384.879 318.022 385.637 320.233C387.805 326.553 388.794 333.245 389.803 339.848C390.256 342.811 390.661 347.095 392.731 349.647C393.31 350.362 394.021 350.94 394.899 351.317C403.747 355.11 406.553 336.59 405.569 330.981Z" fill="#A9D6BE"/>
<path d="M348.373 307.097C348.173 307.296 347.975 307.495 347.777 307.694C342.705 312.805 328.394 326.784 333.913 335.177C338.284 341.821 346.908 337.381 351.027 333.113C356.073 327.884 360.726 321.412 360.86 313.991C360.927 310.259 364.05 305.44 358.973 303.125C357.02 302.235 354.705 302.608 352.798 303.603C351.135 304.467 349.723 305.757 348.373 307.097Z" fill="#A9D6BE"/>
<path d="M368.078 303.46C370.025 305.201 371.476 307.598 371.002 310.373C370.776 311.698 368.778 311.447 369.005 310.114C369.353 308.079 368.282 306.406 366.856 305.129C365.876 304.253 367.091 302.576 368.078 303.46Z" fill="#D6906F"/>
<path d="M349.533 321.413L368.157 320.721C368.277 320.717 368.371 320.611 368.367 320.485L367.35 290.671C367.346 290.546 367.245 290.447 367.124 290.451L348.5 291.144C348.38 291.149 348.285 291.254 348.289 291.381L349.306 321.194C349.311 321.318 349.412 321.417 349.533 321.413Z" fill="#86B4E3"/>
<path d="M364.02 314.106C363.052 315.521 365.18 317.191 366.108 317.867C367.075 318.571 368.119 319.188 368.923 320.088C370.068 321.371 370.613 323.094 371.345 324.672C371.88 325.824 372.996 327.936 374.391 328.122C375.698 328.296 377.104 326.588 377.211 325.344C377.313 324.172 376.74 323.067 376.223 322.021C375.28 320.115 374.464 318.14 373.783 316.117C372.764 313.087 371.969 309.807 369.812 307.515C368.283 305.892 367.344 306.754 366.596 308.468C365.77 310.363 365.189 312.395 364.02 314.106Z" fill="#D6906F"/>
<path d="M364.543 316.675C364.724 316.84 364.921 316.977 365.152 317.034C365.647 317.156 366.166 316.858 366.475 316.438C367.162 315.502 367.266 314.088 367.594 312.993C367.999 311.638 368.602 310.339 368.813 308.926C368.875 308.509 368.902 308.079 368.83 307.663C368.57 306.164 367.437 305.748 366.236 305.153C364.814 304.45 363.296 303.991 361.773 303.589C361.53 303.525 361.272 303.564 361.025 303.611C359.889 303.825 358.707 304.254 357.878 305.128C356.904 306.155 356.783 307.683 356.875 309.058C356.908 309.558 356.967 310.062 357.146 310.527C357.512 311.48 358.338 312.16 359.202 312.654C360.065 313.148 361.001 313.506 361.823 314.071C362.748 314.706 363.493 315.579 364.269 316.401C364.358 316.494 364.448 316.589 364.543 316.675Z" fill="#D6906F"/>
<path d="M401.151 339.888C400.802 338.492 400.25 337.155 399.524 335.986C396.676 331.397 391.472 329.58 387.751 325.999C384.227 322.606 380.301 318.269 375.858 316.178C375.642 316.076 375.408 315.979 375.175 316.02C374.921 316.065 374.721 316.263 374.539 316.452C372.291 318.768 370.043 321.084 367.797 323.401C371.326 330.327 376.643 336.252 381.389 342.29C384.466 346.206 390.619 353.864 396.296 351.97C401.143 350.353 402.374 344.763 401.151 339.888Z" fill="#A9D6BE"/>
<path d="M361.615 292.837L353.967 293.121C353.749 293.129 353.565 292.951 353.558 292.723L353.485 290.584C353.477 290.355 353.647 290.164 353.866 290.156L361.514 289.872C361.732 289.864 361.916 290.042 361.923 290.271L361.997 292.41C362.004 292.637 361.833 292.828 361.615 292.837Z" fill="black"/>
<path d="M267.147 431.39C268.503 431.992 270.091 432.232 271.571 432.381C275.588 432.786 279.619 433.022 283.654 433.089C286.369 433.133 292.022 434.192 293.863 431.424C294.461 430.526 294.691 429.425 294.91 428.355C295.177 427.049 296.158 424.673 295.93 423.38C295.663 421.862 295.528 422.231 293.953 421.827C291.039 421.08 288.177 420.14 285.392 418.973C283.079 421.937 279.304 423.144 275.703 423.846C272.343 424.501 268.71 424.96 265.544 426.279C264.833 426.575 264.211 427.258 264.206 428.058C264.204 428.506 264.391 428.933 264.626 429.307C265.239 430.282 266.127 430.939 267.147 431.39Z" fill="black"/>
<path d="M301.832 451.408C299.191 452.95 296.448 454.385 294.025 456.233C292.895 457.096 291.716 458.49 292.259 459.835C292.667 460.846 293.842 461.214 294.877 461.407C300.271 462.412 304.921 461.078 310.092 459.461C312.18 458.807 314.052 457.754 316.242 457.312C316.707 457.218 317.185 457.137 317.595 456.889C318.44 456.379 318.787 455.309 319.044 454.325C319.79 451.477 320.742 448.645 319.745 445.887C316.41 446.172 313.029 445.861 309.788 445.001C307.677 447.781 304.82 449.663 301.832 451.408Z" fill="black"/>
<path d="M370.003 294.089C371.64 291.411 374.146 288.522 375.672 285.775C374.623 286.44 373.475 286.874 372.281 287.295C371.498 287.57 370.687 287.922 369.86 288.104C370.372 289.933 370.13 292.273 370.003 294.089Z" fill="black"/>
<path d="M314.319 400.895C324.251 390.552 329.569 378.342 333.823 365.022C335.138 360.903 348.466 363.549 351.058 363.729C358.597 364.254 366.136 364.779 373.675 365.304" stroke="#1E2652" stroke-width="0.5" stroke-miterlimit="10"/>
<path d="M343.026 390.582C343.473 388.23 343.563 385.802 343.283 383.421" stroke="#1E2652" stroke-width="0.5" stroke-miterlimit="10"/>
<path d="M401.481 348.942C399.354 351.062 396.182 351.513 393.241 351.559C391.351 351.589 389.407 351.486 387.676 350.693C384.8 349.377 382.993 346.417 381.358 343.618C377.178 336.467 373 329.315 368.82 322.164" stroke="black" stroke-width="0.5" stroke-miterlimit="10"/>
<path d="M375.642 315.617C375.721 315.264 376.235 315.409 376.51 315.628C382.336 320.294 387.939 325.264 393.288 330.515" stroke="black" stroke-width="0.5" stroke-miterlimit="10"/>
<path d="M348.949 318.58C345.34 320.66 342.122 323.475 339.527 326.818" stroke="black" stroke-width="0.5" stroke-miterlimit="10"/>
<path d="M385.163 311.033C386.19 316.399 387.566 321.692 389.278 326.865" stroke="black" stroke-width="0.5" stroke-miterlimit="10"/>
<path d="M524.166 260.268C521.869 264.651 525.456 267.811 528.444 270.752C529.262 271.557 530.143 272.322 531.175 272.783C532.963 273.581 534.996 273.391 536.928 273.168C550.805 271.56 564.951 269.607 578.602 266.545C581.813 265.825 584.99 264.945 588.189 264.19C592.352 263.208 596.694 261.312 600.664 259.659C604.703 257.977 608.481 255.609 611.792 252.665C611.849 252.614 611.905 252.559 611.963 252.507C612.534 252.145 613.032 251.715 613.435 250.979C615.15 248.936 616.333 246.393 615.347 244.015C614.211 241.274 610.889 240.493 608.036 240.257C599.524 239.554 590.994 240.51 582.58 241.83C576.905 242.72 571.284 243.981 565.586 244.716C559.79 245.463 554.265 244.792 548.502 244.929C538.532 245.17 528.962 251.12 524.166 260.268Z" fill="black"/>
<path d="M548.883 238.642C546.244 237.556 542.384 238.016 540.197 236.079C537.722 233.886 536.113 230.015 534.768 227.018C534.088 225.503 532.669 224.539 531.725 223.234C530.63 221.721 529.731 219.994 528.75 218.399C528.65 218.236 528.544 218.056 528.564 217.863C528.578 217.712 528.667 217.582 528.753 217.46C530.254 215.331 531.921 213.329 533.73 211.477C535.776 209.384 538.101 207.391 539.425 204.68C540.755 201.955 542.152 198.84 542.603 195.797C542.902 193.777 542.96 191.698 542.477 189.703C542.081 188.061 542.611 186.355 540.958 185.235C539.908 184.524 538.546 184.463 537.337 184.799C536.128 185.136 535.042 185.832 534.003 186.559C524.103 193.495 516.813 204.384 513.989 216.476C513.192 219.889 514 222.495 516.272 225.04C520.135 229.368 524.12 233.514 528.787 236.901C530.101 237.854 531.455 238.763 532.92 239.437C535.818 240.771 536.936 243.232 539.838 244.591C542.254 245.723 544.834 246.542 547.479 246.676C549.441 246.776 552.632 246.3 552.819 243.832C552.998 241.507 550.731 239.404 548.883 238.642Z" fill="#D6906F"/>
<path d="M604.176 225.948C602.721 227.653 601.112 229.214 599.376 230.605C596.978 232.526 594.377 234.624 591.645 235.986C589.699 236.956 587.596 237.544 585.643 238.499C583.317 239.637 581.249 241.272 579 242.567C577.563 243.394 572.89 245.881 571.512 244.051C570.237 242.36 573.093 239.606 574.269 238.834C577.598 236.65 580.193 233.112 582.088 229.53C582.755 228.27 583.339 226.963 584.06 225.736C585.087 223.989 586.392 222.423 587.899 221.11C588.604 220.495 589.359 219.869 590.19 219.454C590.477 219.311 592.245 218.393 592.368 218.471C589.299 216.514 587.576 212.974 585.6 209.837C584.123 207.491 582.431 205.292 581.077 202.867C579.723 200.442 578.705 197.72 578.75 194.914C578.795 192.108 580.06 189.215 582.393 187.82C582.822 187.563 584.048 187.294 584.611 187.214C586.619 186.926 588.485 188.255 590.057 189.592C594.206 193.123 597.933 197.194 601.124 201.68C602.63 203.797 603.987 205.58 605.117 207.983C606.333 210.568 607.393 213.259 607.93 216.095C608.128 217.142 608.254 218.219 608.093 219.273C607.856 220.822 607.019 222.195 606.123 223.455C605.51 224.314 604.86 225.148 604.176 225.948Z" fill="#D6906F"/>
<path d="M591.567 187.26C589.718 185.614 587.785 184.077 585.699 182.779C582.243 180.63 578.314 179.159 574.292 179.18C572.103 179.191 569.62 178.781 567.484 179.204C565.13 179.669 562.947 180.749 560.51 180.829C556.422 180.963 552.42 179.625 548.465 178.913C544.443 178.189 539.897 179.898 536.446 181.914C532.674 184.117 524.967 189.39 522.127 192.803C525.725 198.935 533.289 202.573 536.3 209.102C536.937 208.754 537.54 208.339 538.098 207.864C538.019 214.177 538.047 220.49 538.179 226.801C538.308 232.958 538.01 239.561 538.928 245.639C539.836 244.753 541.45 245.121 542.594 245.108C544.396 245.087 546.197 245.08 547.998 245.076C551.376 245.067 554.754 245.045 558.132 245.045C562.953 245.003 567.787 244.983 572.568 244.283C575.068 243.917 577.539 243.547 580.029 243.588C581.342 238.848 580.881 233.139 581.01 228.427C581.123 224.281 581.033 220.134 580.864 215.992C580.778 213.867 580.707 211.735 580.558 209.614C580.483 208.544 579.734 206.289 580.502 205.511C581.409 206.24 582.173 207.258 582.967 208.132C586.923 202.218 590.976 196.375 595.121 190.604C593.959 189.467 592.781 188.34 591.567 187.26Z" fill="#43609C"/>
<path d="M554.781 274.633C553.888 275.565 535.073 279.875 535.073 279.875L534.187 269.894L551.694 263.354L554.781 274.633Z" fill="#D6906F"/>
<path d="M602.385 262.709C604.583 261.397 606.78 260.081 609.146 259.151C611.653 258.165 614.432 257.561 616.364 255.623C618.409 253.571 619.053 250.473 619.601 247.567C620.208 244.341 620.199 240.712 619.348 237.53C618.136 232.995 614.621 229.186 610.184 228.136C607.511 227.503 604.632 227.872 602.185 229.16C600.381 230.109 598.835 231.522 597.053 232.514C595.566 233.342 593.943 233.863 592.372 234.501C587.599 236.441 583.207 239.342 578.86 242.085C574.491 244.845 570.578 248.307 566.353 251.289C564.684 252.465 547.156 261.346 547.158 261.352C549.43 266.634 551.416 272.068 553.495 277.453C564.831 275.852 575.754 272.13 586.777 269.039C588.964 268.426 590.995 267.508 593.185 266.987C595.656 266.4 597.97 265.261 600.185 264C600.923 263.581 601.653 263.146 602.385 262.709Z" fill="black"/>
<path d="M534.435 280.923C530.966 281.64 527.484 280.866 523.743 280.445C520.826 280.116 517.834 280.677 514.936 280.211C511.065 279.588 508.056 276.731 507.771 272.69C507.611 270.418 507.531 267.877 508.967 266.16C510.143 264.755 512.087 264.288 513.867 264.458C515.647 264.627 517.332 265.339 519.022 265.946C521.914 266.984 524.89 267.728 527.878 268.391C530.298 268.929 532.379 270.184 534.78 268.943C534.908 268.876 535.054 268.803 535.189 268.853C535.335 268.906 535.403 269.075 535.455 269.227C536.31 271.736 537.08 274.277 537.763 276.843C538.117 278.176 538.706 278.949 537.656 279.776C536.83 280.427 535.432 280.718 534.435 280.923Z" fill="black"/>
<path d="M571.93 274.633C572.824 275.565 591.637 279.875 591.637 279.875L592.523 269.894L575.017 263.354L571.93 274.633Z" fill="#D6906F"/>
<path d="M523.686 263.877C520.062 262.45 516.545 260.772 513.223 258.682C512.105 257.98 510.991 257.21 510.194 256.134C509.063 254.607 508.687 252.635 508.341 250.74C507.056 243.681 505.235 238.301 510.137 232.304C514.129 227.422 520.535 225.528 525.963 229.055C529.489 231.346 531.855 235.499 535.772 236.942C537.883 237.72 540.291 237.564 542.33 238.55C544.206 239.456 546.058 240.957 547.849 242.087C552.219 244.846 556.131 248.308 560.357 251.29C562.025 252.466 579.554 261.347 579.551 261.353C577.278 266.635 575.292 272.069 573.213 277.455C561.878 275.853 550.954 272.131 539.931 269.04C534.473 267.509 528.967 265.957 523.686 263.877Z" fill="black"/>
<path d="M592.274 280.923C595.744 281.64 599.225 280.866 602.967 280.445C605.884 280.116 608.876 280.677 611.774 280.211C615.44 279.621 619.619 275.825 619.785 271.766C619.837 270.499 619.518 269.242 619.06 268.067C618.818 267.449 618.534 266.842 618.139 266.318C617.247 265.136 615.832 264.455 614.397 264.315C612.201 264.102 609.998 264.844 607.917 265.479C605.771 266.134 603.796 266.487 601.72 267.421C599.054 268.622 596.073 269.051 593.195 268.647C592.447 268.541 591.671 268.382 590.946 268.603C589.318 269.1 589.482 271.661 589.356 273.063C589.168 275.176 589.07 277.345 588.252 279.32C589.601 280.148 590.937 280.647 592.274 280.923Z" fill="black"/>
<path d="M567.928 179.15C567.392 179.154 566.852 179.104 566.369 178.869C565.48 178.435 565.298 177.487 565.199 176.562C565.072 175.387 565.058 174.197 565.159 173.018C565.188 172.682 565.229 172.344 565.231 172.007C565.25 169.902 565.418 167.515 565.974 165.491C568.025 165.434 568.114 163.874 568.25 162.06C568.291 161.505 568.294 160.89 567.95 160.465C567.607 160.04 566.795 160.052 566.655 160.588C566.738 159.115 566.786 157.639 566.8 156.163C566.813 154.863 567.053 153.872 565.834 153.182C563.874 152.074 561.498 151.992 559.323 152.504C558.322 152.739 557.325 153.018 556.362 153.39C555.881 153.575 555.429 153.862 554.956 154.048C554.495 154.23 553.984 154.261 553.51 154.442C553.058 154.614 552.634 154.916 552.401 155.356C552.212 155.711 552.164 156.125 552.042 156.51C551.924 156.887 551.737 157.244 551.672 157.636C551.546 158.398 552.122 159.642 551.586 160.283C551.027 160.95 550.19 160.737 549.91 161.849C549.722 162.601 549.891 163.398 550.113 164.139C550.256 164.614 550.435 165.105 550.798 165.428C551.161 165.751 551.761 165.836 552.099 165.484C552.755 167.018 553.305 168.753 553.708 170.387C553.786 170.706 553.936 170.994 553.997 171.314C554.089 171.788 554.066 172.321 554.074 172.803C554.098 174.388 553.885 175.835 553.602 177.388C553.518 177.849 553.426 178.329 553.143 178.694C552.627 179.358 551.689 179.406 550.87 179.397C551.345 180.291 551.501 181.263 552.074 182.127C553.015 183.544 554.466 184.765 556.145 184.995C558.593 185.331 561.145 185.439 563.473 184.581C564.6 184.166 565.652 183.505 566.5 182.622C567.466 181.613 567.948 180.503 568.251 179.141C568.145 179.146 568.036 179.148 567.928 179.15Z" fill="#D6906F"/>
<path d="M582.503 250.343H534.754C533.779 250.343 532.989 249.518 532.989 248.5V218.603C532.989 217.586 533.779 216.76 534.754 216.76H582.503C583.478 216.76 584.268 217.584 584.268 218.603V248.5C584.269 249.518 583.478 250.343 582.503 250.343Z" fill="white"/>
<path d="M558.663 229.357C557.88 229.76 557.129 230.363 556.88 231.169C556.756 231.57 556.83 231.969 557.177 232.364C557.569 232.81 557.793 232.734 558.337 232.634C558.948 232.523 559.565 232.549 560.065 232.983C560.589 233.439 560.795 234.061 560.736 234.751C561.296 234.179 561.646 233.384 561.646 232.502C561.646 230.776 560.312 229.377 558.663 229.357Z" fill="#D6906F"/>
<path d="M568.674 150.465C568.474 149.494 567.87 148.603 567.01 148.183C566.066 147.72 564.836 147.901 564.124 148.697C563.984 147.169 563.165 145.488 561.715 145.246C561.23 145.165 560.732 145.259 560.267 145.423C559.503 145.695 558.807 146.167 558.25 146.775C557.622 147.46 557.641 147.737 556.73 147.642C555.144 147.477 553.652 147.632 552.376 148.752C550.828 150.112 550.188 152.493 550.831 154.495C549.853 155.063 549.235 156.245 549.307 157.41C549.386 158.684 550.216 159.928 551.491 159.896C551.019 160.119 550.66 160.601 550.718 161.168C550.769 161.668 551.159 162.11 551.632 162.204C551.663 164.492 552.521 167.401 553.812 169.244C555.107 171.094 557.278 172.097 559.455 172.046C564.136 171.937 566.176 166.997 566.854 162.874C566.998 161.99 566.92 162.2 567.568 161.844C567.95 161.634 568.27 161.428 568.454 160.997C568.709 160.396 568.567 159.636 568.113 159.181C569.442 159.221 570.595 157.533 570.39 156.234C570.192 154.985 569.092 154.008 567.894 153.825C568.509 152.946 568.852 151.835 568.722 150.754C568.709 150.657 568.693 150.56 568.674 150.465ZM565.858 161.876C565.649 163.103 565.303 164.296 564.828 165.549C563.361 164.136 561.273 163.551 559.283 163.696C557.253 163.844 555.455 164.706 553.711 165.733C553.765 164.737 552.994 163.742 552.763 162.773C552.495 161.647 552.228 160.509 551.979 159.37C551.956 159.269 551.934 159.165 551.947 159.062C551.964 158.925 552.041 158.807 552.111 158.69C552.463 158.114 552.67 157.505 552.857 156.855C553.072 156.108 552.971 156.216 553.643 156.125C554.188 156.05 554.622 156.099 555.122 155.775C555.231 155.705 556.125 154.923 555.968 154.766C557.107 155.896 558.615 156.705 560.187 156.668C561.757 156.63 563.347 155.609 563.815 154.044C563.993 153.45 564.404 153.04 564.924 153.616C565.36 154.099 565.338 155.24 565.624 155.877C566.036 156.795 566.084 157.781 566.094 158.793C566.107 159.877 566.027 160.888 565.858 161.876Z" fill="black"/>
<path d="M557.513 165.786C557.921 166.387 558.631 166.75 559.335 166.719C560.039 166.689 560.717 166.266 561.077 165.632" fill="white"/>
<path d="M528.776 218.145C528.357 217.508 527.854 216.932 527.286 216.438" stroke="#222221" stroke-width="0.5" stroke-miterlimit="10"/>
<path d="M591.742 218.728C593.005 218.052 594.378 217.599 595.784 217.395" stroke="#222221" stroke-width="0.5" stroke-miterlimit="10"/>
<path d="M485.203 275.956H480.313V345.814H485.203V275.956Z" fill="#86B4E3"/>
<path d="M483.054 261.583L473.405 279.118H492.135L483.054 261.583Z" fill="#86B4E3"/>
<path d="M485.203 314.295H480.313V384.153H485.203V314.295Z" fill="#CF7765"/>
<path d="M483.054 299.921L473.405 317.458H492.135L483.054 299.921Z" fill="#CF7765"/>
<path d="M485.203 373.804H480.313V443.662H485.203V373.804Z" fill="#43609C"/>
<path d="M483.054 359.43L473.405 376.966H492.135L483.054 359.43Z" fill="#43609C"/>
<path d="M485.203 418.371H480.313V473.935H485.203V418.371Z" fill="#86B4E3"/>
<path d="M483.054 403.998L473.405 421.534H492.135L483.054 403.998Z" fill="#86B4E3"/>
<path d="M437.351 215.282L421.388 232.818H452.373L437.351 215.282Z" fill="#CF7765"/>
<path d="M646.844 473.441H87.1556" stroke="#161111" stroke-width="0.75" stroke-miterlimit="10"/>
<path d="M362.326 246.192C362.326 246.192 350.632 259.439 336.216 259.429C321.799 259.42 310.121 246.158 310.121 246.158C310.121 246.158 321.815 232.911 336.231 232.92C350.647 232.931 362.326 246.192 362.326 246.192Z" stroke="black" stroke-width="0.5" stroke-miterlimit="10" stroke-linecap="round"/>
<path d="M346.806 246.182C346.802 253.502 342.06 259.434 336.216 259.429C330.371 259.426 325.637 253.488 325.641 246.168C325.645 238.848 330.387 232.917 336.231 232.92C342.075 232.926 346.81 238.863 346.806 246.182Z" fill="black"/>
<path d="M396.542 218.939C396.542 218.939 384.848 232.185 370.431 232.177C356.015 232.168 344.336 218.905 344.336 218.905C344.336 218.905 356.031 205.659 370.447 205.667C384.863 205.677 396.542 218.939 396.542 218.939Z" stroke="black" stroke-width="0.5" stroke-miterlimit="10" stroke-linecap="round"/>
<path d="M381.022 218.929C381.017 226.248 376.276 232.18 370.431 232.175C364.587 232.172 359.853 226.235 359.857 218.914C359.861 211.595 364.602 205.663 370.447 205.667C376.291 205.672 381.026 211.609 381.022 218.929Z" fill="black"/>
<path d="M594.832 98.4126L569.082 125.29" stroke="#D4B6B6" stroke-width="2" stroke-miterlimit="10"/>
<path d="M570.208 100.844C568.083 103.818 567.981 107.866 569.981 109.886C571.981 111.905 575.325 111.13 577.45 108.155C579.575 105.18 579.677 101.132 577.677 99.113C575.678 97.0951 572.334 97.8687 570.208 100.844Z" stroke="#D4B6B6" stroke-width="2" stroke-miterlimit="10"/>
<path d="M584.693 115.962C582.568 118.937 582.466 122.985 584.466 125.004C586.466 127.023 589.81 126.248 591.935 123.274C594.06 120.3 594.162 116.251 592.162 114.232C590.162 112.213 586.819 112.987 584.693 115.962Z" stroke="#D4B6B6" stroke-width="2" stroke-miterlimit="10"/>
<path d="M628.71 98.4126L602.958 125.29" stroke="#D4B6B6" stroke-width="2" stroke-miterlimit="10"/>
<path d="M604.085 100.844C601.961 103.818 601.859 107.866 603.859 109.886C605.858 111.905 609.203 111.13 611.328 108.155C613.453 105.18 613.555 101.132 611.554 99.113C609.555 97.0951 606.21 97.8687 604.085 100.844Z" stroke="#D4B6B6" stroke-width="2" stroke-miterlimit="10"/>
<path d="M618.57 115.962C616.445 118.937 616.343 122.985 618.344 125.004C620.343 127.023 623.688 126.248 625.813 123.274C627.938 120.3 628.04 116.251 626.039 114.232C624.04 112.213 620.695 112.987 618.57 115.962Z" stroke="#D4B6B6" stroke-width="2" stroke-miterlimit="10"/>
</svg>
