<svg width="610" height="610" viewBox="0 0 610 610" fill="none" xmlns="http://www.w3.org/2000/svg">
<path d="M42.4426 266.63C40.5674 304.082 45.3816 342.35 58.0281 377.123C78.1117 432.342 121.281 480.764 177.298 498.505C196.64 504.631 216.954 507.057 237.189 508.546C285.776 512.119 334.679 510.45 383.092 505.005C419.209 500.943 455.897 494.507 487.682 476.882C529.563 453.657 547.951 414.423 558.293 369.666C562.838 349.992 566.874 330.096 567.768 309.924C570.163 255.92 548.478 200.93 508.59 164.445C478.455 136.88 438.219 120.56 397.419 119.137C349.892 117.479 305.523 135.559 258.799 140.923C221.492 145.207 183.83 140.328 146.306 138.877C134.86 138.434 123.192 138.338 112.208 141.597C78.2203 151.679 52.9968 193.415 46.9895 226.831C44.6496 239.858 43.116 253.191 42.4426 266.63Z" fill="#FADDD4"/>
<path d="M237.053 75.3764C237.201 72.4033 239.731 70.1133 242.704 70.2597C242.965 70.2731 243.213 70.3268 243.462 70.3744C243.234 68.2052 242.792 66.0946 242.158 64.067C241.95 64.2134 241.748 64.3635 241.515 64.483C238.866 65.8421 235.617 64.7966 234.26 62.1479C232.9 59.4993 233.946 56.2517 236.595 54.8926C236.846 54.7633 237.107 54.6754 237.368 54.5888C236.091 52.8393 234.645 51.2167 233.049 49.7527C232.938 50.0004 232.827 50.2493 232.675 50.4847C231.061 52.9857 227.724 53.7043 225.223 52.0903C222.722 50.4762 222.003 47.1395 223.617 44.6385C223.781 44.386 223.972 44.1639 224.169 43.948C222.202 43.0793 220.132 42.3986 217.976 41.9277C218.007 42.2083 218.034 42.4889 218.019 42.7804C217.871 45.7536 215.341 48.0435 212.368 47.8959C209.395 47.7483 207.105 45.2192 207.252 42.2461C207.267 41.9423 207.323 41.6519 207.385 41.3652C205.192 41.6056 203.06 42.0643 201.012 42.7207C201.178 42.9476 201.343 43.1769 201.474 43.4356C202.834 46.0842 201.787 49.3331 199.139 50.6909C196.491 52.05 193.243 51.0045 191.884 48.3558C191.751 48.096 191.66 47.8276 191.572 47.558C189.83 48.8463 188.218 50.3042 186.764 51.9097C187.005 52.0195 187.247 52.1269 187.476 52.2745C189.977 53.8885 190.696 57.2252 189.082 59.725C187.468 62.226 184.131 62.9446 181.631 61.3305C181.403 61.1829 181.207 61.0072 181.009 60.8328C180.164 62.7823 179.501 64.8332 179.046 66.9645C179.286 66.9438 179.525 66.9157 179.773 66.9279C182.746 67.0755 185.036 69.6058 184.889 72.5789C184.741 75.5521 182.211 77.842 179.238 77.6944C178.995 77.6822 178.765 77.631 178.534 77.5883C178.78 79.7342 179.234 81.8217 179.879 83.8261C180.059 83.7041 180.229 83.5724 180.427 83.4711C183.076 82.112 186.325 83.1576 187.682 85.8062C189.041 88.4548 187.996 91.7024 185.347 93.0615C185.152 93.1616 184.95 93.2213 184.75 93.2958C186.011 94.994 187.435 96.5678 188.999 97.9915C189.087 97.8171 189.157 97.6377 189.266 97.4694C190.88 94.9684 194.217 94.2498 196.718 95.8651C199.219 97.4791 199.937 100.816 198.322 103.317C198.211 103.488 198.074 103.63 197.949 103.784C199.857 104.615 201.864 105.266 203.947 105.724C203.938 105.541 203.91 105.363 203.919 105.175C204.067 102.202 206.596 99.9118 209.569 100.059C212.542 100.207 214.832 102.737 214.685 105.709C214.675 105.909 214.629 106.096 214.597 106.29C216.718 106.056 218.784 105.62 220.77 104.996C220.666 104.837 220.55 104.692 220.461 104.52C219.102 101.871 220.148 98.6235 222.796 97.2644C225.445 95.9053 228.694 96.9521 230.052 99.6007C230.148 99.7874 230.204 99.9826 230.276 100.174C231.982 98.9224 233.563 97.5109 234.996 95.9554C234.817 95.8663 234.633 95.7919 234.46 95.6809C231.959 94.0668 231.24 90.7301 232.854 88.2303C234.468 85.7293 237.805 85.0107 240.306 86.626C240.502 86.7529 240.667 86.9066 240.84 87.053C241.693 85.1266 242.365 83.1002 242.837 80.9933C242.614 81.0104 242.393 81.0384 242.164 81.0274C239.197 80.8798 236.906 78.3495 237.053 75.3764ZM227.073 78.5325C224.479 87.4068 215.148 92.5162 206.274 89.9237C197.398 87.33 192.289 78.0006 194.883 69.1251C197.477 60.2508 206.806 55.139 215.681 57.7328C224.556 60.3265 229.665 69.6583 227.073 78.5325Z" fill="#EBAEAE"/>
<path d="M210.999 95.3746C222.899 95.3746 232.547 85.7274 232.547 73.8269C232.547 61.9265 222.899 52.2793 210.999 52.2793C199.099 52.2793 189.451 61.9265 189.451 73.8269C189.451 85.7274 199.099 95.3746 210.999 95.3746Z" stroke="#222221" stroke-width="0.5" stroke-miterlimit="10"/>
<path d="M225.677 73.827C225.677 81.9339 219.105 88.506 210.998 88.506C202.891 88.506 196.319 81.9339 196.319 73.827C196.319 65.7201 202.891 59.1479 210.998 59.1479C219.106 59.1479 225.677 65.7201 225.677 73.827Z" stroke="#222221" stroke-width="0.5" stroke-miterlimit="10"/>
<path d="M297.957 74.8836C298.057 72.8572 299.782 71.2956 301.808 71.3969C301.987 71.4054 302.155 71.442 302.325 71.4749C302.17 69.9963 301.868 68.5579 301.435 67.1757C301.294 67.2757 301.156 67.3782 300.997 67.4587C299.192 68.3847 296.977 67.6722 296.051 65.8666C295.125 64.061 295.838 61.8467 297.643 60.9207C297.815 60.8329 297.994 60.7731 298.17 60.7145C297.299 59.5214 296.315 58.4161 295.227 57.4181C295.151 57.5877 295.075 57.756 294.972 57.9171C293.871 59.6214 291.597 60.1119 289.893 59.0114C288.188 57.911 287.698 55.6369 288.798 53.9326C288.909 53.7605 289.04 53.6093 289.174 53.4616C287.833 52.8699 286.422 52.4051 284.953 52.0843C284.974 52.2758 284.992 52.4673 284.982 52.665C284.881 54.6914 283.157 56.253 281.131 56.1517C279.104 56.0505 277.543 54.3266 277.644 52.3002C277.654 52.0928 277.692 51.8952 277.734 51.7C276.239 51.8634 274.785 52.177 273.39 52.6235C273.503 52.7784 273.616 52.9346 273.706 53.1103C274.632 54.9159 273.919 57.1302 272.114 58.0562C270.308 58.9821 268.094 58.2697 267.168 56.4641C267.076 56.2872 267.014 56.1042 266.954 55.9199C265.767 56.7983 264.668 57.7926 263.676 58.887C263.841 58.9614 264.006 59.0346 264.162 59.1359C265.867 60.2363 266.357 62.5104 265.256 64.2147C264.156 65.9191 261.882 66.4095 260.177 65.3091C260.022 65.209 259.888 65.0882 259.753 64.9699C259.176 66.2985 258.725 67.6966 258.414 69.1496C258.578 69.135 258.741 69.1155 258.91 69.124C260.936 69.2253 262.498 70.9491 262.396 72.9755C262.296 75.002 260.571 76.5636 258.545 76.4623C258.38 76.4538 258.223 76.4196 258.065 76.3903C258.233 77.8531 258.542 79.2756 258.983 80.6432C259.105 80.5603 259.222 80.47 259.356 80.4017C261.162 79.4757 263.376 80.1882 264.302 81.9938C265.228 83.7994 264.516 86.0137 262.71 86.9397C262.577 87.008 262.439 87.0482 262.302 87.0995C263.163 88.2573 264.132 89.3296 265.199 90.3008C265.259 90.1824 265.307 90.0592 265.381 89.9457C266.481 88.2414 268.755 87.751 270.459 88.8514C272.164 89.9518 272.654 92.2259 271.554 93.9302C271.478 94.0474 271.385 94.1438 271.3 94.2487C272.6 94.8148 273.968 95.2588 275.389 95.5712C275.383 95.4467 275.364 95.3247 275.37 95.1966C275.471 93.1702 277.195 91.6086 279.221 91.7099C281.248 91.8099 282.809 93.535 282.708 95.5614C282.701 95.698 282.669 95.8249 282.648 95.9567C284.095 95.7969 285.502 95.5004 286.856 95.0746C286.785 94.9673 286.706 94.8672 286.646 94.7501C285.72 92.9445 286.433 90.7302 288.238 89.8042C290.044 88.8782 292.258 89.5907 293.184 91.3963C293.25 91.5232 293.288 91.6562 293.338 91.7879C294.501 90.9352 295.579 89.9726 296.555 88.9124C296.433 88.8514 296.308 88.8014 296.189 88.7257C294.485 87.6253 293.994 85.3512 295.095 83.6469C296.195 81.9425 298.469 81.4521 300.174 82.5525C300.308 82.6392 300.42 82.7441 300.538 82.8441C301.12 81.5314 301.578 80.1504 301.899 78.7132C301.746 78.7242 301.596 78.7437 301.44 78.7364C299.417 78.6339 297.856 76.91 297.957 74.8836ZM291.153 77.0345C289.385 83.0832 283.025 86.5663 276.975 84.7986C270.925 83.0308 267.442 76.6709 269.211 70.6209C270.979 64.571 277.339 61.0879 283.389 62.8556C289.438 64.6246 292.921 70.9857 291.153 77.0345Z" fill="#EBAEAE"/>
<path d="M280.196 88.5146C288.308 88.5146 294.884 81.9387 294.884 73.827C294.884 65.7153 288.308 59.1394 280.196 59.1394C272.084 59.1394 265.509 65.7153 265.509 73.827C265.509 81.9387 272.084 88.5146 280.196 88.5146Z" stroke="#222221" stroke-width="0.5" stroke-miterlimit="10"/>
<path d="M280.196 83.8334C285.723 83.8334 290.203 79.3534 290.203 73.827C290.203 68.3006 285.723 63.8206 280.196 63.8206C274.67 63.8206 270.19 68.3006 270.19 73.827C270.19 79.3534 274.67 83.8334 280.196 83.8334Z" stroke="#222221" stroke-width="0.5" stroke-miterlimit="10"/>
<path d="M153.785 207.635C154.287 204.94 156.879 203.163 159.574 203.666C159.81 203.709 160.03 203.789 160.251 203.863C160.31 201.855 160.169 199.875 159.84 197.946C159.632 198.054 159.428 198.166 159.201 198.246C156.616 199.159 153.782 197.803 152.87 195.218C151.957 192.633 153.314 189.799 155.898 188.886C156.144 188.8 156.393 188.752 156.641 188.705C155.692 186.95 154.574 185.291 153.298 183.758C153.166 183.97 153.034 184.183 152.866 184.379C151.084 186.461 147.951 186.704 145.868 184.921C143.786 183.139 143.543 180.006 145.325 177.924C145.506 177.713 145.708 177.534 145.913 177.362C144.226 176.327 142.42 175.449 140.512 174.753C140.505 175.013 140.495 175.273 140.446 175.536C139.944 178.231 137.352 180.007 134.657 179.506C131.963 179.003 130.185 176.412 130.688 173.717C130.739 173.443 130.825 173.184 130.918 172.929C128.887 172.876 126.885 173.033 124.935 173.378C125.059 173.606 125.181 173.835 125.27 174.088C126.182 176.673 124.826 179.507 122.242 180.42C119.658 181.332 116.822 179.977 115.91 177.392C115.821 177.138 115.771 176.882 115.723 176.625C113.974 177.586 112.324 178.717 110.797 180.002C111.003 180.132 111.212 180.26 111.402 180.423C113.484 182.206 113.727 185.339 111.945 187.421C110.162 189.504 107.029 189.747 104.947 187.965C104.757 187.803 104.599 187.618 104.441 187.435C103.428 189.109 102.57 190.898 101.891 192.787C102.113 192.798 102.335 192.801 102.559 192.843C105.254 193.346 107.031 195.937 106.529 198.632C106.027 201.327 103.435 203.103 100.74 202.602C100.521 202.56 100.318 202.485 100.111 202.418C100.069 204.406 100.227 206.367 100.567 208.276C100.746 208.187 100.918 208.088 101.111 208.02C103.696 207.107 106.53 208.463 107.443 211.048C108.356 213.632 106.999 216.467 104.415 217.38C104.225 217.447 104.033 217.476 103.84 217.519C104.782 219.224 105.886 220.836 107.138 222.329C107.239 222.18 107.326 222.025 107.447 221.886C109.229 219.804 112.362 219.561 114.445 221.343C116.527 223.126 116.77 226.259 114.987 228.341C114.865 228.484 114.723 228.596 114.59 228.722C116.228 229.716 117.979 230.558 119.825 231.234C119.839 231.066 119.836 230.9 119.867 230.73C120.37 228.036 122.961 226.259 125.656 226.761C128.351 227.264 130.128 229.855 129.626 232.549C129.592 232.731 129.526 232.896 129.474 233.069C131.439 233.118 133.378 232.975 135.266 232.65C135.192 232.493 135.103 232.345 135.044 232.178C134.132 229.593 135.488 226.759 138.072 225.846C140.657 224.934 143.493 226.29 144.404 228.874C144.469 229.057 144.497 229.242 144.538 229.426C146.249 228.495 147.868 227.402 149.367 226.16C149.215 226.056 149.055 225.966 148.911 225.843C146.828 224.06 146.585 220.927 148.368 218.845C150.15 216.762 153.283 216.519 155.366 218.302C155.529 218.441 155.661 218.602 155.801 218.758C156.819 217.106 157.681 215.341 158.373 213.476C158.167 213.463 157.962 213.462 157.755 213.423C155.06 212.922 153.283 210.33 153.785 207.635ZM144.286 209.281C140.822 217.059 131.676 220.567 123.898 217.104C116.121 213.64 112.611 204.495 116.076 196.718C119.539 188.94 128.686 185.429 136.463 188.894C144.241 192.357 147.751 201.504 144.286 209.281Z" fill="#EBAEAE"/>
<path d="M141.005 202.999C141.005 208.975 136.161 213.818 130.185 213.818C124.209 213.818 119.365 208.974 119.365 202.999C119.365 197.024 124.209 192.179 130.185 192.179C136.161 192.18 141.005 197.024 141.005 202.999Z" stroke="#222221" stroke-width="0.5" stroke-miterlimit="10"/>
<path d="M137.712 221.158C147.738 217.005 152.5 205.509 148.346 195.481C144.192 185.454 132.697 180.692 122.67 184.845C112.643 188.999 107.882 200.495 112.036 210.522C116.189 220.549 127.685 225.311 137.712 221.158Z" stroke="#222221" stroke-width="0.5" stroke-miterlimit="10"/>
<path d="M512.646 119.536L487.512 149.429L537.917 149.62L512.646 119.536Z" fill="#EBAEAE"/>
<path d="M512.98 143.093V248.96H299.943V327.903H97.0095V364.008" stroke="#EBAEAE" stroke-width="8" stroke-miterlimit="10"/>
<path d="M458.971 69.1787H125.134V296.46H458.971V69.1787Z" fill="white" stroke="black" stroke-width="0.5" stroke-miterlimit="10"/>
<path d="M218.596 436.841H84.291V557.126H218.596V436.841Z" fill="#161111"/>
<path d="M361.007 357.227H234.374V557.127H361.007V357.227Z" fill="#161111"/>
<path d="M515.221 314.307H380.916V557.126H515.221V314.307Z" fill="#161111"/>
<path d="M211.012 436.841H76.7075V557.126H211.012V436.841Z" fill="#9DD1C9" stroke="black" stroke-width="0.5" stroke-miterlimit="10"/>
<path d="M353.424 357.227H226.792V557.127H353.424V357.227Z" fill="#9DD1C9" stroke="black" stroke-width="0.5" stroke-miterlimit="10"/>
<path d="M507.637 314.307H373.332V557.126H507.637V314.307Z" fill="#9DD1C9" stroke="black" stroke-width="0.5" stroke-miterlimit="10"/>
<g opacity="0.48">
<mask id="mask0_2234_3719" style="mask-type:luminance" maskUnits="userSpaceOnUse" x="76" y="436" width="136" height="122">
<path d="M211.012 436.841H76.7075V557.126H211.012V436.841Z" fill="white"/>
</mask>
<g mask="url(#mask0_2234_3719)">
<path d="M164.44 425.773V582.59" stroke="black" stroke-width="0.5" stroke-miterlimit="10"/>
<path d="M151.485 425.773V582.59" stroke="black" stroke-width="0.5" stroke-miterlimit="10"/>
<path d="M138.53 425.773V582.59" stroke="black" stroke-width="0.5" stroke-miterlimit="10"/>
<path d="M125.576 425.773V582.59" stroke="black" stroke-width="0.5" stroke-miterlimit="10"/>
<path d="M112.621 425.773V582.59" stroke="black" stroke-width="0.5" stroke-miterlimit="10"/>
<path d="M99.6655 425.773V582.59" stroke="black" stroke-width="0.5" stroke-miterlimit="10"/>
<path d="M86.7115 425.773V582.59" stroke="black" stroke-width="0.5" stroke-miterlimit="10"/>
</g>
<mask id="mask1_2234_3719" style="mask-type:luminance" maskUnits="userSpaceOnUse" x="76" y="436" width="136" height="122">
<path d="M211.012 436.841H76.7075V557.126H211.012V436.841Z" fill="white"/>
</mask>
<g mask="url(#mask1_2234_3719)">
<path d="M201.725 425.773V582.59" stroke="black" stroke-width="0.5" stroke-miterlimit="10"/>
<path d="M188.769 425.773V582.59" stroke="black" stroke-width="0.5" stroke-miterlimit="10"/>
<path d="M175.814 425.773V582.59" stroke="black" stroke-width="0.5" stroke-miterlimit="10"/>
</g>
</g>
<g opacity="0.47">
<mask id="mask2_2234_3719" style="mask-type:luminance" maskUnits="userSpaceOnUse" x="226" y="357" width="128" height="201">
<path d="M353.424 357.227H226.792V557.127H353.424V357.227Z" fill="white"/>
</mask>
<g mask="url(#mask2_2234_3719)">
<path d="M329.882 268.233L142.006 483.08" stroke="black" stroke-width="0.5" stroke-miterlimit="10"/>
<path d="M339.189 278.877L151.313 493.723" stroke="black" stroke-width="0.5" stroke-miterlimit="10"/>
<path d="M348.497 289.521L160.622 504.366" stroke="black" stroke-width="0.5" stroke-miterlimit="10"/>
<path d="M357.804 300.164L169.929 515.011" stroke="black" stroke-width="0.5" stroke-miterlimit="10"/>
<path d="M367.113 310.808L179.236 525.654" stroke="black" stroke-width="0.5" stroke-miterlimit="10"/>
<path d="M376.42 321.452L188.544 536.299" stroke="black" stroke-width="0.5" stroke-miterlimit="10"/>
<path d="M385.727 332.096L197.851 546.942" stroke="black" stroke-width="0.5" stroke-miterlimit="10"/>
<path d="M395.035 342.74L207.16 557.585" stroke="black" stroke-width="0.5" stroke-miterlimit="10"/>
<path d="M404.342 353.383L216.467 568.23" stroke="black" stroke-width="0.5" stroke-miterlimit="10"/>
<path d="M413.651 364.027L225.774 578.873" stroke="black" stroke-width="0.5" stroke-miterlimit="10"/>
<path d="M422.958 374.671L235.082 589.516" stroke="black" stroke-width="0.5" stroke-miterlimit="10"/>
<path d="M432.266 385.315L244.389 600.161" stroke="black" stroke-width="0.5" stroke-miterlimit="10"/>
<path d="M441.573 395.958L253.698 610.804" stroke="black" stroke-width="0.5" stroke-miterlimit="10"/>
<path d="M450.88 406.602L263.005 621.448" stroke="black" stroke-width="0.5" stroke-miterlimit="10"/>
<path d="M460.188 417.246L272.313 632.092" stroke="black" stroke-width="0.5" stroke-miterlimit="10"/>
</g>
</g>
<g opacity="0.48">
<mask id="mask3_2234_3719" style="mask-type:luminance" maskUnits="userSpaceOnUse" x="373" y="314" width="135" height="244">
<path d="M507.637 314.307H373.332V557.126H507.637V314.307Z" fill="white"/>
</mask>
<g mask="url(#mask3_2234_3719)">
<path d="M364.765 333.272H525.278" stroke="black" stroke-width="0.5" stroke-miterlimit="10"/>
</g>
<mask id="mask4_2234_3719" style="mask-type:luminance" maskUnits="userSpaceOnUse" x="373" y="314" width="135" height="244">
<path d="M507.637 314.307H373.332V557.126H507.637V314.307Z" fill="white"/>
</mask>
<g mask="url(#mask4_2234_3719)">
<path d="M364.765 349.171H525.278" stroke="black" stroke-width="0.5" stroke-miterlimit="10"/>
</g>
<mask id="mask5_2234_3719" style="mask-type:luminance" maskUnits="userSpaceOnUse" x="373" y="314" width="135" height="244">
<path d="M507.637 314.307H373.332V557.126H507.637V314.307Z" fill="white"/>
</mask>
<g mask="url(#mask5_2234_3719)">
<path d="M364.765 365.069H525.278" stroke="black" stroke-width="0.5" stroke-miterlimit="10"/>
</g>
<mask id="mask6_2234_3719" style="mask-type:luminance" maskUnits="userSpaceOnUse" x="373" y="314" width="135" height="244">
<path d="M507.637 314.307H373.332V557.126H507.637V314.307Z" fill="white"/>
</mask>
<g mask="url(#mask6_2234_3719)">
<path d="M364.765 380.968H525.278" stroke="black" stroke-width="0.5" stroke-miterlimit="10"/>
</g>
<mask id="mask7_2234_3719" style="mask-type:luminance" maskUnits="userSpaceOnUse" x="373" y="314" width="135" height="244">
<path d="M507.637 314.307H373.332V557.126H507.637V314.307Z" fill="white"/>
</mask>
<g mask="url(#mask7_2234_3719)">
<path d="M364.765 396.866H525.278" stroke="black" stroke-width="0.5" stroke-miterlimit="10"/>
</g>
<mask id="mask8_2234_3719" style="mask-type:luminance" maskUnits="userSpaceOnUse" x="373" y="314" width="135" height="244">
<path d="M507.637 314.307H373.332V557.126H507.637V314.307Z" fill="white"/>
</mask>
<g mask="url(#mask8_2234_3719)">
<path d="M364.765 412.765H525.278" stroke="black" stroke-width="0.5" stroke-miterlimit="10"/>
</g>
<mask id="mask9_2234_3719" style="mask-type:luminance" maskUnits="userSpaceOnUse" x="373" y="314" width="135" height="244">
<path d="M507.637 314.307H373.332V557.126H507.637V314.307Z" fill="white"/>
</mask>
<g mask="url(#mask9_2234_3719)">
<path d="M364.765 428.663H525.278" stroke="black" stroke-width="0.5" stroke-miterlimit="10"/>
</g>
<mask id="mask10_2234_3719" style="mask-type:luminance" maskUnits="userSpaceOnUse" x="373" y="314" width="135" height="244">
<path d="M507.637 314.307H373.332V557.126H507.637V314.307Z" fill="white"/>
</mask>
<g mask="url(#mask10_2234_3719)">
<path d="M364.765 444.562H525.278" stroke="black" stroke-width="0.5" stroke-miterlimit="10"/>
</g>
<mask id="mask11_2234_3719" style="mask-type:luminance" maskUnits="userSpaceOnUse" x="373" y="314" width="135" height="244">
<path d="M507.637 314.307H373.332V557.126H507.637V314.307Z" fill="white"/>
</mask>
<g mask="url(#mask11_2234_3719)">
<path d="M364.765 460.461H525.278" stroke="black" stroke-width="0.5" stroke-miterlimit="10"/>
</g>
<mask id="mask12_2234_3719" style="mask-type:luminance" maskUnits="userSpaceOnUse" x="373" y="314" width="135" height="244">
<path d="M507.637 314.307H373.332V557.126H507.637V314.307Z" fill="white"/>
</mask>
<g mask="url(#mask12_2234_3719)">
<path d="M364.765 476.359H525.278" stroke="black" stroke-width="0.5" stroke-miterlimit="10"/>
</g>
<mask id="mask13_2234_3719" style="mask-type:luminance" maskUnits="userSpaceOnUse" x="373" y="314" width="135" height="244">
<path d="M507.637 314.307H373.332V557.126H507.637V314.307Z" fill="white"/>
</mask>
<g mask="url(#mask13_2234_3719)">
<path d="M364.765 492.258H525.278" stroke="black" stroke-width="0.5" stroke-miterlimit="10"/>
</g>
<mask id="mask14_2234_3719" style="mask-type:luminance" maskUnits="userSpaceOnUse" x="373" y="314" width="135" height="244">
<path d="M507.637 314.307H373.332V557.126H507.637V314.307Z" fill="white"/>
</mask>
<g mask="url(#mask14_2234_3719)">
<path d="M364.765 508.156H525.278" stroke="black" stroke-width="0.5" stroke-miterlimit="10"/>
</g>
<mask id="mask15_2234_3719" style="mask-type:luminance" maskUnits="userSpaceOnUse" x="373" y="314" width="135" height="244">
<path d="M507.637 314.307H373.332V557.126H507.637V314.307Z" fill="white"/>
</mask>
<g mask="url(#mask15_2234_3719)">
<path d="M364.765 524.055H525.278" stroke="black" stroke-width="0.5" stroke-miterlimit="10"/>
</g>
<mask id="mask16_2234_3719" style="mask-type:luminance" maskUnits="userSpaceOnUse" x="373" y="314" width="135" height="244">
<path d="M507.637 314.307H373.332V557.126H507.637V314.307Z" fill="white"/>
</mask>
<g mask="url(#mask16_2234_3719)">
<path d="M364.765 539.952H525.278" stroke="black" stroke-width="0.5" stroke-miterlimit="10"/>
</g>
</g>
<path d="M527.415 95.5514C528.879 86.4905 522.721 77.9586 513.66 76.4947C504.6 75.0309 496.069 81.1895 494.605 90.2504C493.141 99.3112 499.299 107.843 508.359 109.307C517.419 110.771 525.951 104.612 527.415 95.5514Z" fill="#E0ADAD"/>
<path d="M510.042 102.068C509.955 102.085 509.887 102.093 509.836 102.093C509.784 102.093 509.732 102.093 509.681 102.093C509.147 102.093 508.667 102.076 508.236 102.042C507.807 102.008 507.407 101.955 507.037 101.887C506.667 101.817 506.31 101.732 505.967 101.63C505.623 101.526 505.27 101.415 504.909 101.294C504.943 100.916 505.017 100.534 505.129 100.147C505.241 99.7605 505.365 99.386 505.502 99.0248C506.087 99.2139 506.689 99.3823 507.308 99.5275C507.926 99.6739 508.674 99.7471 509.551 99.7471C510.96 99.7471 512.01 99.4726 512.698 98.9224C513.385 98.3721 513.729 97.6157 513.729 96.6532C513.729 96.1725 513.655 95.7674 513.509 95.4417C513.363 95.1147 513.143 94.8317 512.851 94.5901C512.559 94.3498 512.189 94.1302 511.742 93.9326C511.296 93.7349 510.771 93.5068 510.17 93.2494L508.932 92.7333C508.415 92.5271 507.942 92.2953 507.514 92.0367C507.083 91.7793 506.71 91.4743 506.392 91.1217C506.073 90.7691 505.828 90.3519 505.656 89.8712C505.484 89.3905 505.398 88.8134 505.398 88.1437C505.398 86.82 505.799 85.7366 506.598 84.8948C507.397 84.053 508.545 83.5284 510.041 83.3222V80.8212C510.298 80.7529 510.591 80.7175 510.918 80.7175C511.262 80.7175 511.57 80.7517 511.846 80.8212V83.2197C512.568 83.2539 513.277 83.332 513.974 83.4515C514.67 83.5723 515.267 83.7273 515.766 83.9164C515.679 84.6386 515.49 85.3523 515.199 86.0562C514.734 85.8842 514.201 85.7342 513.599 85.6048C512.998 85.4755 512.301 85.4109 511.511 85.4109C510.427 85.4109 509.594 85.617 509.01 86.0294C508.425 86.4418 508.132 87.0786 508.132 87.9375C508.132 88.3498 508.209 88.7073 508.364 89.0074C508.519 89.3088 508.746 89.5747 509.047 89.8065C509.348 90.0383 509.709 90.2494 510.131 90.4385C510.552 90.6276 511.029 90.8338 511.562 91.057L512.542 91.4694C513.16 91.728 513.719 91.994 514.218 92.2685C514.716 92.5442 515.141 92.8699 515.494 93.2481C515.847 93.6263 516.121 94.0741 516.319 94.5889C516.516 95.105 516.615 95.7321 516.615 96.4714C516.615 97.9329 516.198 99.1237 515.365 100.042C514.53 100.962 513.358 101.569 511.845 101.86V104.826C511.707 104.86 511.562 104.886 511.407 104.903C511.252 104.92 511.107 104.928 510.969 104.928C510.814 104.928 510.659 104.92 510.504 104.903C510.349 104.886 510.194 104.86 510.041 104.826L510.042 102.068Z" stroke="black" stroke-width="0.5" stroke-miterlimit="10" stroke-linecap="round"/>
<path d="M341.27 128.921L340.72 203.182L351.946 203.265L352.495 129.005L341.27 128.921Z" fill="#161111"/>
<path d="M366.221 141.196L365.761 203.368L376.986 203.451L377.446 141.28L366.221 141.196Z" fill="#161111"/>
<path d="M391.208 148.289L390.799 203.552L402.024 203.636L402.433 148.372L391.208 148.289Z" fill="#161111"/>
<path d="M414.263 175.229L414.053 203.725L425.278 203.808L425.489 175.312L414.263 175.229Z" fill="#161111"/>
<path d="M337.856 128.922L337.307 203.183L348.532 203.266L349.082 129.005L337.856 128.922Z" fill="#9DD1C9" stroke="black" stroke-width="0.5" stroke-miterlimit="10"/>
<path d="M362.806 141.197L362.346 203.368L373.571 203.451L374.031 141.28L362.806 141.197Z" fill="#7696EA" stroke="black" stroke-width="0.5" stroke-miterlimit="10"/>
<path d="M387.794 148.29L387.385 203.553L398.61 203.636L399.019 148.373L387.794 148.29Z" fill="#DEA600" stroke="black" stroke-width="0.5" stroke-miterlimit="10"/>
<path d="M410.849 175.229L410.639 203.724L421.864 203.807L422.075 175.312L410.849 175.229Z" fill="#F65E59" stroke="black" stroke-width="0.5" stroke-miterlimit="10"/>
<path d="M327.949 203.215L442.936 204.071" stroke="#1B2258" stroke-miterlimit="10"/>
<path d="M479.593 298.883L496.425 283.776L514.932 299.603L528.352 276.781L541.412 295.526L556.795 257.197L572.467 296.925" stroke="black" stroke-width="0.5" stroke-miterlimit="10"/>
<path d="M565.832 297.087C565.832 300.773 568.932 303.762 572.757 303.762C576.581 303.762 579.681 300.774 579.681 297.087C579.681 293.4 576.581 290.412 572.757 290.412C568.932 290.412 565.832 293.401 565.832 297.087Z" fill="#EBAEAE"/>
<path d="M533.866 276.781C533.866 279.717 531.397 282.097 528.352 282.097C525.306 282.097 522.837 279.717 522.837 276.781C522.837 273.846 525.306 271.466 528.352 271.466C531.397 271.465 533.866 273.845 533.866 276.781Z" fill="#EBAEAE"/>
<path d="M480.687 301.627C483.288 301.627 485.397 299.594 485.397 297.087C485.397 294.58 483.288 292.547 480.687 292.547C478.087 292.547 475.978 294.58 475.978 297.087C475.978 299.594 478.087 301.627 480.687 301.627Z" fill="#EBAEAE"/>
<path d="M497.148 288.14C499.634 288.14 501.649 286.197 501.649 283.8C501.649 281.403 499.634 279.46 497.148 279.46C494.661 279.46 492.646 281.403 492.646 283.8C492.646 286.197 494.661 288.14 497.148 288.14Z" fill="#EBAEAE"/>
<path d="M552.312 256.83C552.312 259.703 554.729 262.032 557.71 262.032C560.69 262.032 563.107 259.703 563.107 256.83C563.107 253.956 560.69 251.627 557.71 251.627C554.728 251.627 552.312 253.956 552.312 256.83Z" fill="#EBAEAE"/>
<path d="M536.327 297.087C536.327 294.535 538.474 292.465 541.122 292.465C543.771 292.465 545.918 294.534 545.918 297.087C545.918 299.641 543.771 301.71 541.122 301.71C538.474 301.71 536.327 299.641 536.327 297.087Z" fill="#EBAEAE"/>
<path d="M513.481 302.445C516.551 302.445 519.039 300.046 519.039 297.087C519.039 294.128 516.551 291.729 513.481 291.729C510.411 291.729 507.923 294.128 507.923 297.087C507.923 300.046 510.411 302.445 513.481 302.445Z" fill="#EBAEAE"/>
<path d="M157.64 102.763C157.64 107.383 153.894 111.129 149.274 111.129C144.654 111.129 140.909 107.383 140.909 102.763C140.909 98.1429 144.654 94.3975 149.274 94.3975C153.894 94.3975 157.64 98.1429 157.64 102.763Z" fill="#FADDD4"/>
<path d="M157.64 137.698C157.64 142.318 153.894 146.063 149.274 146.063C144.654 146.063 140.909 142.318 140.909 137.698C140.909 133.078 144.654 129.332 149.274 129.332C153.894 129.332 157.64 133.078 157.64 137.698Z" fill="#FADDD4"/>
<path d="M314.518 96.3289H170.377V99.6948H314.518V96.3289Z" fill="#FADDD4"/>
<path d="M277.196 103.901H170.377V107.267H277.196V103.901Z" fill="#FADDD4"/>
<path d="M293.283 131.262H170.377V134.628H293.283V131.262Z" fill="#FADDD4"/>
<path d="M270.118 138.836H170.377V142.202H270.118V138.836Z" fill="#FADDD4"/>
<path d="M254.048 147.32H170.377V150.686H254.048V147.32Z" fill="#FADDD4"/>
<path d="M150.761 95.8621V104.158H149.757V96.9153H149.708L147.682 98.2602V97.2393L149.757 95.8621H150.761Z" fill="black"/>
<path d="M146.878 139.521V138.792L149.616 135.795C149.937 135.444 150.202 135.138 150.41 134.879C150.618 134.617 150.772 134.372 150.872 134.142C150.974 133.91 151.026 133.667 151.026 133.413C151.026 133.121 150.956 132.869 150.815 132.655C150.677 132.442 150.488 132.277 150.248 132.161C150.008 132.045 149.738 131.987 149.438 131.987C149.119 131.987 148.841 132.053 148.603 132.185C148.368 132.315 148.186 132.497 148.056 132.732C147.93 132.967 147.866 133.243 147.866 133.559H146.91C146.91 133.073 147.022 132.646 147.246 132.279C147.47 131.911 147.776 131.625 148.162 131.42C148.551 131.215 148.987 131.112 149.47 131.112C149.956 131.112 150.387 131.215 150.762 131.42C151.138 131.625 151.432 131.902 151.646 132.25C151.859 132.599 151.966 132.986 151.966 133.413C151.966 133.718 151.91 134.016 151.799 134.308C151.691 134.597 151.502 134.92 151.232 135.276C150.965 135.63 150.594 136.062 150.118 136.572L148.255 138.565V138.63H152.111V139.521H146.878Z" fill="black"/>
<path d="M157.64 266.67C157.64 271.29 153.894 275.036 149.274 275.036C144.654 275.036 140.909 271.29 140.909 266.67C140.909 262.05 144.654 258.304 149.274 258.304C153.894 258.304 157.64 262.05 157.64 266.67Z" fill="#FADDD4"/>
<path d="M300.362 260.236H170.377V263.602H300.362V260.236Z" fill="#FADDD4"/>
<path d="M268.186 267.808H170.377V271.174H268.186V267.808Z" fill="#FADDD4"/>
<path d="M146.683 266.793V265.966L150.329 260.198H150.928V261.478H150.523L147.769 265.837V265.902H152.678V266.793H146.683ZM150.588 268.494V266.542V266.157V260.198H151.544V268.494H150.588Z" fill="black"/>
<path d="M132.968 298.118C135.228 296.281 136.847 293.678 138.531 291.364C140.282 288.957 142.01 286.084 145.387 286.057C148.962 286.029 151.356 288.124 154.265 289.711C157.346 291.392 159.827 293.149 161.106 296.605C162.68 300.856 161.182 305.407 158.507 308.899C156.726 311.226 154.459 313.132 152.13 314.91C145.922 319.647 138.779 323.716 130.979 324.132C127.908 324.295 124.834 323.885 121.818 323.285C118.505 322.626 114.98 321.57 112.965 318.86C112.539 318.288 112.189 317.639 112.085 316.933C111.987 316.27 112.112 315.596 112.275 314.945C113.824 308.781 118.959 303.892 124.911 301.663C127.189 300.81 129.618 300.287 131.694 299.022C132.141 298.749 132.564 298.445 132.968 298.118Z" fill="black"/>
<path d="M161.222 338.922C161.207 336.615 160.985 334.314 160.969 332.011C159.118 329.994 156.963 328.258 154.432 326.946C154.421 326.94 154.413 326.933 154.402 326.927C152.828 327.11 149.494 327.94 148.353 326.385C147.225 324.846 147.898 321.476 148.013 319.687C148.874 319.601 149.735 319.514 150.597 319.428C151.393 319.347 152.197 319.265 152.955 319.005C157.768 317.355 159.01 312.244 159.408 307.73C159.76 303.727 159.677 299.937 158.566 296.063C158.028 294.189 157.21 292.292 155.67 291.097C153.128 289.123 149.438 289.434 146.422 289.549C143.768 289.65 141.241 290.581 139.129 292.185C134.892 295.402 132.566 300.731 131.545 305.821C130.448 311.288 132.089 316.899 130.428 322.149C130.007 323.478 129.418 324.808 128.376 325.734C127.525 326.489 126.441 326.918 125.367 327.294C123.978 327.781 122.649 328.079 121.327 328.243C118.621 331.218 116.089 334.369 113.148 337.101C113.156 337.104 113.166 337.109 113.175 337.113C127.463 343.144 143.18 345.51 158.674 344.804C159.464 344.768 160.334 344.717 161.214 344.619C161.207 342.721 161.234 340.822 161.222 338.922Z" fill="white" stroke="black" stroke-width="0.5" stroke-miterlimit="10"/>
<path d="M95.8932 376.091C97.1718 385.177 97.5524 400.787 106.507 406.07C109.69 407.947 113.508 408.322 117.188 408.654C133.328 410.109 150.763 411.28 164.551 402.767C166.447 401.597 168.26 400.238 169.647 398.496C172.309 395.152 173.156 390.755 173.863 386.54C175.649 375.889 176.717 366.714 174.769 356.036C173.296 347.968 171.226 339.852 166.914 332.874C163.856 327.925 158.291 326.269 152.609 326.285C151.472 329.315 149.638 332.172 146.967 333.999C143.298 336.511 137.931 336.122 133.76 334.938C131.55 334.31 129.441 333.254 127.674 331.779C127.219 331.398 123.968 327.034 123.995 327.029C118.231 328.175 112.364 329.358 107.214 332.186C98.8688 336.769 94.7659 346.146 94.0242 355.309C93.4459 362.486 94.905 369.063 95.8932 376.091Z" fill="#DEA600" stroke="black" stroke-width="0.5" stroke-miterlimit="10"/>
<path d="M186.648 446.368C185.087 444.551 182.999 443.146 180.975 441.811C174.21 437.352 165.584 432.042 157.066 432.534C152.017 432.826 145.004 436.251 143.959 441.596C143.84 442.199 143.79 442.845 144.032 443.41C144.633 444.814 146.531 444.941 148.058 444.955C160.357 445.063 171.511 451.998 183.57 454.416C184.88 454.678 186.346 454.86 187.462 454.123C189.157 453.002 189.05 450.415 188.144 448.595C187.741 447.784 187.231 447.047 186.648 446.368Z" fill="black"/>
<path d="M214.625 392.856C211.991 389.939 208.239 388.05 204.391 387.329C198.993 386.318 193.416 387.298 188.12 388.757C176.9 391.847 166.379 397.055 155.1 399.953C150.099 401.237 146.838 400.762 141.949 400.368C135.752 399.867 129.39 400.477 123.153 400.109C117.324 399.764 111.016 399.312 105.569 400.919C104.849 400.446 104.133 399.972 103.418 399.504C97.3231 395.506 91.2523 391.524 83.6103 392.98C77.6018 394.126 71.8068 397.172 68.0845 402.118C64.1305 407.373 65.3176 414.234 68.8605 419.474C71.7933 423.811 76.1292 427.004 80.6188 429.698C96.1079 438.989 113.027 444.684 131.305 443.414C133.752 443.244 136.636 443.216 138.398 445.182C139.06 445.92 139.445 449.969 140.916 449.795C142.725 449.58 146.212 449.074 147.923 448.455C157.159 445.118 166.395 441.782 175.631 438.446C183.747 435.514 191.921 432.555 199.314 428.107C205.708 424.26 211.499 419.057 214.894 412.315C217.342 407.454 219.352 401.051 216.796 396.002C216.211 394.849 215.476 393.799 214.625 392.856Z" fill="#7696EA" stroke="black" stroke-width="0.5" stroke-miterlimit="10"/>
<path d="M99.9863 406.824C105.179 409.419 110.615 411.078 115.589 414.152C120.562 417.225 125.265 420.806 130.664 423.129C134.167 424.636 138.163 425.286 141.521 426.954" stroke="black" stroke-width="0.5" stroke-miterlimit="10"/>
<path d="M138.176 444.48C137.346 442.593 136.324 440.742 135.457 438.945C134.88 437.749 134.5 436.513 133.867 435.336C133.777 435.168 133.675 434.99 133.502 434.909C133.353 434.841 133.181 434.858 133.019 434.877C130.563 435.169 128.109 435.461 125.653 435.752C123.854 435.966 121.267 435.78 119.921 437.164C119.17 437.936 118.719 438.944 118.217 439.898C114.485 446.972 107.431 451.63 102.543 457.962C101.53 459.276 100.574 460.771 100.562 462.43C100.551 464.051 101.544 465.639 103.007 466.336C106.883 468.188 112.715 463.74 115.738 461.761C120.174 458.857 124.303 455.514 128.34 452.086C131.154 449.697 135.636 447.957 139.241 447.368C138.965 446.398 138.596 445.434 138.176 444.48Z" fill="black"/>
<path d="M151.292 407.892C154.066 407.529 163.67 406.619 163.414 402.262C163.365 401.429 162.725 400.752 162.044 400.267C159.835 398.695 156.993 398.396 154.293 398.138C143.945 397.149 133.743 395.896 123.592 393.65C122.498 393.409 121.375 393.135 120.47 392.474C119.314 391.629 118.669 390.269 118.072 388.968C116.658 385.89 115.244 382.81 113.83 379.731C113.106 378.156 112.369 376.559 111.24 375.245C107.82 371.269 102.185 371.675 99.0579 375.776C97.6939 377.564 96.968 379.768 96.5911 381.984C95.5931 387.85 96.9778 394.087 100.366 398.978C103.754 403.869 109.106 407.358 114.948 408.484C119.135 409.292 123.443 408.924 127.705 408.778C134.54 408.543 141.4 408.866 148.22 408.23C148.749 408.183 149.879 408.078 151.292 407.892Z" fill="white" stroke="black" stroke-width="0.5" stroke-miterlimit="10"/>
<path d="M159.203 377.01C159.159 379.348 158.183 381.637 157.041 383.681C155.483 386.472 153.553 389.158 151.425 391.541C148.789 394.494 145.663 397.237 142.312 399.354C140.351 400.592 138.252 401.58 136.211 402.668C136.164 402.727 136.113 402.779 136.068 402.839C135.413 403.687 134.766 404.702 134.973 405.754C135.221 407.005 136.567 407.714 137.814 407.984C141.12 408.698 146.038 408.302 149.307 407.489C161.82 404.375 171.878 397.721 174.672 381.744C169.268 381.252 164.31 378.869 159.203 377.01Z" fill="white" stroke="black" stroke-width="0.5" stroke-miterlimit="10"/>
<path d="M157.431 346.108C157.834 354.026 159.563 361.818 159.724 369.749C159.891 377.969 157.606 386.473 153.868 393.75" fill="#DEA600"/>
<path d="M157.431 346.108C157.834 354.026 159.563 361.818 159.724 369.749C159.891 377.969 157.606 386.473 153.868 393.75" stroke="black" stroke-width="0.5" stroke-miterlimit="10"/>
<path d="M112.439 412.599H167.411C168.216 412.599 168.869 411.946 168.869 411.141C168.869 410.336 168.216 409.683 167.411 409.683H112.439C111.634 409.683 110.981 410.336 110.981 411.141C110.982 411.946 111.635 412.599 112.439 412.599Z" fill="black"/>
<path d="M120.595 410.622H168.706L178.7 385.943C179.025 385.139 178.434 384.262 177.566 384.262H132.092C131.594 384.262 131.146 384.564 130.96 385.026L120.595 410.622Z" fill="black"/>
<path d="M149.34 285.556C149.779 285.657 150.215 285.78 150.643 285.926C154.689 287.318 158.155 291.851 159.589 295.749C159.809 296.345 160.004 296.955 160.076 297.587C160.169 298.417 160.041 299.27 159.709 300.035C158.685 299.24 157.783 298.29 157.045 297.225C157.258 297.534 150.89 302.762 150.072 303.236C147.387 304.79 144.289 305.442 141.202 305.299C140.592 305.271 138.838 304.784 138.394 305.156C138.015 305.475 138.142 307.535 138.061 308.007C137.665 310.335 136.924 312.926 136.151 315.138C135.2 317.855 132.082 318.117 129.621 318.109C125.465 318.093 121.255 317.972 117.264 316.811C114.56 316.024 111.77 314.528 110.777 311.894C110.027 309.906 110.465 307.657 111.257 305.684C112.236 303.243 113.791 300.971 115.974 299.506C118.125 298.063 120.752 297.484 123.337 297.342C124.236 297.293 125.173 297.285 125.981 296.886C127.266 296.25 127.891 294.813 128.623 293.581C131.493 288.752 137.124 286.125 142.694 285.387C144.899 285.092 147.178 285.058 149.34 285.556Z" fill="black"/>
<path d="M189.464 397.825C179.066 402.527 170.698 410.696 161.23 417.068C152.389 423.019 142.6 427.39 132.867 431.731C133.375 432.847 133.581 433.948 134.09 435.063" stroke="black" stroke-width="0.5" stroke-miterlimit="10"/>
<path d="M138.275 312.543C134.328 311.911 134.238 306.572 136.634 304.267C137.72 303.221 139.261 302.561 140.743 302.826C142.226 303.091 143.533 304.441 143.462 305.947" fill="white"/>
<path d="M138.275 312.543C134.328 311.911 134.238 306.572 136.634 304.267C137.72 303.221 139.261 302.561 140.743 302.826C142.226 303.091 143.533 304.441 143.462 305.947" stroke="black" stroke-width="0.5" stroke-miterlimit="10"/>
<path d="M151.714 310.551C152.335 312.579 154.814 313.811 156.807 313.081" stroke="#222221" stroke-width="0.5" stroke-miterlimit="10"/>
<path d="M139.581 305.272C140.333 305.372 141.022 305.858 141.369 306.532C141.715 307.207 141.708 308.051 141.349 308.72" stroke="#222221" stroke-width="0.5" stroke-miterlimit="10"/>
<path d="M98.1478 341.945C93.5106 349.426 93.5398 358.001 93.0945 366.434C92.6102 375.612 93.6557 384.867 96.1726 393.707C96.9131 393.555 97.6512 393.378 98.3906 393.206C101.291 392.043 106.316 390.401 107.114 390.155C111.144 388.908 115.023 387.166 118.624 384.966C117.901 378.92 117.393 372.764 116.282 366.8C115.219 361.102 115.012 355.01 116.438 349.325" fill="#DEA600"/>
<path d="M98.1478 341.945C93.5106 349.426 93.5398 358.001 93.0945 366.434C92.6102 375.612 93.6557 384.867 96.1726 393.707C96.9131 393.555 97.6512 393.378 98.3906 393.206C101.291 392.043 106.316 390.401 107.114 390.155C111.144 388.908 115.023 387.166 118.624 384.966C117.901 378.92 117.393 372.764 116.282 366.8C115.219 361.102 115.012 355.01 116.438 349.325" stroke="black" stroke-width="0.5" stroke-miterlimit="10"/>
<path d="M154.711 397.458C154.199 398.795 152.473 399.878 150.857 399.878C149.24 399.878 148.343 398.795 148.856 397.458C149.367 396.12 151.092 395.037 152.71 395.037C154.326 395.037 155.222 396.122 154.711 397.458Z" stroke="white" stroke-width="0.5" stroke-miterlimit="10"/>
<path d="M98.2942 129.834C98.232 118.798 88.938 109.974 77.775 110.641C68.359 111.203 60.5645 118.722 59.7044 128.115C59.0846 134.881 61.9504 140.992 66.7023 144.887C69.6156 147.275 71.5798 150.621 71.9922 154.365L73.139 164.783L85.1706 164.715L86.1991 154.281C86.5663 150.554 88.4585 147.183 91.3353 144.785C95.6151 141.217 98.3283 135.841 98.2942 129.834Z" fill="#E0ADAD"/>
<path d="M79.1695 167.328C74.9763 167.351 71.5591 163.972 71.5347 159.78L71.5164 156.486L86.6993 156.399L86.7176 159.694C86.7408 163.885 83.3614 167.304 79.1695 167.328Z" fill="black"/>
<path d="M76.1866 158.081C75.1776 153.373 74.1687 148.664 73.1597 143.956C72.2252 139.595 70.2561 135.047 69.8633 130.658C69.6608 128.406 72.0922 128.044 73.3574 129.425C74.2931 130.447 74.5969 132.338 74.5408 133.675C74.6091 132.094 75.0312 130.53 75.7693 129.13C75.9182 128.847 76.0926 128.557 76.3708 128.399C76.8149 128.145 77.4078 128.312 77.7713 128.672C78.1349 129.032 78.3081 129.54 78.4179 130.039C78.712 131.385 78.6119 132.815 78.1337 134.107C78.6558 132.565 79.322 131.071 80.1198 129.652C80.5834 128.828 81.424 127.907 82.3 128.265C82.9075 128.512 83.1271 129.254 83.193 129.907C83.3223 131.204 83.1369 132.53 82.6587 133.742C82.9197 132.141 83.5139 130.592 84.3923 129.227C84.8132 128.575 85.4586 127.894 86.2247 128.017C86.7542 128.102 87.1568 128.571 87.3215 129.082C87.9718 131.084 87.1507 133.39 86.7798 135.403C86.2125 138.485 85.644 141.566 85.0767 144.648C84.2776 148.986 83.4773 153.325 82.6782 157.663" stroke="#222221" stroke-width="0.5" stroke-miterlimit="10"/>
<path d="M49.2038 124.963C52.6967 125.449 51.567 125.292 55.1184 125.786" stroke="#222221" stroke-width="0.5" stroke-miterlimit="10"/>
<path d="M54.4059 110.573L58.9333 114.69" stroke="#222221" stroke-width="0.5" stroke-miterlimit="10"/>
<path d="M73.1109 101.254C73.405 102.769 73.7051 105.269 73.9991 106.784" stroke="#222221" stroke-width="0.5" stroke-miterlimit="10"/>
<path d="M85.7977 100.719C85.3695 103.974 85.0767 106.207 84.9022 107.531" stroke="#222221" stroke-width="0.5" stroke-miterlimit="10"/>
<path d="M104.072 113.787C101.075 115.888 101.278 115.744 98.1929 117.907" stroke="#222221" stroke-width="0.5" stroke-miterlimit="10"/>
<path d="M102.785 127.108C106.405 127.346 105.504 127.286 109.144 127.527" stroke="#222221" stroke-width="0.5" stroke-miterlimit="10"/>
<mask id="mask17_2234_3719" style="mask-type:luminance" maskUnits="userSpaceOnUse" x="71" y="156" width="16" height="12">
<path d="M79.1695 167.328C74.9763 167.351 71.5591 163.972 71.5347 159.78L71.5164 156.486L86.6993 156.399L86.7176 159.694C86.7408 163.885 83.3614 167.304 79.1695 167.328Z" fill="white"/>
</mask>
<g mask="url(#mask17_2234_3719)">
<path d="M69.8182 160.217L88.439 160.113" stroke="#E0ADAD" stroke-width="0.5" stroke-miterlimit="10"/>
</g>
<mask id="mask18_2234_3719" style="mask-type:luminance" maskUnits="userSpaceOnUse" x="71" y="156" width="16" height="12">
<path d="M79.1695 167.328C74.9763 167.351 71.5591 163.972 71.5347 159.78L71.5164 156.486L86.6993 156.399L86.7176 159.694C86.7408 163.885 83.3614 167.304 79.1695 167.328Z" fill="white"/>
</mask>
<g mask="url(#mask18_2234_3719)">
<path d="M69.8389 163.942L88.4598 163.837" stroke="#E0ADAD" stroke-width="0.5" stroke-miterlimit="10"/>
</g>
<path d="M420.909 136.164C409.006 136.164 399.323 126.481 399.323 114.578C399.323 102.676 409.006 92.9941 420.909 92.9941C432.811 92.9941 442.494 102.677 442.494 114.578C442.494 126.481 432.811 136.164 420.909 136.164ZM420.909 104.488C415.344 104.488 410.818 109.014 410.818 114.578C410.818 120.143 415.344 124.669 420.909 124.669C426.473 124.669 430.999 120.143 430.999 114.578C430.999 109.014 426.473 104.488 420.909 104.488Z" fill="#F65E59" stroke="black" stroke-width="0.5" stroke-miterlimit="10"/>
<path d="M399.871 119.405C399.508 117.824 399.324 116.2 399.324 114.578C399.324 102.676 409.007 92.9941 420.91 92.9941C432.812 92.9941 442.495 102.677 442.495 114.578H431C431 109.109 426.379 104.488 420.91 104.488C415.44 104.488 410.819 109.109 410.819 114.578C410.819 115.337 410.904 116.096 411.074 116.835L399.871 119.405Z" fill="#DEA600" stroke="black" stroke-width="0.5" stroke-miterlimit="10"/>
<path d="M442.494 114.579H430.999C430.999 109.109 426.378 104.488 420.909 104.488C418.802 104.488 416.78 105.133 415.062 106.353L408.404 96.985C412.077 94.3742 416.402 92.9932 420.909 92.9932C432.811 92.9932 442.494 102.676 442.494 114.579Z" fill="white" stroke="black" stroke-width="0.5" stroke-miterlimit="10"/>
<path d="M429.877 110.052C430.587 111.424 430.999 112.962 430.999 114.579H442.494C442.494 109.597 440.782 105.019 437.937 101.362C435.181 104.194 432.481 107.078 429.877 110.052Z" fill="#9DD1C9" stroke="black" stroke-width="0.5" stroke-miterlimit="10"/>
<path d="M41.9826 254.932C41.8948 248.99 47.031 244.4 52.6601 244.668C54.617 244.762 56.4116 245.41 57.9183 246.441C60.2631 243.761 63.7621 242.134 67.5953 242.317C72.856 242.569 77.9458 246.126 78.3716 251.004C83.5212 252.474 87.4032 257.248 87.1361 262.829C86.9714 266.277 85.3427 269.309 82.8795 271.351C83.5029 273.12 83.4431 275.201 82.3073 277.274C81.6985 278.384 80.7384 279.285 79.5928 279.824C77.4944 280.812 75.5143 280.763 73.8429 280.111L73.71 289.744C73.7014 290.322 72.9572 290.549 72.6278 290.073L67.5892 282.801C62.8934 284.722 58.6808 281.839 58.366 277.574C57.118 278.195 55.704 278.523 54.2131 278.451C49.9065 278.245 46.5137 274.856 46.1831 270.668C43.8297 272.07 40.7578 272.366 37.709 270.839C36.0193 269.993 34.6919 268.527 34.0234 266.759C31.6627 260.52 36.2389 254.844 41.9826 254.932Z" fill="#E0ADAD"/>
<path d="M76.6672 266.722C79.444 266.855 81.7607 268.602 82.755 271.013" stroke="black" stroke-width="0.5" stroke-miterlimit="10"/>
<path d="M46.2478 269.964C46.471 265.293 50.4397 261.685 55.1111 261.908" stroke="black" stroke-width="0.5" stroke-miterlimit="10"/>
<path d="M41.2604 254.941C43.0465 254.823 44.7118 255.25 46.116 256.068" stroke="black" stroke-width="0.5" stroke-miterlimit="10"/>
<path d="M50.8789 248.448C54.6316 248.627 57.5279 251.815 57.3485 255.567" stroke="black" stroke-width="0.5" stroke-miterlimit="10"/>
<path d="M56.8361 274.31C53.5263 274.623 50.5885 272.194 50.275 268.884" stroke="black" stroke-width="0.5" stroke-miterlimit="10"/>
<path d="M37.8883 265.494C36.9087 262.667 38.4056 259.58 41.2323 258.6" stroke="black" stroke-width="0.5" stroke-miterlimit="10"/>
<path d="M79.2646 273.434C78.5643 275.594 76.2451 276.776 74.0857 276.076" stroke="black" stroke-width="0.5" stroke-miterlimit="10"/>
<path d="M69.3741 252.667C71.8702 250.949 75.0105 250.322 78.2154 250.973" stroke="black" stroke-width="0.5" stroke-miterlimit="10"/>
<path d="M80.1394 256.191C81.8144 257.432 82.9136 259.411 82.9502 261.656" stroke="black" stroke-width="0.5" stroke-miterlimit="10"/>
<path d="M61.9662 258.79C64.0573 258.371 66.3582 259.368 67.4819 261.18C68.6067 262.992 68.4786 265.496 67.1744 267.184" stroke="black" stroke-width="0.5" stroke-miterlimit="10"/>
<path d="M61.2623 269.081C60.5327 269.743 60.1619 270.778 60.3034 271.754C60.4449 272.728 61.0952 273.615 61.9821 274.044" stroke="black" stroke-width="0.5" stroke-miterlimit="10"/>
<path d="M238.806 188.237C238.763 190.527 237.954 192.835 236.193 194.901C233.435 198.138 229.266 199.858 225.097 200.697C217.128 202.303 208.741 202.703 201.166 199.319C197.997 197.903 194.732 195.534 192.836 192.594C189.017 186.67 193.265 180.073 198.672 176.983C205.625 173.009 215.35 172.852 223.046 174.151C226.29 174.699 229.52 175.614 232.325 177.334C236.329 179.789 238.889 183.982 238.806 188.237Z" fill="#EBAEAE"/>
<path d="M189.629 226.185C189.662 226.638 189.659 227.094 189.617 227.553C189.013 234.224 180.081 236.802 174.52 236.802C169.402 236.802 163.282 235.045 160.352 230.499C157.323 225.8 160.242 220.517 164.624 217.886C167.468 216.179 170.838 215.507 174.154 215.447C177.853 215.38 181.673 216.089 184.732 218.168C187.412 219.988 189.4 222.993 189.629 226.185Z" fill="#EBAEAE"/>
<path d="M231.316 226.127C231.325 226.362 231.323 226.599 231.308 226.839C231.13 229.772 229.077 232.339 226.564 233.863C222.38 236.399 217.103 237.397 212.287 236.603C207.726 235.85 199.827 232.716 199.701 227.163C199.587 222.177 205.148 217.913 209.314 216.279C216.601 213.424 230.913 216.312 231.316 226.127Z" fill="#EBAEAE"/>
<path d="M271.39 226.16C271.494 227.717 271.191 229.268 270.384 230.628C269.272 232.498 267.392 233.786 265.444 234.755C262.423 236.258 259.334 236.802 255.988 236.802C250.987 236.802 245.133 235.144 242.082 230.881C238.998 226.572 241.825 220.925 245.82 218.252C248.93 216.172 252.788 215.464 256.528 215.503C260.68 215.547 265.015 216.555 268.079 219.356C269.976 221.091 271.221 223.63 271.39 226.16Z" fill="#EBAEAE"/>
<path d="M196.399 202.237C194.086 203.724 183.844 210.992 183.844 210.992" stroke="black" stroke-width="0.5" stroke-miterlimit="10"/>
<path d="M215.668 204.719C215.835 206.867 216.001 209.014 216.168 211.161" stroke="black" stroke-width="0.5" stroke-miterlimit="10"/>
<path d="M236.047 201.906C238.533 203.681 245.697 210.074 247.941 212.149" stroke="black" stroke-width="0.5" stroke-miterlimit="10"/>
<path d="M200.727 187.825C201.679 189.078 203.417 189.674 204.938 189.269C206.459 188.865 207.671 187.484 207.876 185.924C207.948 185.371 207.635 184.594 207.102 184.756C206.955 184.802 206.839 184.915 206.741 185.035C205.868 186.098 206.097 187.825 207.099 188.769C208.1 189.713 209.681 189.893 210.961 189.388C212.242 188.883 213.227 187.781 213.805 186.533C213.96 186.197 214.09 185.815 213.971 185.465C213.716 184.72 212.474 184.83 212.11 185.529C211.747 186.228 212.054 187.101 212.54 187.721C213.526 188.98 215.257 189.606 216.82 189.269C218.382 188.933 219.702 187.649 220.083 186.096C220.175 185.72 220.206 185.291 219.977 184.979C219.588 184.448 218.658 184.654 218.331 185.226C218.004 185.797 218.138 186.527 218.41 187.126C219.31 189.101 221.725 190.245 223.822 189.69C225.163 189.335 226.17 188.212 226.608 186.928C226.761 186.475 226.959 185.618 226.441 185.321C225.479 184.77 225.38 186.197 225.472 186.754C225.6 187.526 226.071 188.38 226.724 188.829C228.188 189.838 230.492 189.223 231.258 187.619" stroke="black" stroke-width="0.5" stroke-miterlimit="10"/>
<path d="M166.513 227.514C166.731 225.815 168.493 224.784 170.125 224.26C170.468 224.151 170.829 224.049 171.184 224.107C172.159 224.263 172.568 225.474 172.482 226.458C172.442 226.916 172.326 227.396 172.002 227.723C171.677 228.05 171.096 228.152 170.759 227.839C170.422 227.525 170.469 226.972 170.65 226.548C171.099 225.49 172.141 224.804 173.197 224.353C174.128 223.955 175.197 223.692 176.142 224.052C176.973 224.368 177.595 225.174 177.691 226.059C177.784 226.943 177.348 227.863 176.601 228.347C176.491 228.418 176.369 228.483 176.239 228.479C176.103 228.475 175.979 228.399 175.878 228.308C175.285 227.779 175.316 226.792 175.743 226.122C176.17 225.451 176.888 225.029 177.591 224.658C178.368 224.248 179.196 223.861 180.073 223.865C180.952 223.869 181.887 224.374 182.113 225.222" stroke="black" stroke-width="0.5" stroke-miterlimit="10"/>
<path d="M207.324 224.092C207.169 224.274 207.014 224.457 206.899 224.667C206.302 225.746 207.045 227.21 208.186 227.68C209.326 228.148 210.661 227.817 211.715 227.175C212.803 226.511 213.756 225.185 213.218 224.03C213.178 223.942 213.124 223.854 213.038 223.811C212.881 223.734 212.697 223.842 212.572 223.963C211.653 224.841 211.952 226.523 212.96 227.299C213.967 228.074 215.407 228.067 216.596 227.616C217.424 227.304 218.19 226.783 218.686 226.052C218.96 225.651 219.288 225.218 219.29 224.71C219.291 224.394 219.138 224.061 218.853 223.924C217.575 223.306 217.749 226.357 218.142 226.933C218.914 228.067 220.493 228.438 221.824 228.106" stroke="black" stroke-width="0.5" stroke-miterlimit="10"/>
<path d="M247.925 224.698C247.864 225.834 248.292 227.01 249.141 227.765C249.991 228.522 251.265 228.805 252.324 228.386C253.382 227.968 254.133 226.821 254.002 225.691C253.963 225.359 253.821 224.998 253.512 224.87C253.193 224.737 252.806 224.923 252.624 225.218C252.442 225.513 252.431 225.883 252.489 226.224C252.745 227.758 254.383 228.867 255.926 228.678C257.469 228.49 258.75 227.148 259.024 225.617C259.058 225.424 259.078 225.22 259.01 225.037C258.839 224.583 258.164 224.497 257.784 224.797C257.403 225.097 257.289 225.636 257.343 226.118C257.496 227.477 258.933 228.548 260.278 228.304C261.624 228.06 262.595 226.554 262.26 225.228C262.227 225.099 262.183 224.969 262.097 224.869C261.861 224.591 261.38 224.644 261.124 224.907C260.869 225.168 260.802 225.563 260.823 225.928C260.876 226.851 261.455 227.726 262.282 228.139C263.109 228.551 264.156 228.485 264.925 227.973" stroke="black" stroke-width="0.5" stroke-miterlimit="10"/>
<path d="M322.123 554.146C322.242 554.531 322.375 554.937 322.684 555.229C323.032 555.559 323.534 555.686 324.009 555.794C328.118 556.74 332.267 557.48 336.432 558.013C335.113 547.434 335.543 536.566 331.334 526.454C330.713 524.961 329.97 523.463 328.772 522.276C326.793 520.315 323.721 519.452 320.96 519.783C318.77 520.047 314.431 521.592 313.827 523.777C313.167 526.167 315.626 531.356 316.287 533.854C318.085 540.643 320.03 547.409 322.123 554.146Z" fill="white" stroke="black" stroke-width="0.5" stroke-miterlimit="10"/>
<path d="M352.717 567.666C348.336 567.138 343.947 566.669 339.55 566.263C335.839 565.92 332.113 565.729 328.418 565.233C325.799 564.883 323.085 564.405 320.578 563.458C318.993 562.859 320.01 559.093 320.239 558.041C320.786 555.539 320.762 552.799 320.658 550.252C324.879 550.182 329.105 550.108 333.315 549.945C334.097 549.915 334.902 549.888 335.64 550.148C336.621 550.493 337.357 551.293 338.118 552.001C341.2 554.871 360.215 561.254 359.156 566.564C358.865 568.021 356.867 568.184 355.395 567.998C354.503 567.884 353.61 567.773 352.717 567.666Z" fill="#161111"/>
<path d="M269.453 555.771C269.408 556.153 269.354 556.553 269.1 556.84C268.816 557.161 268.335 557.278 267.879 557.377C263.938 558.239 259.917 558.898 255.839 559.348C255.103 548.837 252.557 538.007 254.813 528.017C255.146 526.542 255.6 525.065 256.572 523.905C258.176 521.989 261.093 521.189 263.929 521.572C266.178 521.876 270.836 523.498 271.867 525.686C272.996 528.078 271.537 533.2 271.36 535.674C270.879 542.401 270.242 549.101 269.453 555.771Z" fill="white" stroke="black" stroke-width="0.5" stroke-miterlimit="10"/>
<path d="M270.901 256.032C270.953 256.395 271.008 256.76 271.068 257.122C271.984 262.75 269.812 268.625 270.933 274.448C271.727 278.571 275.241 286.773 280.305 287.31C281.594 287.447 282.886 285.738 283.596 284.865C285.946 281.981 287.835 278.585 288.238 274.887C288.434 273.098 288.279 271.291 288.123 269.498C287.898 266.919 287.675 264.34 287.45 261.76C287.345 260.549 287.239 259.334 286.987 258.146C286.53 256 285.579 253.942 284.121 252.303C281.11 248.917 276.717 248.646 272.461 248.567C271.981 248.558 271.47 248.569 271.064 248.829C270.285 249.33 270.281 250.448 270.367 251.37C270.512 252.935 270.679 254.488 270.901 256.032Z" fill="white" stroke="black" stroke-width="0.5" stroke-miterlimit="10"/>
<path d="M280.827 261.709C278.142 262.518 271.127 263.61 271.127 263.61C271.188 262.232 271.399 259.692 271.277 258.317C271.261 258.132 271.096 256.956 270.934 255.914C270.795 255.025 270.656 254.233 270.611 254.245C271.227 254.083 271.882 253.792 272.363 253.363C272.659 253.1 272.864 252.749 273.165 252.473C275.08 250.72 277.899 250.318 280.286 251.266C281.683 251.821 282.877 252.796 283.794 253.977C284.345 254.686 284.799 255.468 285.17 256.285C285.559 257.144 286.081 258.259 286.14 259.21C286.141 259.219 286.174 259.466 286.228 259.876C284.445 260.541 282.648 261.16 280.827 261.709Z" fill="black"/>
<path d="M289.472 244.766C290.574 241.35 294.373 242.756 295.202 245.567C295.628 247.007 295.235 248.662 294.208 249.758C293.459 250.559 292.295 251.064 291.247 250.741" fill="white"/>
<path d="M289.472 244.766C290.574 241.35 294.373 242.756 295.202 245.567C295.628 247.007 295.235 248.662 294.208 249.758C293.459 250.559 292.295 251.064 291.247 250.741" stroke="black" stroke-width="0.5" stroke-miterlimit="10"/>
<path d="M288.906 232.691C286.768 231.55 280.986 235.626 278.569 235.93C276.191 236.458 272.482 237.059 270.807 238.81C267.261 242.517 267.917 248.957 270.151 253.473C270.525 254.23 271.301 256.156 271.75 256.87C275.332 262.568 281.969 263.074 285.301 262.27C289.28 261.308 291.441 257.987 292.114 253.339C292.235 252.505 292.266 249.782 292.279 248.937C292.358 243.757 291.155 233.891 288.906 232.691Z" fill="white" stroke="black" stroke-width="0.5" stroke-miterlimit="10"/>
<path d="M288.134 229.537C285.906 228.2 283.308 227.574 280.607 227.241C278.687 227.004 276.729 226.871 274.827 227.226C272.216 227.714 269.792 229.145 268.105 231.197C265.722 234.094 265.016 238.031 265.657 241.655C266.113 244.228 267.086 248.254 269.78 249.407C271.429 250.112 272.524 249.483 272.802 247.754C273.125 245.747 272.76 243.604 272.99 241.55C273.02 241.281 273.059 240.993 273.242 240.791C273.45 240.564 273.78 240.512 274.084 240.467C278.661 239.792 282.611 237.676 286.263 234.904C287.006 235.858 288.108 236.524 289.299 236.739C289.954 236.856 290.981 236.936 291.582 236.626C292.25 236.283 292.569 235.462 292.502 234.715C292.434 233.967 292.047 233.285 291.601 232.682C290.604 231.338 289.432 230.316 288.134 229.537Z" fill="black"/>
<path d="M287.018 232.775C288.961 231.299 291.52 233.198 292.26 234.989C293.121 237.076 292.921 239.521 292.787 241.722C292.707 243.011 292.78 244.537 292.613 245.887C292.521 245.071 292.417 244.257 292.279 243.449C292.028 241.981 291.652 239.993 290.711 238.576C290.45 237.761 289.979 236.994 289.236 236.584C288.692 236.283 288.051 236.191 287.52 235.869C287.056 235.587 286.701 235.131 286.54 234.612C286.341 233.967 286.482 233.182 287.018 232.775Z" fill="black"/>
<path d="M271.938 251.673C270.872 253.21 269.03 253.416 267.706 252.126C265.016 249.506 266.141 242.778 270.903 244.132C272.202 244.5 273.02 245.743 273.724 246.895" fill="white"/>
<path d="M271.938 251.673C270.872 253.21 269.03 253.416 267.706 252.126C265.016 249.506 266.141 242.778 270.903 244.132C272.202 244.5 273.02 245.743 273.724 246.895" stroke="black" stroke-width="0.5" stroke-miterlimit="10"/>
<path d="M246.384 430.683C245.928 414.249 245.584 398.379 248.181 382.046C249.295 375.043 255.08 350.89 263.86 349.576C264.396 349.496 264.814 349.542 265.194 349.633C265.654 347.176 266.594 344.867 267.908 342.755C271.738 336.601 278.688 332.109 285.8 330.425C293.688 328.557 303.305 329.629 306.775 338.722C308.551 343.379 308.139 348.115 310.257 352.618C316.24 365.338 317.007 377.966 318.788 391.973C320.892 408.518 323.078 425.053 325.346 441.575C329.656 472.972 334.271 504.327 339.173 535.636C335.915 536.421 332.618 537.037 329.285 537.414C323.493 538.069 317.673 537.905 311.897 537.231C306.252 508.761 300.222 480.368 293.793 452.065C290.576 437.901 288.169 430.689 284.843 417.239C284.488 420.688 284.117 424.134 283.729 427.578C282.356 439.787 281.294 452.028 279.531 464.191C275.954 488.868 274.854 514.042 275.837 539.096C270.376 539.318 259.582 538.899 254.352 538.526C253.57 538.47 247.753 537.703 247.687 536.971C245.907 517.244 245.975 501.387 245.563 480.672C245.254 465.1 246.807 445.954 246.384 430.683Z" fill="#F65E59" stroke="black" stroke-width="0.5" stroke-miterlimit="10"/>
<path d="M279.57 252.813C279.726 254.028 281.503 254.947 283.662 254.885L279.57 252.813Z" fill="white"/>
<path d="M279.57 252.813C279.726 254.028 281.503 254.947 283.662 254.885" stroke="black" stroke-width="0.5" stroke-miterlimit="10"/>
<path d="M236.682 282.692C237.316 281.488 238.076 280.332 238.981 279.229C243.765 273.403 250.902 271.133 258.163 270.412C262.289 270.002 266.48 270.345 270.468 269.065C270.584 270.226 270.747 271.4 271.206 272.472C272.626 275.794 276.739 276.556 280.305 276.528C283.917 276.5 287.732 273.459 288.013 269.452C292.103 270.128 296.303 269.885 300.396 270.551C303.635 271.078 306.985 272.292 309.315 274.692C311.943 277.398 314.266 280.683 316.202 283.918C316.745 284.825 317.27 285.742 317.786 286.659C325.503 300.345 329.411 314.49 324.616 329.747C323.59 333.014 322.193 336.477 319.251 338.227C317.966 338.99 316.48 339.327 314.983 339.32C315.997 348.463 317.285 357.952 317.366 365.92C306.421 370.107 256.615 373.376 249.54 370.127C251.444 361.542 252.053 350.062 251.821 338.358C249.588 336.903 247.794 334.756 246.237 332.553C241.085 325.261 237.072 316.979 235.094 308.248C233.881 302.891 233.458 297.279 234.061 291.811C234.417 288.561 235.207 285.497 236.682 282.692Z" fill="#7696EA" stroke="black" stroke-width="0.5" stroke-miterlimit="10"/>
<path d="M309.357 328.342C304.385 329.376 299.372 330.338 294.426 331.611C287.11 333.492 279.794 335.374 272.477 337.256C268.444 338.293 264.369 339.337 260.205 339.438C255.284 339.558 247.534 338.446 247.743 331.929C247.98 324.509 254.348 318.336 261.002 316.032C267.282 313.858 274.11 314.121 280.75 314.409C287.242 314.69 293.728 315.075 300.214 315.46C305.631 315.782 311.326 315.164 316.675 315.832C320.593 316.322 324.22 318.553 326.596 321.704C328.91 324.771 333.03 335.458 326.537 336.865C323.75 337.468 324.134 334.838 323.534 333.062C322.652 330.457 321.091 328.877 318.443 328.115C315.87 327.376 312.508 327.687 309.357 328.342Z" fill="white" stroke="#222221" stroke-width="0.5" stroke-miterlimit="10"/>
<path d="M290.543 333.693C291.112 334.075 291.685 334.45 292.266 334.811C294.271 336.06 296.373 336.879 298.495 337.873C305.198 341.012 312.064 340.726 319.03 338.949C326.222 337.113 324.518 329.2 320.393 324.887C317.622 321.991 313.872 320.245 310.109 318.862C301.184 315.579 291.857 314.895 282.751 312.486C274.405 310.278 264.719 308.16 256.681 312.519C255.032 313.413 253.698 314.827 252.794 316.461C252.319 317.32 251.875 318.224 251.625 319.176C251.448 319.85 251.416 320.438 251.444 321.12C251.465 321.616 251.658 322.103 251.492 322.586C252.694 321.592 253.373 320.729 254.806 319.986C256.504 319.106 258.201 318.225 259.898 317.344C260.075 317.252 260.26 317.159 260.46 317.161C260.63 317.163 260.79 317.237 260.945 317.309C269.633 321.352 278.364 325.418 286.307 330.781C287.726 331.739 289.12 332.738 290.543 333.693Z" fill="white" stroke="#222221" stroke-width="0.5" stroke-miterlimit="10"/>
<path d="M271.628 566.296C271.529 566.325 271.421 566.342 271.312 566.362C270.468 566.373 269.625 566.399 268.781 566.433C268.565 566.435 268.352 566.444 268.144 566.461C267.136 566.507 266.128 566.563 265.122 566.635C257.271 567.199 249.244 568.474 241.499 568.624C238.793 568.676 235.946 568.606 233.491 567.738C227.154 565.498 234.877 562.559 237.389 561.261C240.028 559.897 242.316 558.612 245.133 557.471C248.706 556.022 252.142 554.236 255.378 552.14C259.897 553.142 264.548 553.548 269.173 553.346C271.545 553.241 275.075 565.291 271.628 566.296Z" fill="#161111"/>
<path d="M306.063 315.674C305.473 307.701 304.102 299.092 301.451 291.55" stroke="black" stroke-width="0.5" stroke-miterlimit="10"/>
<path d="M260.06 310.684C258.902 304.328 257.743 297.972 256.586 291.615" stroke="black" stroke-width="0.5" stroke-miterlimit="10"/>
<path d="M284.467 420.134C285.414 407.741 286.362 395.348 287.309 382.956" stroke="#131834" stroke-width="0.5" stroke-miterlimit="10"/>
<path d="M268.81 246.508C269.765 246.357 270.78 246.645 271.515 247.275C272.248 247.904 272.687 248.864 272.682 249.832" fill="white"/>
<path d="M268.81 246.508C269.765 246.357 270.78 246.645 271.515 247.275C272.248 247.904 272.687 248.864 272.682 249.832" stroke="black" stroke-width="0.5" stroke-miterlimit="10"/>
<path d="M345.952 229.509C345.952 234.129 342.206 237.874 337.586 237.874C332.966 237.874 329.221 234.129 329.221 229.509C329.221 224.889 332.966 221.143 337.586 221.143C342.206 221.143 345.952 224.889 345.952 229.509Z" fill="#FADDD4"/>
<path d="M431.751 223.074H358.689V226.44H431.751V223.074Z" fill="#FADDD4"/>
<path d="M431.751 230.647H358.689V234.013H431.751V230.647Z" fill="#FADDD4"/>
<path d="M337.993 231.018C337.458 231.018 336.981 230.927 336.563 230.743C336.147 230.559 335.816 230.304 335.57 229.977C335.327 229.648 335.195 229.266 335.173 228.831H336.194C336.216 229.098 336.307 229.329 336.469 229.524C336.632 229.715 336.844 229.864 337.105 229.969C337.367 230.075 337.658 230.127 337.976 230.127C338.333 230.127 338.649 230.065 338.924 229.941C339.2 229.817 339.416 229.644 339.572 229.422C339.729 229.201 339.807 228.944 339.807 228.653C339.807 228.348 339.732 228.079 339.581 227.847C339.429 227.612 339.208 227.428 338.916 227.296C338.625 227.163 338.268 227.097 337.847 227.097H337.182V226.206H337.847C338.176 226.206 338.465 226.147 338.714 226.028C338.965 225.909 339.161 225.742 339.301 225.525C339.444 225.309 339.516 225.056 339.516 224.764C339.516 224.483 339.454 224.239 339.329 224.031C339.205 223.823 339.03 223.661 338.803 223.545C338.579 223.429 338.314 223.37 338.009 223.37C337.723 223.37 337.452 223.423 337.199 223.528C336.947 223.631 336.742 223.781 336.583 223.978C336.424 224.173 336.337 224.407 336.324 224.683H335.351C335.368 224.248 335.499 223.867 335.744 223.541C335.99 223.211 336.312 222.955 336.708 222.771C337.108 222.587 337.547 222.495 338.025 222.495C338.538 222.495 338.978 222.599 339.346 222.807C339.713 223.013 339.995 223.284 340.192 223.622C340.389 223.959 340.488 224.324 340.488 224.715C340.488 225.183 340.365 225.581 340.119 225.91C339.876 226.24 339.545 226.468 339.127 226.595V226.66C339.651 226.746 340.06 226.969 340.354 227.328C340.649 227.685 340.796 228.126 340.796 228.653C340.796 229.104 340.673 229.509 340.427 229.868C340.184 230.224 339.852 230.505 339.431 230.711C339.009 230.916 338.53 231.018 337.993 231.018Z" fill="black"/>
<path d="M391.045 217.992C389.3 217.733 387.495 218.665 385.863 219.335C385.57 219.456 385.235 219.564 384.944 219.435C384.738 219.344 384.6 219.148 384.473 218.963C384.007 218.285 380.236 211.665 379.331 214.185C379.13 214.747 379.369 215.36 379.61 215.906C382.147 221.642 385.335 227.239 390.034 231.392C391.2 232.423 392.454 233.36 393.543 234.473C396.589 237.589 398.196 241.934 401.428 244.857C402.239 245.592 403.289 246.258 404.358 246.03C407.537 245.352 406.109 239.511 405.066 237.723C404.057 235.992 402.628 234.545 401.503 232.887C399.81 230.389 398.847 227.476 397.406 224.824C396.28 222.749 394.596 219.857 392.551 218.558C392.059 218.243 391.555 218.066 391.045 217.992Z" fill="white" stroke="black" stroke-width="0.5" stroke-miterlimit="10"/>
<path d="M384.485 218.948C384.784 219.642 385.141 220.311 385.549 220.947L384.485 218.948Z" fill="white"/>
<path d="M384.485 218.948C384.784 219.642 385.141 220.311 385.549 220.947" stroke="black" stroke-width="0.5" stroke-miterlimit="10"/>
<path d="M418.516 553.743C416.676 555.951 412.386 554.84 409.96 554.728C408.02 554.639 406.066 555.051 405.25 553.074C404.776 551.93 404.905 550.567 405.04 549.253C405.479 544.97 405.921 540.672 406.944 536.381C407.639 533.473 408.824 530.276 411.536 528.474C414.33 526.619 418.026 526.943 420.211 528.733C422.396 530.522 423.238 533.478 423.161 536.445C423.084 539.411 422.183 542.432 421.29 545.413C420.584 547.771 419.876 550.131 419.17 552.489C419.02 552.993 418.797 553.406 418.516 553.743Z" fill="white" stroke="black" stroke-width="0.5" stroke-miterlimit="10"/>
<path d="M419.203 551.783C419.069 551.776 418.93 551.786 418.8 551.8C414.445 552.235 410.035 552.124 405.706 551.47C405.153 551.387 404.587 551.295 404.041 551.41C403.547 551.515 403.104 551.783 402.667 552.036C398.559 554.429 394.012 556.062 389.321 556.832C386.623 557.275 383.72 557.495 381.551 559.161C380.538 559.941 379.727 561.41 380.469 562.453C380.722 562.808 381.111 563.037 381.5 563.23C385.541 565.227 391.709 564.605 396.096 564.449C403.182 564.196 410.183 564.765 417.191 563.485C417.478 563.432 417.776 563.368 418.005 563.186C418.326 562.933 418.448 562.51 418.548 562.113C419.033 560.192 419.453 558.236 419.72 556.272C419.826 555.497 420.318 552.7 419.796 552.033C419.658 551.854 419.437 551.793 419.203 551.783Z" fill="#161111"/>
<path d="M486.813 550.372C485.375 552.815 480.954 552.233 478.545 552.422C476.617 552.573 474.761 553.229 473.62 551.351C472.959 550.262 472.854 548.88 472.762 547.548C472.466 543.2 472.169 538.837 472.449 534.411C472.638 531.411 473.262 528.058 475.63 525.916C478.069 523.71 481.768 523.576 484.228 525.097C486.686 526.619 488.02 529.477 488.449 532.46C488.878 535.443 488.505 538.582 488.132 541.68C487.836 544.131 487.541 546.583 487.245 549.034C487.183 549.559 487.033 550 486.813 550.372Z" fill="white" stroke="black" stroke-width="0.5" stroke-miterlimit="10"/>
<path d="M487.834 548.553C487.732 548.074 474.14 550.277 472.638 550.492C472.583 550.538 472.528 550.586 472.472 550.632C467.732 554.559 461.758 556.654 455.912 558.688C455.008 559.002 454.064 559.343 453.437 560.06C450.757 563.127 456.35 564.53 458.336 564.722C461.589 565.035 464.82 564.418 467.982 563.902C474.528 562.834 481.189 563.29 487.673 561.773C487.929 561.713 488.204 561.64 488.36 561.43C488.483 561.266 488.51 561.046 488.531 560.836C488.935 556.77 488.698 552.608 487.834 548.553Z" fill="#161111"/>
<path d="M484.894 246.907C485.221 243.371 484.089 239.805 481.937 236.98C480.171 234.662 478.532 231.374 475.547 230.414C469.78 228.558 464.31 228.237 460.629 233.564C459.419 235.315 458.924 237.452 458.56 239.549C457.728 244.343 456.37 252.044 459.445 256.4C460.086 257.309 461.189 257.963 462.269 257.93C462.775 257.914 463.219 258.303 463.328 258.797C464.461 263.921 463.593 269.029 462.697 274.153C462.19 277.057 462.18 280.376 464.162 282.558C465.567 284.102 467.741 284.76 469.828 284.77C472.867 284.783 475.715 283.541 478.678 283.124C481.479 282.73 481.313 280.939 481.383 278.66C481.468 275.849 481.396 273.041 481.346 270.23C481.248 264.802 481.234 259.263 482.875 254.031C483.484 252.091 484.313 250.212 484.707 248.216C484.79 247.781 484.854 247.344 484.894 246.907Z" fill="white" stroke="black" stroke-width="0.5" stroke-miterlimit="10"/>
<path d="M494.211 431.343C493.806 427.644 493.613 423.806 493.531 419.875C493.045 396.477 496.501 369.818 482.699 349.893C479.214 344.862 473.449 340.962 467.535 341.351C463.208 341.635 459.848 343.947 457.321 347.289C456.769 348.018 456.286 348.853 455.853 349.76C441.212 349.255 434.951 364.662 431.826 376.81C424.955 403.531 419.264 430.555 414.771 457.778C412.536 471.318 410.041 484.818 408.162 498.415C406.215 512.372 405.094 527.095 404.241 541.092C404.224 541.375 404.213 541.681 404.374 541.914C404.556 542.176 404.896 542.263 405.207 542.33C411.011 543.572 416.93 544.277 422.863 544.435C423.141 544.442 423.435 544.444 423.677 544.305C423.95 544.147 424.096 543.842 424.225 543.553C430.188 530.117 433.699 515.011 436.637 500.626C441.951 474.608 449.237 448.993 458.402 424.069C459.182 429.958 459.908 435.863 460.432 441.828C463.299 474.507 466.407 507.175 469.739 539.83C477.38 540.583 484.871 540.176 492.315 539.009C497.625 503.596 498.155 467.381 494.211 431.343Z" fill="#7696EA" stroke="black" stroke-width="0.5" stroke-miterlimit="10"/>
<path d="M494.008 285.749C491.819 278.248 487.361 271.905 478.953 269.386C469.677 266.605 461.086 269.016 456.324 277.629C451.523 286.311 449.31 296.144 447.152 305.827C442.096 328.518 435.468 351.437 431.928 374.398C431.762 375.474 490.218 375.257 495.95 374.454C496.483 374.38 497.065 374.28 497.418 373.874C497.815 373.419 497.787 372.745 497.738 372.144C496.014 350.861 493.438 330.542 495.448 309.018C496.118 301.875 496.194 293.235 494.008 285.749Z" fill="#DEA600" stroke="black" stroke-width="0.5" stroke-miterlimit="10"/>
<path d="M409.129 391.137C408.994 391.423 408.867 391.72 408.751 392.028C407.792 394.589 406.83 397.309 404.806 399.245C403.971 400.043 402.87 400.693 401.724 400.554C400.593 400.417 399.684 399.542 399.061 398.587C395.578 393.245 399.368 386.933 402.232 382.312C405.417 377.173 409.419 372.422 414.463 369.022C416.564 367.607 418.817 366.216 421.116 365.146C421.357 365.034 421.628 364.923 421.882 365.004C422.174 365.098 422.33 365.412 422.42 365.705C422.896 367.248 422.398 368.938 421.608 370.345C419.737 373.674 416.299 375.988 414.789 379.494C413.983 381.367 413.778 383.475 412.814 385.271C411.662 387.417 410.146 388.993 409.129 391.137Z" fill="white" stroke="#222221" stroke-width="0.5" stroke-miterlimit="10"/>
<path d="M465.445 275.487C450.544 268.186 438.286 256.457 425.975 245.28C423.804 243.308 420.762 240.406 417.357 237.711C409.499 231.489 399.711 226.367 394.227 236.32C392.269 239.875 392.392 244.685 394.33 248.24C398.757 256.366 407.277 263.211 413.828 269.605C425.721 281.216 438.897 293.326 454.701 299.102C457.583 290.92 461.075 282.973 465.445 275.487Z" fill="#DEA600" stroke="black" stroke-width="0.5" stroke-miterlimit="10"/>
<path d="M463.576 270.288C461.487 271.32 459.624 272.978 458.088 274.714C456.89 276.069 455.886 277.584 455.011 279.164C449.26 289.542 448.388 300.317 441.979 310.419C433.821 323.278 425.67 336.141 417.515 349.003C414.088 354.407 410.574 360.049 409.805 366.402C409.038 372.756 411.877 380.031 417.874 382.264C422.521 383.994 427.888 382.283 431.752 379.176C435.616 376.067 438.278 371.748 440.864 367.517C448.927 354.326 458.386 341.446 465.957 328.182C472.273 317.117 478.153 300.183 479.018 287.412" fill="#DEA600"/>
<path d="M463.576 270.288C461.487 271.32 459.624 272.978 458.088 274.714C456.89 276.069 455.886 277.584 455.011 279.164C449.26 289.542 448.388 300.317 441.979 310.419C433.821 323.278 425.67 336.141 417.515 349.003C414.088 354.407 410.574 360.049 409.805 366.402C409.038 372.756 411.877 380.031 417.874 382.264C422.521 383.994 427.888 382.283 431.752 379.176C435.616 376.067 438.278 371.748 440.864 367.517C448.927 354.326 458.386 341.446 465.957 328.182C472.273 317.117 478.153 300.183 479.018 287.412" stroke="black" stroke-width="0.5" stroke-miterlimit="10"/>
<path d="M477.158 228.275C473.454 226.987 469.438 226.433 466.383 226.524C465.44 226.552 464.341 226.563 463.752 225.825C463.526 225.541 463.415 225.181 463.2 224.886C461.994 223.232 459.447 224.633 458.707 226.029C458.017 227.328 457.85 229.84 458.047 231.268C458.555 234.968 462.198 236.327 465.324 237.362C467.421 238.056 469.892 240.051 470.802 242.078C473.32 247.693 473.808 253.174 479.931 256.512C480.604 256.879 481.4 257.2 482.117 256.929C482.725 256.701 483.108 256.107 483.424 255.54C486.565 249.907 489.558 241.707 486.608 235.43C485.02 232.055 481.283 229.71 477.158 228.275Z" fill="#161111"/>
<path d="M470.789 243.483C471.625 242.464 473.223 242.128 474.438 242.572C475.273 242.877 475.972 243.504 476.434 244.263C477.49 245.993 477.204 248.452 475.724 249.836C474.244 251.221 471.708 251.317 470.177 249.99" fill="white"/>
<path d="M470.789 243.483C471.625 242.464 473.223 242.128 474.438 242.572C475.273 242.877 475.972 243.504 476.434 244.263C477.49 245.993 477.204 248.452 475.724 249.836C474.244 251.221 471.708 251.317 470.177 249.99" stroke="black" stroke-width="0.5" stroke-miterlimit="10"/>
<path d="M458.4 424.068C466.433 409.401 471.399 397.825 477.65 382.316" stroke="#131834" stroke-width="0.5" stroke-miterlimit="10"/>
<mask id="mask19_2234_3719" style="mask-type:luminance" maskUnits="userSpaceOnUse" x="457" y="229" width="28" height="56">
<path d="M484.894 246.907C485.221 243.371 484.089 239.805 481.937 236.98C480.171 234.662 478.532 231.374 475.547 230.414C472.629 229.474 469.374 229.06 466.323 229.407C463.084 229.777 461.815 230.375 460.443 233.431C457.82 239.271 457.693 246.164 458.278 252.436C458.408 253.823 458.641 255.262 459.445 256.4C460.201 257.472 461.626 258.424 462.873 258.104C462.999 258.072 463.129 258.137 463.162 258.263C464.577 263.647 463.639 268.764 462.697 274.153C462.19 277.057 462.18 280.376 464.162 282.558C465.567 284.102 467.741 284.76 469.828 284.77C472.867 284.783 475.715 283.541 478.678 283.124C481.479 282.73 481.313 280.939 481.383 278.66C481.468 275.849 481.396 273.041 481.346 270.23C481.248 264.802 481.234 259.263 482.875 254.031C483.484 252.091 484.313 250.212 484.707 248.216C484.79 247.78 484.854 247.344 484.894 246.907Z" fill="white"/>
</mask>
<g mask="url(#mask19_2234_3719)">
<path d="M460.917 258.05C464.193 257.347 467.145 256.977 469.857 255.398C467.713 258.419 464.689 260.809 461.255 262.197" fill="#161111"/>
</g>
<path d="M530.334 557.17H52.5857" stroke="black" stroke-width="0.5" stroke-miterlimit="10"/>
<mask id="mask20_2234_3719" style="mask-type:luminance" maskUnits="userSpaceOnUse" x="397" y="364" width="26" height="37">
<path d="M409.129 391.137C408.994 391.423 408.867 391.72 408.751 392.028C407.792 394.589 406.83 397.309 404.806 399.245C403.971 400.043 402.87 400.693 401.724 400.554C400.593 400.417 399.684 399.542 399.061 398.587C395.578 393.245 399.368 386.933 402.232 382.312C405.417 377.173 409.419 372.422 414.463 369.022C416.564 367.607 418.817 366.216 421.116 365.146C421.358 365.034 421.628 364.923 421.882 365.004C422.174 365.098 422.33 365.412 422.42 365.705C422.896 367.248 422.398 368.938 421.608 370.345C419.737 373.674 416.299 375.988 414.789 379.494C413.983 381.367 413.778 383.475 412.814 385.271C411.662 387.417 410.146 388.993 409.129 391.137Z" fill="white"/>
</mask>
<g mask="url(#mask20_2234_3719)">
<path d="M407.196 390.503C404.668 394.45 403.219 399.081 403.045 403.766" stroke="#222221" stroke-width="0.5" stroke-miterlimit="10"/>
</g>
<mask id="mask21_2234_3719" style="mask-type:luminance" maskUnits="userSpaceOnUse" x="397" y="364" width="26" height="37">
<path d="M409.129 391.137C408.994 391.423 408.867 391.72 408.751 392.028C407.792 394.589 406.83 397.309 404.806 399.245C403.971 400.043 402.87 400.693 401.724 400.554C400.593 400.417 399.684 399.542 399.061 398.587C395.578 393.245 399.368 386.933 402.232 382.312C405.417 377.173 409.419 372.422 414.463 369.022C416.564 367.607 418.817 366.216 421.116 365.146C421.358 365.034 421.628 364.923 421.882 365.004C422.174 365.098 422.33 365.412 422.42 365.705C422.896 367.248 422.398 368.938 421.608 370.345C419.737 373.674 416.299 375.988 414.789 379.494C413.983 381.367 413.778 383.475 412.814 385.271C411.662 387.417 410.146 388.993 409.129 391.137Z" fill="white"/>
</mask>
<g mask="url(#mask21_2234_3719)">
<path d="M405.207 388.409C402.391 393.102 400.816 398.531 400.683 404.003" stroke="#222221" stroke-width="0.5" stroke-miterlimit="10"/>
</g>
<mask id="mask22_2234_3719" style="mask-type:luminance" maskUnits="userSpaceOnUse" x="397" y="364" width="26" height="37">
<path d="M409.129 391.137C408.994 391.423 408.867 391.72 408.751 392.028C407.792 394.589 406.83 397.309 404.806 399.245C403.971 400.043 402.87 400.693 401.724 400.554C400.593 400.417 399.684 399.542 399.061 398.587C395.578 393.245 399.368 386.933 402.232 382.312C405.417 377.173 409.419 372.422 414.463 369.022C416.564 367.607 418.817 366.216 421.116 365.146C421.358 365.034 421.628 364.923 421.882 365.004C422.174 365.098 422.33 365.412 422.42 365.705C422.896 367.248 422.398 368.938 421.608 370.345C419.737 373.674 416.299 375.988 414.789 379.494C413.983 381.367 413.778 383.475 412.814 385.271C411.662 387.417 410.146 388.993 409.129 391.137Z" fill="white"/>
</mask>
<g mask="url(#mask22_2234_3719)">
<path d="M402.87 387.04C399.866 391.797 398.275 397.433 398.348 403.058" stroke="#222221" stroke-width="0.5" stroke-miterlimit="10"/>
</g>
</svg>
