<svg width="40" height="40" viewBox="0 0 40 40" fill="none" xmlns="http://www.w3.org/2000/svg">
<path d="M20 0C8.95422 0 0 8.95422 0 20C0 31.0458 8.95422 40 20 40C31.0458 40 40 31.0458 40 20C40 8.95422 31.0458 0 20 0Z" fill="#40B3E0"/>
<path d="M29.7316 11.505L26.1595 29.5155C26.1595 29.5155 25.6599 30.7646 24.286 30.165L16.0426 23.845L13.0451 22.3963L7.99915 20.6975C7.99915 20.6975 7.22477 20.4228 7.14977 19.8233C7.07493 19.2238 8.02415 18.8991 8.02415 18.8991L28.0829 11.0303C28.0829 11.0303 29.7316 10.306 29.7316 11.505Z" fill="white"/>
<path d="M15.409 29.3132C15.409 29.3132 15.1684 29.2907 14.8686 28.3413C14.5689 27.3921 13.0451 22.3962 13.0451 22.3962L25.1603 14.7024C25.1603 14.7024 25.8598 14.2777 25.8348 14.7024C25.8348 14.7024 25.9597 14.7773 25.585 15.127C25.2103 15.4768 16.0676 23.6951 16.0676 23.6951" fill="#D2E5F1"/>
<path d="M19.2034 26.268L15.9427 29.2409C15.9427 29.2409 15.6879 29.4343 15.409 29.313L16.0334 23.791" fill="#B5CFE4"/>
</svg>
